<?xml version="1.0" encoding="UTF-8" standalone="no"?>
<svg
   width="64"
   height="64"
   viewBox="0 0 64 64"
   version="1.1"
   id="svg554"
   sodipodi:docname="package_games.svg"
   inkscape:version="1.1.2 (0a00cf5339, 2022-02-04)"
   xmlns:inkscape="http://www.inkscape.org/namespaces/inkscape"
   xmlns:sodipodi="http://sodipodi.sourceforge.net/DTD/sodipodi-0.dtd"
   xmlns:xlink="http://www.w3.org/1999/xlink"
   xmlns="http://www.w3.org/2000/svg"
   xmlns:svg="http://www.w3.org/2000/svg">
  <sodipodi:namedview
     id="namedview556"
     pagecolor="#ffffff"
     bordercolor="#999999"
     borderopacity="1"
     inkscape:showpageshadow="0"
     inkscape:pageopacity="0"
     inkscape:pagecheckerboard="0"
     inkscape:deskcolor="#d1d1d1"
     showgrid="false"
     inkscape:zoom="11.313708"
     inkscape:cx="34.07371"
     inkscape:cy="33.101438"
     inkscape:window-width="1920"
     inkscape:window-height="1030"
     inkscape:window-x="0"
     inkscape:window-y="24"
     inkscape:window-maximized="1"
     inkscape:current-layer="g17699"
     inkscape:pageshadow="2"
     showguides="true"
     inkscape:guide-bbox="true">
    <sodipodi:guide
       position="181.88753,83.100362"
       orientation="0,-1"
       id="guide3812" />
    <sodipodi:guide
       position="167.56226,-80.33796"
       orientation="0,-1"
       id="guide3814" />
  </sodipodi:namedview>
  <defs
     id="defs539">
    <linearGradient
       inkscape:collect="always"
       id="linearGradient2979">
      <stop
         style="stop-color:#101d32;stop-opacity:1;"
         offset="0"
         id="stop2975" />
      <stop
         style="stop-color:#101d32;stop-opacity:0;"
         offset="1"
         id="stop2977" />
    </linearGradient>
    <linearGradient
       inkscape:collect="always"
       id="linearGradient14106">
      <stop
         style="stop-color:#3e83d1;stop-opacity:1;"
         offset="0"
         id="stop14102" />
      <stop
         style="stop-color:#b1e3f0;stop-opacity:1"
         offset="1"
         id="stop14104" />
    </linearGradient>
    <linearGradient
       inkscape:collect="always"
       id="linearGradient9827">
      <stop
         style="stop-color:#091a2d;stop-opacity:1;"
         offset="0"
         id="stop9823" />
      <stop
         style="stop-color:#091a2d;stop-opacity:0;"
         offset="1"
         id="stop9825" />
    </linearGradient>
    <linearGradient
       inkscape:collect="always"
       id="linearGradient2002">
      <stop
         style="stop-color:#e4513d;stop-opacity:1"
         offset="0"
         id="stop1998" />
      <stop
         style="stop-color:#f38567;stop-opacity:1"
         offset="1"
         id="stop2000" />
    </linearGradient>
    <linearGradient
       inkscape:collect="always"
       id="linearGradient1657">
      <stop
         style="stop-color:#90dbec;stop-opacity:1;"
         offset="0"
         id="stop1653" />
      <stop
         style="stop-color:#0959c2;stop-opacity:1"
         offset="1"
         id="stop1655" />
    </linearGradient>
    <linearGradient
       inkscape:collect="always"
       id="linearGradient9092">
      <stop
         style="stop-color:#6b1a0e;stop-opacity:1"
         offset="0"
         id="stop9088" />
      <stop
         style="stop-color:#0e1013;stop-opacity:1"
         offset="1"
         id="stop9090" />
    </linearGradient>
    <linearGradient
       id="linear0"
       gradientUnits="userSpaceOnUse"
       x1="6.5"
       y1="7"
       x2="6.5"
       y2="10"
       gradientTransform="scale(2)">
      <stop
         offset="0"
         style="stop-color:rgb(0%,0%,0%);stop-opacity:0;"
         id="stop505" />
      <stop
         offset="1"
         style="stop-color:rgb(0%,0%,0%);stop-opacity:0.2;"
         id="stop507" />
    </linearGradient>
    <linearGradient
       id="linear1"
       gradientUnits="userSpaceOnUse"
       x1="3.6224"
       y1="5.4027"
       x2="29.5973"
       y2="31.3776"
       gradientTransform="scale(2)">
      <stop
         offset="0"
         style="stop-color:rgb(100%,84.313725%,38.039216%);stop-opacity:1;"
         id="stop510" />
      <stop
         offset="1"
         style="stop-color:rgb(96.470588%,70.980392%,1.568627%);stop-opacity:1;"
         id="stop512" />
    </linearGradient>
    <linearGradient
       id="linear2"
       gradientUnits="userSpaceOnUse"
       x1="-13.9403"
       y1="28.2221"
       x2="-9.1444"
       y2="25.4532"
       gradientTransform="matrix(7.5592,0,0,-7.5592,118.4344,254.4538)">
      <stop
         offset="0"
         style="stop-color:rgb(7.843137%,57.647059%,87.45098%);stop-opacity:1;"
         id="stop515" />
      <stop
         offset="1"
         style="stop-color:rgb(0%,38.431373%,70.588235%);stop-opacity:1;"
         id="stop517" />
    </linearGradient>
    <filter
       id="alpha"
       filterUnits="objectBoundingBox"
       x="0"
       y="0"
       width="1"
       height="1">
      <feColorMatrix
         type="matrix"
         in="SourceGraphic"
         values="0 0 0 0 1 0 0 0 0 1 0 0 0 0 1 0 0 0 1 0"
         id="feColorMatrix520" />
    </filter>
    <mask
       id="mask0">
      <g
         filter="url(#alpha)"
         id="g525">
        <rect
           x="0"
           y="0"
           width="64"
           height="64"
           style="fill:rgb(0%,0%,0%);fill-opacity:0.301961;stroke:none;"
           id="rect523" />
      </g>
    </mask>
    <linearGradient
       id="linear3"
       gradientUnits="userSpaceOnUse"
       x1="8.1786"
       y1="0.8465"
       x2="23.666"
       y2="16.334"
       gradientTransform="matrix(2,0,0,2,0,0)">
      <stop
         offset="0"
         style="stop-color:rgb(100%,100%,100%);stop-opacity:1;"
         id="stop528" />
      <stop
         offset="1"
         style="stop-color:rgb(96.470588%,70.980392%,1.568627%);stop-opacity:0;"
         id="stop530" />
    </linearGradient>
    <clipPath
       id="clip1">
      <rect
         x="0"
         y="0"
         width="64"
         height="64"
         id="rect533" />
    </clipPath>
    <g
       id="surface5"
       clip-path="url(#clip1)">
      <path
         style=" stroke:none;fill-rule:nonzero;fill:url(#linear3);"
         d="M 62 12 L 27.035156 12 C 26.371094 12 25.738281 12.261719 25.269531 12.730469 L 22 16 L 3.5 16 C 1.566406 16 0 17.566406 0 19.5 L 0 21.5 C 0 19.566406 1.566406 18 3.5 18 L 22 18 L 25.261719 14.738281 C 25.734375 14.265625 26.375 14 27.042969 14 L 62 14 C 63.105469 14 64 14.894531 64 16 L 64 14 C 64 12.894531 63.105469 12 62 12 Z M 62 12 "
         id="path536" />
    </g>
    <linearGradient
       xlink:href="#linearGradient3600-9-51"
       id="linearGradient1512"
       gradientUnits="userSpaceOnUse"
       gradientTransform="matrix(1.3806477,0,0,1.327964,-70.267382,-1.7275823)"
       x1="74.838791"
       y1="4.535933"
       x2="74.838791"
       y2="49.779099" />
    <linearGradient
       id="linearGradient3600-9-51">
      <stop
         offset="0"
         style="stop-color:#f4f4f4;stop-opacity:1"
         id="stop3602-0-0" />
      <stop
         offset="1"
         style="stop-color:#dbdbdb;stop-opacity:1"
         id="stop3604-9-04" />
    </linearGradient>
    <linearGradient
       xlink:href="#linearGradient3104-6"
       id="linearGradient3170"
       gradientUnits="userSpaceOnUse"
       gradientTransform="matrix(0.80749686,0,0,0.89471714,10.740979,-0.4431076)"
       x1="12.879265"
       y1="66.950981"
       x2="12.879265"
       y2="4.7802162" />
    <linearGradient
       id="linearGradient3104-6">
      <stop
         offset="0"
         style="stop-color:#000000;stop-opacity:0.31782946"
         id="stop3106-3" />
      <stop
         offset="1"
         style="stop-color:#000000;stop-opacity:0.24031007"
         id="stop3108-9" />
    </linearGradient>
    <linearGradient
       xlink:href="#linearGradient1041"
       id="linearGradient15429"
       gradientUnits="userSpaceOnUse"
       gradientTransform="matrix(1.4324324,0,0,1.1081081,-2.4727286,11.023243)"
       x1="23.99999"
       y1="-1.2218014"
       x2="23.99999"
       y2="42.091705" />
    <linearGradient
       id="linearGradient1041">
      <stop
         id="stop1033"
         style="stop-color:#ffffff;stop-opacity:1"
         offset="0" />
      <stop
         id="stop1035"
         style="stop-color:#ffffff;stop-opacity:0.23529412"
         offset="0.0832339" />
      <stop
         id="stop1037"
         style="stop-color:#ffffff;stop-opacity:0.15686275"
         offset="0.94268352" />
      <stop
         id="stop1039"
         style="stop-color:#ffffff;stop-opacity:0.39215687"
         offset="1" />
    </linearGradient>
    <linearGradient
       xlink:href="#linearGradient1077"
       id="linearGradient15429-3"
       gradientUnits="userSpaceOnUse"
       gradientTransform="matrix(1.4324324,0,0,1.1081081,-2.4727286,11.023243)"
       x1="11.575833"
       y1="-4.7840924"
       x2="11.575833"
       y2="42.193623" />
    <linearGradient
       id="linearGradient1077">
      <stop
         id="stop1069"
         style="stop-color:#ffffff;stop-opacity:1"
         offset="0" />
      <stop
         id="stop1071"
         style="stop-color:#ffffff;stop-opacity:0.23529412"
         offset="0.09530682" />
      <stop
         id="stop1073"
         style="stop-color:#ffffff;stop-opacity:0.15686275"
         offset="0.94268352" />
      <stop
         id="stop1075"
         style="stop-color:#ffffff;stop-opacity:0.39215687"
         offset="1" />
    </linearGradient>
    <radialGradient
       cx="4.9929786"
       cy="43.5"
       r="2.5"
       fx="4.9929786"
       fy="43.5"
       id="radialGradient3337-2-2"
       xlink:href="#linearGradient3688-166-749-4-0-3-8"
       gradientUnits="userSpaceOnUse"
       gradientTransform="matrix(2.4045407,0,0,0.99999998,41.985755,15.500001)" />
    <linearGradient
       id="linearGradient3688-166-749-4-0-3-8">
      <stop
         offset="0"
         style="stop-color:#181818;stop-opacity:1"
         id="stop2883-4-0-1-8" />
      <stop
         offset="1"
         style="stop-color:#181818;stop-opacity:0"
         id="stop2885-9-2-9-6" />
    </linearGradient>
    <radialGradient
       cx="4.9929786"
       cy="43.5"
       r="2.5"
       fx="4.9929786"
       fy="43.5"
       id="radialGradient3339-1-4"
       xlink:href="#linearGradient3688-166-749-4-0-3-8"
       gradientUnits="userSpaceOnUse"
       gradientTransform="matrix(2.4045407,0,0,0.99999998,-22.014244,-102.5)" />
    <linearGradient
       x1="25.058096"
       y1="47.027729"
       x2="25.058096"
       y2="39.999443"
       id="linearGradient6394"
       xlink:href="#linearGradient3702-501-757-8-4-1-1"
       gradientUnits="userSpaceOnUse"
       gradientTransform="matrix(1.5714286,0,0,0.7142857,-5.7142853,27.928572)" />
    <linearGradient
       id="linearGradient3702-501-757-8-4-1-1">
      <stop
         offset="0"
         style="stop-color:#181818;stop-opacity:0"
         id="stop2895-8-9-9-1" />
      <stop
         offset="0.5"
         style="stop-color:#181818;stop-opacity:1"
         id="stop2897-7-8-7-7" />
      <stop
         offset="1"
         style="stop-color:#181818;stop-opacity:0"
         id="stop2899-4-5-1-5" />
    </linearGradient>
    <linearGradient
       xlink:href="#linearGradient909"
       id="linearGradient15431"
       gradientUnits="userSpaceOnUse"
       gradientTransform="matrix(1,0,0,0.81818188,-0.09435356,10.507243)"
       x1="31.781376"
       y1="-11.234498"
       x2="31.781376"
       y2="67.800774" />
    <linearGradient
       id="linearGradient909">
      <stop
         id="stop901"
         style="stop-color:#64baff;stop-opacity:1"
         offset="0" />
      <stop
         id="stop907"
         style="stop-color:#3689e6;stop-opacity:1"
         offset="1" />
    </linearGradient>
    <linearGradient
       xlink:href="#linearGradient4270-4"
       id="linearGradient15433"
       gradientUnits="userSpaceOnUse"
       gradientTransform="matrix(1.4324324,0,0,1.1621622,-2.4727286,8.7259434)"
       x1="23.99999"
       y1="5.9093657"
       x2="23.99999"
       y2="42.091705" />
    <linearGradient
       id="linearGradient4270-4">
      <stop
         id="stop4272-9"
         style="stop-color:#ffffff;stop-opacity:1"
         offset="0" />
      <stop
         id="stop4274-0"
         style="stop-color:#ffffff;stop-opacity:0.23529412"
         offset="0.09665164" />
      <stop
         id="stop4276-9"
         style="stop-color:#ffffff;stop-opacity:0.15686275"
         offset="0.94268352" />
      <stop
         id="stop4278-1"
         style="stop-color:#ffffff;stop-opacity:0.39215687"
         offset="1" />
    </linearGradient>
    <radialGradient
       cx="7.1183534"
       cy="9.9571075"
       r="12.671875"
       fx="7.1183534"
       fy="9.9571075"
       id="radialGradient3988-3"
       xlink:href="#linearGradient2867-449-88-871-390-598-476-591-434-148-57-177-8-3-3-6-4-8-8-8-5-7"
       gradientUnits="userSpaceOnUse"
       gradientTransform="matrix(0,12.890089,-15.824912,0,334.01999,-110.50411)" />
    <linearGradient
       id="linearGradient2867-449-88-871-390-598-476-591-434-148-57-177-8-3-3-6-4-8-8-8-5-7">
      <stop
         id="stop3750-1-0-7-6-6-1-3-9-3-9"
         style="stop-color:#505050;stop-opacity:1"
         offset="0" />
      <stop
         id="stop3752-3-7-4-0-32-8-923-0-7-0"
         style="stop-color:#2b2b2b;stop-opacity:1"
         offset="0.26238" />
      <stop
         id="stop3754-1-8-5-2-7-6-7-1-9-1"
         style="stop-color:#0a0a0a;stop-opacity:1"
         offset="0.704952" />
      <stop
         id="stop3756-1-6-2-6-6-1-96-6-0-1"
         style="stop-color:#000000;stop-opacity:1"
         offset="1" />
    </linearGradient>
    <radialGradient
       inkscape:collect="always"
       xlink:href="#linearGradient3688-166-749-4-0-3-8"
       id="radialGradient17668"
       gradientUnits="userSpaceOnUse"
       gradientTransform="matrix(2.4045407,0,0,0.99999998,41.985755,15.500001)"
       cx="4.9929786"
       cy="43.5"
       fx="4.9929786"
       fy="43.5"
       r="2.5" />
    <radialGradient
       inkscape:collect="always"
       xlink:href="#linearGradient3688-166-749-4-0-3-8"
       id="radialGradient17670"
       gradientUnits="userSpaceOnUse"
       gradientTransform="matrix(2.4045407,0,0,0.99999998,-22.014244,-102.5)"
       cx="4.9929786"
       cy="43.5"
       fx="4.9929786"
       fy="43.5"
       r="2.5" />
    <linearGradient
       inkscape:collect="always"
       xlink:href="#linearGradient3702-501-757-8-4-1-1"
       id="linearGradient17672"
       gradientUnits="userSpaceOnUse"
       gradientTransform="matrix(1.5714286,0,0,0.7142857,-5.7142853,27.928572)"
       x1="25.058096"
       y1="47.027729"
       x2="25.058096"
       y2="39.999443" />
    <linearGradient
       inkscape:collect="always"
       xlink:href="#linearGradient3406"
       id="linearGradient3408"
       x1="1444.3625"
       y1="481.51526"
       x2="1444.3625"
       y2="587.58142"
       gradientUnits="userSpaceOnUse"
       gradientTransform="matrix(0.48077083,0,0,0.48077083,-599.17218,-222.99697)" />
    <linearGradient
       inkscape:collect="always"
       id="linearGradient3406">
      <stop
         style="stop-color:#0d0d0d;stop-opacity:1"
         offset="0"
         id="stop3402" />
      <stop
         style="stop-color:#1e365d;stop-opacity:1"
         offset="1"
         id="stop3404" />
    </linearGradient>
    <linearGradient
       inkscape:collect="always"
       xlink:href="#linearGradient8073"
       id="linearGradient8075"
       x1="1423.5142"
       y1="459.7652"
       x2="1423.5142"
       y2="558.79303"
       gradientUnits="userSpaceOnUse"
       gradientTransform="matrix(0.48077083,0,0,0.48077083,-599.17218,-222.99697)" />
    <linearGradient
       inkscape:collect="always"
       id="linearGradient8073">
      <stop
         style="stop-color:#ffffff;stop-opacity:0.29193845"
         offset="0"
         id="stop8069" />
      <stop
         style="stop-color:#ffffff;stop-opacity:0.13738285"
         offset="1"
         id="stop8071" />
    </linearGradient>
    <linearGradient
       inkscape:collect="always"
       xlink:href="#linearGradient9092"
       id="linearGradient9094"
       x1="95.352432"
       y1="60.654617"
       x2="95.352432"
       y2="7.3445344"
       gradientUnits="userSpaceOnUse" />
    <linearGradient
       inkscape:collect="always"
       xlink:href="#linearGradient1657"
       id="linearGradient1659"
       x1="5.7363281"
       y1="3.163017"
       x2="5.7363281"
       y2="69.69017"
       gradientUnits="userSpaceOnUse" />
    <linearGradient
       inkscape:collect="always"
       xlink:href="#linearGradient2002"
       id="linearGradient2004"
       x1="47.135551"
       y1="59.567978"
       x2="47.135551"
       y2="7.3973694"
       gradientUnits="userSpaceOnUse" />
    <linearGradient
       inkscape:collect="always"
       xlink:href="#linearGradient9827"
       id="linearGradient9829"
       x1="66.77253"
       y1="60.750217"
       x2="103.0321"
       y2="24.490646"
       gradientUnits="userSpaceOnUse" />
    <linearGradient
       inkscape:collect="always"
       xlink:href="#linearGradient14106"
       id="linearGradient14108"
       x1="84.462631"
       y1="58.768673"
       x2="84.462631"
       y2="15.749831"
       gradientUnits="userSpaceOnUse" />
    <radialGradient
       inkscape:collect="always"
       xlink:href="#linearGradient2979"
       id="radialGradient2981"
       cx="94.858597"
       cy="60.201176"
       fx="94.858597"
       fy="60.201176"
       r="27.115184"
       gradientTransform="matrix(0.77112783,0,0,0.99570613,21.710493,0.1448097)"
       gradientUnits="userSpaceOnUse" />
  </defs>
  <g
     id="g17699"
     transform="translate(-63.089064,-1.3659789)">
    <g
       id="g17666"
       transform="matrix(1.0947929,0,0,1.0947929,60.129515,-4.6429582)"
       style="opacity:0.648726">
      <rect
         style="opacity:0.6;fill:url(#radialGradient17668);fill-opacity:1;stroke:none;stroke-width:1.06199"
         id="rect17660"
         y="56.5"
         x="54"
         height="5"
         width="6" />
      <rect
         style="opacity:0.6;fill:url(#radialGradient17670);fill-opacity:1;stroke:none;stroke-width:1.06199"
         id="rect17662"
         transform="scale(-1)"
         y="-61.5"
         x="-10"
         height="5"
         width="6" />
      <rect
         style="opacity:0.6;fill:url(#linearGradient17672);fill-opacity:1;stroke:none;stroke-width:1.06199"
         id="rect17664"
         y="56.5"
         x="10"
         height="5.0000005"
         width="44" />
    </g>
    <path
       style="color:#000000;opacity:0.935642;fill:url(#linearGradient9094);fill-opacity:1;stroke-width:0.480771;stroke-linecap:round;-inkscape-stroke:none"
       d="m 74.832906,6.7260339 c -3.908859,0 -7.089495,3.1806503 -7.089495,7.0894901 V 53.63405 c 0,3.90884 3.180636,7.089495 7.089495,7.089495 h 40.051374 c 3.90886,0 7.0895,-3.180655 7.0895,-7.089495 V 13.815524 c 0,-3.9088398 -3.18064,-7.0894901 -7.0895,-7.0894901 z m 0,2.1634692 h 40.051374 c 2.7477,0 4.92603,2.1783189 4.92603,4.9260209 V 53.63405 c 0,2.747702 -2.17833,4.926026 -4.92603,4.926026 H 74.832906 c -2.747702,0 -4.926026,-2.178324 -4.926026,-4.926026 V 13.815524 c 0,-2.747702 2.178324,-4.9260209 4.926026,-4.9260209 z"
       id="path1793" />
    <path
       style="color:#000000;fill:url(#linearGradient3408);fill-opacity:1;stroke-width:2.16346;stroke-linecap:round;-inkscape-stroke:none"
       d="m 74.832618,7.808119 h 40.051712 c 3.32828,0 6.00772,2.679442 6.00772,6.007712 v 39.818128 c 0,3.328276 -2.67944,6.007717 -6.00772,6.007717 H 74.832618 c -3.328281,0 -6.007713,-2.679441 -6.007713,-6.007717 V 13.815831 c 0,-3.32827 2.679432,-6.007712 6.007713,-6.007712 z"
       id="path1791" />
    <path
       id="path1855"
       style="color:#000000;fill:url(#linearGradient2004);fill-opacity:1;stroke-width:2.16346;stroke-linecap:round;-inkscape-stroke:none"
       d="M 40.447266 6.4414062 L 40.447266 58.275391 L 51.794922 58.275391 C 55.123202 58.275391 57.802734 55.595854 57.802734 52.267578 L 57.802734 12.449219 C 57.802734 9.1209488 55.123202 6.4414062 51.794922 6.4414062 L 40.447266 6.4414062 z "
       transform="translate(63.089064,1.3659789)" />
    <path
       style="color:#000000;opacity:0.60817972;fill:url(#linearGradient9829);fill-opacity:1;stroke-width:0.480771;stroke-linecap:round;-inkscape-stroke:none"
       d="m 74.832906,6.7260339 c -3.908859,0 -7.089495,3.1806503 -7.089495,7.0894901 V 53.63405 c 0,3.90884 3.180636,7.089495 7.089495,7.089495 h 40.051374 c 3.90886,0 7.0895,-3.180655 7.0895,-7.089495 V 13.815524 c 0,-3.9088398 -3.18064,-7.0894901 -7.0895,-7.0894901 z m 0,2.1634692 h 40.051374 c 2.7477,0 4.92603,2.1783189 4.92603,4.9260209 V 53.63405 c 0,2.747702 -2.17833,4.926026 -4.92603,4.926026 H 74.832906 c -2.747702,0 -4.926026,-2.178324 -4.926026,-4.926026 V 13.815524 c 0,-2.747702 2.178324,-4.9260209 4.926026,-4.9260209 z"
       id="path8165" />
    <path
       id="path1529"
       style="color:#000000;fill:url(#linearGradient1659);fill-opacity:1;stroke-width:2.16346;stroke-linecap:round;-inkscape-stroke:none"
       d="M 11.744141 6.4414062 C 8.4158596 6.4414062 5.7363281 9.1209488 5.7363281 12.449219 L 5.7363281 52.267578 C 5.7363281 55.595854 8.4158596 58.275391 11.744141 58.275391 L 23.091797 58.275391 L 23.091797 6.4414062 L 11.744141 6.4414062 z "
       transform="translate(63.089064,1.3659789)" />
    <path
       style="color:#000000;opacity:1;fill:url(#radialGradient2981);fill-opacity:1;stroke-width:0.480771;stroke-linecap:round;-inkscape-stroke:none"
       d="m 74.832906,6.7260339 c -3.908859,0 -7.089495,3.1806503 -7.089495,7.0894901 V 53.63405 c 0,3.90884 3.180636,7.089495 7.089495,7.089495 h 40.051374 c 3.90886,0 7.0895,-3.180655 7.0895,-7.089495 V 13.815524 c 0,-3.9088398 -3.18064,-7.0894901 -7.0895,-7.0894901 z m 0,2.1634692 h 40.051374 c 2.7477,0 4.92603,2.1783189 4.92603,4.9260209 V 53.63405 c 0,2.747702 -2.17833,4.926026 -4.92603,4.926026 H 74.832906 c -2.747702,0 -4.926026,-2.178324 -4.926026,-4.926026 V 13.815524 c 0,-2.747702 2.178324,-4.9260209 4.926026,-4.9260209 z"
       id="path969" />
    <path
       id="path1877"
       style="color:#000000;opacity:0.81312528;fill:url(#linearGradient8075);fill-opacity:1;stroke-width:2.16346;stroke-linecap:round;-inkscape-stroke:none"
       d="m 74.832906,7.8077688 c -3.32828,0 -6.007761,2.6794842 -6.007761,6.0077552 V 53.63405 c 0,3.328276 2.679481,6.007761 6.007761,6.007761 h 40.051374 c 3.32829,0 6.00777,-2.679485 6.00777,-6.007761 V 13.815524 c 0,-3.328271 -2.67948,-6.0077552 -6.00777,-6.0077552 z m 0,1.0817343 h 40.051374 c 2.7477,0 4.92603,2.1783189 4.92603,4.9260209 V 53.63405 c 0,2.747702 -2.17833,4.926026 -4.92603,4.926026 H 74.832906 c -2.747702,0 -4.926026,-2.17832 -4.926026,-4.926026 V 13.815524 c 0,-2.747702 2.178324,-4.9260209 4.926026,-4.9260209 z" />
    <path
       style="fill:#041e26;fill-opacity:1;stroke:none;stroke-width:0.500319;stroke-miterlimit:4;stroke-dasharray:none;stroke-opacity:1"
       d="m 76.452849,14.891312 v 1.667763 h 5.003189 v -1.667763 z m 0,6.670952 c -2.771766,0 -5.003189,2.231406 -5.003189,5.003189 0,2.771784 2.231423,5.003189 5.003189,5.003189 2.771767,0 5.003189,-2.231405 5.003189,-5.003189 0,-2.771783 -2.231422,-5.003189 -5.003189,-5.003189 z m 0,15.009568 c -0.923922,0 -1.66773,0.74379 -1.66773,1.667713 0,0.923922 0.743808,1.667712 1.66773,1.667712 0.923922,0 1.66773,-0.74379 1.66773,-1.667712 0,-0.923923 -0.743808,-1.667713 -1.66773,-1.667713 z m -3.335459,3.335425 c -0.923922,0 -1.66773,0.743842 -1.66773,1.667763 0,0.923923 0.743808,1.667714 1.66773,1.667714 0.923922,0 1.667729,-0.743791 1.667729,-1.667714 0,-0.923921 -0.743807,-1.667763 -1.667729,-1.667763 z m 6.670919,0 c -0.923923,0 -1.66773,0.743842 -1.66773,1.667763 0,0.923923 0.743807,1.667714 1.66773,1.667714 0.923922,0 1.667729,-0.743791 1.667729,-1.667714 0,-0.923921 -0.743807,-1.667763 -1.667729,-1.667763 z m -3.33546,3.335477 c -0.923922,0 -1.66773,0.743774 -1.66773,1.667713 0,0.923922 0.743808,1.667763 1.66773,1.667763 0.923922,0 1.66773,-0.743841 1.66773,-1.667763 0,-0.923939 -0.743808,-1.667713 -1.66773,-1.667713 z m 3.33546,6.670902 v 3.335476 h 3.335459 v -3.335476 z"
       id="rect4577"
       inkscape:connector-curvature="0"
       sodipodi:nodetypes="cccccsssssssssssssssssssssssssccccc" />
    <path
       style="fill:#0b5065;fill-opacity:1;stroke:none;stroke-width:0.667092;stroke-miterlimit:4;stroke-dasharray:none;stroke-opacity:1"
       d="m 76.452849,23.229977 c -1.847845,0 -3.335459,1.487632 -3.335459,3.335476 0,1.847795 1.487614,3.335426 3.335459,3.335426 1.847845,0 3.33546,-1.487631 3.33546,-3.335426 0,-1.847844 -1.487615,-3.335476 -3.33546,-3.335476 z"
       id="path4872"
       inkscape:connector-curvature="0"
       sodipodi:nodetypes="sssss" />
    <path
       style="fill:#260b0b;fill-opacity:1;stroke:none;stroke-width:0.500319;stroke-miterlimit:4;stroke-dasharray:none;stroke-opacity:1"
       d="m 109.28848,13.302773 v 1.667713 h -1.66773 v 1.667763 h 1.66773 v 1.667713 h 1.66773 v -1.667713 h 1.66773 v -1.667763 h -1.66773 v -1.667713 z m 3.33546,8.338665 c -0.92392,0 -1.66773,0.743791 -1.66773,1.667713 0,0.923923 0.74381,1.667713 1.66773,1.667713 0.92393,0 1.66773,-0.74379 1.66773,-1.667713 0,-0.923922 -0.7438,-1.667713 -1.66773,-1.667713 z m -3.33546,3.335426 c -0.92392,0 -1.66773,0.743841 -1.66773,1.667763 0,0.923872 0.74381,1.667714 1.66773,1.667714 0.92393,0 1.66773,-0.743842 1.66773,-1.667714 0,-0.923922 -0.7438,-1.667763 -1.66773,-1.667763 z m 6.67092,0 c -0.92392,0 -1.66773,0.743841 -1.66773,1.667763 0,0.923872 0.74381,1.667714 1.66773,1.667714 0.92393,0 1.66774,-0.743842 1.66774,-1.667714 0,-0.923922 -0.74381,-1.667763 -1.66774,-1.667763 z m -3.33546,3.335477 c -0.92392,0 -1.66773,0.743774 -1.66773,1.667712 0,0.923923 0.74381,1.667763 1.66773,1.667763 0.92393,0 1.66773,-0.74384 1.66773,-1.667763 0,-0.923938 -0.7438,-1.667712 -1.66773,-1.667712 z m 0,8.338665 c -2.77176,0 -5.00319,2.231405 -5.00319,5.003188 0,2.771717 2.23143,5.00319 5.00319,5.00319 2.77177,0 5.0032,-2.231473 5.0032,-5.00319 0,-2.771783 -2.23143,-5.003188 -5.0032,-5.003188 z m -5.00319,13.341804 c -0.92392,0 -1.66773,0.743841 -1.66773,1.667763 0,0.923872 0.74381,1.667713 1.66773,1.667713 0.92393,0 1.66773,-0.743841 1.66773,-1.667713 0,-0.923922 -0.7438,-1.667763 -1.66773,-1.667763 z"
       id="rect4577-5"
       inkscape:connector-curvature="0"
       sodipodi:nodetypes="cccccccccccccssssssssssssssssssssssssssssss" />
    <path
       style="fill:#5ba8dc;stroke:#164767;stroke-width:1.2;stroke-linecap:butt;stroke-linejoin:miter;stroke-opacity:1;stroke-miterlimit:4;stroke-dasharray:none;fill-opacity:1"
       d="M 86.180861,7.8073851 V 59.64137"
       id="path10067" />
    <path
       style="fill:#5ba8dc;fill-opacity:1;stroke:url(#linearGradient14108);stroke-width:1.2;stroke-linecap:butt;stroke-linejoin:miter;stroke-miterlimit:4;stroke-dasharray:none;stroke-opacity:1"
       d="M 85.062628,7.8073851 V 59.64137"
       id="path12421" />
    <path
       style="fill:#5ba8dc;fill-opacity:1;stroke:#3e150e;stroke-width:1.2;stroke-linecap:butt;stroke-linejoin:miter;stroke-miterlimit:4;stroke-dasharray:none;stroke-opacity:1"
       d="M 103.53633,7.8073851 V 59.64137"
       id="path16514" />
    <path
       style="fill:#5ba8dc;fill-opacity:1;stroke:#f7b19e;stroke-width:1.2;stroke-linecap:butt;stroke-linejoin:miter;stroke-miterlimit:4;stroke-dasharray:none;stroke-opacity:1"
       d="M 104.65456,7.8073851 V 59.64137"
       id="path16516" />
  </g>
</svg>
