<?xml version="1.0" encoding="UTF-8" standalone="no"?>
<svg
   width="64"
   height="64"
   viewBox="0 0 64 64"
   version="1.1"
   id="svg554"
   sodipodi:docname="elisa.svg"
   inkscape:version="1.1.2 (0a00cf5339, 2022-02-04)"
   xmlns:inkscape="http://www.inkscape.org/namespaces/inkscape"
   xmlns:sodipodi="http://sodipodi.sourceforge.net/DTD/sodipodi-0.dtd"
   xmlns:xlink="http://www.w3.org/1999/xlink"
   xmlns="http://www.w3.org/2000/svg"
   xmlns:svg="http://www.w3.org/2000/svg">
  <sodipodi:namedview
     id="namedview556"
     pagecolor="#ffffff"
     bordercolor="#999999"
     borderopacity="1"
     inkscape:showpageshadow="0"
     inkscape:pageopacity="0"
     inkscape:pagecheckerboard="0"
     inkscape:deskcolor="#d1d1d1"
     showgrid="false"
     inkscape:zoom="1.6289063"
     inkscape:cx="-151.32854"
     inkscape:cy="17.496403"
     inkscape:window-width="1920"
     inkscape:window-height="1028"
     inkscape:window-x="0"
     inkscape:window-y="24"
     inkscape:window-maximized="1"
     inkscape:current-layer="g17699"
     inkscape:pageshadow="2"
     showguides="true"
     inkscape:guide-bbox="true">
    <sodipodi:guide
       position="181.88753,83.100362"
       orientation="0,-1"
       id="guide3812" />
    <sodipodi:guide
       position="167.56226,-80.33796"
       orientation="0,-1"
       id="guide3814" />
  </sodipodi:namedview>
  <defs
     id="defs539">
    <linearGradient
       inkscape:collect="always"
       id="linearGradient6543">
      <stop
         style="stop-color:#84bd40;stop-opacity:1"
         offset="0"
         id="stop6539" />
      <stop
         style="stop-color:#9ac766;stop-opacity:1"
         offset="1"
         id="stop6541" />
    </linearGradient>
    <linearGradient
       inkscape:collect="always"
       id="linearGradient6516">
      <stop
         style="stop-color:#9bde4a;stop-opacity:1;"
         offset="0"
         id="stop6512" />
      <stop
         style="stop-color:#aceb61;stop-opacity:1"
         offset="1"
         id="stop6514" />
    </linearGradient>
    <linearGradient
       id="linear0"
       gradientUnits="userSpaceOnUse"
       x1="6.5"
       y1="7"
       x2="6.5"
       y2="10"
       gradientTransform="scale(2)">
      <stop
         offset="0"
         style="stop-color:rgb(0%,0%,0%);stop-opacity:0;"
         id="stop505" />
      <stop
         offset="1"
         style="stop-color:rgb(0%,0%,0%);stop-opacity:0.2;"
         id="stop507" />
    </linearGradient>
    <linearGradient
       id="linear1"
       gradientUnits="userSpaceOnUse"
       x1="3.6224"
       y1="5.4027"
       x2="29.5973"
       y2="31.3776"
       gradientTransform="scale(2)">
      <stop
         offset="0"
         style="stop-color:rgb(100%,84.313725%,38.039216%);stop-opacity:1;"
         id="stop510" />
      <stop
         offset="1"
         style="stop-color:rgb(96.470588%,70.980392%,1.568627%);stop-opacity:1;"
         id="stop512" />
    </linearGradient>
    <linearGradient
       id="linear2"
       gradientUnits="userSpaceOnUse"
       x1="-13.9403"
       y1="28.2221"
       x2="-9.1444"
       y2="25.4532"
       gradientTransform="matrix(7.5592,0,0,-7.5592,118.4344,254.4538)">
      <stop
         offset="0"
         style="stop-color:rgb(7.843137%,57.647059%,87.45098%);stop-opacity:1;"
         id="stop515" />
      <stop
         offset="1"
         style="stop-color:rgb(0%,38.431373%,70.588235%);stop-opacity:1;"
         id="stop517" />
    </linearGradient>
    <filter
       id="alpha"
       filterUnits="objectBoundingBox"
       x="0"
       y="0"
       width="1"
       height="1">
      <feColorMatrix
         type="matrix"
         in="SourceGraphic"
         values="0 0 0 0 1 0 0 0 0 1 0 0 0 0 1 0 0 0 1 0"
         id="feColorMatrix520" />
    </filter>
    <mask
       id="mask0">
      <g
         filter="url(#alpha)"
         id="g525">
        <rect
           x="0"
           y="0"
           width="64"
           height="64"
           style="fill:rgb(0%,0%,0%);fill-opacity:0.301961;stroke:none;"
           id="rect523" />
      </g>
    </mask>
    <linearGradient
       id="linear3"
       gradientUnits="userSpaceOnUse"
       x1="8.1786"
       y1="0.8465"
       x2="23.666"
       y2="16.334"
       gradientTransform="matrix(2,0,0,2,0,0)">
      <stop
         offset="0"
         style="stop-color:rgb(100%,100%,100%);stop-opacity:1;"
         id="stop528" />
      <stop
         offset="1"
         style="stop-color:rgb(96.470588%,70.980392%,1.568627%);stop-opacity:0;"
         id="stop530" />
    </linearGradient>
    <clipPath
       id="clip1">
      <rect
         x="0"
         y="0"
         width="64"
         height="64"
         id="rect533" />
    </clipPath>
    <g
       id="surface5"
       clip-path="url(#clip1)">
      <path
         style=" stroke:none;fill-rule:nonzero;fill:url(#linear3);"
         d="M 62 12 L 27.035156 12 C 26.371094 12 25.738281 12.261719 25.269531 12.730469 L 22 16 L 3.5 16 C 1.566406 16 0 17.566406 0 19.5 L 0 21.5 C 0 19.566406 1.566406 18 3.5 18 L 22 18 L 25.261719 14.738281 C 25.734375 14.265625 26.375 14 27.042969 14 L 62 14 C 63.105469 14 64 14.894531 64 16 L 64 14 C 64 12.894531 63.105469 12 62 12 Z M 62 12 "
         id="path536" />
    </g>
    <linearGradient
       xlink:href="#linearGradient3600-9-51"
       id="linearGradient1512"
       gradientUnits="userSpaceOnUse"
       gradientTransform="matrix(1.3806477,0,0,1.327964,-70.267382,-1.7275823)"
       x1="74.838791"
       y1="4.535933"
       x2="74.838791"
       y2="49.779099" />
    <linearGradient
       id="linearGradient3600-9-51">
      <stop
         offset="0"
         style="stop-color:#f4f4f4;stop-opacity:1"
         id="stop3602-0-0" />
      <stop
         offset="1"
         style="stop-color:#dbdbdb;stop-opacity:1"
         id="stop3604-9-04" />
    </linearGradient>
    <linearGradient
       xlink:href="#linearGradient3104-6"
       id="linearGradient3170"
       gradientUnits="userSpaceOnUse"
       gradientTransform="matrix(0.80749686,0,0,0.89471714,10.740979,-0.4431076)"
       x1="12.879265"
       y1="66.950981"
       x2="12.879265"
       y2="4.7802162" />
    <linearGradient
       id="linearGradient3104-6">
      <stop
         offset="0"
         style="stop-color:#000000;stop-opacity:0.31782946"
         id="stop3106-3" />
      <stop
         offset="1"
         style="stop-color:#000000;stop-opacity:0.24031007"
         id="stop3108-9" />
    </linearGradient>
    <linearGradient
       xlink:href="#linearGradient1041"
       id="linearGradient15429"
       gradientUnits="userSpaceOnUse"
       gradientTransform="matrix(1.4324324,0,0,1.1081081,-2.4727286,11.023243)"
       x1="23.99999"
       y1="-1.2218014"
       x2="23.99999"
       y2="42.091705" />
    <linearGradient
       id="linearGradient1041">
      <stop
         id="stop1033"
         style="stop-color:#ffffff;stop-opacity:1"
         offset="0" />
      <stop
         id="stop1035"
         style="stop-color:#ffffff;stop-opacity:0.23529412"
         offset="0.0832339" />
      <stop
         id="stop1037"
         style="stop-color:#ffffff;stop-opacity:0.15686275"
         offset="0.94268352" />
      <stop
         id="stop1039"
         style="stop-color:#ffffff;stop-opacity:0.39215687"
         offset="1" />
    </linearGradient>
    <linearGradient
       xlink:href="#linearGradient1077"
       id="linearGradient15429-3"
       gradientUnits="userSpaceOnUse"
       gradientTransform="matrix(1.4324324,0,0,1.1081081,-2.4727286,11.023243)"
       x1="11.575833"
       y1="-4.7840924"
       x2="11.575833"
       y2="42.193623" />
    <linearGradient
       id="linearGradient1077">
      <stop
         id="stop1069"
         style="stop-color:#ffffff;stop-opacity:1"
         offset="0" />
      <stop
         id="stop1071"
         style="stop-color:#ffffff;stop-opacity:0.23529412"
         offset="0.09530682" />
      <stop
         id="stop1073"
         style="stop-color:#ffffff;stop-opacity:0.15686275"
         offset="0.94268352" />
      <stop
         id="stop1075"
         style="stop-color:#ffffff;stop-opacity:0.39215687"
         offset="1" />
    </linearGradient>
    <radialGradient
       cx="4.9929786"
       cy="43.5"
       r="2.5"
       fx="4.9929786"
       fy="43.5"
       id="radialGradient3337-2-2"
       xlink:href="#linearGradient3688-166-749-4-0-3-8"
       gradientUnits="userSpaceOnUse"
       gradientTransform="matrix(2.4045407,0,0,0.99999998,41.985755,15.500001)" />
    <linearGradient
       id="linearGradient3688-166-749-4-0-3-8">
      <stop
         offset="0"
         style="stop-color:#181818;stop-opacity:1"
         id="stop2883-4-0-1-8" />
      <stop
         offset="1"
         style="stop-color:#181818;stop-opacity:0"
         id="stop2885-9-2-9-6" />
    </linearGradient>
    <radialGradient
       cx="4.9929786"
       cy="43.5"
       r="2.5"
       fx="4.9929786"
       fy="43.5"
       id="radialGradient3339-1-4"
       xlink:href="#linearGradient3688-166-749-4-0-3-8"
       gradientUnits="userSpaceOnUse"
       gradientTransform="matrix(2.4045407,0,0,0.99999998,-22.014244,-102.5)" />
    <linearGradient
       x1="25.058096"
       y1="47.027729"
       x2="25.058096"
       y2="39.999443"
       id="linearGradient6394"
       xlink:href="#linearGradient3702-501-757-8-4-1-1"
       gradientUnits="userSpaceOnUse"
       gradientTransform="matrix(1.5714286,0,0,0.7142857,-5.7142853,27.928572)" />
    <linearGradient
       id="linearGradient3702-501-757-8-4-1-1">
      <stop
         offset="0"
         style="stop-color:#181818;stop-opacity:0"
         id="stop2895-8-9-9-1" />
      <stop
         offset="0.5"
         style="stop-color:#181818;stop-opacity:1"
         id="stop2897-7-8-7-7" />
      <stop
         offset="1"
         style="stop-color:#181818;stop-opacity:0"
         id="stop2899-4-5-1-5" />
    </linearGradient>
    <linearGradient
       xlink:href="#linearGradient909"
       id="linearGradient15431"
       gradientUnits="userSpaceOnUse"
       gradientTransform="matrix(1,0,0,0.81818188,-0.09435356,10.507243)"
       x1="31.781376"
       y1="-11.234498"
       x2="31.781376"
       y2="67.800774" />
    <linearGradient
       id="linearGradient909">
      <stop
         id="stop901"
         style="stop-color:#64baff;stop-opacity:1"
         offset="0" />
      <stop
         id="stop907"
         style="stop-color:#3689e6;stop-opacity:1"
         offset="1" />
    </linearGradient>
    <linearGradient
       xlink:href="#linearGradient4270-4"
       id="linearGradient15433"
       gradientUnits="userSpaceOnUse"
       gradientTransform="matrix(1.4324324,0,0,1.1621622,-2.4727286,8.7259434)"
       x1="23.99999"
       y1="5.9093657"
       x2="23.99999"
       y2="42.091705" />
    <linearGradient
       id="linearGradient4270-4">
      <stop
         id="stop4272-9"
         style="stop-color:#ffffff;stop-opacity:1"
         offset="0" />
      <stop
         id="stop4274-0"
         style="stop-color:#ffffff;stop-opacity:0.23529412"
         offset="0.09665164" />
      <stop
         id="stop4276-9"
         style="stop-color:#ffffff;stop-opacity:0.15686275"
         offset="0.94268352" />
      <stop
         id="stop4278-1"
         style="stop-color:#ffffff;stop-opacity:0.39215687"
         offset="1" />
    </linearGradient>
    <radialGradient
       cx="7.1183534"
       cy="9.9571075"
       r="12.671875"
       fx="7.1183534"
       fy="9.9571075"
       id="radialGradient3988-3"
       xlink:href="#linearGradient2867-449-88-871-390-598-476-591-434-148-57-177-8-3-3-6-4-8-8-8-5-7"
       gradientUnits="userSpaceOnUse"
       gradientTransform="matrix(0,12.890089,-15.824912,0,334.01999,-110.50411)" />
    <linearGradient
       id="linearGradient2867-449-88-871-390-598-476-591-434-148-57-177-8-3-3-6-4-8-8-8-5-7">
      <stop
         id="stop3750-1-0-7-6-6-1-3-9-3-9"
         style="stop-color:#505050;stop-opacity:1"
         offset="0" />
      <stop
         id="stop3752-3-7-4-0-32-8-923-0-7-0"
         style="stop-color:#2b2b2b;stop-opacity:1"
         offset="0.26238" />
      <stop
         id="stop3754-1-8-5-2-7-6-7-1-9-1"
         style="stop-color:#0a0a0a;stop-opacity:1"
         offset="0.704952" />
      <stop
         id="stop3756-1-6-2-6-6-1-96-6-0-1"
         style="stop-color:#000000;stop-opacity:1"
         offset="1" />
    </linearGradient>
    <linearGradient
       inkscape:collect="always"
       xlink:href="#linearGradient6516"
       id="linearGradient6518"
       x1="93.7136"
       y1="43.202599"
       x2="93.7136"
       y2="19.689375"
       gradientUnits="userSpaceOnUse" />
    <linearGradient
       inkscape:collect="always"
       xlink:href="#linearGradient6543"
       id="linearGradient6545"
       x1="96.293602"
       y1="45.086376"
       x2="96.293602"
       y2="17.853399"
       gradientUnits="userSpaceOnUse" />
    <linearGradient
       inkscape:collect="always"
       xlink:href="#linearGradient6543"
       id="linearGradient15878"
       gradientUnits="userSpaceOnUse"
       x1="96.293602"
       y1="45.086376"
       x2="96.293602"
       y2="17.853399" />
    <radialGradient
       inkscape:collect="always"
       xlink:href="#linearGradient3688-166-749-4-0-3-8"
       id="radialGradient17668"
       gradientUnits="userSpaceOnUse"
       gradientTransform="matrix(2.4045407,0,0,0.99999998,41.985755,15.500001)"
       cx="4.9929786"
       cy="43.5"
       fx="4.9929786"
       fy="43.5"
       r="2.5" />
    <radialGradient
       inkscape:collect="always"
       xlink:href="#linearGradient3688-166-749-4-0-3-8"
       id="radialGradient17670"
       gradientUnits="userSpaceOnUse"
       gradientTransform="matrix(2.4045407,0,0,0.99999998,-22.014244,-102.5)"
       cx="4.9929786"
       cy="43.5"
       fx="4.9929786"
       fy="43.5"
       r="2.5" />
    <linearGradient
       inkscape:collect="always"
       xlink:href="#linearGradient3702-501-757-8-4-1-1"
       id="linearGradient17672"
       gradientUnits="userSpaceOnUse"
       gradientTransform="matrix(1.5714286,0,0,0.7142857,-5.7142853,27.928572)"
       x1="25.058096"
       y1="47.027729"
       x2="25.058096"
       y2="39.999443" />
  </defs>
  <g
     id="g17699"
     transform="translate(-63.089064,-1.3659789)">
    <g
       id="g17666"
       transform="matrix(1.1430247,0,0,1.1430247,58.738804,-9.4646718)">
      <rect
         style="opacity:0.6;fill:url(#radialGradient17668);fill-opacity:1;stroke:none;stroke-width:1.06199"
         id="rect17660"
         y="56.5"
         x="54"
         height="5"
         width="6" />
      <rect
         style="opacity:0.6;fill:url(#radialGradient17670);fill-opacity:1;stroke:none;stroke-width:1.06199"
         id="rect17662"
         transform="scale(-1)"
         y="-61.5"
         x="-10"
         height="5"
         width="6" />
      <rect
         style="opacity:0.6;fill:url(#linearGradient17672);fill-opacity:1;stroke:none;stroke-width:1.06199"
         id="rect17664"
         y="56.5"
         x="10"
         height="5.0000005"
         width="44" />
    </g>
    <path
       id="rect926"
       style="fill:#e3e3e3;fill-opacity:1;stroke:#a5a5a5;stroke-width:1.2;stroke-linecap:round;stroke-opacity:1"
       d="m 71.882782,11.14187 h 44.637888 c 3.17971,0 5.73955,2.559841 5.73955,5.739555 v 35.592571 c 0,3.179714 -2.55984,5.739556 -5.73955,5.739556 H 71.882782 c -3.179714,0 -5.739555,-2.559842 -5.739555,-5.739556 V 16.881425 c 0,-3.179714 2.559841,-5.739555 5.739555,-5.739555 z" />
    <g
       id="g16038"
       style="opacity:0.231164"
       transform="translate(-0.6336595,-1.0615115)">
      <g
         id="rect15511"
         transform="translate(-4.145655,-38.726741)">
        <path
           id="path15554"
           style="color:#000000;fill:#000000;fill-opacity:0.076002;stroke-width:1.2367;stroke-linecap:round;-inkscape-stroke:none"
           d="m 81.231593,56.639196 c -2.432163,0 -4.410187,1.978024 -4.410187,4.410187 v 19.627448 c 0,2.432163 1.978024,4.410187 4.410187,4.410187 h 35.498887 c 2.43217,0 4.41019,-1.978024 4.41019,-4.410187 V 61.049383 c 0,-2.432163 -1.97802,-4.410187 -4.41019,-4.410187 z" />
        <path
           id="path16015"
           style="color:#000000;fill:#000000;fill-opacity:0.076002;stroke-width:1.2367;stroke-linecap:round;-inkscape-stroke:none"
           d="m 81.231593,56.639196 c -2.432163,0 -4.410187,1.978024 -4.410187,4.410187 v 19.627448 c 0,2.432163 1.978024,4.410187 4.410187,4.410187 h 35.498887 c 2.43217,0 4.41019,-1.978024 4.41019,-4.410187 V 61.049383 c 0,-2.432163 -1.97802,-4.410187 -4.41019,-4.410187 z" />
      </g>
      <g
         id="g16021"
         transform="translate(-3.6189039,-37.703493)">
        <path
           id="path16017"
           style="color:#000000;fill:#000000;fill-opacity:0.076002;stroke-width:1.2367;stroke-linecap:round;-inkscape-stroke:none"
           d="m 81.231593,56.639196 c -2.432163,0 -4.410187,1.978024 -4.410187,4.410187 v 19.627448 c 0,2.432163 1.978024,4.410187 4.410187,4.410187 h 35.498887 c 2.43217,0 4.41019,-1.978024 4.41019,-4.410187 V 61.049383 c 0,-2.432163 -1.97802,-4.410187 -4.41019,-4.410187 z" />
        <path
           id="path16019"
           style="color:#000000;fill:#000000;fill-opacity:0.076002;stroke-width:1.2367;stroke-linecap:round;-inkscape-stroke:none"
           d="m 81.231593,56.639196 c -2.432163,0 -4.410187,1.978024 -4.410187,4.410187 v 19.627448 c 0,2.432163 1.978024,4.410187 4.410187,4.410187 h 35.498887 c 2.43217,0 4.41019,-1.978024 4.41019,-4.410187 V 61.049383 c 0,-2.432163 -1.97802,-4.410187 -4.41019,-4.410187 z" />
      </g>
      <g
         id="g16027"
         transform="translate(-2.9489829,-36.383181)">
        <path
           id="path16023"
           style="color:#000000;fill:#000000;fill-opacity:0.076002;stroke-width:1.2367;stroke-linecap:round;-inkscape-stroke:none"
           d="m 81.231593,56.639196 c -2.432163,0 -4.410187,1.978024 -4.410187,4.410187 v 19.627448 c 0,2.432163 1.978024,4.410187 4.410187,4.410187 h 35.498887 c 2.43217,0 4.41019,-1.978024 4.41019,-4.410187 V 61.049383 c 0,-2.432163 -1.97802,-4.410187 -4.41019,-4.410187 z" />
        <path
           id="path16025"
           style="color:#000000;fill:#000000;fill-opacity:0.076002;stroke-width:1.2367;stroke-linecap:round;-inkscape-stroke:none"
           d="m 81.231593,56.639196 c -2.432163,0 -4.410187,1.978024 -4.410187,4.410187 v 19.627448 c 0,2.432163 1.978024,4.410187 4.410187,4.410187 h 35.498887 c 2.43217,0 4.41019,-1.978024 4.41019,-4.410187 V 61.049383 c 0,-2.432163 -1.97802,-4.410187 -4.41019,-4.410187 z" />
      </g>
    </g>
    <g
       id="g15876"
       transform="translate(-0.1069084,-0.33869955)">
      <rect
         style="fill:url(#linearGradient6518);fill-opacity:1;stroke:url(#linearGradient15878);stroke-width:1.2;stroke-linecap:round;stroke-opacity:1"
         id="rect3350"
         width="41.803818"
         height="26.40307"
         x="73.406723"
         y="18.212019"
         rx="3.6786282"
         ry="3.6786282" />
      <path
         id="rect15066"
         style="fill:#fefffc;fill-opacity:0.453402;stroke:none;stroke-width:1.2;stroke-linecap:round;stroke-opacity:1"
         d="m 77.085938,18.212891 c -2.037961,0 -3.679688,1.639774 -3.679688,3.677734 v 19.044922 c 0,2.03796 1.641727,3.679687 3.679688,3.679687 h 34.445312 c 2.03796,0 3.67969,-1.641727 3.67969,-3.679687 V 21.890625 c 0,-2.03796 -1.64173,-3.677734 -3.67969,-3.677734 z m 0.669921,1.320312 h 33.105471 c 1.63282,0 2.94726,1.314442 2.94726,2.947266 v 17.867187 c 0,1.632824 -1.31444,2.947266 -2.94726,2.947266 H 77.755859 c -1.632824,0 -2.947265,-1.314442 -2.947265,-2.947266 V 22.480469 c 0,-1.632824 1.314441,-2.947266 2.947265,-2.947266 z" />
      <rect
         style="fill:none;fill-opacity:1;stroke:url(#linearGradient6545);stroke-width:1.2;stroke-linecap:round;stroke-opacity:1"
         id="rect15491"
         width="41.803818"
         height="26.40307"
         x="73.406723"
         y="18.212019"
         rx="3.6786282"
         ry="3.6786282" />
    </g>
    <path
       id="rect16138"
       style="opacity:0.231164;fill:#000000;fill-opacity:0.976007;stroke:none;stroke-width:1.2;stroke-linecap:round;stroke-opacity:1"
       d="m 81.960938,48.710938 c -2.037962,0 -3.677735,1.639773 -3.677735,3.677734 v 5.280853 h 31.837887 v -5.280853 c 0,-2.037961 -1.64172,-3.677734 -3.67968,-3.677734 z"
       sodipodi:nodetypes="ssccsss" />
    <rect
       style="opacity:0.935642;fill:#011225;fill-opacity:0.141108;stroke:none;stroke-width:1.2;stroke-linecap:round;stroke-opacity:1"
       id="rect17396"
       width="31.971504"
       height="10.657168"
       x="78.215973"
       y="27.985201"
       rx="5.3285842"
       ry="5.3285842" />
    <rect
       style="opacity:0.935642;fill:#ffffff;fill-opacity:0.624161;stroke:none;stroke-width:1.2;stroke-linecap:round;stroke-opacity:1"
       id="rect17542"
       width="31.971504"
       height="10.657168"
       x="78.215973"
       y="25.558537"
       rx="5.3285842"
       ry="5.3285842" />
    <rect
       style="opacity:0.935642;fill:#ffffff;fill-opacity:0.981134;stroke:none;stroke-width:1.2;stroke-linecap:round;stroke-opacity:1"
       id="rect16330"
       width="31.971504"
       height="10.657168"
       x="78.215973"
       y="26.643734"
       rx="5.3285842"
       ry="5.3285842" />
    <circle
       style="opacity:0.935642;fill:#494949;fill-opacity:0.981134;stroke:none;stroke-width:1.2;stroke-linecap:round;stroke-opacity:1"
       id="path17195"
       cx="83.817032"
       cy="32.143467"
       r="4.3819261" />
    <circle
       style="opacity:0.935642;fill:#494949;fill-opacity:0.981134;stroke:none;stroke-width:1.2;stroke-linecap:round;stroke-opacity:1"
       id="circle17376"
       cx="104.86841"
       cy="32.143467"
       r="4.3819261" />
    <path
       id="path17800"
       style="fill:#ffffff;fill-opacity:0.51476866;stroke:none;stroke-width:1.2;stroke-linecap:round;stroke-opacity:1"
       d="M 8.7929688 9.7753906 C 5.6132548 9.7753906 3.0546875 12.335911 3.0546875 15.515625 L 3.0546875 51.107422 C 3.0546875 54.287136 5.6132547 56.847656 8.7929688 56.847656 L 53.431641 56.847656 C 56.611351 56.847656 59.171875 54.287136 59.171875 51.107422 L 59.171875 15.515625 C 59.171875 12.335911 56.611351 9.7753906 53.431641 9.7753906 L 8.7929688 9.7753906 z M 9.4023438 11.345703 L 52.824219 11.345703 C 55.422671 11.345703 57.513672 13.438657 57.513672 16.037109 L 57.513672 50.587891 C 57.513672 53.186343 55.422671 55.277344 52.824219 55.277344 L 9.4023438 55.277344 C 6.8038911 55.277344 4.7109375 53.186343 4.7109375 50.587891 L 4.7109375 16.037109 C 4.7109375 13.438657 6.8038911 11.345703 9.4023438 11.345703 z "
       transform="translate(63.089064,1.3659789)" />
    <path
       id="path19416"
       style="fill:none;fill-opacity:1;stroke:#a5a5a5;stroke-width:1.2;stroke-linecap:round;stroke-opacity:1"
       d="m 71.882782,11.14187 h 44.637888 c 3.17971,0 5.73955,2.559841 5.73955,5.739555 v 35.592571 c 0,3.179714 -2.55984,5.739556 -5.73955,5.739556 H 71.882782 c -3.179714,0 -5.739555,-2.559842 -5.739555,-5.739556 V 16.881425 c 0,-3.179714 2.559841,-5.739555 5.739555,-5.739555 z" />
  </g>
</svg>
