<?xml version="1.0" encoding="UTF-8" standalone="no"?>
<svg
   width="64"
   height="64"
   viewBox="0 0 64 64"
   version="1.1"
   id="svg554"
   sodipodi:docname="athena.svg"
   inkscape:version="1.1.2 (0a00cf5339, 2022-02-04)"
   xmlns:inkscape="http://www.inkscape.org/namespaces/inkscape"
   xmlns:sodipodi="http://sodipodi.sourceforge.net/DTD/sodipodi-0.dtd"
   xmlns:xlink="http://www.w3.org/1999/xlink"
   xmlns="http://www.w3.org/2000/svg"
   xmlns:svg="http://www.w3.org/2000/svg">
  <sodipodi:namedview
     id="namedview556"
     pagecolor="#ffffff"
     bordercolor="#999999"
     borderopacity="1"
     inkscape:showpageshadow="0"
     inkscape:pageopacity="0"
     inkscape:pagecheckerboard="0"
     inkscape:deskcolor="#d1d1d1"
     showgrid="false"
     inkscape:zoom="6.515625"
     inkscape:cx="26.014388"
     inkscape:cy="37.985612"
     inkscape:window-width="1920"
     inkscape:window-height="1022"
     inkscape:window-x="0"
     inkscape:window-y="32"
     inkscape:window-maximized="1"
     inkscape:current-layer="svg554"
     inkscape:pageshadow="2" />
  <defs
     id="defs539">
    <linearGradient
       id="linear0"
       gradientUnits="userSpaceOnUse"
       x1="6.5"
       y1="7"
       x2="6.5"
       y2="10"
       gradientTransform="scale(2)">
      <stop
         offset="0"
         style="stop-color:rgb(0%,0%,0%);stop-opacity:0;"
         id="stop505" />
      <stop
         offset="1"
         style="stop-color:rgb(0%,0%,0%);stop-opacity:0.2;"
         id="stop507" />
    </linearGradient>
    <linearGradient
       id="linear1"
       gradientUnits="userSpaceOnUse"
       x1="3.6224"
       y1="5.4027"
       x2="29.5973"
       y2="31.3776"
       gradientTransform="scale(2)">
      <stop
         offset="0"
         style="stop-color:rgb(100%,84.313725%,38.039216%);stop-opacity:1;"
         id="stop510" />
      <stop
         offset="1"
         style="stop-color:rgb(96.470588%,70.980392%,1.568627%);stop-opacity:1;"
         id="stop512" />
    </linearGradient>
    <linearGradient
       id="linear2"
       gradientUnits="userSpaceOnUse"
       x1="-13.9403"
       y1="28.2221"
       x2="-9.1444"
       y2="25.4532"
       gradientTransform="matrix(7.5592,0,0,-7.5592,118.4344,254.4538)">
      <stop
         offset="0"
         style="stop-color:rgb(7.843137%,57.647059%,87.45098%);stop-opacity:1;"
         id="stop515" />
      <stop
         offset="1"
         style="stop-color:rgb(0%,38.431373%,70.588235%);stop-opacity:1;"
         id="stop517" />
    </linearGradient>
    <filter
       id="alpha"
       filterUnits="objectBoundingBox"
       x="0"
       y="0"
       width="1"
       height="1">
      <feColorMatrix
         type="matrix"
         in="SourceGraphic"
         values="0 0 0 0 1 0 0 0 0 1 0 0 0 0 1 0 0 0 1 0"
         id="feColorMatrix520" />
    </filter>
    <mask
       id="mask0">
      <g
         filter="url(#alpha)"
         id="g525">
        <rect
           x="0"
           y="0"
           width="64"
           height="64"
           style="fill:rgb(0%,0%,0%);fill-opacity:0.301961;stroke:none;"
           id="rect523" />
      </g>
    </mask>
    <linearGradient
       id="linear3"
       gradientUnits="userSpaceOnUse"
       x1="8.1786"
       y1="0.8465"
       x2="23.666"
       y2="16.334"
       gradientTransform="matrix(2,0,0,2,0,0)">
      <stop
         offset="0"
         style="stop-color:rgb(100%,100%,100%);stop-opacity:1;"
         id="stop528" />
      <stop
         offset="1"
         style="stop-color:rgb(96.470588%,70.980392%,1.568627%);stop-opacity:0;"
         id="stop530" />
    </linearGradient>
    <clipPath
       id="clip1">
      <rect
         x="0"
         y="0"
         width="64"
         height="64"
         id="rect533" />
    </clipPath>
    <g
       id="surface5"
       clip-path="url(#clip1)">
      <path
         style=" stroke:none;fill-rule:nonzero;fill:url(#linear3);"
         d="M 62 12 L 27.035156 12 C 26.371094 12 25.738281 12.261719 25.269531 12.730469 L 22 16 L 3.5 16 C 1.566406 16 0 17.566406 0 19.5 L 0 21.5 C 0 19.566406 1.566406 18 3.5 18 L 22 18 L 25.261719 14.738281 C 25.734375 14.265625 26.375 14 27.042969 14 L 62 14 C 63.105469 14 64 14.894531 64 16 L 64 14 C 64 12.894531 63.105469 12 62 12 Z M 62 12 "
         id="path536" />
    </g>
    <linearGradient
       xlink:href="#linearGradient3600-9-51"
       id="linearGradient1512"
       gradientUnits="userSpaceOnUse"
       gradientTransform="matrix(1.3806477,0,0,1.327964,-70.267382,-1.7275823)"
       x1="74.838791"
       y1="4.535933"
       x2="74.838791"
       y2="49.779099" />
    <linearGradient
       id="linearGradient3600-9-51">
      <stop
         offset="0"
         style="stop-color:#f4f4f4;stop-opacity:1"
         id="stop3602-0-0" />
      <stop
         offset="1"
         style="stop-color:#dbdbdb;stop-opacity:1"
         id="stop3604-9-04" />
    </linearGradient>
    <linearGradient
       xlink:href="#linearGradient3104-6"
       id="linearGradient3170"
       gradientUnits="userSpaceOnUse"
       gradientTransform="matrix(0.80749686,0,0,0.89471714,10.740979,-0.4431076)"
       x1="12.879265"
       y1="66.950981"
       x2="12.879265"
       y2="4.7802162" />
    <linearGradient
       id="linearGradient3104-6">
      <stop
         offset="0"
         style="stop-color:#000000;stop-opacity:0.31782946"
         id="stop3106-3" />
      <stop
         offset="1"
         style="stop-color:#000000;stop-opacity:0.24031007"
         id="stop3108-9" />
    </linearGradient>
    <linearGradient
       xlink:href="#linearGradient1041"
       id="linearGradient15429"
       gradientUnits="userSpaceOnUse"
       gradientTransform="matrix(1.4324324,0,0,1.1081081,-2.4727286,11.023243)"
       x1="23.99999"
       y1="-1.2218014"
       x2="23.99999"
       y2="42.091705" />
    <linearGradient
       id="linearGradient1041">
      <stop
         id="stop1033"
         style="stop-color:#ffffff;stop-opacity:1"
         offset="0" />
      <stop
         id="stop1035"
         style="stop-color:#ffffff;stop-opacity:0.23529412"
         offset="0.0832339" />
      <stop
         id="stop1037"
         style="stop-color:#ffffff;stop-opacity:0.15686275"
         offset="0.94268352" />
      <stop
         id="stop1039"
         style="stop-color:#ffffff;stop-opacity:0.39215687"
         offset="1" />
    </linearGradient>
    <linearGradient
       xlink:href="#linearGradient1077"
       id="linearGradient15429-3"
       gradientUnits="userSpaceOnUse"
       gradientTransform="matrix(1.4324324,0,0,1.1081081,-2.4727286,11.023243)"
       x1="11.575833"
       y1="-4.7840924"
       x2="11.575833"
       y2="42.193623" />
    <linearGradient
       id="linearGradient1077">
      <stop
         id="stop1069"
         style="stop-color:#ffffff;stop-opacity:1"
         offset="0" />
      <stop
         id="stop1071"
         style="stop-color:#ffffff;stop-opacity:0.23529412"
         offset="0.09530682" />
      <stop
         id="stop1073"
         style="stop-color:#ffffff;stop-opacity:0.15686275"
         offset="0.94268352" />
      <stop
         id="stop1075"
         style="stop-color:#ffffff;stop-opacity:0.39215687"
         offset="1" />
    </linearGradient>
    <radialGradient
       cx="4.9929786"
       cy="43.5"
       r="2.5"
       fx="4.9929786"
       fy="43.5"
       id="radialGradient3337-2-2"
       xlink:href="#linearGradient3688-166-749-4-0-3-8"
       gradientUnits="userSpaceOnUse"
       gradientTransform="matrix(2.4045407,0,0,0.99999998,41.985755,15.500001)" />
    <linearGradient
       id="linearGradient3688-166-749-4-0-3-8">
      <stop
         offset="0"
         style="stop-color:#181818;stop-opacity:1"
         id="stop2883-4-0-1-8" />
      <stop
         offset="1"
         style="stop-color:#181818;stop-opacity:0"
         id="stop2885-9-2-9-6" />
    </linearGradient>
    <radialGradient
       cx="4.9929786"
       cy="43.5"
       r="2.5"
       fx="4.9929786"
       fy="43.5"
       id="radialGradient3339-1-4"
       xlink:href="#linearGradient3688-166-749-4-0-3-8"
       gradientUnits="userSpaceOnUse"
       gradientTransform="matrix(2.4045407,0,0,0.99999998,-22.014244,-102.5)" />
    <linearGradient
       x1="25.058096"
       y1="47.027729"
       x2="25.058096"
       y2="39.999443"
       id="linearGradient6394"
       xlink:href="#linearGradient3702-501-757-8-4-1-1"
       gradientUnits="userSpaceOnUse"
       gradientTransform="matrix(1.5714286,0,0,0.7142857,-5.7142853,27.928572)" />
    <linearGradient
       id="linearGradient3702-501-757-8-4-1-1">
      <stop
         offset="0"
         style="stop-color:#181818;stop-opacity:0"
         id="stop2895-8-9-9-1" />
      <stop
         offset="0.5"
         style="stop-color:#181818;stop-opacity:1"
         id="stop2897-7-8-7-7" />
      <stop
         offset="1"
         style="stop-color:#181818;stop-opacity:0"
         id="stop2899-4-5-1-5" />
    </linearGradient>
    <linearGradient
       xlink:href="#linearGradient909"
       id="linearGradient15431"
       gradientUnits="userSpaceOnUse"
       gradientTransform="matrix(1,0,0,0.81818188,-0.09435356,10.507243)"
       x1="31.781376"
       y1="-11.234498"
       x2="31.781376"
       y2="67.800774" />
    <linearGradient
       id="linearGradient909">
      <stop
         id="stop901"
         style="stop-color:#64baff;stop-opacity:1"
         offset="0" />
      <stop
         id="stop907"
         style="stop-color:#3689e6;stop-opacity:1"
         offset="1" />
    </linearGradient>
    <linearGradient
       xlink:href="#linearGradient4270-4"
       id="linearGradient15433"
       gradientUnits="userSpaceOnUse"
       gradientTransform="matrix(1.4324324,0,0,1.1621622,-2.4727286,8.7259434)"
       x1="23.99999"
       y1="5.9093657"
       x2="23.99999"
       y2="42.091705" />
    <linearGradient
       id="linearGradient4270-4">
      <stop
         id="stop4272-9"
         style="stop-color:#ffffff;stop-opacity:1"
         offset="0" />
      <stop
         id="stop4274-0"
         style="stop-color:#ffffff;stop-opacity:0.23529412"
         offset="0.09665164" />
      <stop
         id="stop4276-9"
         style="stop-color:#ffffff;stop-opacity:0.15686275"
         offset="0.94268352" />
      <stop
         id="stop4278-1"
         style="stop-color:#ffffff;stop-opacity:0.39215687"
         offset="1" />
    </linearGradient>
  </defs>
  <path
     id="rect5505-21-3-8-5-2-9-1-7-8-7-8-1"
     style="color:#000000;font-variation-settings:normal;display:inline;overflow:visible;visibility:visible;vector-effect:none;fill:url(#linearGradient1512);fill-opacity:1;fill-rule:nonzero;stroke:none;stroke-width:1;stroke-linecap:butt;stroke-linejoin:miter;stroke-miterlimit:4;stroke-dasharray:none;stroke-dashoffset:0;stroke-opacity:1;-inkscape-stroke:none;marker:none;enable-background:accumulate;stop-color:#000000"
     d="m 10.402536,4.6890632 c -3.0545005,0 -5.4968895,2.4424899 -5.4968895,5.4971158 V 46.689062 H 58.905647 V 14.186923 c 0,-3.054626 -2.442389,-5.4971158 -5.496889,-5.4971158 H 29.952239 a 0.50308657,0.50310734 0 0 1 -0.04884,-0.00391 c 0,0 -2.421684,-0.2479122 -4.705759,-2.4867906 l -0.0039,-0.00391 C 24.208737,5.2591271 22.880662,4.6890632 21.404128,4.6890632 Z" />
  <path
     id="rect5505-21-3-8-5-2-9-1-7-8-0-6-6-3"
     style="color:#000000;font-variation-settings:normal;display:inline;overflow:visible;visibility:visible;vector-effect:none;fill:none;fill-opacity:1;fill-rule:nonzero;stroke:url(#linearGradient3170);stroke-width:0.999922;stroke-linecap:butt;stroke-linejoin:round;stroke-miterlimit:4;stroke-dasharray:none;stroke-dashoffset:0;stroke-opacity:1;-inkscape-stroke:none;marker:none;enable-background:accumulate;stop-color:#000000"
     d="m 59.405177,19.189063 v -5 c 0,-3.324 -2.676,-5.9999996 -6,-5.9999996 h -23.45351 c 0,0 -2.23097,-0.21547 -4.40528,-2.34924 -1.0753,-1.02385 -2.53235,-1.65076 -4.14121,-1.65076 H 10.405176 c -3.3239996,0 -5.9999996,2.676 -5.9999996,5.9999996 v 9" />
  <path
     id="rect5505-21-3-8-5-2-9-1-7-8-0-6-4-8-7"
     style="color:#000000;font-variation-settings:normal;display:inline;overflow:visible;visibility:visible;fill:none;fill-opacity:1;fill-rule:nonzero;stroke:url(#linearGradient15429);stroke-width:1;stroke-linecap:round;stroke-linejoin:round;stroke-miterlimit:4;stroke-dasharray:none;stroke-dashoffset:0;stroke-opacity:1;marker:none;enable-background:accumulate;stop-color:#000000"
     d="m 58.405649,46.963703 c -0.0104,-11.05302 0.02078,-22.10713 -0.01556,-33.159469 -0.136751,-2.616451 -2.601683,-4.7807006 -5.209833,-4.6151706 -7.820275,-0.0157 -15.643958,0.0313 -23.462109,-0.0234" />
  <path
     id="rect5505-21-3-8-5-2-9-1-7-8-0-6-4-8-7-5"
     style="color:#000000;font-variation-settings:normal;display:inline;overflow:visible;visibility:visible;fill:none;fill-opacity:1;fill-rule:nonzero;stroke:url(#linearGradient15429-3);stroke-width:1;stroke-linecap:round;stroke-linejoin:round;stroke-miterlimit:4;stroke-dasharray:none;stroke-dashoffset:0;stroke-opacity:1;marker:none;enable-background:accumulate;stop-color:#000000"
     d="m 29.718147,9.1656634 c -2.056992,-0.3263 -3.809114,-1.56231 -5.290302,-2.96058 -1.412831,-1.17283 -3.316709,-1.03765 -5.031964,-1.01602 -3.09175,0.005 -6.183824,-0.0105 -9.275391,0.008 v -1.9e-4 c -2.6148466,0.0877 -4.8413816,2.50419 -4.7148436,5.1175796 0.01023,12.4197 -0.02046,24.84044 0.01534,37.25948" />
  <g
     id="g866"
     transform="translate(-0.09435356,-0.3109366)">
    <rect
       style="opacity:0.6;fill:url(#radialGradient3337-2-2);fill-opacity:1;stroke:none;stroke-width:1.06199"
       id="rect2801-5-5-7-9"
       y="56.5"
       x="54"
       height="5"
       width="6" />
    <rect
       style="opacity:0.6;fill:url(#radialGradient3339-1-4);fill-opacity:1;stroke:none;stroke-width:1.06199"
       id="rect3696-3-0-3-7"
       transform="scale(-1)"
       y="-61.5"
       x="-10"
       height="5"
       width="6" />
    <rect
       style="opacity:0.6;fill:url(#linearGradient6394);fill-opacity:1;stroke:none;stroke-width:1.06199"
       id="rect3700-5-6-8-4"
       y="56.5"
       x="10"
       height="5.0000005"
       width="44" />
  </g>
  <path
     id="rect5505-21-1-7-2-9-9-3-9-1"
     style="color:#000000;font-variation-settings:normal;display:inline;overflow:visible;visibility:visible;opacity:0.05;fill:#002e99;fill-opacity:1;fill-rule:nonzero;stroke:none;stroke-width:1;stroke-linecap:butt;stroke-linejoin:miter;stroke-miterlimit:4;stroke-dasharray:none;stroke-dashoffset:0;stroke-opacity:1;marker:none;enable-background:accumulate;stop-color:#000000"
     d="m 10.360724,11.691013 c -2.9968776,-0.0509 -6.0085176,2.15779 -6.3965896,5.216701 -0.463886,2.868279 1.625472,5.702369 4.362147,6.464039 1.9057956,0.56457 3.9231126,0.22309 5.8793646,0.31731 13.214676,-0.0133 26.430665,0.0266 39.644519,-0.0199 3.001719,-0.10179 5.891535,-2.52777 6.036857,-5.61533 0.257811,-2.970069 -2.149784,-5.679479 -5.005677,-6.20563 -1.937328,-0.3232 -3.91969,-0.0867 -5.875698,-0.15914 -12.881611,10e-4 -25.763459,-0.003 -38.644923,0.002 z" />
  <rect
     style="color:#000000;font-variation-settings:normal;display:inline;overflow:visible;visibility:visible;opacity:0.1;fill:#002e99;fill-opacity:1;fill-rule:nonzero;stroke:none;stroke-width:1;stroke-linecap:butt;stroke-linejoin:miter;stroke-miterlimit:4;stroke-dasharray:none;stroke-dashoffset:0;stroke-opacity:1;marker:none;enable-background:accumulate;stop-color:#000000"
     id="rect5505-21-1-7-2-9-9-2-0"
     y="12.689064"
     x="4.9056463"
     ry="5.5000005"
     rx="5.5"
     height="10"
     width="54" />
  <rect
     width="55"
     height="45.000004"
     rx="6"
     ry="6"
     x="4.4056463"
     y="14.189064"
     id="rect5505-21-3-8-5-2-9-7-3-6"
     style="color:#000000;display:inline;overflow:visible;visibility:visible;fill:url(#linearGradient15431);fill-opacity:1;fill-rule:nonzero;stroke:#0d52bf;stroke-width:0.999999;stroke-opacity:0.5;marker:none;enable-background:accumulate" />
  <rect
     style="opacity:0.3;fill:none;stroke:url(#linearGradient15433);stroke-width:1;stroke-linecap:round;stroke-linejoin:round;stroke-miterlimit:4;stroke-dasharray:none;stroke-dashoffset:0;stroke-opacity:1"
     id="rect6741-8-33-4"
     y="15.117836"
     x="5.4056463"
     ry="5"
     rx="5"
     height="43"
     width="53" />
  <path
     id="path13635-0-2-3-8"
     style="color:#000000;line-height:normal;font-variant-ligatures:normal;font-variant-position:normal;font-variant-caps:normal;font-variant-numeric:normal;font-variant-alternates:normal;font-feature-settings:normal;font-variation-settings:normal;text-indent:0;text-align:start;text-decoration-line:none;text-decoration-style:solid;text-decoration-color:#000000;text-transform:none;text-orientation:mixed;shape-padding:0;opacity:0.07;isolation:auto;mix-blend-mode:normal;fill:#002e99;fill-opacity:1;stroke:none;stroke-width:1.7;stroke-linecap:butt;stroke-linejoin:miter;stroke-miterlimit:4;stroke-dasharray:none;stroke-dashoffset:0;stroke-opacity:1;marker:none;stop-color:#000000"
     d="m 29.819709,25.701173 c -4.379844,0.15682 -8.412135,3.3926 -9.532636,7.626061 -1.196795,4.07121 0.453585,8.74792 3.910885,11.19769 2.943052,2.20863 7.076268,2.60976 10.404803,1.062939 0.53896,-0.24584 1.01424,-0.72384 1.387621,0.0205 1.858464,1.81702 3.639593,3.72468 5.546014,5.48551 1.091292,0.93826 2.899686,0.70364 3.767689,-0.42979 0.888071,-1.06666 0.739937,-2.764319 -0.285543,-3.697679 -1.895705,-1.896341 -3.791409,-3.79269 -5.687114,-5.689041 1.984163,-3.30546 1.851948,-7.73386 -0.327631,-10.92046 -1.982432,-3.02079 -5.570136,-4.85782 -9.184088,-4.65571 z m 1.591797,4.22851 c 2.73243,0.47143 4.994401,2.900281 5.147093,5.68569 0.398344,3.27261 -2.300816,6.47047 -5.567027,6.73511 -2.715498,0.30128 -5.500123,-1.35503 -6.478854,-3.91576 -1.129568,-2.68627 -0.05594,-6.06759 2.435437,-7.59018 1.302597,-0.86179 2.928075,-1.15145 4.463351,-0.91486 z" />
  <path
     d="m 30.325916,26.689683 c -5.182861,0 -9.420269,4.23741 -9.420269,9.42026 0,5.18287 4.237408,9.42027 9.420269,9.42027 a 9.3517586,9.3517586 0 0 0 5.33016,-1.66996 l 6.304729,6.30644 a 1.7127763,1.7127763 0 1 0 2.421866,-2.42186 l -6.30473,-6.30644 a 9.3517586,9.3517586 0 0 0 1.668245,-5.32845 c 0,-5.18285 -4.237409,-9.42026 -9.42027,-9.42026 z m 0,2.14097 a 7.2792992,7.2792992 0 0 1 7.279299,7.27929 7.2792992,7.2792992 0 0 1 -7.279299,7.2793 7.2792992,7.2792992 0 0 1 -7.279299,-7.2793 7.2792992,7.2792992 0 0 1 7.279299,-7.27929 z"
     fill="#666666"
     font-family="sans-serif"
     font-weight="400"
     overflow="visible"
     style="color:#000000;line-height:normal;font-variant-ligatures:normal;font-variant-position:normal;font-variant-caps:normal;font-variant-numeric:normal;font-variant-alternates:normal;font-feature-settings:normal;font-variation-settings:normal;text-indent:0;text-align:start;text-decoration-line:none;text-decoration-style:solid;text-decoration-color:#000000;text-transform:none;text-orientation:mixed;shape-padding:0;opacity:0.15;isolation:auto;mix-blend-mode:normal;fill:#002e99;fill-opacity:1;stroke:none;stroke-width:1.7;stroke-linecap:butt;stroke-linejoin:miter;stroke-miterlimit:4;stroke-dasharray:none;stroke-dashoffset:0;stroke-opacity:1;marker:none;stop-color:#000000"
     white-space="normal"
     id="path13635-0-2-3" />
  <path
     id="path13635-4-7"
     style="color:#000000;line-height:normal;font-variant-ligatures:normal;font-variant-position:normal;font-variant-caps:normal;font-variant-numeric:normal;font-variant-alternates:normal;font-feature-settings:normal;font-variation-settings:normal;text-indent:0;text-align:start;text-decoration-line:none;text-decoration-style:solid;text-decoration-color:#000000;text-transform:none;text-orientation:mixed;shape-padding:0;isolation:auto;mix-blend-mode:normal;fill:#fafafa;fill-opacity:1;stroke:none;stroke-width:1.7;stroke-linecap:butt;stroke-linejoin:miter;stroke-miterlimit:4;stroke-dasharray:none;stroke-dashoffset:0;stroke-opacity:1;marker:none;stop-color:#000000"
     d="M 30.326172 25.689453 C 25.143311 25.689453 20.90625 29.926524 20.90625 35.109375 C 20.90625 40.292245 25.143311 44.529297 30.326172 44.529297 A 9.3517586 9.3517586 0 0 0 35.65625 42.859375 L 41.960938 49.166016 A 1.7127763 1.7127763 0 1 0 44.382812 46.744141 L 38.078125 40.4375 A 9.3517586 9.3517586 0 0 0 39.746094 35.109375 C 39.746094 29.926525 35.509033 25.689453 30.326172 25.689453 z M 30.326172 27.830078 A 7.2792992 7.2792992 0 0 1 37.605469 35.109375 A 7.2792992 7.2792992 0 0 1 30.326172 42.388672 A 7.2792992 7.2792992 0 0 1 23.046875 35.109375 A 7.2792992 7.2792992 0 0 1 30.326172 27.830078 z " />
  <path
     id="path13635-4-7-3"
     style="color:#000000;line-height:normal;font-variant-ligatures:normal;font-variant-position:normal;font-variant-caps:normal;font-variant-numeric:normal;font-variant-alternates:normal;font-feature-settings:normal;font-variation-settings:normal;text-indent:0;text-align:start;text-decoration-line:none;text-decoration-style:solid;text-decoration-color:#000000;text-transform:none;text-orientation:mixed;shape-padding:0;opacity:0.15;isolation:auto;mix-blend-mode:normal;fill:#002e99;fill-opacity:1;stroke:none;stroke-width:1.7;stroke-linecap:butt;stroke-linejoin:miter;stroke-miterlimit:4;stroke-dasharray:none;stroke-dashoffset:0;stroke-opacity:1;marker:none;stop-color:#000000"
     d="m 30.325569,26.830073 a 7.2792992,7.2792992 0 0 0 -7.279297,7.2793 7.2792992,7.2792992 0 0 0 0.04492,0.5 7.2792992,7.2792992 0 0 1 7.234375,-6.7793 7.2792992,7.2792992 0 0 1 7.248047,6.919931 7.2792992,7.2792992 0 0 0 0.03125,-0.640631 7.2792992,7.2792992 0 0 0 -7.279297,-7.2793 z m 9.394531,7.617191 a 9.3517586,9.3517586 0 0 1 -1.642578,4.99024 l 0.369141,0.36914 a 9.3517586,9.3517586 0 0 0 1.298828,-4.697271 c 0,-0.223019 -0.01,-0.44285 -0.02539,-0.662109 z m -18.800781,0.162109 c -0.0088,0.165861 -0.01367,0.332051 -0.01367,0.5 0,5.18287 4.237066,9.41992 9.419922,9.41992 a 9.3517586,9.3517586 0 0 0 5.330076,-1.66992 l 6.304688,6.306641 a 1.7127763,1.7127763 0 0 0 2.845703,-1.681641 1.7127763,1.7127763 0 0 1 -2.845703,0.681641 l -6.304688,-6.306641 a 9.3517586,9.3517586 0 0 1 -5.330078,1.66992 c -5.014927,0 -9.143899,-3.96761 -9.40625,-8.91992 z" />
</svg>
