<?xml version="1.0" encoding="UTF-8" standalone="no"?>
<!-- Created with Inkscape (http://www.inkscape.org/) -->

<svg
   version="1.1"
   width="64"
   height="64"
   id="svg4845"
   inkscape:version="1.1.2 (0a00cf5339, 2022-02-04)"
   sodipodi:docname="gespeaker.svg"
   xmlns:inkscape="http://www.inkscape.org/namespaces/inkscape"
   xmlns:sodipodi="http://sodipodi.sourceforge.net/DTD/sodipodi-0.dtd"
   xmlns:xlink="http://www.w3.org/1999/xlink"
   xmlns="http://www.w3.org/2000/svg"
   xmlns:svg="http://www.w3.org/2000/svg"
   xmlns:rdf="http://www.w3.org/1999/02/22-rdf-syntax-ns#"
   xmlns:cc="http://creativecommons.org/ns#"
   xmlns:dc="http://purl.org/dc/elements/1.1/">
  <sodipodi:namedview
     pagecolor="#ffffff"
     bordercolor="#666666"
     borderopacity="1"
     objecttolerance="10"
     gridtolerance="10"
     guidetolerance="10"
     inkscape:pageopacity="0"
     inkscape:pageshadow="2"
     inkscape:window-width="1920"
     inkscape:window-height="1033"
     id="namedview41"
     showgrid="false"
     inkscape:zoom="1"
     inkscape:cx="155.5"
     inkscape:cy="-50.5"
     inkscape:window-x="0"
     inkscape:window-y="25"
     inkscape:window-maximized="1"
     inkscape:current-layer="svg4845"
     inkscape:pagecheckerboard="0" />
  <defs
     id="defs4847">
    <linearGradient
       inkscape:collect="always"
       id="linearGradient2790">
      <stop
         style="stop-color:#ffffff;stop-opacity:1;"
         offset="0"
         id="stop2786" />
      <stop
         style="stop-color:#ffffff;stop-opacity:0;"
         offset="1"
         id="stop2788" />
    </linearGradient>
    <linearGradient
       inkscape:collect="always"
       id="linearGradient8348">
      <stop
         style="stop-color:#7f1e1b;stop-opacity:1"
         offset="0"
         id="stop8344" />
      <stop
         style="stop-color:#a2301c;stop-opacity:1"
         offset="1"
         id="stop8346" />
    </linearGradient>
    <linearGradient
       inkscape:collect="always"
       id="linearGradient4446">
      <stop
         style="stop-color:#f8b17e;stop-opacity:1"
         offset="0"
         id="stop4442" />
      <stop
         style="stop-color:#d84a43;stop-opacity:1;"
         offset="0.7553817"
         id="stop7555" />
      <stop
         style="stop-color:#d74641;stop-opacity:1"
         offset="1"
         id="stop4444" />
    </linearGradient>
    <linearGradient
       id="linearGradient2513">
      <stop
         id="stop2505"
         style="stop-color:#9addf6;stop-opacity:1"
         offset="0" />
      <stop
         id="stop2511"
         style="stop-color:#85bde9;stop-opacity:1"
         offset="1" />
    </linearGradient>
    <linearGradient
       id="linearGradient4806">
      <stop
         id="stop4808"
         style="stop-color:#ffffff;stop-opacity:1"
         offset="0" />
      <stop
         id="stop4810"
         style="stop-color:#ffffff;stop-opacity:0.23529412"
         offset="0.42447853" />
      <stop
         id="stop4812"
         style="stop-color:#ffffff;stop-opacity:0.15686275"
         offset="0.82089913" />
      <stop
         id="stop4814"
         style="stop-color:#ffffff;stop-opacity:0.39215687"
         offset="1" />
    </linearGradient>
    <linearGradient
       id="linearGradient3242-7-3-8-9">
      <stop
         id="stop3244-5-8-5-3"
         style="stop-color:#eef87e;stop-opacity:1"
         offset="0" />
      <stop
         id="stop3246-9-5-1-2"
         style="stop-color:#cde34f;stop-opacity:1"
         offset="0.26238" />
      <stop
         id="stop3248-7-2-0-84"
         style="stop-color:#93b723;stop-opacity:1"
         offset="0.66093999" />
      <stop
         id="stop3250-8-2-8-3"
         style="stop-color:#5a7e0d;stop-opacity:1"
         offset="1" />
    </linearGradient>
    <radialGradient
       cx="299.44821"
       cy="-290.5918"
       r="17.1528"
       fx="297.44989"
       fy="-289.9133"
       id="XMLID_2_-8-6-1"
       gradientUnits="userSpaceOnUse"
       gradientTransform="matrix(0.8232,0.2312,0.2703,-0.9626,-96.2274,-315.3433)">
      <stop
         id="stop228-2-7-9"
         style="stop-color:#000000;stop-opacity:1"
         offset="0" />
      <stop
         id="stop230-7-5-7"
         style="stop-color:#000000;stop-opacity:0"
         offset="1" />
    </radialGradient>
    <linearGradient
       id="linearGradient2867-449-88-871-390-598-476-591-434-148-57-177-3-8">
      <stop
         id="stop3750-8-9"
         style="stop-color:#5bcaf1;stop-opacity:1"
         offset="0" />
      <stop
         id="stop3756-9-3"
         style="stop-color:#3d96dc;stop-opacity:1"
         offset="1" />
    </linearGradient>
    <linearGradient
       id="linearGradient3820-7-2">
      <stop
         id="stop3822-2-6"
         style="stop-color:#3d3d3d;stop-opacity:1"
         offset="0" />
      <stop
         id="stop3864-8-7"
         style="stop-color:#686868;stop-opacity:0.49803922"
         offset="0.5" />
      <stop
         id="stop3824-1-2"
         style="stop-color:#686868;stop-opacity:0"
         offset="1" />
    </linearGradient>
    <radialGradient
       cx="1.7704386"
       cy="9.0132227"
       r="19.99999"
       fx="1.7704386"
       fy="9.0132227"
       id="radialGradient5007"
       xlink:href="#linearGradient2867-449-88-871-390-598-476-591-434-148-57-177-3-8"
       gradientUnits="userSpaceOnUse"
       gradientTransform="matrix(-2.5792082e-7,2.4797942,-3.9933026,-1.7080462e-7,67.149868,1.2949186)" />
    <linearGradient
       x1="-1085.9586"
       y1="539.40955"
       x2="-474.68497"
       y2="375.61926"
       id="linearGradient5009"
       xlink:href="#XMLID_2_-8-6-1"
       gradientUnits="userSpaceOnUse"
       gradientTransform="matrix(0.1011621,0,0,0.08500722,118.6948,-5.5605522)" />
    <radialGradient
       cx="18.164446"
       cy="8.449769"
       r="19.99999"
       fx="8.894803"
       fy="8.5985041"
       id="radialGradient5011"
       xlink:href="#linearGradient3242-7-3-8-9"
       gradientUnits="userSpaceOnUse"
       gradientTransform="matrix(0,1.9915335,-1.8772441,-2.2997302e-8,47.862448,-4.4613112)" />
    <linearGradient
       x1="71.204407"
       y1="15.369057"
       x2="71.204407"
       y2="40.495617"
       id="linearGradient5013"
       xlink:href="#linearGradient4806"
       gradientUnits="userSpaceOnUse"
       gradientTransform="matrix(2.3268746,0,0,2.3268746,-135.94475,-32.842783)" />
    <radialGradient
       cx="99.157013"
       cy="186.17059"
       r="62.769119"
       fx="99.157013"
       fy="186.17059"
       id="radialGradient5015"
       xlink:href="#linearGradient3820-7-2"
       gradientUnits="userSpaceOnUse"
       gradientTransform="matrix(0.38235362,0,0,0.11948554,-5.913044,34.255311)" />
    <radialGradient
       inkscape:collect="always"
       xlink:href="#linearGradient4446"
       id="radialGradient4448"
       cx="-40.530331"
       cy="-8.1386356"
       fx="-40.530331"
       fy="-8.1386356"
       r="29.143314"
       gradientUnits="userSpaceOnUse"
       gradientTransform="matrix(-4.2241138,0,0,-2.0739833,-65.229953,-32.235825)" />
    <linearGradient
       inkscape:collect="always"
       xlink:href="#linearGradient8348"
       id="linearGradient8350"
       x1="116.50549"
       y1="57.930454"
       x2="116.50549"
       y2="1.9401813"
       gradientUnits="userSpaceOnUse" />
    <linearGradient
       inkscape:collect="always"
       xlink:href="#linearGradient2790"
       id="linearGradient2792"
       x1="106.43437"
       y1="-109.10106"
       x2="106.43437"
       y2="73.905365"
       gradientUnits="userSpaceOnUse" />
  </defs>
  <metadata
     id="metadata4850">
    <rdf:RDF>
      <cc:Work
         rdf:about="">
        <dc:format>image/svg+xml</dc:format>
        <dc:type
           rdf:resource="http://purl.org/dc/dcmitype/StillImage" />
      </cc:Work>
    </rdf:RDF>
  </metadata>
  <path
     d="m 55.999998,56.499998 a 24,7.4999998 0 1 1 -47.999999,0 24,7.4999998 0 1 1 47.999999,0 z"
     id="path3818-0"
     style="fill:url(#radialGradient5015);fill-opacity:1;stroke:none;stroke-width:2;stroke-miterlimit:4;stroke-dasharray:none" />
  <g
     id="g12056"
     transform="translate(-74.06641,-0.14019911)"
     style="opacity:1">
    <g
       id="circle5264">
      <path
         style="color:#000000;fill:url(#linearGradient8350);fill-opacity:1;stroke-linecap:round;-inkscape-stroke:none;opacity:0.79946208"
         d="m 106.06641,1.1445312 c -16.852011,0 -30.542973,13.6909618 -30.542973,30.5429688 0,16.852007 13.690962,30.542969 30.542973,30.542969 16.852,0 30.54296,-13.690962 30.54296,-30.542969 0,-16.852007 -13.69096,-30.5429687 -30.54296,-30.5429688 z m 0,2.7988282 c 15.33877,0 27.74218,12.4053636 27.74218,27.7441406 0,15.338777 -12.40341,27.742187 -27.74218,27.742187 -15.33878,0 -27.744144,-12.40341 -27.744144,-27.742187 0,-15.338777 12.405364,-27.7441406 27.744144,-27.7441406 z"
         id="path5343" />
    </g>
    <circle
       style="opacity:1;fill:url(#radialGradient4448);fill-opacity:1;stroke:none;stroke-width:2.24067;stroke-linecap:round;stroke-miterlimit:4;stroke-dasharray:none;stroke-opacity:1"
       id="path4225"
       cx="106.06608"
       cy="31.686916"
       r="29.143314" />
    <g
       id="circle5505">
      <path
         id="path5870"
         style="color:#000000;fill:url(#linearGradient2792);fill-opacity:1;stroke-width:3;stroke-linecap:round;-inkscape-stroke:none"
         d="M 106.06641,2.5429688 A 29.143314,29.143314 0 0 0 76.921875,31.6875 29.143314,29.143314 0 0 0 106.06641,60.830078 29.143314,29.143314 0 0 0 135.20898,31.6875 29.143314,29.143314 0 0 0 106.06641,2.5429688 Z m 0,1.5 c 15.28473,1e-7 27.64257,12.3597982 27.64257,27.6445312 0,15.284733 -12.35784,27.642578 -27.64257,27.642578 -15.28474,0 -27.644535,-12.357845 -27.644535,-27.642578 0,-15.284733 12.359795,-27.6445312 27.644535,-27.6445312 z" />
    </g>
  </g>
  <path
     id="rect856"
     style="fill:#ffffff;fill-opacity:0.990228;stroke-width:4;stroke-linecap:round"
     d="m 31.986322,14.043395 c -2.852972,0 -5.150391,2.295465 -5.150391,5.148438 v 12.607422 c 0,2.852973 2.29742,5.15039 5.150391,5.15039 2.852973,0 5.148437,-2.297417 5.148437,-5.15039 V 19.191833 c 0,-2.852973 -2.295464,-5.148438 -5.148437,-5.148438 z M 20.751947,25.420348 c -0.446873,0 -0.806641,0.359768 -0.806641,0.806641 v 1.0625 c 0,0.446873 0.359768,0.806641 0.806641,0.806641 h 1.730469 v 3.839843 c 0,0.01904 0.0018,0.03763 0.002,0.05664 8.69e-4,0.14944 0.0021,0.297622 0.0098,0.445312 0.192378,4.20612 3.091558,7.681688 7.003907,8.738282 v 5.371094 h -1.396485 c -0.693941,0 -1.251953,0.558011 -1.251953,1.251953 0,0.693941 0.558012,1.251953 1.251953,1.251953 h 7.796875 c 0.693942,0 1.251953,-0.558012 1.251953,-1.251953 0,-0.693942 -0.558011,-1.251954 -1.251953,-1.251953 h -1.396566 v -5.371093 c 4.050036,-1.093654 7.015625,-4.778808 7.015625,-9.183594 V 28.15277 h 1.730469 c 0.446873,0 0.80664,-0.359767 0.80664,-0.80664 v -1.0625 c 0,-0.446873 -0.359767,-0.806641 -0.80664,-0.806641 h -2.953125 c -0.446873,0 -0.806641,0.359768 -0.806641,0.806641 v 0.375 h -0.0039 v 5.078125 c 0,4.218008 -3.337044,7.613281 -7.484375,7.613281 -4.013843,0 -7.271075,-3.180578 -7.476563,-7.208984 -0.0059,-0.115204 -0.007,-0.231121 -0.0078,-0.347657 V 26.71527 h -0.002 v -0.05664 h -0.002 v -0.431641 c 0,-0.446873 -0.359767,-0.806641 -0.80664,-0.806641 z" />
</svg>
