<?xml version="1.0" encoding="UTF-8" standalone="no"?>
<svg
   id="Iterm"
   width="64"
   height="64"
   enable-background="new 0 0 1024 1024"
   image-rendering="optimizeSpeed"
   version="1.1"
   viewBox="0 0 64 64"
   sodipodi:docname="preferences-system-power.svg"
   inkscape:version="1.1.2 (0a00cf5339, 2022-02-04)"
   xmlns:inkscape="http://www.inkscape.org/namespaces/inkscape"
   xmlns:sodipodi="http://sodipodi.sourceforge.net/DTD/sodipodi-0.dtd"
   xmlns:xlink="http://www.w3.org/1999/xlink"
   xmlns="http://www.w3.org/2000/svg"
   xmlns:svg="http://www.w3.org/2000/svg"
   xmlns:rdf="http://www.w3.org/1999/02/22-rdf-syntax-ns#"
   xmlns:cc="http://creativecommons.org/ns#"
   xmlns:dc="http://purl.org/dc/elements/1.1/">
  <sodipodi:namedview
     id="namedview811"
     pagecolor="#ffffff"
     bordercolor="#999999"
     borderopacity="1"
     inkscape:showpageshadow="0"
     inkscape:pageopacity="0"
     inkscape:pagecheckerboard="0"
     inkscape:deskcolor="#d1d1d1"
     showgrid="false"
     inkscape:zoom="6.84375"
     inkscape:cx="6.2100457"
     inkscape:cy="34.045662"
     inkscape:window-width="1920"
     inkscape:window-height="1016"
     inkscape:window-x="0"
     inkscape:window-y="32"
     inkscape:window-maximized="1"
     inkscape:current-layer="Iterm"
     inkscape:pageshadow="2" />
  <metadata
     id="metadata774">
    <rdf:RDF>
      <cc:Work
         rdf:about="">
        <dc:format>image/svg+xml</dc:format>
        <dc:type
           rdf:resource="http://purl.org/dc/dcmitype/StillImage" />
      </cc:Work>
    </rdf:RDF>
  </metadata>
  <defs
     id="defs793">
    <style
       type="text/css"
       id="style776" />
    <radialGradient
       id="radialGradient2747"
       cx="-12.56"
       cy="-2.1153"
       r="7.9373"
       gradientTransform="matrix(3.4646 0 0 3.4646 75.513 36.109)"
       gradientUnits="userSpaceOnUse">
      <stop
         stop-color="#32e6e6"
         offset="0"
         id="stop778" />
      <stop
         stop-color="#0078d4"
         offset="1"
         id="stop780" />
    </radialGradient>
    <linearGradient
       id="linearGradient2733"
       x1="-20.825"
       x2="-20.825"
       y1="5.166"
       y2="15.875"
       gradientTransform="matrix(3.7796 0 0 3.7796 138.09 -9.575)"
       gradientUnits="userSpaceOnUse">
      <stop
         stop-color="#fafafa"
         offset="0"
         id="stop783" />
      <stop
         stop-color="#f0f0f0"
         offset="1"
         id="stop785" />
    </linearGradient>
    <linearGradient
       id="linearGradient2719"
       x1="-26.707"
       x2="-26.707"
       y1="18.671"
       y2="15.934"
       gradientTransform="matrix(3.7796 0 0 3.7796 160.73 -9.575)"
       gradientUnits="userSpaceOnUse">
      <stop
         stop-color="#232220"
         offset="0"
         id="stop788" />
      <stop
         stop-color="#656b70"
         offset="1"
         id="stop790" />
    </linearGradient>
    <radialGradient
       id="radialGradient2747-5"
       cx="-12.56"
       cy="-2.1152999"
       r="7.9373002"
       gradientTransform="matrix(3.4647234,0,0,3.4647234,158.61098,36.329192)"
       gradientUnits="userSpaceOnUse">
      <stop
         stop-color="#32e6e6"
         offset="0"
         id="stop245" />
      <stop
         stop-color="#0078d4"
         offset="1"
         id="stop247" />
    </radialGradient>
    <filter
       id="filter2765"
       x="-0.096465677"
       y="-0.14351154"
       width="1.1929314"
       height="1.2870231"
       color-interpolation-filters="sRGB">
      <feGaussianBlur
         stdDeviation="0.16637114"
         id="feGaussianBlur250" />
    </filter>
    <filter
       id="filter1237"
       x="-0.096465677"
       y="-0.14351153"
       width="1.1929314"
       height="1.2870231"
       color-interpolation-filters="sRGB">
      <feGaussianBlur
         stdDeviation="0.16637114"
         id="feGaussianBlur1235" />
    </filter>
    <linearGradient
       id="linearGradient2733-3"
       x1="-20.825001"
       x2="-20.825001"
       y1="5.1659999"
       y2="15.875"
       gradientTransform="matrix(3.779602,0,0,3.779602,193.73482,-9.5752078)"
       gradientUnits="userSpaceOnUse">
      <stop
         stop-color="#fafafa"
         offset="0"
         id="stop253" />
      <stop
         stop-color="#f0f0f0"
         offset="1"
         id="stop255" />
    </linearGradient>
    <linearGradient
       id="linearGradient2719-5"
       x1="-26.707001"
       x2="-26.707001"
       y1="18.671"
       y2="15.934"
       gradientTransform="matrix(3.779602,0,0,3.779602,216.38219,-9.5752078)"
       gradientUnits="userSpaceOnUse">
      <stop
         stop-color="#232220"
         offset="0"
         id="stop258" />
      <stop
         stop-color="#656b70"
         offset="1"
         id="stop260" />
    </linearGradient>
    <filter
       id="filter5528"
       x="-0.103125"
       y="-0.058928571"
       width="1.20625"
       height="1.1178571"
       color-interpolation-filters="sRGB">
      <feGaussianBlur
         stdDeviation="0.515625"
         id="feGaussianBlur263" />
    </filter>
    <radialGradient
       cx="99.157013"
       cy="186.17059"
       r="62.769119"
       fx="99.157013"
       fy="186.17059"
       id="radialGradient4115"
       xlink:href="#linearGradient3820-7-2"
       gradientUnits="userSpaceOnUse"
       gradientTransform="matrix(0.37141148,0,0,0.11606613,-4.9006715,33.793132)" />
    <linearGradient
       id="linearGradient3820-7-2">
      <stop
         id="stop3822-2-6"
         style="stop-color:#3d3d3d;stop-opacity:1"
         offset="0" />
      <stop
         id="stop3864-8-7"
         style="stop-color:#686868;stop-opacity:0.49803922"
         offset="0.5" />
      <stop
         id="stop3824-1-2"
         style="stop-color:#686868;stop-opacity:0"
         offset="1" />
    </linearGradient>
    <radialGradient
       cx="23.896"
       cy="3.99"
       r="20.396999"
       fx="23.896"
       fy="3.99"
       id="radialGradient3268"
       xlink:href="#radialGradient3093-0-3-6"
       gradientUnits="userSpaceOnUse"
       gradientTransform="matrix(0,4.0385232,-5.330779,0,53.197727,-94.164911)" />
    <radialGradient
       cx="23.896"
       cy="3.99"
       r="20.396999"
       id="radialGradient3093-0-3-6"
       gradientUnits="userSpaceOnUse"
       gradientTransform="matrix(0,1.2316483,-1.625754,0,18.486966,-28.721977)">
      <stop
         id="stop3244-9-33-7-0"
         style="stop-color:#ffffff;stop-opacity:1"
         offset="0" />
      <stop
         id="stop3246-3-5-0-8"
         style="stop-color:#dddddd;stop-opacity:1"
         offset="0.26238" />
      <stop
         id="stop3248-1-7-8-8"
         style="stop-color:#abacae;stop-opacity:1"
         offset="0.66093999" />
      <stop
         id="stop3250-9-3-0-5"
         style="stop-color:#89898b;stop-opacity:1"
         offset="1" />
    </radialGradient>
    <radialGradient
       cx="15.026252"
       cy="8.6257601"
       r="19.99999"
       fx="4.4589653"
       fy="8.5088921"
       id="radialGradient4068"
       xlink:href="#linearGradient3846"
       gradientUnits="userSpaceOnUse"
       gradientTransform="matrix(-4.8897024e-8,2.6361592,-2.4836439,-7.6509247e-8,53.095094,-13.134518)" />
    <linearGradient
       id="linearGradient3846">
      <stop
         id="stop3848"
         style="stop-color:#fff3cb;stop-opacity:1"
         offset="0" />
      <stop
         id="stop3850"
         style="stop-color:#fdde76;stop-opacity:1"
         offset="0.26238" />
      <stop
         id="stop3852"
         style="stop-color:#f9c440;stop-opacity:1"
         offset="0.66093999" />
      <stop
         id="stop3854"
         style="stop-color:#e48b20;stop-opacity:1"
         offset="1" />
    </linearGradient>
    <linearGradient
       x1="71.204407"
       y1="15.369057"
       x2="71.204407"
       y2="40.495617"
       id="linearGradient3264"
       xlink:href="#linearGradient4806"
       gradientUnits="userSpaceOnUse"
       gradientTransform="matrix(2.3202387,0,0,2.3202387,-135.53842,-33.061842)" />
    <linearGradient
       id="linearGradient4806">
      <stop
         id="stop4808"
         style="stop-color:#ffffff;stop-opacity:1"
         offset="0" />
      <stop
         id="stop4810"
         style="stop-color:#ffffff;stop-opacity:0.23529412"
         offset="0.42447853" />
      <stop
         id="stop4812"
         style="stop-color:#ffffff;stop-opacity:0.15686275"
         offset="0.82089913" />
      <stop
         id="stop4814"
         style="stop-color:#ffffff;stop-opacity:0.39215687"
         offset="1" />
    </linearGradient>
  </defs>
  <mask
     id="mask798">
    <g
       id="g">
      <path
         d="m969.75 392.05c-1.1-4.35-2.35-9-3.65-13.6-1-3.4-2-6.85-3.15-10.5-1.6-5.15-3.4-10.5-5.3-15.85-6.45-18.25-14.15-36.05-23.15-53.65-3.8-7.4-7.95-14.95-12.3-22.4-20.3-34.5-45.8-67.2-76.35-97.75-72.6-72.6-157.15-116.65-253.65-132.05-16.25-2.6-32.8-4.4-50.05-5.35-9.7-0.55-19.85-0.85-30.1-0.85-9.35 0-18.6 0.25-27.9 0.75-118.35 6.1-220.3 51.95-305.85 137.5q-138.25 138.25-138.25 333.75c0 130.35 46.1 241.65 138.25 333.8 56.7 56.65 120.55 95.9 191.1 117.55 36.75 11.25 74.8 17.85 114.75 19.95h0.4c8.5 0.45 16.6 0.7 24.5 0.7h3c10.3 0 20.5-0.3 30.1-0.8 2.5-0.15 4.75-0.3 6.95-0.45 20.2-1.45 39.9-4.05 58.7-7.7 7.95-1.55 15.8-3.3 23.4-5.15 80.8-20.3 152.15-61.6 214.65-124.1 48.6-48.6 84.4-102.5 107.35-161.8 18.45-47.65 28.65-98.8 30.55-153.5 0.2-6.05 0.3-12.25 0.3-18.5v-3c-0.2-40.65-4.95-79.5-14.3-117z"
         fill="#fff"
         id="path795" />
    </g>
  </mask>
  <path
     style="fill:url(#radialGradient4115);fill-opacity:1;stroke:none;stroke-width:0.48579"
     id="path3818-0"
     inkscape:connector-curvature="0"
     d="m 55.240557,55.401226 a 23.313173,7.2853669 0 0 1 -46.6263467,0 23.313173,7.2853669 0 1 1 46.6263467,0 z" />
  <path
     style="color:#000000;display:inline;overflow:visible;visibility:visible;fill:url(#radialGradient3268);fill-opacity:1;fill-rule:nonzero;stroke:none;stroke-width:0.48579;marker:none;enable-background:accumulate"
     id="path2555-7"
     inkscape:connector-curvature="0"
     d="m 31.927384,2.9343973 c -15.814495,0 -28.6616235,12.8471237 -28.6616235,28.6616187 0,15.814495 12.8471285,28.661624 28.6616235,28.661624 15.814492,0 28.661632,-12.847129 28.661621,-28.661624 0,-15.814495 -12.847129,-28.6616187 -28.661621,-28.6616187 z" />
  <path
     style="color:#000000;display:inline;overflow:visible;visibility:visible;opacity:0.3;fill:none;stroke:#000000;stroke-width:0.48579;stroke-linecap:round;stroke-linejoin:round;stroke-miterlimit:4;stroke-dasharray:none;stroke-dashoffset:0;stroke-opacity:1;marker:none;enable-background:accumulate"
     id="path2555-7-1"
     inkscape:connector-curvature="0"
     d="m 31.927384,2.6915019 c -15.948515,0 -28.9045178,12.9560001 -28.9045178,28.9045171 0,15.948516 12.9560028,28.904523 28.9045178,28.904523 15.948513,0 28.904527,-12.956007 28.904518,-28.904523 0,-15.948517 -12.956005,-28.9045171 -28.904518,-28.9045171 z" />
  <path
     style="color:#000000;display:inline;overflow:visible;visibility:visible;fill:url(#radialGradient4068);fill-opacity:1;fill-rule:nonzero;stroke:none;stroke-width:0.48579;marker:none;enable-background:accumulate"
     id="path2555-7-65"
     inkscape:connector-curvature="0"
     d="m 31.927384,2.9343962 c -15.814495,0 -28.6616235,12.8471278 -28.6616235,28.6616238 0,15.814493 12.8471285,28.66162 28.6616235,28.66162 15.814492,0 28.661632,-12.847127 28.661621,-28.66162 0,-15.814496 -12.847129,-28.6616238 -28.661621,-28.6616238 z" />
  <path
     style="color:#000000;display:inline;overflow:visible;visibility:visible;opacity:0.8;fill:none;stroke:url(#linearGradient3264);stroke-width:0.48579;stroke-linecap:round;stroke-linejoin:round;stroke-miterlimit:4;stroke-dasharray:none;stroke-dashoffset:0;stroke-opacity:1;marker:none;enable-background:accumulate"
     id="path3019"
     inkscape:connector-curvature="0"
     d="m 60.34611,31.596019 c 0,15.695221 -12.72351,28.418721 -28.418742,28.418721 -15.69521,0 -28.4187121,-12.7235 -28.4187121,-28.418721 0,-15.695228 12.7235021,-28.4187231 28.4187121,-28.4187231 15.695232,0 28.418742,12.7234951 28.418742,28.4187231 z" />
  <path
     style="color:#000000;display:inline;overflow:visible;visibility:visible;opacity:0.5;fill:none;stroke:#985800;stroke-width:0.48579;stroke-linecap:round;stroke-linejoin:round;stroke-miterlimit:4;stroke-dasharray:none;stroke-dashoffset:0;stroke-opacity:1;marker:none;enable-background:accumulate"
     id="path2555-7-1-7"
     inkscape:connector-curvature="0"
     d="m 31.927384,2.6915019 c -15.948517,0 -28.9045178,12.9559981 -28.9045178,28.9045151 0,15.948518 12.9560008,28.904525 28.9045178,28.904525 15.948516,0 28.904531,-12.956007 28.904518,-28.904525 C 60.831902,15.6475 47.8759,2.6915019 31.927384,2.6915019 Z" />
  <path
     style="display:inline;overflow:visible;visibility:visible;fill:#333333;fill-opacity:1;fill-rule:nonzero;stroke:none;stroke-width:0.48579;marker:none;enable-background:accumulate"
     id="path3172"
     inkscape:connector-curvature="0"
     d="M 37.756866,14.107572 23.183159,34.510761 h 8.744225 L 26.0979,49.084467 40.671606,28.681277 h -6.801061 z" />
</svg>
