<?xml version="1.0" encoding="UTF-8" standalone="no"?>
<!-- Created with Inkscape (http://www.inkscape.org/) -->

<svg
   version="1.1"
   width="64"
   height="64"
   id="svg4845"
   inkscape:version="1.1.2 (0a00cf5339, 2022-02-04)"
   sodipodi:docname="kde.svg"
   xmlns:inkscape="http://www.inkscape.org/namespaces/inkscape"
   xmlns:sodipodi="http://sodipodi.sourceforge.net/DTD/sodipodi-0.dtd"
   xmlns:xlink="http://www.w3.org/1999/xlink"
   xmlns="http://www.w3.org/2000/svg"
   xmlns:svg="http://www.w3.org/2000/svg"
   xmlns:rdf="http://www.w3.org/1999/02/22-rdf-syntax-ns#"
   xmlns:cc="http://creativecommons.org/ns#"
   xmlns:dc="http://purl.org/dc/elements/1.1/">
  <sodipodi:namedview
     pagecolor="#ffffff"
     bordercolor="#666666"
     borderopacity="1"
     objecttolerance="10"
     gridtolerance="10"
     guidetolerance="10"
     inkscape:pageopacity="0"
     inkscape:pageshadow="2"
     inkscape:window-width="1920"
     inkscape:window-height="1030"
     id="namedview41"
     showgrid="false"
     inkscape:zoom="4"
     inkscape:cx="-37.625"
     inkscape:cy="29.125"
     inkscape:window-x="0"
     inkscape:window-y="24"
     inkscape:window-maximized="1"
     inkscape:current-layer="svg4845"
     inkscape:pagecheckerboard="0" />
  <defs
     id="defs4847">
    <linearGradient
       inkscape:collect="always"
       id="linearGradient8348">
      <stop
         style="stop-color:#24567e;stop-opacity:1"
         offset="0"
         id="stop8344" />
      <stop
         style="stop-color:#3b89a6;stop-opacity:1"
         offset="1"
         id="stop8346" />
    </linearGradient>
    <linearGradient
       inkscape:collect="always"
       id="linearGradient4446">
      <stop
         style="stop-color:#5bcaf1;stop-opacity:1"
         offset="0"
         id="stop4442" />
      <stop
         style="stop-color:#3d96dc;stop-opacity:1"
         offset="1"
         id="stop4444" />
    </linearGradient>
    <linearGradient
       id="linearGradient2513">
      <stop
         id="stop2505"
         style="stop-color:#9addf6;stop-opacity:1"
         offset="0" />
      <stop
         id="stop2511"
         style="stop-color:#85bde9;stop-opacity:1"
         offset="1" />
    </linearGradient>
    <linearGradient
       id="linearGradient4806">
      <stop
         id="stop4808"
         style="stop-color:#ffffff;stop-opacity:1"
         offset="0" />
      <stop
         id="stop4810"
         style="stop-color:#ffffff;stop-opacity:0.23529412"
         offset="0.42447853" />
      <stop
         id="stop4812"
         style="stop-color:#ffffff;stop-opacity:0.15686275"
         offset="0.82089913" />
      <stop
         id="stop4814"
         style="stop-color:#ffffff;stop-opacity:0.39215687"
         offset="1" />
    </linearGradient>
    <linearGradient
       id="linearGradient3242-7-3-8-9">
      <stop
         id="stop3244-5-8-5-3"
         style="stop-color:#eef87e;stop-opacity:1"
         offset="0" />
      <stop
         id="stop3246-9-5-1-2"
         style="stop-color:#cde34f;stop-opacity:1"
         offset="0.26238" />
      <stop
         id="stop3248-7-2-0-84"
         style="stop-color:#93b723;stop-opacity:1"
         offset="0.66093999" />
      <stop
         id="stop3250-8-2-8-3"
         style="stop-color:#5a7e0d;stop-opacity:1"
         offset="1" />
    </linearGradient>
    <radialGradient
       cx="299.44821"
       cy="-290.5918"
       r="17.1528"
       fx="297.44989"
       fy="-289.9133"
       id="XMLID_2_-8-6-1"
       gradientUnits="userSpaceOnUse"
       gradientTransform="matrix(0.8232,0.2312,0.2703,-0.9626,-96.2274,-315.3433)">
      <stop
         id="stop228-2-7-9"
         style="stop-color:#000000;stop-opacity:1"
         offset="0" />
      <stop
         id="stop230-7-5-7"
         style="stop-color:#000000;stop-opacity:0"
         offset="1" />
    </radialGradient>
    <linearGradient
       id="linearGradient2867-449-88-871-390-598-476-591-434-148-57-177-3-8">
      <stop
         id="stop3750-8-9"
         style="stop-color:#5bcaf1;stop-opacity:1"
         offset="0" />
      <stop
         id="stop3756-9-3"
         style="stop-color:#3d96dc;stop-opacity:1"
         offset="1" />
    </linearGradient>
    <linearGradient
       id="linearGradient3820-7-2">
      <stop
         id="stop3822-2-6"
         style="stop-color:#3d3d3d;stop-opacity:1"
         offset="0" />
      <stop
         id="stop3864-8-7"
         style="stop-color:#686868;stop-opacity:0.49803922"
         offset="0.5" />
      <stop
         id="stop3824-1-2"
         style="stop-color:#686868;stop-opacity:0"
         offset="1" />
    </linearGradient>
    <radialGradient
       cx="1.7704386"
       cy="9.0132227"
       r="19.99999"
       fx="1.7704386"
       fy="9.0132227"
       id="radialGradient5007"
       xlink:href="#linearGradient2867-449-88-871-390-598-476-591-434-148-57-177-3-8"
       gradientUnits="userSpaceOnUse"
       gradientTransform="matrix(-2.5792082e-7,2.4797942,-3.9933026,-1.7080462e-7,67.149868,1.2949186)" />
    <linearGradient
       x1="-1085.9586"
       y1="539.40955"
       x2="-474.68497"
       y2="375.61926"
       id="linearGradient5009"
       xlink:href="#XMLID_2_-8-6-1"
       gradientUnits="userSpaceOnUse"
       gradientTransform="matrix(0.1011621,0,0,0.08500722,118.6948,-5.5605522)" />
    <radialGradient
       cx="18.164446"
       cy="8.449769"
       r="19.99999"
       fx="8.894803"
       fy="8.5985041"
       id="radialGradient5011"
       xlink:href="#linearGradient3242-7-3-8-9"
       gradientUnits="userSpaceOnUse"
       gradientTransform="matrix(0,1.9915335,-1.8772441,-2.2997302e-8,47.862448,-4.4613112)" />
    <linearGradient
       x1="71.204407"
       y1="15.369057"
       x2="71.204407"
       y2="40.495617"
       id="linearGradient5013"
       xlink:href="#linearGradient4806"
       gradientUnits="userSpaceOnUse"
       gradientTransform="matrix(2.3268746,0,0,2.3268746,-135.94475,-32.842783)" />
    <radialGradient
       cx="99.157013"
       cy="186.17059"
       r="62.769119"
       fx="99.157013"
       fy="186.17059"
       id="radialGradient5015"
       xlink:href="#linearGradient3820-7-2"
       gradientUnits="userSpaceOnUse"
       gradientTransform="matrix(0.38235362,0,0,0.11948554,-5.913044,34.255311)" />
    <radialGradient
       inkscape:collect="always"
       xlink:href="#linearGradient4446"
       id="radialGradient4448"
       cx="-40.500923"
       cy="3.9440382"
       fx="-40.500923"
       fy="3.9440382"
       r="29.143314"
       gradientUnits="userSpaceOnUse"
       gradientTransform="matrix(3.1051217,0,0,1.7386409,231.82638,-2.9132278)" />
    <linearGradient
       inkscape:collect="always"
       xlink:href="#linearGradient8348"
       id="linearGradient8350"
       x1="116.50549"
       y1="57.930454"
       x2="116.50549"
       y2="1.9401813"
       gradientUnits="userSpaceOnUse" />
    <radialGradient
       inkscape:collect="always"
       xlink:href="#linearGradient16180"
       id="radialGradient16182"
       cx="161.2715"
       cy="56.02935"
       fx="161.2715"
       fy="56.02935"
       r="40.379646"
       gradientTransform="matrix(0.77906441,0,0,0.18971838,-94.070231,45.681486)"
       gradientUnits="userSpaceOnUse" />
    <linearGradient
       inkscape:collect="always"
       id="linearGradient16180">
      <stop
         style="stop-color:#000000;stop-opacity:1;"
         offset="0"
         id="stop16176" />
      <stop
         style="stop-color:#000000;stop-opacity:0.92941176;"
         offset="0.49057317"
         id="stop19001" />
      <stop
         style="stop-color:#000000;stop-opacity:0.88627451;"
         offset="0.55367821"
         id="stop18935" />
      <stop
         style="stop-color:#000000;stop-opacity:0.84705882;"
         offset="0.59294873"
         id="stop18739" />
      <stop
         style="stop-color:#000000;stop-opacity:0.81568627;"
         offset="0.62115973"
         id="stop18415" />
      <stop
         style="stop-color:#000000;stop-opacity:0.78039216;"
         offset="0.64806443"
         id="stop18091" />
      <stop
         style="stop-color:#000000;stop-opacity:0.7254902;"
         offset="0.68108439"
         id="stop17765" />
      <stop
         style="stop-color:#000000;stop-opacity:0.6627451;"
         offset="0.71550268"
         id="stop17047" />
      <stop
         style="stop-color:#000000;stop-opacity:0.61960784;"
         offset="0.73507237"
         id="stop17437" />
      <stop
         style="stop-color:#000000;stop-opacity:0.36078431;"
         offset="0.82777327"
         id="stop17439" />
      <stop
         style="stop-color:#000000;stop-opacity:0.25098039;"
         offset="0.85652107"
         id="stop17569" />
      <stop
         style="stop-color:#000000;stop-opacity:0.09803922;"
         offset="0.90949643"
         id="stop17635" />
      <stop
         style="stop-color:#000000;stop-opacity:0.06666667;"
         offset="0.9320882"
         id="stop16915" />
      <stop
         style="stop-color:#000000;stop-opacity:0.02745098;"
         offset="0.96934336"
         id="stop16785" />
      <stop
         style="stop-color:#000000;stop-opacity:0;"
         offset="1"
         id="stop16178" />
    </linearGradient>
  </defs>
  <metadata
     id="metadata4850">
    <rdf:RDF>
      <cc:Work
         rdf:about="">
        <dc:format>image/svg+xml</dc:format>
        <dc:type
           rdf:resource="http://purl.org/dc/dcmitype/StillImage" />
      </cc:Work>
    </rdf:RDF>
  </metadata>
  <ellipse
     style="opacity:0.266229;fill:url(#radialGradient16182);fill-opacity:1;stroke:none;stroke-width:1.99767;stroke-linecap:round;stroke-miterlimit:4;stroke-dasharray:none;stroke-opacity:1"
     id="path15778"
     cx="31.570648"
     cy="56.311279"
     rx="31.458345"
     ry="7.6607614" />
  <g
     id="g12056"
     transform="translate(-74.06641,-0.14019911)"
     style="opacity:1">
    <g
       id="circle5264">
      <path
         style="color:#000000;fill:url(#linearGradient8350);fill-opacity:1;stroke-linecap:round;-inkscape-stroke:none;opacity:0.79946208"
         d="m 106.06641,1.1445312 c -16.852011,0 -30.542973,13.6909618 -30.542973,30.5429688 0,16.852007 13.690962,30.542969 30.542973,30.542969 16.852,0 30.54296,-13.690962 30.54296,-30.542969 0,-16.852007 -13.69096,-30.5429687 -30.54296,-30.5429688 z m 0,2.7988282 c 15.33877,0 27.74218,12.4053636 27.74218,27.7441406 0,15.338777 -12.40341,27.742187 -27.74218,27.742187 -15.33878,0 -27.744144,-12.40341 -27.744144,-27.742187 0,-15.338777 12.405364,-27.7441406 27.744144,-27.7441406 z"
         id="path5343" />
    </g>
    <circle
       style="opacity:1;fill:url(#radialGradient4448);fill-opacity:1;stroke:none;stroke-width:2.24067;stroke-linecap:round;stroke-miterlimit:4;stroke-dasharray:none;stroke-opacity:1"
       id="path4225"
       cx="106.06608"
       cy="31.686916"
       r="29.143314" />
    <g
       id="circle5505">
      <path
         id="path5870"
         style="color:#000000;fill:#ffffff;fill-opacity:0.441171;stroke-width:3;stroke-linecap:round;-inkscape-stroke:none"
         d="M 106.06641,2.5429688 A 29.143314,29.143314 0 0 0 76.921875,31.6875 29.143314,29.143314 0 0 0 106.06641,60.830078 29.143314,29.143314 0 0 0 135.20898,31.6875 29.143314,29.143314 0 0 0 106.06641,2.5429688 Z m 0,1.5 c 15.28473,1e-7 27.64257,12.3597982 27.64257,27.6445312 0,15.284733 -12.35784,27.642578 -27.64257,27.642578 -15.28474,0 -27.644535,-12.357845 -27.644535,-27.642578 0,-15.284733 12.359795,-27.6445312 27.644535,-27.6445312 z" />
    </g>
  </g>
  <g
     id="g1521"
     style="opacity:0.6609488">
    <path
       id="path1338"
       style="fill:#00020d;fill-opacity:0.03370963;stroke-width:3.87359"
       d="m 35.121728,15.50195 -6.247068,0.944417 v 22.598399 l 6.247068,-1.676091 V 28.6363 L 41.366807,38.929448 47.615863,36.585306 39.806034,27.214705 47.617851,17.0667 41.55569,15.50195 35.121728,25.743403 Z m -12.720795,6.127773 a 0.58103636,0.58103636 0 0 0 -0.409579,0.170989 l -2.451507,2.455484 c -0.22854,0.228539 -0.17431,0.549994 0,0.821144 l 2.537002,3.988421 c -0.185931,0.387358 -0.349557,0.794279 -0.485132,1.204877 l -0.02187,0.05169 -4.610741,1.025934 c -0.309887,0.06972 -0.580569,0.259062 -0.580569,0.580568 v 3.067863 c 0,0.31764 0.270682,0.506967 0.580569,0.580567 l 4.610741,1.023947 0.03778,0.08947 c 0.131702,0.398979 0.291145,0.78948 0.473202,1.169089 l -2.540978,3.990409 c -0.174309,0.271166 -0.228539,0.592502 0,0.817168 l 2.451507,2.455483 a 0.5771628,0.5771628 0 0 0 0.821146,0 l 3.982455,-2.537001 c 0.39123,0.193666 0.79438,0.355623 1.208853,0.495073 0.02713,0.0076 0.05042,0.02428 0.07754,0.03579 l 1.021958,4.604777 c 0,0.317641 0.259061,0.580567 0.580568,0.580567 h 3.467501 c 0.321506,0 0.510843,-0.270698 0.580567,-0.580567 l 1.017982,-4.747931 c 0.472579,-0.174317 0.930093,-0.388229 1.363936,-0.632261 l 3.889009,2.781554 a 0.5771628,0.5771628 0 0 0 0.817169,0 l 2.457471,-2.451506 c 0.228529,-0.228529 0.174316,-0.549997 0,-0.821145 l -1.481243,-2.246718 -0.155082,0.05766 A 0.78246231,0.78246231 0 0 1 40.700744,39.33505 L 39.143949,36.770213 A 8.5915912,8.5915912 0 0 1 22.625604,33.463761 c 0,-3.641163 2.269988,-6.74357 5.465688,-7.994736 v -1.713868 l -0.0099,0.05965 c -0.03487,0.01162 -0.06654,0.03003 -0.1014,0.03778 A 10.156516,10.156516 0 0 0 26.787045,24.33772 L 22.8125,21.804688 a 0.5771628,0.5771628 0 0 0 -0.411567,-0.174965 z" />
    <path
       id="path1466"
       style="fill:#00020d;fill-opacity:0.03370963;stroke-width:3.89307"
       d="m 35.402632,15.98339 -6.27849,0.949168 v 22.712069 l 6.27849,-1.684522 v -8.776299 l 6.276492,10.344923 6.280489,-2.355933 -7.849113,-9.417735 7.851111,-10.19905 -6.092654,-1.572621 -6.466325,10.292968 z m -12.78478,6.158596 a 0.58395898,0.58395898 0 0 0 -0.41164,0.171849 l -2.463838,2.467835 c -0.229689,0.229689 -0.175186,0.552761 0,0.825275 l 2.549764,4.008482 c -0.186867,0.389307 -0.351316,0.798275 -0.487573,1.210938 l -0.02198,0.05195 -4.633933,1.031094 c -0.311445,0.07007 -0.583489,0.260365 -0.583489,0.583489 v 3.083294 c 0,0.319238 0.272044,0.509517 0.583489,0.583487 l 4.633933,1.029098 0.03797,0.08992 c 0.132365,0.400986 0.29261,0.793451 0.475583,1.174969 l -2.55376,4.010481 c -0.175185,0.27253 -0.229688,0.595482 0,0.821278 l 2.463839,2.467835 a 0.58006593,0.58006593 0 0 0 0.825276,0 l 4.002487,-2.549763 c 0.393198,0.194641 0.798375,0.357412 1.214933,0.497564 0.02727,0.0076 0.05067,0.0244 0.07793,0.03597 l 1.027099,4.627939 c 0,0.319238 0.260364,0.583487 0.583488,0.583487 h 3.484943 c 0.323123,0 0.513412,-0.27206 0.583487,-0.583487 l 1.023102,-4.771813 c 0.474956,-0.175194 0.934772,-0.390182 1.370797,-0.635442 l 3.908571,2.795546 a 0.58006593,0.58006593 0 0 0 0.821279,0 l 2.469832,-2.463838 c 0.229679,-0.229678 0.175193,-0.552763 0,-0.825275 l -1.488694,-2.258019 -0.155862,0.05795 A 0.7863981,0.7863981 0 0 1 41.009711,39.936371 L 39.445085,37.358633 A 8.634807,8.634807 0 0 1 22.843653,34.035549 c 0,-3.659478 2.281406,-6.77749 5.49318,-8.034949 v -1.722489 l -0.0099,0.05995 c -0.03505,0.01168 -0.06687,0.03018 -0.10191,0.03797 a 10.207603,10.207603 0 0 0 -1.198947,0.487573 l -3.994537,-2.545773 a 0.58006593,0.58006593 0 0 0 -0.413637,-0.175845 z" />
    <path
       id="path1468"
       style="fill:#00020d;fill-opacity:0.03370963;stroke-width:3.93278"
       d="m 35.767652,15.995544 -6.342531,0.95885 v 22.943733 l 6.342531,-1.701704 v -8.865818 l 6.340512,10.450442 6.344551,-2.379964 -7.929175,-9.513796 7.931193,-10.303081 -6.154799,-1.588662 -6.532282,10.397957 z m -12.915185,6.221414 a 0.58991538,0.58991538 0 0 0 -0.415839,0.173602 l -2.488969,2.493007 c -0.232032,0.232032 -0.176973,0.558399 0,0.833693 l 2.575772,4.049369 c -0.188773,0.393278 -0.3549,0.806417 -0.492547,1.223289 l -0.0222,0.05248 -4.681199,1.041611 c -0.314622,0.07079 -0.589441,0.263021 -0.589441,0.589441 v 3.114744 c 0,0.322494 0.274819,0.514714 0.589441,0.589438 l 4.681199,1.039595 0.03836,0.09084 c 0.133715,0.405076 0.295594,0.801544 0.480433,1.186954 l -2.579808,4.051388 c -0.176972,0.27531 -0.232031,0.601556 0,0.829655 l 2.48897,2.493007 a 0.58598262,0.58598262 0 0 0 0.833694,0 L 27.313646,43.4933 c 0.397208,0.196627 0.806518,0.361058 1.227325,0.502639 0.02755,0.0077 0.05119,0.02465 0.07872,0.03634 l 1.037575,4.675144 c 0,0.322495 0.26302,0.589439 0.58944,0.589439 h 3.520489 c 0.326419,0 0.518649,-0.274835 0.589439,-0.589439 l 1.033538,-4.820485 c 0.4798,-0.176981 0.944306,-0.394162 1.384779,-0.641924 l 3.948438,2.824061 a 0.58598262,0.58598262 0 0 0 0.829656,0 l 2.495025,-2.488969 c 0.232021,-0.232021 0.17698,-0.558401 0,-0.833693 l -1.503879,-2.281051 -0.157452,0.05854 A 0.79441938,0.79441938 0 0 1 41.431923,40.192846 L 39.851338,37.588815 A 8.7228823,8.7228823 0 0 1 23.080571,34.231836 c 0,-3.696805 2.304677,-6.846621 5.549211,-8.116906 v -1.740058 l -0.01,0.06056 c -0.03541,0.0118 -0.06755,0.03049 -0.10295,0.03836 a 10.311721,10.311721 0 0 0 -1.211176,0.492546 l -4.035281,-2.57174 a 0.58598262,0.58598262 0 0 0 -0.417857,-0.177639 z" />
    <path
       id="path1470"
       style="fill:#00020d;fill-opacity:0.03370963;stroke-width:3.93278"
       d="m 35.89435,16.457404 -6.342531,0.95885 v 22.943733 l 6.342531,-1.701704 v -8.865818 l 6.340512,10.450442 6.344551,-2.379964 -7.929175,-9.513796 7.931193,-10.303081 -6.154799,-1.588662 -6.532282,10.397957 z m -12.915185,6.221414 a 0.58991538,0.58991538 0 0 0 -0.415839,0.173602 l -2.488969,2.493007 c -0.232032,0.232032 -0.176973,0.558399 0,0.833693 l 2.575772,4.049369 c -0.188773,0.393278 -0.3549,0.806417 -0.492547,1.223289 l -0.0222,0.05248 -4.681199,1.041611 c -0.314622,0.07079 -0.589441,0.263021 -0.589441,0.589441 v 3.114744 c 0,0.322494 0.274819,0.514714 0.589441,0.589438 l 4.681199,1.039595 0.03836,0.09084 c 0.133715,0.405076 0.295594,0.801544 0.480433,1.186954 l -2.579808,4.051388 c -0.176972,0.27531 -0.232031,0.601556 0,0.829655 l 2.48897,2.493007 a 0.58598262,0.58598262 0 0 0 0.833694,0 l 4.043313,-2.575771 c 0.397208,0.196627 0.806518,0.361058 1.227325,0.502639 0.02755,0.0077 0.05119,0.02465 0.07872,0.03634 l 1.037575,4.675144 c 0,0.322495 0.26302,0.589439 0.58944,0.589439 h 3.520489 c 0.326419,0 0.518649,-0.274835 0.589439,-0.589439 l 1.033538,-4.820485 c 0.4798,-0.176981 0.944306,-0.394162 1.384779,-0.641924 l 3.948438,2.824061 a 0.58598262,0.58598262 0 0 0 0.829656,0 l 2.495025,-2.488969 c 0.232021,-0.232021 0.17698,-0.558401 0,-0.833693 l -1.503879,-2.281051 -0.157452,0.05854 A 0.79441938,0.79441938 0 0 1 41.558621,40.654706 L 39.978036,38.050675 A 8.7228823,8.7228823 0 0 1 23.207269,34.693696 c 0,-3.696805 2.304677,-6.846621 5.549211,-8.116906 v -1.740058 l -0.01,0.06056 c -0.03541,0.0118 -0.06755,0.03049 -0.10295,0.03836 a 10.311721,10.311721 0 0 0 -1.211176,0.492546 l -4.035281,-2.57174 a 0.58598262,0.58598262 0 0 0 -0.417857,-0.177639 z" />
    <path
       id="path1472"
       style="fill:#00020d;fill-opacity:0.03370963;stroke-width:3.93278"
       d="m 36.065012,17.024478 -6.342531,0.95885 v 22.943733 l 6.342531,-1.701704 V 30.359539 L 42.405524,40.809981 48.750075,38.430017 40.8209,28.916221 48.752093,18.61314 42.597294,17.024478 36.065012,27.422435 Z m -12.915185,6.221414 a 0.58991538,0.58991538 0 0 0 -0.415839,0.173602 l -2.488969,2.493007 c -0.232032,0.232032 -0.176973,0.558399 0,0.833693 l 2.575772,4.049369 c -0.188773,0.393278 -0.3549,0.806417 -0.492547,1.223289 l -0.0222,0.05248 -4.681199,1.041611 c -0.314622,0.07079 -0.589441,0.263021 -0.589441,0.589441 v 3.114744 c 0,0.322494 0.274819,0.514714 0.589441,0.589438 l 4.681199,1.039595 0.03836,0.09084 c 0.133715,0.405076 0.295594,0.801544 0.480433,1.186954 l -2.579808,4.051388 c -0.176972,0.27531 -0.232031,0.601556 0,0.829655 l 2.48897,2.493007 a 0.58598262,0.58598262 0 0 0 0.833694,0 l 4.043313,-2.575771 c 0.397208,0.196627 0.806518,0.361058 1.227325,0.502639 0.02755,0.0077 0.05119,0.02465 0.07872,0.03634 l 1.037575,4.675144 c 0,0.322495 0.26302,0.589439 0.58944,0.589439 h 3.520489 c 0.326419,0 0.518649,-0.274835 0.589439,-0.589439 l 1.033538,-4.820485 c 0.4798,-0.176981 0.944306,-0.394162 1.384779,-0.641924 l 3.948438,2.824061 a 0.58598262,0.58598262 0 0 0 0.829656,0 L 44.34543,44.60904 c 0.232021,-0.232021 0.17698,-0.558401 0,-0.833693 l -1.503879,-2.281051 -0.157452,0.05854 A 0.79441938,0.79441938 0 0 1 41.729283,41.22178 L 40.148698,38.617749 A 8.7228823,8.7228823 0 0 1 23.377931,35.26077 c 0,-3.696805 2.304677,-6.846621 5.549211,-8.116906 v -1.740058 l -0.01,0.06056 c -0.03541,0.0118 -0.06755,0.03049 -0.10295,0.03836 a 10.311721,10.311721 0 0 0 -1.211176,0.492546 l -4.035281,-2.57174 a 0.58598262,0.58598262 0 0 0 -0.417857,-0.177639 z" />
    <path
       id="path1474"
       style="fill:#00020d;fill-opacity:0.03370963;stroke-width:3.93278"
       d="m 36.370352,17.448222 -6.342531,0.95885 v 22.943733 l 6.342531,-1.701704 v -8.865818 l 6.340512,10.450442 6.344551,-2.379964 -7.929175,-9.513796 7.931193,-10.303081 -6.154799,-1.588662 -6.532282,10.397957 z m -12.915185,6.221414 a 0.58991538,0.58991538 0 0 0 -0.415839,0.173602 l -2.488969,2.493007 c -0.232032,0.232032 -0.176973,0.558399 0,0.833693 l 2.575772,4.049369 c -0.188773,0.393278 -0.3549,0.806417 -0.492547,1.223289 l -0.0222,0.05248 -4.681199,1.041611 c -0.314622,0.07079 -0.589441,0.263021 -0.589441,0.589441 v 3.114744 c 0,0.322494 0.274819,0.514714 0.589441,0.589438 l 4.681199,1.039595 0.03836,0.09084 c 0.133715,0.405076 0.295594,0.801544 0.480433,1.186954 l -2.579808,4.051388 c -0.176972,0.27531 -0.232031,0.601556 0,0.829655 l 2.48897,2.493007 a 0.58598262,0.58598262 0 0 0 0.833694,0 l 4.043313,-2.575771 c 0.397208,0.196627 0.806518,0.361058 1.227325,0.502639 0.02755,0.0077 0.05119,0.02465 0.07872,0.03634 l 1.037575,4.675144 c 0,0.322495 0.26302,0.589439 0.58944,0.589439 h 3.520489 c 0.326419,0 0.518649,-0.274835 0.589439,-0.589439 l 1.033538,-4.820485 c 0.4798,-0.176981 0.944306,-0.394162 1.384779,-0.641924 l 3.948438,2.824061 a 0.58598262,0.58598262 0 0 0 0.829656,0 l 2.495025,-2.488969 c 0.232021,-0.232021 0.17698,-0.558401 0,-0.833693 L 43.146891,41.91804 42.989439,41.97658 A 0.79441938,0.79441938 0 0 1 42.034623,41.645524 L 40.454038,39.041493 A 8.7228823,8.7228823 0 0 1 23.683271,35.684514 c 0,-3.696805 2.304677,-6.846621 5.549211,-8.116906 V 25.82755 l -0.01,0.06056 c -0.03541,0.0118 -0.06755,0.03049 -0.10295,0.03836 a 10.311721,10.311721 0 0 0 -1.211176,0.492546 l -4.035281,-2.57174 a 0.58598262,0.58598262 0 0 0 -0.417857,-0.177639 z" />
    <path
       id="path1476"
       style="fill:#00020d;fill-opacity:0.03370963;stroke-width:3.98312"
       d="m 36.482972,18.016766 -6.423708,0.971122 v 23.237388 l 6.423708,-1.723484 V 31.522501 L 42.904636,42.106697 49.33039,39.696272 41.299731,30.06071 49.332434,19.625761 43.09886,18.016766 36.482972,28.547805 Z m -13.080485,6.301041 a 0.59746564,0.59746564 0 0 0 -0.421161,0.175824 l -2.520825,2.524915 c -0.235002,0.235002 -0.179238,0.565546 0,0.844363 l 2.608739,4.101197 c -0.191189,0.398311 -0.359442,0.816738 -0.498851,1.238945 l -0.02248,0.05315 -4.741113,1.054943 c -0.318649,0.0717 -0.596985,0.266387 -0.596985,0.596985 v 3.154609 c 0,0.326622 0.278336,0.521302 0.596985,0.596982 l 4.741113,1.052901 0.03885,0.092 c 0.135426,0.410261 0.299377,0.811803 0.486582,1.202146 l -2.612827,4.103241 c -0.179237,0.278834 -0.235001,0.609256 0,0.840274 l 2.520826,2.524915 a 0.59348255,0.59348255 0 0 0 0.844365,0 l 4.095063,-2.608738 c 0.402291,0.199143 0.81684,0.365679 1.243033,0.509072 0.0279,0.0078 0.05185,0.02497 0.07973,0.0368 l 1.050855,4.734981 c 0,0.326622 0.266387,0.596983 0.596984,0.596983 h 3.565548 c 0.330597,0 0.525287,-0.278353 0.596983,-0.596983 l 1.046766,-4.882182 c 0.485941,-0.179246 0.956392,-0.399207 1.402503,-0.65014 l 3.998973,2.860206 a 0.59348255,0.59348255 0 0 0 0.840275,0 l 2.526959,-2.520825 c 0.23499,-0.234991 0.179245,-0.565548 0,-0.844363 l -1.523133,-2.310237 -0.159468,0.05929 A 0.80458707,0.80458707 0 0 1 42.21974,42.523767 l -1.600815,-2.63736 A 8.8345255,8.8345255 0 0 1 23.633511,36.486462 c 0,-3.74412 2.334174,-6.93425 5.620235,-8.220793 V 26.50334 l -0.01013,0.06133 c -0.03586,0.01195 -0.06842,0.03088 -0.104268,0.03885 a 10.4437,10.4437 0 0 0 -1.226678,0.49885 l -4.086926,-2.604649 a 0.59348255,0.59348255 0 0 0 -0.423205,-0.179913 z" />
  </g>
  <path
     id="path6"
     style="fill:#fdfdfd;fill-opacity:1;stroke-width:3.80517"
     d="M 35.308594 15.785156 L 29.171875 16.712891 L 29.171875 38.912109 L 35.308594 37.265625 L 35.308594 28.6875 L 41.443359 38.798828 L 47.582031 36.496094 L 39.910156 27.291016 L 47.583984 17.322266 L 41.628906 15.785156 L 35.308594 25.845703 L 35.308594 15.785156 z M 22.8125 21.804688 A 0.57077287 0.57077287 0 0 0 22.410156 21.972656 L 20.001953 24.384766 C 19.77745 24.609268 19.830722 24.925045 20.001953 25.191406 L 22.494141 29.109375 C 22.311494 29.48989 22.150759 29.889623 22.017578 30.292969 L 21.996094 30.34375 L 17.466797 31.351562 C 17.162384 31.420053 16.896484 31.606048 16.896484 31.921875 L 16.896484 34.935547 C 16.896484 35.247576 17.162384 35.433559 17.466797 35.505859 L 21.996094 36.511719 L 22.033203 36.599609 C 22.162579 36.991541 22.319206 37.375144 22.498047 37.748047 L 20.001953 41.667969 C 19.830723 41.934345 19.777451 42.250005 20.001953 42.470703 L 22.410156 44.882812 A 0.56696774 0.56696774 0 0 0 23.216797 44.882812 L 27.128906 42.390625 C 27.513225 42.58087 27.909254 42.739966 28.316406 42.876953 C 28.343056 42.884453 28.365938 42.900799 28.392578 42.912109 L 29.396484 47.435547 C 29.396484 47.747577 29.650969 48.005859 29.966797 48.005859 L 33.373047 48.005859 C 33.688874 48.005859 33.874867 47.739943 33.943359 47.435547 L 34.943359 42.771484 C 35.407591 42.600246 35.857023 42.390113 36.283203 42.150391 L 40.103516 44.882812 A 0.56696774 0.56696774 0 0 0 40.90625 44.882812 L 43.320312 42.474609 C 43.544804 42.250117 43.491549 41.934328 43.320312 41.667969 L 41.865234 39.460938 L 41.712891 39.517578 A 0.76864081 0.76864081 0 0 1 40.789062 39.197266 L 39.259766 36.677734 A 8.4398284 8.4398284 0 0 1 23.033203 33.429688 C 23.033203 29.852843 25.263093 26.805237 28.402344 25.576172 L 28.402344 23.892578 L 28.392578 23.951172 C 28.358328 23.962582 28.327209 23.980671 28.292969 23.988281 A 9.9771102 9.9771102 0 0 0 27.121094 24.464844 L 23.216797 21.976562 A 0.56696774 0.56696774 0 0 0 22.8125 21.804688 z " />
</svg>
