<?xml version="1.0" encoding="UTF-8" standalone="no"?>
<!-- Created with Inkscape (http://www.inkscape.org/) -->

<svg
   version="1.1"
   width="64"
   height="64"
   id="svg4845"
   inkscape:version="1.1.2 (0a00cf5339, 2022-02-04)"
   sodipodi:docname="librewolf.svg"
   xmlns:inkscape="http://www.inkscape.org/namespaces/inkscape"
   xmlns:sodipodi="http://sodipodi.sourceforge.net/DTD/sodipodi-0.dtd"
   xmlns:xlink="http://www.w3.org/1999/xlink"
   xmlns="http://www.w3.org/2000/svg"
   xmlns:svg="http://www.w3.org/2000/svg"
   xmlns:rdf="http://www.w3.org/1999/02/22-rdf-syntax-ns#"
   xmlns:cc="http://creativecommons.org/ns#"
   xmlns:dc="http://purl.org/dc/elements/1.1/">
  <sodipodi:namedview
     pagecolor="#ffffff"
     bordercolor="#666666"
     borderopacity="1"
     objecttolerance="10"
     gridtolerance="10"
     guidetolerance="10"
     inkscape:pageopacity="0"
     inkscape:pageshadow="2"
     inkscape:window-width="1920"
     inkscape:window-height="1030"
     id="namedview41"
     showgrid="false"
     inkscape:zoom="11.313709"
     inkscape:cx="40.437668"
     inkscape:cy="33.189824"
     inkscape:window-x="0"
     inkscape:window-y="24"
     inkscape:window-maximized="1"
     inkscape:current-layer="svg4845"
     inkscape:pagecheckerboard="0" />
  <defs
     id="defs4847">
    <linearGradient
       inkscape:collect="always"
       id="linearGradient1429">
      <stop
         style="stop-color:#ffffff;stop-opacity:1;"
         offset="0"
         id="stop1425" />
      <stop
         style="stop-color:#ffffff;stop-opacity:0;"
         offset="1"
         id="stop1427" />
    </linearGradient>
    <linearGradient
       inkscape:collect="always"
       id="linearGradient8348">
      <stop
         style="stop-color:#1a4b72;stop-opacity:1"
         offset="0"
         id="stop8344" />
      <stop
         style="stop-color:#297491;stop-opacity:1"
         offset="1"
         id="stop8346" />
    </linearGradient>
    <linearGradient
       inkscape:collect="always"
       id="linearGradient4446">
      <stop
         style="stop-color:#5bcaf1;stop-opacity:1"
         offset="0"
         id="stop4442" />
      <stop
         style="stop-color:#3d96dc;stop-opacity:1"
         offset="1"
         id="stop4444" />
    </linearGradient>
    <linearGradient
       id="linearGradient2513">
      <stop
         id="stop2505"
         style="stop-color:#9addf6;stop-opacity:1"
         offset="0" />
      <stop
         id="stop2511"
         style="stop-color:#85bde9;stop-opacity:1"
         offset="1" />
    </linearGradient>
    <linearGradient
       id="linearGradient4806">
      <stop
         id="stop4808"
         style="stop-color:#ffffff;stop-opacity:1"
         offset="0" />
      <stop
         id="stop4810"
         style="stop-color:#ffffff;stop-opacity:0.23529412"
         offset="0.42447853" />
      <stop
         id="stop4812"
         style="stop-color:#ffffff;stop-opacity:0.15686275"
         offset="0.82089913" />
      <stop
         id="stop4814"
         style="stop-color:#ffffff;stop-opacity:0.39215687"
         offset="1" />
    </linearGradient>
    <linearGradient
       id="linearGradient3242-7-3-8-9">
      <stop
         id="stop3244-5-8-5-3"
         style="stop-color:#eef87e;stop-opacity:1"
         offset="0" />
      <stop
         id="stop3246-9-5-1-2"
         style="stop-color:#cde34f;stop-opacity:1"
         offset="0.26238" />
      <stop
         id="stop3248-7-2-0-84"
         style="stop-color:#93b723;stop-opacity:1"
         offset="0.66093999" />
      <stop
         id="stop3250-8-2-8-3"
         style="stop-color:#5a7e0d;stop-opacity:1"
         offset="1" />
    </linearGradient>
    <radialGradient
       cx="299.44821"
       cy="-290.5918"
       r="17.1528"
       fx="297.44989"
       fy="-289.9133"
       id="XMLID_2_-8-6-1"
       gradientUnits="userSpaceOnUse"
       gradientTransform="matrix(0.8232,0.2312,0.2703,-0.9626,-96.2274,-315.3433)">
      <stop
         id="stop228-2-7-9"
         style="stop-color:#000000;stop-opacity:1"
         offset="0" />
      <stop
         id="stop230-7-5-7"
         style="stop-color:#000000;stop-opacity:0"
         offset="1" />
    </radialGradient>
    <linearGradient
       id="linearGradient2867-449-88-871-390-598-476-591-434-148-57-177-3-8">
      <stop
         id="stop3750-8-9"
         style="stop-color:#5bcaf1;stop-opacity:1"
         offset="0" />
      <stop
         id="stop3756-9-3"
         style="stop-color:#3d96dc;stop-opacity:1"
         offset="1" />
    </linearGradient>
    <linearGradient
       id="linearGradient3820-7-2">
      <stop
         id="stop3822-2-6"
         style="stop-color:#3d3d3d;stop-opacity:1"
         offset="0" />
      <stop
         id="stop3864-8-7"
         style="stop-color:#686868;stop-opacity:0.49803922"
         offset="0.5" />
      <stop
         id="stop3824-1-2"
         style="stop-color:#686868;stop-opacity:0"
         offset="1" />
    </linearGradient>
    <radialGradient
       cx="1.7704386"
       cy="9.0132227"
       r="19.99999"
       fx="1.7704386"
       fy="9.0132227"
       id="radialGradient5007"
       xlink:href="#linearGradient2867-449-88-871-390-598-476-591-434-148-57-177-3-8"
       gradientUnits="userSpaceOnUse"
       gradientTransform="matrix(-2.5792082e-7,2.4797942,-3.9933026,-1.7080462e-7,67.149868,1.2949186)" />
    <linearGradient
       x1="-1085.9586"
       y1="539.40955"
       x2="-474.68497"
       y2="375.61926"
       id="linearGradient5009"
       xlink:href="#XMLID_2_-8-6-1"
       gradientUnits="userSpaceOnUse"
       gradientTransform="matrix(0.1011621,0,0,0.08500722,118.6948,-5.5605522)" />
    <radialGradient
       cx="18.164446"
       cy="8.449769"
       r="19.99999"
       fx="8.894803"
       fy="8.5985041"
       id="radialGradient5011"
       xlink:href="#linearGradient3242-7-3-8-9"
       gradientUnits="userSpaceOnUse"
       gradientTransform="matrix(0,1.9915335,-1.8772441,-2.2997302e-8,47.862448,-4.4613112)" />
    <linearGradient
       x1="71.204407"
       y1="15.369057"
       x2="71.204407"
       y2="40.495617"
       id="linearGradient5013"
       xlink:href="#linearGradient4806"
       gradientUnits="userSpaceOnUse"
       gradientTransform="matrix(2.3268746,0,0,2.3268746,-135.94475,-32.842783)" />
    <radialGradient
       cx="99.157013"
       cy="186.17059"
       r="62.769119"
       fx="99.157013"
       fy="186.17059"
       id="radialGradient5015"
       xlink:href="#linearGradient3820-7-2"
       gradientUnits="userSpaceOnUse"
       gradientTransform="matrix(0.38235362,0,0,0.11948554,-5.913044,34.255311)" />
    <radialGradient
       inkscape:collect="always"
       xlink:href="#linearGradient4446"
       id="radialGradient4448"
       cx="-40.500923"
       cy="3.9440382"
       fx="-40.500923"
       fy="3.9440382"
       r="29.143314"
       gradientUnits="userSpaceOnUse"
       gradientTransform="matrix(3.1051217,0,0,1.7386409,231.82638,-2.9132278)" />
    <linearGradient
       inkscape:collect="always"
       xlink:href="#linearGradient8348"
       id="linearGradient8350"
       x1="116.50549"
       y1="57.930454"
       x2="116.50549"
       y2="1.9401813"
       gradientUnits="userSpaceOnUse" />
    <linearGradient
       inkscape:collect="always"
       xlink:href="#linearGradient1429"
       id="linearGradient1431"
       x1="108.91697"
       y1="-101.52168"
       x2="108.91697"
       y2="72.262062"
       gradientUnits="userSpaceOnUse" />
    <radialGradient
       inkscape:collect="always"
       xlink:href="#linearGradient16180"
       id="radialGradient16182"
       cx="161.2715"
       cy="56.02935"
       fx="161.2715"
       fy="56.02935"
       r="40.379646"
       gradientTransform="matrix(0.77906441,0,0,0.18971838,-93.707891,45.845008)"
       gradientUnits="userSpaceOnUse" />
    <linearGradient
       inkscape:collect="always"
       id="linearGradient16180">
      <stop
         style="stop-color:#000000;stop-opacity:1;"
         offset="0"
         id="stop16176" />
      <stop
         style="stop-color:#000000;stop-opacity:0.92941176;"
         offset="0.49057317"
         id="stop19001" />
      <stop
         style="stop-color:#000000;stop-opacity:0.88627451;"
         offset="0.55367821"
         id="stop18935" />
      <stop
         style="stop-color:#000000;stop-opacity:0.84705882;"
         offset="0.59294873"
         id="stop18739" />
      <stop
         style="stop-color:#000000;stop-opacity:0.81568627;"
         offset="0.62115973"
         id="stop18415" />
      <stop
         style="stop-color:#000000;stop-opacity:0.78039216;"
         offset="0.64806443"
         id="stop18091" />
      <stop
         style="stop-color:#000000;stop-opacity:0.7254902;"
         offset="0.68108439"
         id="stop17765" />
      <stop
         style="stop-color:#000000;stop-opacity:0.6627451;"
         offset="0.71550268"
         id="stop17047" />
      <stop
         style="stop-color:#000000;stop-opacity:0.61960784;"
         offset="0.73507237"
         id="stop17437" />
      <stop
         style="stop-color:#000000;stop-opacity:0.36078431;"
         offset="0.82777327"
         id="stop17439" />
      <stop
         style="stop-color:#000000;stop-opacity:0.25098039;"
         offset="0.85652107"
         id="stop17569" />
      <stop
         style="stop-color:#000000;stop-opacity:0.09803922;"
         offset="0.90949643"
         id="stop17635" />
      <stop
         style="stop-color:#000000;stop-opacity:0.06666667;"
         offset="0.9320882"
         id="stop16915" />
      <stop
         style="stop-color:#000000;stop-opacity:0.02745098;"
         offset="0.96934336"
         id="stop16785" />
      <stop
         style="stop-color:#000000;stop-opacity:0;"
         offset="1"
         id="stop16178" />
    </linearGradient>
  </defs>
  <metadata
     id="metadata4850">
    <rdf:RDF>
      <cc:Work
         rdf:about="">
        <dc:format>image/svg+xml</dc:format>
        <dc:type
           rdf:resource="http://purl.org/dc/dcmitype/StillImage" />
      </cc:Work>
    </rdf:RDF>
  </metadata>
  <ellipse
     style="opacity:0.266229;fill:url(#radialGradient16182);fill-opacity:1;stroke:none;stroke-width:1.99767;stroke-linecap:round;stroke-miterlimit:4;stroke-dasharray:none;stroke-opacity:1"
     id="path15778"
     cx="31.932989"
     cy="56.4748"
     rx="31.458345"
     ry="7.6607614" />
  <g
     id="g12056"
     transform="translate(-74.06641,-0.14019911)"
     style="opacity:1">
    <g
       id="circle5264">
      <path
         style="color:#000000;fill:url(#linearGradient8350);fill-opacity:1;stroke-linecap:round;-inkscape-stroke:none;opacity:0.79946208"
         d="m 106.06641,1.1445312 c -16.852011,0 -30.542973,13.6909618 -30.542973,30.5429688 0,16.852007 13.690962,30.542969 30.542973,30.542969 16.852,0 30.54296,-13.690962 30.54296,-30.542969 0,-16.852007 -13.69096,-30.5429687 -30.54296,-30.5429688 z m 0,2.7988282 c 15.33877,0 27.74218,12.4053636 27.74218,27.7441406 0,15.338777 -12.40341,27.742187 -27.74218,27.742187 -15.33878,0 -27.744144,-12.40341 -27.744144,-27.742187 0,-15.338777 12.405364,-27.7441406 27.744144,-27.7441406 z"
         id="path5343" />
    </g>
    <circle
       style="opacity:1;fill:url(#radialGradient4448);fill-opacity:1;stroke:none;stroke-width:2.24067;stroke-linecap:round;stroke-miterlimit:4;stroke-dasharray:none;stroke-opacity:1"
       id="path4225"
       cx="106.06608"
       cy="31.686916"
       r="29.143314" />
    <g
       id="circle5505">
      <path
         id="path5870"
         style="color:#000000;fill:url(#linearGradient1431);fill-opacity:1;stroke-width:3;stroke-linecap:round;-inkscape-stroke:none"
         d="M 106.06641,2.5429688 A 29.143314,29.143314 0 0 0 76.921875,31.6875 29.143314,29.143314 0 0 0 106.06641,60.830078 29.143314,29.143314 0 0 0 135.20898,31.6875 29.143314,29.143314 0 0 0 106.06641,2.5429688 Z m 0,1.5 c 15.28473,1e-7 27.64257,12.3597982 27.64257,27.6445312 0,15.284733 -12.35784,27.642578 -27.64257,27.642578 -15.28474,0 -27.644535,-12.357845 -27.644535,-27.642578 0,-15.284733 12.359795,-27.6445312 27.644535,-27.6445312 z" />
    </g>
  </g>
  <g
     id="g3756">
    <path
       id="path2541"
       style="fill:#010b2c;fill-opacity:0.09917006;stroke-width:0.998886"
       d="m 32.317906,9.4075829 c -3.762798,0 -6.725502,0.6493071 -9.962889,2.1835941 -6.959237,3.29932 -11.80721,9.905969 -12.917969,17.609375 -0.221753,1.541281 -0.222706,4.642006 -0.00195,6.328125 0.516424,3.937606 2.08051,7.66393 4.595703,10.947266 0.898997,1.172692 2.956911,3.244012 4.054687,4.080078 3.363248,2.564139 7.216589,4.170078 11.246094,4.6875 1.296557,0.166815 4.636397,0.144784 6.048827,-0.04102 4.08843,-0.535402 8.20902,-2.329426 11.44141,-4.980468 1.17869,-0.965922 2.95524,-2.83578 3.86523,-4.066407 3.05959,-4.137384 4.53321,-8.587145 4.53321,-13.689453 0,-3.875677 -0.66457,-6.81322 -2.30274,-10.189453 -1.21065,-2.497214 -2.62472,-4.427161 -4.73437,-6.462891 -4.37711,-4.224287 -9.77998,-6.4042961 -15.86719,-6.4042961 z m -0.07617,3.4804691 h 0.0019 c 3.34029,0.0032 5.88447,0.602757 8.85157,2.091797 1.95681,0.980905 3.47535,2.112084 5.14648,3.826172 2.67902,2.75193 4.37885,5.966684 5.16797,9.773438 0.29867,1.436396 0.41157,4.746291 0.21679,6.310546 -0.40555,3.248376 -1.78289,6.613779 -3.80664,9.300782 -0.74616,0.988896 -2.52583,2.786738 -3.55468,3.589843 -1.93684,1.511313 -3.94305,2.553943 -6.4043,3.330079 -0.84506,0.266702 -0.98802,0.27025 -0.91211,0.01953 0.17181,-0.569365 0.29398,-1.336879 0.33594,-2.125 0.0659,-1.248607 0.85732,-3.228867 1.64844,-4.13086 0.69622,-0.792117 0.8288,-1.423873 0.84179,-4 0.012,-2.131622 0.0359,-2.380004 0.31055,-3.335937 0.46548,-1.628184 0.9493,-2.778481 1.51367,-3.601563 0.36061,-0.539828 0.69859,-1.093647 1.01563,-1.660156 0.27778,-0.502739 0.57144,-0.996562 0.88086,-1.480469 0.55238,-0.834068 1.73405,-1.986071 2.3164,-2.259765 0.65128,-0.305659 1.36774,-1.132454 1.60547,-1.847657 0.24473,-0.735179 0.1702,-1.893788 -0.14844,-2.320312 -0.18779,-0.249721 -0.3076,-0.294922 -0.78906,-0.294922 -0.44151,0 -0.62986,-0.0589 -0.84961,-0.263672 -0.30167,-0.283684 -0.52344,-0.244784 -0.52344,0.08984 0,0.262707 -0.40266,0.762355 -0.51953,0.646484 -0.0489,-0.04894 0.0034,-0.326466 0.11524,-0.61914 0.40955,-1.06681 0.54344,-1.749224 0.47851,-2.439453 -0.10788,-1.138731 -0.81755,-2.877255 -1.20312,-2.951172 -0.0929,-0.01798 -0.59768,0.32607 -1.1211,0.767578 -2.72995,2.297437 -4.80465,3.873068 -6.24804,4.746094 -0.68923,0.416535 -0.69182,0.41755 -1.85352,0.392578 -1.37646,-0.02997 -1.57079,0.04215 -3.86523,1.433593 -0.79611,0.482462 -1.692525,0.970112 -1.992191,1.083985 -0.301663,0.114871 -1.259608,0.280195 -2.140625,0.371094 -1.80998,0.185793 -2.294457,0.298888 -2.970703,0.689453 -0.669253,0.387567 -0.838153,0.674983 -0.695312,1.191406 0.139844,0.504437 0.881433,1.499931 1.773437,2.376953 l 0.669922,0.658203 -0.519531,0.802735 c -0.358738,0.580091 -0.675371,1.182835 -0.951172,1.80664 -0.475469,1.102769 -0.607744,1.310819 -1.554687,2.478516 -0.821084,1.009873 -1.730028,2.465717 -2.580079,4.130859 -0.726189,1.424411 -1.073692,1.793493 -2.408203,2.556641 -0.746167,0.427523 -0.719395,0.441591 -1.564453,-0.833985 -1.548273,-2.334395 -2.617399,-5.117734 -3.044922,-7.933593 -0.213762,-1.407429 -0.208,-4.325562 0.0098,-5.794922 0.333628,-2.241501 1.18391,-4.695024 2.349609,-6.761719 1.581235,-2.806867 4.471742,-5.698195 7.265625,-7.273437 3.069003,-1.730746 6.168849,-2.539802 9.705079,-2.53711 z m 3.63476,12.738281 -1.03906,1.330079 -1.66797,0.234375 1.03711,-1.330078 z" />
    <path
       id="path2885"
       style="fill:#010b2c;fill-opacity:0.0885233;stroke-width:0.998886"
       d="m 32.841502,10.421826 c -3.762798,0 -6.725502,0.649307 -9.962889,2.183594 -6.959237,3.29932 -11.80721,9.905969 -12.917969,17.609375 -0.221753,1.541281 -0.222706,4.642006 -0.00195,6.328125 0.516424,3.937606 2.08051,7.66393 4.595703,10.947266 0.898997,1.172692 2.956911,3.244012 4.054687,4.080078 3.363248,2.564139 7.216589,4.170078 11.246094,4.6875 1.296557,0.166815 4.636397,0.144784 6.048827,-0.04102 4.08843,-0.535402 8.20902,-2.329426 11.44141,-4.980468 1.17869,-0.965922 2.95524,-2.83578 3.86523,-4.066407 3.05959,-4.137384 4.53321,-8.587145 4.53321,-13.689453 0,-3.875677 -0.66457,-6.81322 -2.30274,-10.189453 -1.21065,-2.497214 -2.62472,-4.427161 -4.73437,-6.462891 -4.37711,-4.224287 -9.77998,-6.404296 -15.86719,-6.404296 z m -0.07617,3.480469 h 0.0019 c 3.34029,0.0032 5.88447,0.602757 8.85157,2.091797 1.95681,0.980905 3.47535,2.112084 5.14648,3.826172 2.67902,2.75193 4.37885,5.966684 5.16797,9.773438 0.29867,1.436396 0.41157,4.746291 0.21679,6.310546 -0.40555,3.248376 -1.78289,6.613779 -3.80664,9.300782 -0.74616,0.988896 -2.52583,2.786738 -3.55468,3.589843 -1.93684,1.511313 -3.94305,2.553943 -6.4043,3.330079 -0.84506,0.266702 -0.98802,0.27025 -0.91211,0.01953 0.17181,-0.569365 0.29398,-1.336879 0.33594,-2.125 0.0659,-1.248607 0.85732,-3.228867 1.64844,-4.13086 0.69622,-0.792117 0.8288,-1.423873 0.84179,-4 0.012,-2.131622 0.0359,-2.380004 0.31055,-3.335937 0.46548,-1.628184 0.9493,-2.778481 1.51367,-3.601563 0.36061,-0.539828 0.69859,-1.093647 1.01563,-1.660156 0.27778,-0.502739 0.57144,-0.996562 0.88086,-1.480469 0.55238,-0.834068 1.73405,-1.986071 2.3164,-2.259765 0.65128,-0.305659 1.36774,-1.132454 1.60547,-1.847657 0.24473,-0.735179 0.1702,-1.893788 -0.14844,-2.320312 -0.18779,-0.249721 -0.3076,-0.294922 -0.78906,-0.294922 -0.44151,0 -0.62986,-0.0589 -0.84961,-0.263672 -0.30167,-0.283684 -0.52344,-0.244784 -0.52344,0.08984 0,0.262707 -0.40266,0.762355 -0.51953,0.646484 -0.0489,-0.04894 0.0034,-0.326466 0.11524,-0.61914 0.40955,-1.06681 0.54344,-1.749224 0.47851,-2.439453 -0.10788,-1.138731 -0.81755,-2.877255 -1.20312,-2.951172 -0.0929,-0.01798 -0.59768,0.32607 -1.1211,0.767578 -2.72995,2.297437 -4.80465,3.873068 -6.24804,4.746094 -0.68923,0.416535 -0.69182,0.41755 -1.85352,0.392578 -1.37646,-0.02997 -1.57079,0.04215 -3.86523,1.433593 -0.79611,0.482462 -1.692525,0.970112 -1.992191,1.083985 -0.301663,0.114871 -1.259608,0.280195 -2.140625,0.371094 -1.80998,0.185793 -2.294457,0.298888 -2.970703,0.689453 -0.669253,0.387567 -0.838153,0.674983 -0.695312,1.191406 0.139844,0.504437 0.881433,1.499931 1.773437,2.376953 l 0.669922,0.658203 -0.519531,0.802735 c -0.358738,0.580091 -0.675371,1.182835 -0.951172,1.80664 -0.475469,1.102769 -0.607744,1.310819 -1.554687,2.478516 -0.821084,1.009873 -1.730028,2.465717 -2.580079,4.130859 -0.726189,1.424411 -1.073692,1.793493 -2.408203,2.556641 -0.746167,0.427523 -0.719395,0.441591 -1.564453,-0.833985 -1.548273,-2.334395 -2.617399,-5.117734 -3.044922,-7.933593 -0.213762,-1.407429 -0.208,-4.325562 0.0098,-5.794922 0.333628,-2.241501 1.18391,-4.695024 2.349609,-6.761719 1.581235,-2.806867 4.471742,-5.698195 7.265625,-7.273437 3.069003,-1.730746 6.168849,-2.539802 9.705079,-2.53711 z m 3.63476,12.738281 -1.03906,1.330079 -1.66797,0.234375 1.03711,-1.330078 z" />
    <path
       id="path2887"
       style="fill:#010b2c;fill-opacity:0.04281593;stroke-width:0.998886"
       d="m 33.472362,11.517529 c -3.762798,0 -6.725502,0.649307 -9.962889,2.183594 -6.959237,3.29932 -11.80721,9.905969 -12.917969,17.609375 -0.221753,1.541281 -0.222706,4.642006 -0.002,6.328125 0.516424,3.937606 2.08051,7.66393 4.595703,10.947266 0.898997,1.172692 2.956911,3.244012 4.054687,4.080078 3.363248,2.564139 7.216589,4.170078 11.246094,4.6875 1.296557,0.166815 4.636397,0.144784 6.048827,-0.04102 4.08843,-0.535402 8.20902,-2.329426 11.44141,-4.980468 1.17869,-0.965922 2.95524,-2.83578 3.86523,-4.066407 3.05959,-4.137384 4.53321,-8.587145 4.53321,-13.689453 0,-3.875677 -0.66457,-6.81322 -2.30274,-10.189453 -1.21065,-2.497214 -2.62472,-4.427161 -4.73437,-6.462891 -4.37711,-4.224287 -9.77998,-6.404296 -15.86719,-6.404296 z m -0.07617,3.480469 h 0.0019 c 3.34029,0.0032 5.88447,0.602757 8.85157,2.091797 1.95681,0.980905 3.47535,2.112084 5.14648,3.826172 2.67902,2.75193 4.37885,5.966684 5.16797,9.773438 0.29867,1.436396 0.41157,4.746291 0.21679,6.310546 -0.40555,3.248376 -1.78289,6.613779 -3.80664,9.300782 -0.74616,0.988896 -2.52583,2.786738 -3.55468,3.589843 -1.93684,1.511313 -3.94305,2.553943 -6.4043,3.330079 -0.84506,0.266702 -0.98802,0.27025 -0.91211,0.01953 0.17181,-0.569365 0.29398,-1.336879 0.33594,-2.125 0.0659,-1.248607 0.85732,-3.228867 1.64844,-4.13086 0.69622,-0.792117 0.8288,-1.423873 0.84179,-4 0.012,-2.131622 0.0359,-2.380004 0.31055,-3.335937 0.46548,-1.628184 0.9493,-2.778481 1.51367,-3.601563 0.36061,-0.539828 0.69859,-1.093647 1.01563,-1.660156 0.27778,-0.502739 0.57144,-0.996562 0.88086,-1.480469 0.55238,-0.834068 1.73405,-1.986071 2.3164,-2.259765 0.65128,-0.305659 1.36774,-1.132454 1.60547,-1.847657 0.24473,-0.735179 0.1702,-1.893788 -0.14844,-2.320312 -0.18779,-0.249721 -0.3076,-0.294922 -0.78906,-0.294922 -0.44151,0 -0.62986,-0.0589 -0.84961,-0.263672 -0.30167,-0.283684 -0.52344,-0.244784 -0.52344,0.08984 0,0.262707 -0.40266,0.762355 -0.51953,0.646484 -0.0489,-0.04894 0.0034,-0.326466 0.11524,-0.61914 0.40955,-1.06681 0.54344,-1.749224 0.47851,-2.439453 -0.10788,-1.138731 -0.81755,-2.877255 -1.20312,-2.951172 -0.0929,-0.01798 -0.59768,0.32607 -1.1211,0.767578 -2.72995,2.297437 -4.80465,3.873068 -6.24804,4.746094 -0.68923,0.416535 -0.69182,0.41755 -1.85352,0.392578 -1.37646,-0.02997 -1.57079,0.04215 -3.86523,1.433593 -0.79611,0.482462 -1.692525,0.970112 -1.992191,1.083985 -0.301663,0.114871 -1.259608,0.280195 -2.140625,0.371094 -1.80998,0.185793 -2.294457,0.298888 -2.970703,0.689453 -0.669253,0.387567 -0.838153,0.674983 -0.695312,1.191406 0.139844,0.504437 0.881433,1.499931 1.773437,2.376953 l 0.669922,0.658203 -0.519531,0.802735 c -0.358738,0.580091 -0.675371,1.182835 -0.951172,1.80664 -0.475469,1.102769 -0.607744,1.310819 -1.554687,2.478516 -0.821084,1.009873 -1.730028,2.465717 -2.580079,4.130859 -0.726189,1.424411 -1.073692,1.793493 -2.408203,2.556641 -0.746167,0.427523 -0.719395,0.441591 -1.564453,-0.833985 -1.548273,-2.334395 -2.617399,-5.117734 -3.044922,-7.933593 -0.213762,-1.407429 -0.208,-4.325562 0.0098,-5.794922 0.333628,-2.241501 1.18391,-4.695024 2.349609,-6.761719 1.581235,-2.806867 4.471742,-5.698195 7.265625,-7.273437 3.069003,-1.730746 6.168849,-2.539802 9.705079,-2.53711 z m 3.63476,12.738281 -1.03906,1.330079 -1.66797,0.234375 1.03711,-1.330078 z" />
  </g>
  <path
     id="path19-3"
     style="stroke-width:0.998886;fill:#ffffff;fill-opacity:1"
     d="m 32.073745,8.573362 c -3.762798,0 -6.725502,0.649307 -9.962889,2.183594 -6.959237,3.29932 -11.80721,9.905969 -12.917969,17.609375 -0.221753,1.541281 -0.222706,4.642006 -0.00195,6.328125 0.516424,3.937606 2.08051,7.66393 4.595703,10.947266 0.898997,1.172692 2.956911,3.244012 4.054687,4.080078 3.363248,2.564139 7.216589,4.170078 11.246094,4.6875 1.296557,0.166815 4.636397,0.144784 6.048827,-0.04102 4.08843,-0.535402 8.20902,-2.329426 11.44141,-4.980468 1.17869,-0.965922 2.95524,-2.83578 3.86523,-4.066407 3.05959,-4.137384 4.53321,-8.587145 4.53321,-13.689453 0,-3.875677 -0.66457,-6.81322 -2.30274,-10.189453 -1.21065,-2.497214 -2.62472,-4.427161 -4.73437,-6.462891 -4.37711,-4.224287 -9.77998,-6.404296 -15.86719,-6.404296 z m -0.07617,3.480469 h 0.0019 c 3.34029,0.0032 5.88447,0.602757 8.85157,2.091797 1.95681,0.980905 3.47535,2.112084 5.14648,3.826172 2.67902,2.75193 4.37885,5.966684 5.16797,9.773438 0.29867,1.436396 0.41157,4.746291 0.21679,6.310546 -0.40555,3.248376 -1.78289,6.613779 -3.80664,9.300782 -0.74616,0.988896 -2.52583,2.786738 -3.55468,3.589843 -1.93684,1.511313 -3.94305,2.553943 -6.4043,3.330079 -0.84506,0.266702 -0.98802,0.27025 -0.91211,0.01953 0.17181,-0.569365 0.29398,-1.336879 0.33594,-2.125 0.0659,-1.248607 0.85732,-3.228867 1.64844,-4.13086 0.69622,-0.792117 0.8288,-1.423873 0.84179,-4 0.012,-2.131622 0.0359,-2.380004 0.31055,-3.335937 0.46548,-1.628184 0.9493,-2.778481 1.51367,-3.601563 0.36061,-0.539828 0.69859,-1.093647 1.01563,-1.660156 0.27778,-0.502739 0.57144,-0.996562 0.88086,-1.480469 0.55238,-0.834068 1.73405,-1.986071 2.3164,-2.259765 0.65128,-0.305659 1.36774,-1.132454 1.60547,-1.847657 0.24473,-0.735179 0.1702,-1.893788 -0.14844,-2.320312 -0.18779,-0.249721 -0.3076,-0.294922 -0.78906,-0.294922 -0.44151,0 -0.62986,-0.0589 -0.84961,-0.263672 -0.30167,-0.283684 -0.52344,-0.244784 -0.52344,0.08984 0,0.262707 -0.40266,0.762355 -0.51953,0.646484 -0.0489,-0.04894 0.0034,-0.326466 0.11524,-0.61914 0.40955,-1.06681 0.54344,-1.749224 0.47851,-2.439453 -0.10788,-1.138731 -0.81755,-2.877255 -1.20312,-2.951172 -0.0929,-0.01798 -0.59768,0.32607 -1.1211,0.767578 -2.72995,2.297437 -4.80465,3.873068 -6.24804,4.746094 -0.68923,0.416535 -0.69182,0.41755 -1.85352,0.392578 -1.37646,-0.02997 -1.57079,0.04215 -3.86523,1.433593 -0.79611,0.482462 -1.692525,0.970112 -1.992191,1.083985 -0.301663,0.114871 -1.259608,0.280195 -2.140625,0.371094 -1.80998,0.185793 -2.294457,0.298888 -2.970703,0.689453 -0.669253,0.387567 -0.838153,0.674983 -0.695312,1.191406 0.139844,0.504437 0.881433,1.499931 1.773437,2.376953 l 0.669922,0.658203 -0.519531,0.802735 c -0.358738,0.580091 -0.675371,1.182835 -0.951172,1.80664 -0.475469,1.102769 -0.607744,1.310819 -1.554687,2.478516 -0.821084,1.009873 -1.730028,2.465717 -2.580079,4.130859 -0.726189,1.424411 -1.073692,1.793493 -2.408203,2.556641 -0.746167,0.427523 -0.719395,0.441591 -1.564453,-0.833985 -1.548273,-2.334395 -2.617399,-5.117734 -3.044922,-7.933593 -0.213762,-1.407429 -0.208,-4.325562 0.0098,-5.794922 0.333628,-2.241501 1.18391,-4.695024 2.349609,-6.761719 1.581235,-2.806867 4.471742,-5.698195 7.265625,-7.273437 3.069003,-1.730746 6.168849,-2.539802 9.705079,-2.53711 z m 3.63476,12.738281 -1.03906,1.330079 -1.66797,0.234375 1.03711,-1.330078 z" />
</svg>
