<?xml version="1.0" encoding="UTF-8" standalone="no"?>
<svg
   width="64"
   height="64"
   viewBox="0 0 64 64"
   version="1.1"
   id="svg554"
   sodipodi:docname="multitasking-view.svg"
   inkscape:version="1.1.2 (0a00cf5339, 2022-02-04)"
   xmlns:inkscape="http://www.inkscape.org/namespaces/inkscape"
   xmlns:sodipodi="http://sodipodi.sourceforge.net/DTD/sodipodi-0.dtd"
   xmlns:xlink="http://www.w3.org/1999/xlink"
   xmlns="http://www.w3.org/2000/svg"
   xmlns:svg="http://www.w3.org/2000/svg">
  <sodipodi:namedview
     id="namedview556"
     pagecolor="#ffffff"
     bordercolor="#999999"
     borderopacity="1"
     inkscape:showpageshadow="0"
     inkscape:pageopacity="0"
     inkscape:pagecheckerboard="0"
     inkscape:deskcolor="#d1d1d1"
     showgrid="false"
     inkscape:zoom="1.6289063"
     inkscape:cx="-149.48681"
     inkscape:cy="-45.122301"
     inkscape:window-width="1920"
     inkscape:window-height="1022"
     inkscape:window-x="0"
     inkscape:window-y="32"
     inkscape:window-maximized="1"
     inkscape:current-layer="g17699"
     inkscape:pageshadow="2"
     showguides="true"
     inkscape:guide-bbox="true">
    <sodipodi:guide
       position="181.88753,83.100362"
       orientation="0,-1"
       id="guide3812" />
    <sodipodi:guide
       position="167.56226,-80.33796"
       orientation="0,-1"
       id="guide3814" />
  </sodipodi:namedview>
  <defs
     id="defs539">
    <linearGradient
       id="linear0"
       gradientUnits="userSpaceOnUse"
       x1="6.5"
       y1="7"
       x2="6.5"
       y2="10"
       gradientTransform="scale(2)">
      <stop
         offset="0"
         style="stop-color:rgb(0%,0%,0%);stop-opacity:0;"
         id="stop505" />
      <stop
         offset="1"
         style="stop-color:rgb(0%,0%,0%);stop-opacity:0.2;"
         id="stop507" />
    </linearGradient>
    <linearGradient
       id="linear1"
       gradientUnits="userSpaceOnUse"
       x1="3.6224"
       y1="5.4027"
       x2="29.5973"
       y2="31.3776"
       gradientTransform="scale(2)">
      <stop
         offset="0"
         style="stop-color:rgb(100%,84.313725%,38.039216%);stop-opacity:1;"
         id="stop510" />
      <stop
         offset="1"
         style="stop-color:rgb(96.470588%,70.980392%,1.568627%);stop-opacity:1;"
         id="stop512" />
    </linearGradient>
    <linearGradient
       id="linear2"
       gradientUnits="userSpaceOnUse"
       x1="-13.9403"
       y1="28.2221"
       x2="-9.1444"
       y2="25.4532"
       gradientTransform="matrix(7.5592,0,0,-7.5592,118.4344,254.4538)">
      <stop
         offset="0"
         style="stop-color:rgb(7.843137%,57.647059%,87.45098%);stop-opacity:1;"
         id="stop515" />
      <stop
         offset="1"
         style="stop-color:rgb(0%,38.431373%,70.588235%);stop-opacity:1;"
         id="stop517" />
    </linearGradient>
    <filter
       id="alpha"
       filterUnits="objectBoundingBox"
       x="0"
       y="0"
       width="1"
       height="1">
      <feColorMatrix
         type="matrix"
         in="SourceGraphic"
         values="0 0 0 0 1 0 0 0 0 1 0 0 0 0 1 0 0 0 1 0"
         id="feColorMatrix520" />
    </filter>
    <mask
       id="mask0">
      <g
         filter="url(#alpha)"
         id="g525">
        <rect
           x="0"
           y="0"
           width="64"
           height="64"
           style="fill:rgb(0%,0%,0%);fill-opacity:0.301961;stroke:none;"
           id="rect523" />
      </g>
    </mask>
    <linearGradient
       id="linear3"
       gradientUnits="userSpaceOnUse"
       x1="8.1786"
       y1="0.8465"
       x2="23.666"
       y2="16.334"
       gradientTransform="matrix(2,0,0,2,0,0)">
      <stop
         offset="0"
         style="stop-color:rgb(100%,100%,100%);stop-opacity:1;"
         id="stop528" />
      <stop
         offset="1"
         style="stop-color:rgb(96.470588%,70.980392%,1.568627%);stop-opacity:0;"
         id="stop530" />
    </linearGradient>
    <clipPath
       id="clip1">
      <rect
         x="0"
         y="0"
         width="64"
         height="64"
         id="rect533" />
    </clipPath>
    <g
       id="surface5"
       clip-path="url(#clip1)">
      <path
         style=" stroke:none;fill-rule:nonzero;fill:url(#linear3);"
         d="M 62 12 L 27.035156 12 C 26.371094 12 25.738281 12.261719 25.269531 12.730469 L 22 16 L 3.5 16 C 1.566406 16 0 17.566406 0 19.5 L 0 21.5 C 0 19.566406 1.566406 18 3.5 18 L 22 18 L 25.261719 14.738281 C 25.734375 14.265625 26.375 14 27.042969 14 L 62 14 C 63.105469 14 64 14.894531 64 16 L 64 14 C 64 12.894531 63.105469 12 62 12 Z M 62 12 "
         id="path536" />
    </g>
    <linearGradient
       xlink:href="#linearGradient3600-9-51"
       id="linearGradient1512"
       gradientUnits="userSpaceOnUse"
       gradientTransform="matrix(1.3806477,0,0,1.327964,-70.267382,-1.7275823)"
       x1="74.838791"
       y1="4.535933"
       x2="74.838791"
       y2="49.779099" />
    <linearGradient
       id="linearGradient3600-9-51">
      <stop
         offset="0"
         style="stop-color:#f4f4f4;stop-opacity:1"
         id="stop3602-0-0" />
      <stop
         offset="1"
         style="stop-color:#dbdbdb;stop-opacity:1"
         id="stop3604-9-04" />
    </linearGradient>
    <linearGradient
       xlink:href="#linearGradient3104-6"
       id="linearGradient3170"
       gradientUnits="userSpaceOnUse"
       gradientTransform="matrix(0.80749686,0,0,0.89471714,10.740979,-0.4431076)"
       x1="12.879265"
       y1="66.950981"
       x2="12.879265"
       y2="4.7802162" />
    <linearGradient
       id="linearGradient3104-6">
      <stop
         offset="0"
         style="stop-color:#000000;stop-opacity:0.31782946"
         id="stop3106-3" />
      <stop
         offset="1"
         style="stop-color:#000000;stop-opacity:0.24031007"
         id="stop3108-9" />
    </linearGradient>
    <linearGradient
       xlink:href="#linearGradient1041"
       id="linearGradient15429"
       gradientUnits="userSpaceOnUse"
       gradientTransform="matrix(1.4324324,0,0,1.1081081,-2.4727286,11.023243)"
       x1="23.99999"
       y1="-1.2218014"
       x2="23.99999"
       y2="42.091705" />
    <linearGradient
       id="linearGradient1041">
      <stop
         id="stop1033"
         style="stop-color:#ffffff;stop-opacity:1"
         offset="0" />
      <stop
         id="stop1035"
         style="stop-color:#ffffff;stop-opacity:0.23529412"
         offset="0.0832339" />
      <stop
         id="stop1037"
         style="stop-color:#ffffff;stop-opacity:0.15686275"
         offset="0.94268352" />
      <stop
         id="stop1039"
         style="stop-color:#ffffff;stop-opacity:0.39215687"
         offset="1" />
    </linearGradient>
    <linearGradient
       xlink:href="#linearGradient1077"
       id="linearGradient15429-3"
       gradientUnits="userSpaceOnUse"
       gradientTransform="matrix(1.4324324,0,0,1.1081081,-2.4727286,11.023243)"
       x1="11.575833"
       y1="-4.7840924"
       x2="11.575833"
       y2="42.193623" />
    <linearGradient
       id="linearGradient1077">
      <stop
         id="stop1069"
         style="stop-color:#ffffff;stop-opacity:1"
         offset="0" />
      <stop
         id="stop1071"
         style="stop-color:#ffffff;stop-opacity:0.23529412"
         offset="0.09530682" />
      <stop
         id="stop1073"
         style="stop-color:#ffffff;stop-opacity:0.15686275"
         offset="0.94268352" />
      <stop
         id="stop1075"
         style="stop-color:#ffffff;stop-opacity:0.39215687"
         offset="1" />
    </linearGradient>
    <radialGradient
       cx="4.9929786"
       cy="43.5"
       r="2.5"
       fx="4.9929786"
       fy="43.5"
       id="radialGradient3337-2-2"
       xlink:href="#linearGradient3688-166-749-4-0-3-8"
       gradientUnits="userSpaceOnUse"
       gradientTransform="matrix(2.4045407,0,0,0.99999998,41.985755,15.500001)" />
    <linearGradient
       id="linearGradient3688-166-749-4-0-3-8">
      <stop
         offset="0"
         style="stop-color:#181818;stop-opacity:1"
         id="stop2883-4-0-1-8" />
      <stop
         offset="1"
         style="stop-color:#181818;stop-opacity:0"
         id="stop2885-9-2-9-6" />
    </linearGradient>
    <radialGradient
       cx="4.9929786"
       cy="43.5"
       r="2.5"
       fx="4.9929786"
       fy="43.5"
       id="radialGradient3339-1-4"
       xlink:href="#linearGradient3688-166-749-4-0-3-8"
       gradientUnits="userSpaceOnUse"
       gradientTransform="matrix(2.4045407,0,0,0.99999998,-22.014244,-102.5)" />
    <linearGradient
       x1="25.058096"
       y1="47.027729"
       x2="25.058096"
       y2="39.999443"
       id="linearGradient6394"
       xlink:href="#linearGradient3702-501-757-8-4-1-1"
       gradientUnits="userSpaceOnUse"
       gradientTransform="matrix(1.5714286,0,0,0.7142857,-5.7142853,27.928572)" />
    <linearGradient
       id="linearGradient3702-501-757-8-4-1-1">
      <stop
         offset="0"
         style="stop-color:#181818;stop-opacity:0"
         id="stop2895-8-9-9-1" />
      <stop
         offset="0.5"
         style="stop-color:#181818;stop-opacity:1"
         id="stop2897-7-8-7-7" />
      <stop
         offset="1"
         style="stop-color:#181818;stop-opacity:0"
         id="stop2899-4-5-1-5" />
    </linearGradient>
    <linearGradient
       xlink:href="#linearGradient909"
       id="linearGradient15431"
       gradientUnits="userSpaceOnUse"
       gradientTransform="matrix(1,0,0,0.81818188,-0.09435356,10.507243)"
       x1="31.781376"
       y1="-11.234498"
       x2="31.781376"
       y2="67.800774" />
    <linearGradient
       id="linearGradient909">
      <stop
         id="stop901"
         style="stop-color:#64baff;stop-opacity:1"
         offset="0" />
      <stop
         id="stop907"
         style="stop-color:#3689e6;stop-opacity:1"
         offset="1" />
    </linearGradient>
    <linearGradient
       xlink:href="#linearGradient4270-4"
       id="linearGradient15433"
       gradientUnits="userSpaceOnUse"
       gradientTransform="matrix(1.4324324,0,0,1.1621622,-2.4727286,8.7259434)"
       x1="23.99999"
       y1="5.9093657"
       x2="23.99999"
       y2="42.091705" />
    <linearGradient
       id="linearGradient4270-4">
      <stop
         id="stop4272-9"
         style="stop-color:#ffffff;stop-opacity:1"
         offset="0" />
      <stop
         id="stop4274-0"
         style="stop-color:#ffffff;stop-opacity:0.23529412"
         offset="0.09665164" />
      <stop
         id="stop4276-9"
         style="stop-color:#ffffff;stop-opacity:0.15686275"
         offset="0.94268352" />
      <stop
         id="stop4278-1"
         style="stop-color:#ffffff;stop-opacity:0.39215687"
         offset="1" />
    </linearGradient>
    <radialGradient
       cx="7.1183534"
       cy="9.9571075"
       r="12.671875"
       fx="7.1183534"
       fy="9.9571075"
       id="radialGradient3988-3"
       xlink:href="#linearGradient2867-449-88-871-390-598-476-591-434-148-57-177-8-3-3-6-4-8-8-8-5-7"
       gradientUnits="userSpaceOnUse"
       gradientTransform="matrix(0,12.890089,-15.824912,0,334.01999,-110.50411)" />
    <linearGradient
       id="linearGradient2867-449-88-871-390-598-476-591-434-148-57-177-8-3-3-6-4-8-8-8-5-7">
      <stop
         id="stop3750-1-0-7-6-6-1-3-9-3-9"
         style="stop-color:#505050;stop-opacity:1"
         offset="0" />
      <stop
         id="stop3752-3-7-4-0-32-8-923-0-7-0"
         style="stop-color:#2b2b2b;stop-opacity:1"
         offset="0.26238" />
      <stop
         id="stop3754-1-8-5-2-7-6-7-1-9-1"
         style="stop-color:#0a0a0a;stop-opacity:1"
         offset="0.704952" />
      <stop
         id="stop3756-1-6-2-6-6-1-96-6-0-1"
         style="stop-color:#000000;stop-opacity:1"
         offset="1" />
    </linearGradient>
    <radialGradient
       inkscape:collect="always"
       xlink:href="#linearGradient3688-166-749-4-0-3-8"
       id="radialGradient17668"
       gradientUnits="userSpaceOnUse"
       gradientTransform="matrix(2.4045407,0,0,0.99999998,41.985755,15.500001)"
       cx="4.9929786"
       cy="43.5"
       fx="4.9929786"
       fy="43.5"
       r="2.5" />
    <radialGradient
       inkscape:collect="always"
       xlink:href="#linearGradient3688-166-749-4-0-3-8"
       id="radialGradient17670"
       gradientUnits="userSpaceOnUse"
       gradientTransform="matrix(2.4045407,0,0,0.99999998,-22.014244,-102.5)"
       cx="4.9929786"
       cy="43.5"
       fx="4.9929786"
       fy="43.5"
       r="2.5" />
    <linearGradient
       inkscape:collect="always"
       xlink:href="#linearGradient3702-501-757-8-4-1-1"
       id="linearGradient17672"
       gradientUnits="userSpaceOnUse"
       gradientTransform="matrix(1.5714286,0,0,0.7142857,-5.7142853,27.928572)"
       x1="25.058096"
       y1="47.027729"
       x2="25.058096"
       y2="39.999443" />
    <linearGradient
       inkscape:collect="always"
       xlink:href="#linearGradient3406"
       id="linearGradient3408"
       x1="1444.3625"
       y1="481.51526"
       x2="1444.3625"
       y2="587.58142"
       gradientUnits="userSpaceOnUse"
       gradientTransform="matrix(0.48077083,0,0,0.48077083,-599.17218,-222.99697)" />
    <linearGradient
       inkscape:collect="always"
       id="linearGradient3406">
      <stop
         style="stop-color:#404040;stop-opacity:1"
         offset="0"
         id="stop3402" />
      <stop
         style="stop-color:#2c2c2c;stop-opacity:1"
         offset="1"
         id="stop3404" />
    </linearGradient>
    <linearGradient
       inkscape:collect="always"
       xlink:href="#linearGradient8073"
       id="linearGradient8075"
       x1="1423.5142"
       y1="459.7652"
       x2="1423.5142"
       y2="558.79303"
       gradientUnits="userSpaceOnUse"
       gradientTransform="matrix(0.48077083,0,0,0.48077083,-599.17218,-222.99697)" />
    <linearGradient
       inkscape:collect="always"
       id="linearGradient8073">
      <stop
         style="stop-color:#ffffff;stop-opacity:0.29193845"
         offset="0"
         id="stop8069" />
      <stop
         style="stop-color:#ffffff;stop-opacity:0.13738285"
         offset="1"
         id="stop8071" />
    </linearGradient>
    <linearGradient
       inkscape:collect="always"
       xlink:href="#linearGradient10991"
       id="linearGradient10993"
       x1="1328.1995"
       y1="417.07132"
       x2="1328.1995"
       y2="463.52988"
       gradientUnits="userSpaceOnUse" />
    <linearGradient
       inkscape:collect="always"
       id="linearGradient10991">
      <stop
         style="stop-color:#59b2fd;stop-opacity:1"
         offset="0"
         id="stop10987" />
      <stop
         style="stop-color:#2281ea;stop-opacity:1"
         offset="1"
         id="stop10989" />
    </linearGradient>
    <linearGradient
       inkscape:collect="always"
       xlink:href="#linearGradient13925"
       id="linearGradient13927"
       x1="1329.0348"
       y1="344.73602"
       x2="1329.0348"
       y2="465.57047"
       gradientUnits="userSpaceOnUse" />
    <linearGradient
       inkscape:collect="always"
       id="linearGradient13925">
      <stop
         style="stop-color:#ffffff;stop-opacity:1;"
         offset="0"
         id="stop13921" />
      <stop
         style="stop-color:#ffffff;stop-opacity:0.18980408"
         offset="1"
         id="stop13923" />
    </linearGradient>
    <linearGradient
       inkscape:collect="always"
       xlink:href="#linearGradient17237"
       id="linearGradient22057"
       gradientUnits="userSpaceOnUse"
       x1="1236.8082"
       y1="518.23871"
       x2="1236.8082"
       y2="569.13666"
       gradientTransform="matrix(0.48077083,0,0,0.48077083,-525.37222,-231.57062)" />
    <linearGradient
       inkscape:collect="always"
       id="linearGradient17237">
      <stop
         style="stop-color:#61b7fd;stop-opacity:1"
         offset="0"
         id="stop17233" />
      <stop
         style="stop-color:#3c8de7;stop-opacity:1"
         offset="1"
         id="stop17235" />
    </linearGradient>
    <linearGradient
       inkscape:collect="always"
       xlink:href="#linearGradient21688"
       id="linearGradient21690"
       x1="1236.7285"
       y1="516.5379"
       x2="1236.7285"
       y2="567.69977"
       gradientUnits="userSpaceOnUse"
       gradientTransform="matrix(0.48077083,0,0,0.48077083,-525.37222,-231.57062)" />
    <linearGradient
       inkscape:collect="always"
       id="linearGradient21688">
      <stop
         style="stop-color:#ffffff;stop-opacity:0.44367731"
         offset="0"
         id="stop21684" />
      <stop
         style="stop-color:#ffffff;stop-opacity:0.12558371"
         offset="1"
         id="stop21686" />
    </linearGradient>
    <linearGradient
       inkscape:collect="always"
       xlink:href="#linearGradient17237"
       id="linearGradient23502"
       gradientUnits="userSpaceOnUse"
       gradientTransform="matrix(-0.48077083,0,0,0.48077083,715.23475,-231.57062)"
       x1="1236.8082"
       y1="518.23871"
       x2="1236.8082"
       y2="569.13666" />
    <linearGradient
       inkscape:collect="always"
       xlink:href="#linearGradient21688"
       id="linearGradient23500"
       gradientUnits="userSpaceOnUse"
       gradientTransform="matrix(-0.48077083,0,0,0.48077083,715.23475,-231.57062)"
       x1="1236.7285"
       y1="516.5379"
       x2="1236.7285"
       y2="567.69977" />
  </defs>
  <g
     id="g17699"
     transform="translate(-63.089064,-1.3659789)">
    <g
       id="g17666"
       transform="matrix(1.0947929,0,0,1.0947929,60.129515,-4.6429582)"
       style="opacity:0.648726">
      <rect
         style="opacity:0.6;fill:url(#radialGradient17668);fill-opacity:1;stroke:none;stroke-width:1.06199"
         id="rect17660"
         y="56.5"
         x="54"
         height="5"
         width="6" />
      <rect
         style="opacity:0.6;fill:url(#radialGradient17670);fill-opacity:1;stroke:none;stroke-width:1.06199"
         id="rect17662"
         transform="scale(-1)"
         y="-61.5"
         x="-10"
         height="5"
         width="6" />
      <rect
         style="opacity:0.6;fill:url(#linearGradient17672);fill-opacity:1;stroke:none;stroke-width:1.06199"
         id="rect17664"
         y="56.5"
         x="10"
         height="5.0000005"
         width="44" />
    </g>
    <path
       style="color:#000000;opacity:0.935642;fill:#2f2f2f;fill-opacity:1;stroke-width:0.480771;stroke-linecap:round;-inkscape-stroke:none"
       d="m 74.832906,6.7260339 c -3.908859,0 -7.089495,3.1806503 -7.089495,7.0894901 V 53.63405 c 0,3.90884 3.180636,7.089495 7.089495,7.089495 h 40.051374 c 3.90886,0 7.0895,-3.180655 7.0895,-7.089495 V 13.815524 c 0,-3.9088398 -3.18064,-7.0894901 -7.0895,-7.0894901 z m 0,2.1634692 h 40.051374 c 2.7477,0 4.92603,2.1783189 4.92603,4.9260209 V 53.63405 c 0,2.747702 -2.17833,4.926026 -4.92603,4.926026 H 74.832906 c -2.747702,0 -4.926026,-2.178324 -4.926026,-4.926026 V 13.815524 c 0,-2.747702 2.178324,-4.9260209 4.926026,-4.9260209 z"
       id="path1793" />
    <path
       style="color:#000000;fill:url(#linearGradient3408);fill-opacity:1;stroke-width:2.16346;stroke-linecap:round;-inkscape-stroke:none"
       d="m 74.832618,7.808119 h 40.051712 c 3.32828,0 6.00772,2.679442 6.00772,6.007712 v 39.818128 c 0,3.328276 -2.67944,6.007717 -6.00772,6.007717 H 74.832618 c -3.328281,0 -6.007713,-2.679441 -6.007713,-6.007717 V 13.815831 c 0,-3.32827 2.679432,-6.007712 6.007713,-6.007712 z"
       id="path1791" />
    <path
       id="path1877"
       style="color:#000000;opacity:0.935642;fill:url(#linearGradient8075);fill-opacity:1;stroke-width:2.16346;stroke-linecap:round;-inkscape-stroke:none"
       d="m 74.832906,7.8077688 c -3.32828,0 -6.007761,2.6794842 -6.007761,6.0077552 V 53.63405 c 0,3.328276 2.679481,6.007761 6.007761,6.007761 h 40.051374 c 3.32829,0 6.00777,-2.679485 6.00777,-6.007761 V 13.815524 c 0,-3.328271 -2.67948,-6.0077552 -6.00777,-6.0077552 z m 0,1.0817343 h 40.051374 c 2.7477,0 4.92603,2.1783189 4.92603,4.9260209 V 53.63405 c 0,2.747702 -2.17833,4.926026 -4.92603,4.926026 H 74.832906 c -2.747702,0 -4.926026,-2.17832 -4.926026,-4.926026 V 13.815524 c 0,-2.747702 2.178324,-4.9260209 4.926026,-4.9260209 z" />
    <g
       id="g16703"
       transform="matrix(0.48077083,0,0,0.48077083,-546.87849,-180.84663)">
      <g
         id="g16696">
        <path
           style="color:#000000;opacity:0.935642;fill:#000000;fill-opacity:0.0986973;stroke-width:4.08681;stroke-linecap:round;-inkscape-stroke:none"
           d="m 1303.884,412.22557 h 60.5671 c 2.9949,0 5.406,2.30972 5.406,5.17875 v 45.70056 c 0,2.86903 -2.4111,5.17875 -5.406,5.17875 h -60.5671 c -2.9948,0 -5.4059,-2.30972 -5.4059,-5.17875 v -45.70056 c 0,-2.86903 2.4111,-5.17875 5.4059,-5.17875 z"
           id="path16505" />
        <path
           style="color:#000000;opacity:0.935642;fill:#000000;fill-opacity:0.0986973;stroke-width:4.1559;stroke-linecap:round;-inkscape-stroke:none"
           d="m 1305.578,412.22557 h 60.5669 c 2.9949,0 5.406,2.38848 5.406,5.35535 v 47.25895 c 0,2.96686 -2.4111,5.35535 -5.406,5.35535 h -60.5669 c -2.9947,0 -5.4059,-2.38849 -5.4059,-5.35535 v -47.25895 c 0,-2.96687 2.4112,-5.35535 5.4059,-5.35535 z"
           id="path16681" />
      </g>
      <path
         style="color:#000000;opacity:1;fill:url(#linearGradient10993);stroke-width:4;stroke-linecap:round;-inkscape-stroke:none"
         d="m 1305.3589,410.45694 h 58.0212 c 2.869,0 5.1788,2.30972 5.1788,5.17875 v 45.70056 c 0,2.86903 -2.3098,5.17875 -5.1788,5.17875 h -58.0212 c -2.869,0 -5.1787,-2.30972 -5.1787,-5.17875 v -45.70056 c 0,-2.86903 2.3097,-5.17875 5.1787,-5.17875 z"
         id="path13724" />
      <path
         id="path13726"
         style="color:#000000;opacity:0.935642;fill:url(#linearGradient13927);fill-opacity:1;stroke-linecap:round;-inkscape-stroke:none"
         d="m 1305.3594,410.45703 c -2.869,0 -5.1797,2.30871 -5.1797,5.17774 v 45.70117 c 0,2.86903 2.3107,5.17968 5.1797,5.17968 h 58.0215 c 2.869,10e-6 5.1777,-2.31065 5.1777,-5.17968 v -45.70117 c 0,-2.86903 -2.3087,-5.17774 -5.1777,-5.17774 z m 0,2 h 58.0215 c 1.7956,0 3.1777,1.38211 3.1777,3.17774 v 45.70117 c 0,1.79562 -1.3821,3.17969 -3.1777,3.17968 h -58.0215 c -1.7956,0 -3.1797,-1.38406 -3.1797,-3.17968 v -45.70117 c 0,-1.79563 1.3841,-3.17774 3.1797,-3.17774 z" />
    </g>
    <g
       id="g22207"
       style="opacity:0.186702"
       transform="matrix(0.48077083,0,0,0.48077083,-538.90977,-231.57062)">
      <path
         id="path22141"
         style="color:#000000;fill:#060606;fill-opacity:0.443677;stroke-width:4;stroke-linecap:round;-inkscape-stroke:none"
         d="m 1264.1914,-151.38477 v 56.326176 h 9.6016 c 2.0405,0 3.6836,-1.643123 3.6836,-3.683594 v -48.958982 c 0,-2.04047 -1.6431,-3.6836 -3.6836,-3.6836 z"
         transform="translate(-0.10740586,667.87356)" />
      <path
         id="path22197"
         style="color:#000000;fill:#060606;fill-opacity:0.443677;stroke-width:4;stroke-linecap:round;-inkscape-stroke:none"
         d="m 1264.1914,-150.80859 v 56.326168 h 9.9727 c 2.0405,0 3.6836,-1.643124 3.6836,-3.683594 V -147.125 c 0,-2.04047 -1.6431,-3.68359 -3.6836,-3.68359 z"
         transform="translate(-0.10740586,667.87356)" />
      <path
         id="path22199"
         style="color:#000000;fill:#060606;fill-opacity:0.443677;stroke-width:4;stroke-linecap:round;-inkscape-stroke:none"
         d="m 1264.1914,-150.30273 v 56.326168 h 10.6035 c 2.0405,0 3.6817,-1.643124 3.6817,-3.683594 v -48.958984 c 0,-2.04047 -1.6412,-3.68359 -3.6817,-3.68359 z"
         transform="translate(-0.10740586,667.87356)" />
      <path
         id="path22201"
         style="color:#000000;fill:#060606;fill-opacity:0.443677;stroke-width:4;stroke-linecap:round;-inkscape-stroke:none"
         d="m 1264.1914,-149.67383 v 56.326174 h 11.0938 c 2.0405,0 3.6816,-1.643124 3.6816,-3.683594 v -48.95898 c 0,-2.04047 -1.6411,-3.6836 -3.6816,-3.6836 z"
         transform="translate(-0.10740586,667.87356)" />
    </g>
    <path
       id="path21612"
       style="color:#000000;fill:url(#linearGradient22057);stroke-width:1.92308;stroke-linecap:round;-inkscape-stroke:none"
       d="m 68.824953,16.451033 v 27.079038 h 4.278091 c 0.981013,0 1.770054,-0.789026 1.770054,-1.770025 V 18.221058 c 0,-0.980998 -0.789041,-1.770025 -1.770054,-1.770025 z" />
    <path
       id="path21614"
       style="color:#000000;fill:url(#linearGradient21690);fill-opacity:1;stroke:none;stroke-width:0.480771;stroke-linecap:round;-inkscape-stroke:none"
       d="m 68.824953,16.451033 v 0.961541 h 4.278091 c 0.464954,0 0.809426,0.344482 0.809426,0.809422 v 23.53805 c 0,0.464934 -0.344472,0.809423 -0.809426,0.809424 h -4.278091 v 0.961541 h 4.278091 c 0.981013,0 1.770968,-0.789966 1.770968,-1.770965 v -23.53805 c 0,-0.980999 -0.789955,-1.770963 -1.770968,-1.770963 z" />
    <rect
       style="fill:#727272;fill-opacity:1;stroke:none;stroke-width:1.92308;stroke-linecap:round;stroke-miterlimit:4;stroke-dasharray:none;stroke-opacity:1"
       id="rect22271"
       width="7.5984631"
       height="7.6563325"
       x="79.522163"
       y="48.165249"
       rx="0.80245709"
       ry="0.80245709" />
    <g
       id="g23466"
       transform="matrix(0.48077083,0,0,0.48077083,-539.06346,-231.13536)">
      <g
         id="rect23282">
        <path
           style="color:#000000;fill:#1f1f1f;fill-opacity:0.443137;stroke-linecap:round;-inkscape-stroke:none"
           d="m 1288.1113,579.62695 c -1.9981,0 -3.6699,1.67184 -3.6699,3.66992 v 12.5879 c 0,1.99808 1.6718,3.66796 3.6699,3.66796 h 12.4668 c 1.9981,0 3.668,-1.66988 3.668,-3.66796 v -12.5879 c 0,-1.99808 -1.6699,-3.66992 -3.668,-3.66992 z m 0.3301,4 h 11.8047 v 11.92578 h -11.8047 z"
           id="path23361" />
        <path
           style="color:#000000;fill:#727272;stroke-width:4;stroke-linecap:round;-inkscape-stroke:none"
           d="m 1288.1106,581.62787 h 12.4666 c 0.9247,0 1.6691,0.74442 1.6691,1.6691 v 12.58691 c 0,0.92469 -0.7444,1.66911 -1.6691,1.66911 h -12.4666 c -0.9247,0 -1.6691,-0.74442 -1.6691,-1.66911 v -12.58691 c 0,-0.92468 0.7444,-1.6691 1.6691,-1.6691 z"
           id="path23359" />
      </g>
      <g
         id="g23449"
         transform="translate(23.831359)">
        <path
           style="color:#000000;fill:#1f1f1f;fill-opacity:0.443137;stroke-linecap:round;-inkscape-stroke:none"
           d="m 1288.1113,579.62695 c -1.9981,0 -3.6699,1.67184 -3.6699,3.66992 v 12.5879 c 0,1.99808 1.6718,3.66796 3.6699,3.66796 h 12.4668 c 1.9981,0 3.668,-1.66988 3.668,-3.66796 v -12.5879 c 0,-1.99808 -1.6699,-3.66992 -3.668,-3.66992 z m 0.3301,4 h 11.8047 v 11.92578 h -11.8047 z"
           id="path23445" />
        <path
           style="color:#000000;fill:#727272;stroke-width:4;stroke-linecap:round;-inkscape-stroke:none"
           d="m 1288.1106,581.62787 h 12.4666 c 0.9247,0 1.6691,0.74442 1.6691,1.6691 v 12.58691 c 0,0.92469 -0.7444,1.66911 -1.6691,1.66911 h -12.4666 c -0.9247,0 -1.6691,-0.74442 -1.6691,-1.66911 v -12.58691 c 0,-0.92468 0.7444,-1.6691 1.6691,-1.6691 z"
           id="path23447" />
      </g>
      <g
         id="g23455"
         transform="translate(48.418979)">
        <path
           style="color:#000000;fill:#1f1f1f;fill-opacity:0.443137;stroke-linecap:round;-inkscape-stroke:none"
           d="m 1288.1113,579.62695 c -1.9981,0 -3.6699,1.67184 -3.6699,3.66992 v 12.5879 c 0,1.99808 1.6718,3.66796 3.6699,3.66796 h 12.4668 c 1.9981,0 3.668,-1.66988 3.668,-3.66796 v -12.5879 c 0,-1.99808 -1.6699,-3.66992 -3.668,-3.66992 z m 0.3301,4 h 11.8047 v 11.92578 h -11.8047 z"
           id="path23451" />
        <path
           style="color:#000000;fill:#727272;stroke-width:4;stroke-linecap:round;-inkscape-stroke:none"
           d="m 1288.1106,581.62787 h 12.4666 c 0.9247,0 1.6691,0.74442 1.6691,1.6691 v 12.58691 c 0,0.92469 -0.7444,1.66911 -1.6691,1.66911 h -12.4666 c -0.9247,0 -1.6691,-0.74442 -1.6691,-1.66911 v -12.58691 c 0,-0.92468 0.7444,-1.6691 1.6691,-1.6691 z"
           id="path23453" />
      </g>
    </g>
    <g
       id="g23494"
       style="opacity:0.186702"
       transform="matrix(-0.48077083,0,0,0.48077083,728.77229,-231.57062)">
      <path
         id="path23486"
         style="color:#000000;fill:#060606;fill-opacity:0.443677;stroke-width:4;stroke-linecap:round;-inkscape-stroke:none"
         d="m 1363.1914,-151.38477 c -2.0405,0 -3.6836,1.64313 -3.6836,3.6836 v 48.958982 c 0,2.040471 1.6431,3.683594 3.6836,3.683594 h 9.2988 v -56.326176 z"
         transform="matrix(-1,0,0,1,2636.8773,667.87356)" />
      <path
         id="path23488"
         style="color:#000000;fill:#060606;fill-opacity:0.443677;stroke-width:4;stroke-linecap:round;-inkscape-stroke:none"
         d="m 1362.8203,-150.80859 c -2.0405,0 -3.6816,1.64312 -3.6816,3.68359 v 48.958984 c 0,2.04047 1.6411,3.683594 3.6816,3.683594 h 9.6699 v -56.326168 z"
         transform="matrix(-1,0,0,1,2636.8773,667.87356)" />
      <path
         id="path23490"
         style="color:#000000;fill:#060606;fill-opacity:0.443677;stroke-width:4;stroke-linecap:round;-inkscape-stroke:none"
         d="m 1362.1914,-150.30273 c -2.0405,0 -3.6836,1.64312 -3.6836,3.68359 v 48.958984 c 0,2.04047 1.6431,3.683594 3.6836,3.683594 h 10.2988 v -56.326168 z"
         transform="matrix(-1,0,0,1,2636.8773,667.87356)" />
      <path
         id="path23492"
         style="color:#000000;fill:#060606;fill-opacity:0.443677;stroke-width:4;stroke-linecap:round;-inkscape-stroke:none"
         d="m 1361.7012,-149.67383 c -2.0405,0 -3.6836,1.64313 -3.6836,3.6836 v 48.95898 c 0,2.04047 1.6431,3.683594 3.6836,3.683594 h 10.789 v -56.326174 z"
         transform="matrix(-1,0,0,1,2636.8773,667.87356)" />
    </g>
    <path
       id="path23496"
       style="color:#000000;fill:url(#linearGradient23502);stroke-width:1.92308;stroke-linecap:round;-inkscape-stroke:none"
       d="m 116.75929,16.451033 c -0.98101,0 -1.77001,0.789027 -1.77001,1.770025 v 23.538988 c 0,0.980999 0.789,1.770025 1.77001,1.770025 h 4.13256 V 16.451033 Z" />
    <path
       id="path23498"
       style="color:#000000;fill:url(#linearGradient23500);fill-opacity:1;stroke:none;stroke-width:0.480771;stroke-linecap:round;-inkscape-stroke:none"
       d="m 116.75929,16.451033 c -0.98101,0 -1.77096,0.789964 -1.77096,1.770963 v 23.53805 c 0,0.980999 0.78995,1.770965 1.77096,1.770965 h 4.13256 V 42.56947 h -4.13256 c -0.46495,-1e-6 -0.80943,-0.34449 -0.80943,-0.809424 v -23.53805 c 0,-0.46494 0.34448,-0.809422 0.80943,-0.809422 h 4.13256 v -0.961541 z" />
    <g
       id="g24742"
       transform="matrix(0.48077083,0,0,0.48077083,-538.87217,-231.75104)">
      <g
         id="g24561"
         style="opacity:0.371313">
        <rect
           style="opacity:1;fill:#000518;fill-opacity:0.158948;stroke:none;stroke-width:4.05434;stroke-linecap:round;stroke-miterlimit:4;stroke-dasharray:none;stroke-opacity:0.443137"
           id="rect24426"
           width="27.721453"
           height="21.52771"
           x="1289.6237"
           y="525.07074"
           rx="2.5599403"
           ry="2.3942895" />
        <rect
           style="opacity:1;fill:#000518;fill-opacity:0.158948;stroke:none;stroke-width:4.20333;stroke-linecap:round;stroke-miterlimit:4;stroke-dasharray:none;stroke-opacity:0.443137"
           id="rect24554"
           width="28.866344"
           height="22.221352"
           x="1289.0249"
           y="525.07074"
           rx="2.6656654"
           ry="2.4714355" />
        <rect
           style="opacity:1;fill:#000518;fill-opacity:0.158948;stroke:none;stroke-width:4.35718;stroke-linecap:round;stroke-miterlimit:4;stroke-dasharray:none;stroke-opacity:0.443137"
           id="rect24556"
           width="30.064159"
           height="22.926538"
           x="1288.3916"
           y="525.10614"
           rx="2.7762778"
           ry="2.5498657" />
      </g>
      <g
         id="g24659"
         style="opacity:0.117496"
         transform="matrix(1,0,0,1.077238,0,-40.555406)">
        <rect
           style="opacity:1;fill:#000518;fill-opacity:0.158948;stroke:none;stroke-width:4.05434;stroke-linecap:round;stroke-miterlimit:4;stroke-dasharray:none;stroke-opacity:0.443137"
           id="rect24653"
           width="27.721453"
           height="21.52771"
           x="1289.6237"
           y="525.07074"
           rx="2.5599403"
           ry="2.3942895" />
        <rect
           style="opacity:1;fill:#000518;fill-opacity:0.158948;stroke:none;stroke-width:4.20333;stroke-linecap:round;stroke-miterlimit:4;stroke-dasharray:none;stroke-opacity:0.443137"
           id="rect24655"
           width="28.866344"
           height="22.221352"
           x="1289.0249"
           y="525.07074"
           rx="2.6656654"
           ry="2.4714355" />
        <rect
           style="opacity:1;fill:#000518;fill-opacity:0.158948;stroke:none;stroke-width:4.35718;stroke-linecap:round;stroke-miterlimit:4;stroke-dasharray:none;stroke-opacity:0.443137"
           id="rect24657"
           width="30.064159"
           height="22.926538"
           x="1288.3916"
           y="525.10614"
           rx="2.7762778"
           ry="2.5498657" />
      </g>
      <rect
         style="opacity:1;fill:#ffffff;fill-opacity:1;stroke:none;stroke-width:4;stroke-linecap:round;stroke-miterlimit:4;stroke-dasharray:none;stroke-opacity:0.443137"
         id="rect24278"
         width="26.450165"
         height="21.961571"
         x="1290.2783"
         y="523.92371"
         rx="2.442543"
         ry="2.442543" />
    </g>
    <g
       id="g24762"
       transform="matrix(0.42102357,0,0,0.48077083,-446.16532,-224.3962)">
      <g
         id="g24750"
         style="opacity:0.371313">
        <rect
           style="opacity:1;fill:#000518;fill-opacity:0.158948;stroke:none;stroke-width:4.05434;stroke-linecap:round;stroke-miterlimit:4;stroke-dasharray:none;stroke-opacity:0.443137"
           id="rect24744"
           width="27.721453"
           height="21.52771"
           x="1289.6237"
           y="525.07074"
           rx="2.5599403"
           ry="2.3942895" />
        <rect
           style="opacity:1;fill:#000518;fill-opacity:0.158948;stroke:none;stroke-width:4.20333;stroke-linecap:round;stroke-miterlimit:4;stroke-dasharray:none;stroke-opacity:0.443137"
           id="rect24746"
           width="28.866344"
           height="22.221352"
           x="1289.0249"
           y="525.07074"
           rx="2.6656654"
           ry="2.4714355" />
        <rect
           style="opacity:1;fill:#000518;fill-opacity:0.158948;stroke:none;stroke-width:4.35718;stroke-linecap:round;stroke-miterlimit:4;stroke-dasharray:none;stroke-opacity:0.443137"
           id="rect24748"
           width="30.064159"
           height="22.926538"
           x="1288.3916"
           y="525.10614"
           rx="2.7762778"
           ry="2.5498657" />
      </g>
      <g
         id="g24758"
         style="opacity:0.117496"
         transform="matrix(1,0,0,1.077238,0,-40.555406)">
        <rect
           style="opacity:1;fill:#000518;fill-opacity:0.158948;stroke:none;stroke-width:4.05434;stroke-linecap:round;stroke-miterlimit:4;stroke-dasharray:none;stroke-opacity:0.443137"
           id="rect24752"
           width="27.721453"
           height="21.52771"
           x="1289.6237"
           y="525.07074"
           rx="2.5599403"
           ry="2.3942895" />
        <rect
           style="opacity:1;fill:#000518;fill-opacity:0.158948;stroke:none;stroke-width:4.20333;stroke-linecap:round;stroke-miterlimit:4;stroke-dasharray:none;stroke-opacity:0.443137"
           id="rect24754"
           width="28.866344"
           height="22.221352"
           x="1289.0249"
           y="525.07074"
           rx="2.6656654"
           ry="2.4714355" />
        <rect
           style="opacity:1;fill:#000518;fill-opacity:0.158948;stroke:none;stroke-width:4.35718;stroke-linecap:round;stroke-miterlimit:4;stroke-dasharray:none;stroke-opacity:0.443137"
           id="rect24756"
           width="30.064159"
           height="22.926538"
           x="1288.3916"
           y="525.10614"
           rx="2.7762778"
           ry="2.5498657" />
      </g>
      <rect
         style="opacity:1;fill:#ffffff;fill-opacity:1;stroke:none;stroke-width:4;stroke-linecap:round;stroke-miterlimit:4;stroke-dasharray:none;stroke-opacity:0.443137"
         id="rect24760"
         width="26.450165"
         height="21.961571"
         x="1290.2783"
         y="523.92371"
         rx="2.442543"
         ry="2.442543" />
    </g>
  </g>
</svg>
