<?xml version="1.0" encoding="UTF-8" standalone="no"?>
<!-- Created with Inkscape (http://www.inkscape.org/) -->

<svg
   width="48"
   height="48"
   viewBox="0 0 48 48"
   version="1.1"
   id="svg5"
   inkscape:version="1.1.2 (0a00cf5339, 2022-02-04)"
   sodipodi:docname="parole.svg"
   xmlns:inkscape="http://www.inkscape.org/namespaces/inkscape"
   xmlns:sodipodi="http://sodipodi.sourceforge.net/DTD/sodipodi-0.dtd"
   xmlns:xlink="http://www.w3.org/1999/xlink"
   xmlns="http://www.w3.org/2000/svg"
   xmlns:svg="http://www.w3.org/2000/svg">
  <sodipodi:namedview
     id="namedview7"
     pagecolor="#ffffff"
     bordercolor="#666666"
     borderopacity="1.0"
     inkscape:pageshadow="2"
     inkscape:pageopacity="0.0"
     inkscape:pagecheckerboard="0"
     inkscape:document-units="px"
     showgrid="false"
     units="px"
     height="64px"
     inkscape:zoom="6.0914304"
     inkscape:cx="-21.259374"
     inkscape:cy="35.131321"
     inkscape:window-width="1920"
     inkscape:window-height="1016"
     inkscape:window-x="0"
     inkscape:window-y="32"
     inkscape:window-maximized="1"
     inkscape:current-layer="svg5"
     inkscape:showpageshadow="2"
     inkscape:deskcolor="#d1d1d1"
     showguides="false" />
  <defs
     id="defs2">
    <linearGradient
       inkscape:collect="always"
       xlink:href="#linearGradient5048"
       id="linearGradient17859"
       gradientUnits="userSpaceOnUse"
       gradientTransform="matrix(0.05705748,0,0,0.03868166,3.1515999,23.699623)"
       x1="302.85715"
       y1="366.64789"
       x2="302.85715"
       y2="609.50507" />
    <linearGradient
       id="linearGradient5048">
      <stop
         style="stop-color:black;stop-opacity:0;"
         id="stop5050"
         offset="0" />
      <stop
         style="stop-color:black;stop-opacity:1;"
         id="stop5056"
         offset="0.5" />
      <stop
         style="stop-color:black;stop-opacity:0;"
         id="stop5052"
         offset="1" />
    </linearGradient>
    <radialGradient
       inkscape:collect="always"
       xlink:href="#linearGradient5060"
       id="radialGradient17856"
       gradientUnits="userSpaceOnUse"
       gradientTransform="matrix(0.06448265,0,0,0.03868166,-1.3120197,23.699623)"
       cx="605.71429"
       cy="486.64789"
       fx="605.71429"
       fy="486.64789"
       r="117.14286" />
    <linearGradient
       id="linearGradient5060"
       inkscape:collect="always">
      <stop
         style="stop-color:black;stop-opacity:1;"
         id="stop5062"
         offset="0" />
      <stop
         style="stop-color:black;stop-opacity:0;"
         id="stop5064"
         offset="1" />
    </linearGradient>
    <radialGradient
       inkscape:collect="always"
       xlink:href="#linearGradient5060"
       id="radialGradient17853"
       gradientUnits="userSpaceOnUse"
       gradientTransform="matrix(-0.06448265,0,0,0.03868166,48.86827,23.699623)"
       cx="605.71429"
       cy="486.64789"
       fx="605.71429"
       fy="486.64789"
       r="117.14286" />
    <radialGradient
       inkscape:collect="always"
       xlink:href="#linearGradient2601"
       id="radialGradient17850"
       gradientUnits="userSpaceOnUse"
       gradientTransform="matrix(2.848501,0,0,2.0889653,-64.134327,-49.930842)"
       cx="27.216267"
       cy="35.673447"
       fx="27.216267"
       fy="35.673447"
       r="19.57143" />
    <linearGradient
       id="linearGradient2601">
      <stop
         id="stop2603"
         offset="0.0000000"
         style="stop-color:#5d5d5d;stop-opacity:1.0000000;" />
      <stop
         id="stop2605"
         offset="1.0000000"
         style="stop-color:#444444;stop-opacity:1.0000000;" />
    </linearGradient>
    <linearGradient
       inkscape:collect="always"
       xlink:href="#linearGradient2613"
       id="linearGradient17848"
       gradientUnits="userSpaceOnUse"
       x1="5.463501"
       y1="13.142847"
       x2="21.536488"
       y2="49.142849"
       gradientTransform="matrix(1.0037098,0,0,0.9779318,-0.2601075,1.6597901)" />
    <linearGradient
       id="linearGradient2613"
       inkscape:collect="always">
      <stop
         id="stop2615"
         offset="0"
         style="stop-color:#ffffff;stop-opacity:1;" />
      <stop
         id="stop2617"
         offset="1"
         style="stop-color:#ffffff;stop-opacity:0;" />
    </linearGradient>
    <linearGradient
       inkscape:collect="always"
       xlink:href="#linearGradient2502"
       id="linearGradient3830"
       gradientUnits="userSpaceOnUse"
       x1="2.7612331"
       y1="6.1102505"
       x2="18.772917"
       y2="18.693317"
       gradientTransform="matrix(0.98305691,0.00727922,-0.0073037,0.9797615,3.1163751,6.0051535)" />
    <linearGradient
       id="linearGradient2502">
      <stop
         id="stop2504"
         offset="0"
         style="stop-color:#fdfdfd;stop-opacity:1;" />
      <stop
         id="stop2506"
         offset="1.0000000"
         style="stop-color:#d4d4d4;stop-opacity:1.0000000;" />
    </linearGradient>
    <linearGradient
       inkscape:collect="always"
       xlink:href="#linearGradient2502"
       id="linearGradient3852"
       gradientUnits="userSpaceOnUse"
       gradientTransform="matrix(1.2876241,-0.33481908,0.3336328,1.2833248,-44.647445,-36.935703)"
       x1="2.7612331"
       y1="6.1102505"
       x2="18.772917"
       y2="18.693317" />
    <linearGradient
       inkscape:collect="always"
       xlink:href="#linearGradient10150"
       id="linearGradient10161"
       x1="10.66092"
       y1="10.732934"
       x2="10.66092"
       y2="19.655537"
       gradientUnits="userSpaceOnUse" />
    <linearGradient
       inkscape:collect="always"
       id="linearGradient10150">
      <stop
         style="stop-color:#7c7f82;stop-opacity:1"
         offset="0"
         id="stop10156" />
      <stop
         style="stop-color:#3a3c3e;stop-opacity:1"
         offset="1"
         id="stop10159" />
    </linearGradient>
    <linearGradient
       inkscape:collect="always"
       xlink:href="#linearGradient2613"
       id="linearGradient10941"
       x1="13.303192"
       y1="11.104468"
       x2="8.6929884"
       y2="18.145662"
       gradientUnits="userSpaceOnUse" />
  </defs>
  <rect
     id="rect4173"
     x="9.998497"
     y="37.882175"
     width="27.550613"
     height="9.3941164"
     style="display:inline;overflow:visible;visibility:visible;opacity:0.402062;fill:url(#linearGradient17859);fill-opacity:1;fill-rule:nonzero;stroke:none;stroke-width:0.738915;marker:none" />
  <path
     d="m 37.549112,37.882493 c 0,0 0,9.393599 0,9.393599 3.320698,0.01768 8.027829,-2.104628 8.027827,-4.697404 0,-2.592775 -3.705647,-4.696194 -8.027827,-4.696195 z"
     id="path5058"
     style="display:inline;overflow:visible;visibility:visible;opacity:0.402062;fill:url(#radialGradient17856);fill-opacity:1;fill-rule:nonzero;stroke:none;stroke-width:0.738915;marker:none"
     sodipodi:nodetypes="cccc"
     inkscape:connector-curvature="0" />
  <path
     id="path5018"
     d="m 10.007129,37.882493 c 0,0 0,9.393599 0,9.393599 -3.3206976,0.01768 -8.0278284,-2.104628 -8.0278284,-4.697404 0,-2.592775 3.705647,-4.696194 8.0278284,-4.696195 z"
     style="display:inline;overflow:visible;visibility:visible;opacity:0.402062;fill:url(#radialGradient17853);fill-opacity:1;fill-rule:nonzero;stroke:none;stroke-width:0.738915;marker:none"
     sodipodi:nodetypes="cccc"
     inkscape:connector-curvature="0" />
  <rect
     ry="1.1176671"
     rx="1.1203568"
     y="17.604322"
     x="5.4167643"
     height="27.382837"
     width="37.684639"
     id="rect1440"
     style="display:block;visibility:visible;fill:url(#radialGradient17850);fill-opacity:1;fill-rule:nonzero;stroke:#1b1b1b;stroke-width:0.738915;stroke-linecap:butt;stroke-linejoin:miter;stroke-miterlimit:4;stroke-dasharray:none;stroke-dashoffset:0;stroke-opacity:1;marker:none" />
  <rect
     style="display:block;visibility:visible;opacity:0.311558;fill:none;stroke:url(#linearGradient17848);stroke-width:0.738915;stroke-linecap:butt;stroke-linejoin:miter;stroke-miterlimit:4;stroke-dasharray:none;stroke-dashoffset:0;stroke-opacity:1;marker:none"
     id="rect2609"
     width="36.206806"
     height="25.485121"
     x="6.1556787"
     y="18.763124"
     rx="0.26879126"
     ry="0.26768139" />
  <path
     style="display:block;visibility:visible;fill:url(#linearGradient3830);fill-opacity:1;fill-rule:nonzero;stroke:#2b2b2b;stroke-width:0.738915;stroke-linecap:butt;stroke-linejoin:miter;stroke-miterlimit:4;stroke-dashoffset:0;stroke-opacity:1;marker:none"
     d="m 5.7862219,16.169528 36.9457221,-3.1e-5 c 0.622981,2e-6 1.112667,0.489239 1.108354,1.108371 l -0.0309,4.43259 c -0.0043,0.619132 -0.454496,1.109236 -1.077478,1.109236 l -36.9379023,3.3e-5 c -0.6229808,1e-6 -1.11615,-0.489224 -1.1161522,-1.10837 l -1.57e-5,-4.433489 c -2.3e-6,-0.619146 0.4853909,-1.108339 1.1083721,-1.10834 z"
     id="rect4362"
     inkscape:connector-curvature="0"
     sodipodi:nodetypes="sssssssss" />
  <path
     style="fill:#000000;fill-opacity:1;fill-rule:evenodd;stroke:none;stroke-width:0.738915"
     d="m 7.2640508,16.538955 -2.2199102,2.959879 c 0,0 -0.2447378,2.334821 0.1615056,2.766707 0.4062435,0.431886 2.7973191,0.184729 2.7973191,0.184729 l 4.4334867,-5.911315 z"
     id="path3837"
     sodipodi:nodetypes="cczccc"
     inkscape:connector-curvature="0" />
  <path
     inkscape:connector-curvature="0"
     sodipodi:nodetypes="ccccc"
     id="path4366"
     d="m 17.608853,16.538955 -4.433487,5.911315 h 5.172401 l 4.433487,-5.911315 z"
     style="fill:#000000;fill-opacity:1;fill-rule:evenodd;stroke:none;stroke-width:0.738915" />
  <path
     style="fill:#000000;fill-opacity:1;fill-rule:evenodd;stroke:none;stroke-width:0.738915"
     d="m 27.953655,16.538955 -4.433486,5.911315 h 5.172401 l 4.433486,-5.911315 z"
     id="path3833"
     sodipodi:nodetypes="ccccc"
     inkscape:connector-curvature="0" />
  <g
     id="g3854"
     transform="matrix(0.73891446,0,0,0.73891446,32.631332,28.43918)">
    <path
       style="display:block;visibility:visible;fill:url(#linearGradient3852);fill-opacity:1;fill-rule:nonzero;stroke:#2b2b2b;stroke-width:1;stroke-linecap:butt;stroke-linejoin:miter;stroke-miterlimit:4;stroke-dashoffset:0;stroke-opacity:1;marker:none"
       d="m -37.597091,-24.583764 48.29628,-12.940993 c 0.814376,-0.218209 1.62587,0.249812 1.837095,1.060666 l 1.512205,5.805206 c 0.211261,0.810844 -0.205598,1.609214 -1.019973,1.827426 l -48.286055,12.938256 c -0.814375,0.218211 -1.630418,-0.248573 -1.847289,-1.057935 l -1.552934,-5.79555 c -0.216872,-0.809363 0.246297,-1.618864 1.060671,-1.837076 z"
       id="path3840"
       inkscape:connector-curvature="0"
       sodipodi:nodetypes="sssssssss" />
    <path
       style="fill:#000000;fill-opacity:1;fill-rule:evenodd;stroke:none"
       d="m -35.535841,-24.61848 -1.865163,4.646789 c 0,0 0.49789,3.137855 1.180217,3.560132 0.682327,0.422276 3.721424,-0.738334 3.721424,-0.738334 l 3.725003,-9.280321 z"
       id="path3842"
       sodipodi:nodetypes="cczccc"
       inkscape:connector-curvature="0" />
    <path
       inkscape:connector-curvature="0"
       sodipodi:nodetypes="ccccc"
       id="path3844"
       d="m -22.01288,-28.241947 -3.725002,9.280321 6.761481,-1.811733 3.725002,-9.280321 z"
       style="fill:#000000;fill-opacity:1;fill-rule:evenodd;stroke:none" />
    <path
       style="fill:#000000;fill-opacity:1;fill-rule:evenodd;stroke:none"
       d="m -8.4899182,-31.865414 -3.7250018,9.280321 6.7614798,-1.811733 3.725003,-9.280321 z"
       id="path3846"
       sodipodi:nodetypes="ccccc"
       inkscape:connector-curvature="0" />
    <path
       inkscape:connector-curvature="0"
       sodipodi:nodetypes="ccccc"
       id="path3848"
       d="m 5.0330438,-35.48888 -3.725003,9.280321 6.761481,-1.811734 3.7250032,-9.280321 z"
       style="fill:#000000;fill-opacity:1;fill-rule:evenodd;stroke:none" />
    <path
       style="display:block;visibility:visible;fill:none;stroke:#ffffff;stroke-width:1;stroke-linecap:butt;stroke-linejoin:miter;stroke-miterlimit:4;stroke-dashoffset:0;stroke-opacity:0.575129;marker:none"
       d="m -37.438357,-23.591086 48.396365,-12.967746 c 0.188878,-0.05061 0.561864,0.165894 0.612169,0.353608 l 1.553115,5.795502 c 0.05034,0.187706 -0.164669,0.561782 -0.353548,0.612392 l -48.296294,12.940932 c -0.188878,0.05061 -0.563326,-0.165505 -0.612372,-0.353554 l -1.552658,-5.953016 c -0.04904,-0.188048 0.06435,-0.377509 0.253224,-0.428119 z"
       id="path3850"
       inkscape:connector-curvature="0"
       sodipodi:nodetypes="sssssssss" />
  </g>
  <path
     inkscape:connector-curvature="0"
     sodipodi:nodetypes="ccccc"
     id="path3835"
     d="m 38.298458,16.538955 -4.433487,5.911315 h 5.1724 l 4.433488,-5.911315 z"
     style="fill:#000000;fill-opacity:1;fill-rule:evenodd;stroke:none;stroke-width:0.738915" />
  <path
     style="display:block;visibility:visible;fill:none;stroke:#ffffff;stroke-width:0.738915;stroke-linecap:butt;stroke-linejoin:miter;stroke-miterlimit:4;stroke-dashoffset:0;stroke-opacity:0.575129;marker:none"
     d="m 5.7096718,16.908396 37.0222722,1.5e-5 c 0.144489,-2e-6 0.369297,0.225858 0.369301,0.369457 l 1.54e-4,4.433489 c 3.2e-5,0.143599 -0.224968,0.369471 -0.369456,0.369471 l -36.9457211,-1.5e-5 c -0.1444883,0 -0.3704143,-0.225861 -0.3694573,-0.369456 l 0.030297,-4.545824 c 9.606e-4,-0.143597 0.1181222,-0.257137 0.2626102,-0.257137 z"
     id="rect4372"
     inkscape:connector-curvature="0"
     sodipodi:nodetypes="sssssssss" />
  <path
     inkscape:connector-curvature="0"
     id="path3601"
     d="M 9.8502513,32.425615 H 37.946665"
     style="opacity:0.261307;fill:none;stroke:#ffffff;stroke-width:0.738915;stroke-linecap:square;stroke-linejoin:miter;stroke-miterlimit:4;stroke-dasharray:none;stroke-opacity:1" />
  <path
     inkscape:connector-curvature="0"
     id="path3607"
     d="m 32.017685,32.056157 v -3.91158"
     style="opacity:0.261307;fill:none;stroke:#ffffff;stroke-width:0.738915;stroke-linecap:butt;stroke-linejoin:miter;stroke-miterlimit:4;stroke-dasharray:none;stroke-opacity:1" />
  <path
     inkscape:connector-curvature="0"
     id="path3605"
     d="M 9.8571492,36.859102 H 37.922103"
     style="opacity:0.261307;fill:none;stroke:#ffffff;stroke-width:0.738915;stroke-linecap:square;stroke-linejoin:miter;stroke-miterlimit:4;stroke-dasharray:none;stroke-opacity:1" />
  <path
     inkscape:connector-curvature="0"
     id="path3611"
     d="m 22.411797,32.056157 v -3.91158"
     style="opacity:0.261307;fill:none;stroke:#ffffff;stroke-width:0.738915;stroke-linecap:butt;stroke-linejoin:miter;stroke-miterlimit:4;stroke-dasharray:none;stroke-opacity:1" />
  <path
     inkscape:connector-curvature="0"
     style="opacity:0.261307;fill:none;stroke:#ffffff;stroke-width:0.738915;stroke-linecap:square;stroke-linejoin:miter;stroke-miterlimit:4;stroke-dasharray:none;stroke-opacity:1"
     d="M 9.8559721,41.292588 H 23.144989"
     id="path3615" />
  <g
     transform="matrix(0.67701308,0,0,0.67284656,11.948579,15.653004)"
     style="fill:#ffffff;fill-opacity:1"
     id="g3680">
    <path
       style="fill:#ffffff;fill-opacity:1;fill-rule:nonzero;stroke:none"
       id="path3674"
       d="m 13.817087,27.83871 c 0.113601,0.965157 0.244861,1.927714 0.394926,2.887925 l -2.107716,1.115321 C 11.971325,30.898587 11.859805,29.948673 11.653276,29.01819 Z"
       inkscape:connector-curvature="0" />
    <path
       style="fill:#ffffff;fill-opacity:1;fill-rule:nonzero;stroke:none"
       id="path3676"
       d="m 17.665061,28.673198 c -0.02417,2.079247 0.678,1.192783 -1.910963,2.589105 0.815412,-1.303562 2.191632,-2.618366 3.548625,-1.445006 2.591189,0.421672 -1.433848,2.481989 0.355171,0.314327 2.600013,-2.269865 2.222306,-0.997521 4.404319,-0.868565 1.780222,0.430207 1.796194,0.05633 -0.570253,1.416663 0.03203,-0.02793 0.06406,-0.05585 0.09609,-0.08377 l 2.238621,-0.946961 c -0.02529,0.03869 -0.05058,0.07738 -0.07587,0.116068 -2.811349,1.677475 -1.668398,1.183753 -3.647289,0.92631 -1.86635,-0.327685 -2.87539,-0.553295 -0.220839,-1.484714 -1.139443,1.293919 -2.981215,3.299891 -4.618598,1.882935 -1.588509,-1.170545 2.132535,-2.413333 0.764613,-0.73098 -2.682553,1.478611 -2.400461,1.55186 -2.560742,-0.565921 l 2.197119,-1.119488 z"
       inkscape:connector-curvature="0" />
    <path
       style="fill:#ffffff;fill-opacity:1;fill-rule:nonzero;stroke:none"
       id="path3678"
       d="m 29.174994,26.230789 c 0.14593,1.507956 0.225786,3.019542 0.405142,4.524683 1.423472,1.850746 -1.826977,4.633968 -1.347225,1.808834 0.342081,-3.243811 0.650319,-3.84417 3.528747,-4.879984 0.547689,0.983343 0.847731,2.137946 1.704024,2.727959 -4.840075,2.551671 1.693745,-1.481215 2.420946,-1.867341 0.464921,-0.109143 0.939853,-0.165325 1.412287,-0.230751 l -1.920756,1.437314 c -0.464844,0.06807 -0.935057,0.1189 -1.384984,0.261165 2.998581,-1.911568 -0.568404,0.841891 -2.506019,1.817551 -0.923746,-0.724224 -1.143464,-1.894425 -1.783232,-2.880314 3.14599,-2.218804 0.63263,-0.141231 0.637903,2.577332 -0.28354,2.350093 -3.320174,3.549885 -2.814981,0.306459 -0.172764,-1.481806 -0.250004,-2.982368 -0.530099,-4.447333 z"
       inkscape:connector-curvature="0" />
  </g>
  <g
     transform="matrix(0.99768939,0,0,0.99154938,2.0073982,6.5935621)"
     id="g3755">
    <path
       style="fill:#ffffff;fill-opacity:1;fill-rule:nonzero;stroke:none"
       id="path3693"
       d="m 11.316278,22.373912 c 1.820856,-1.333208 1.127169,-0.281091 1.128436,1.146858 -0.01466,1.286348 0.175884,2.556881 0.462421,3.806594 l -1.262911,0.682145 c -0.287161,-1.259893 -0.47939,-2.540337 -0.475327,-3.836434 -0.01981,-1.552781 -0.288652,-1.952637 1.347165,-2.670858 z"
       inkscape:connector-curvature="0" />
    <path
       style="fill:#ffffff;fill-opacity:1;fill-rule:nonzero;stroke:none"
       id="path3695"
       d="m 15.610946,22.413179 c -0.02437,0.790304 -0.02398,1.581273 -0.02699,2.3719 -0.0011,0.331934 -0.001,0.663869 -0.0013,0.995804 l -1.264717,0.644405 c -3.07e-4,-0.33148 -2.58e-4,-0.66296 -0.0013,-0.994439 -0.003,-0.781455 -0.0024,-1.563275 -0.02699,-2.344395 l 1.321376,-0.673275 z"
       inkscape:connector-curvature="0" />
    <path
       style="fill:#ffffff;fill-opacity:1;fill-rule:nonzero;stroke:none"
       id="path3697"
       d="m 17.833281,21.200996 c 0.09877,0.796352 0.117107,1.655155 0.145148,2.472831 0.008,0.24117 0.0132,0.482416 0.01979,0.723625 l -1.257551,0.645191 c -0.0078,-0.240127 -0.0132,-0.480333 -0.02347,-0.72038 -0.03579,-0.815108 -0.04172,-1.648209 -0.205301,-2.447992 l 1.321376,-0.673275 z"
       inkscape:connector-curvature="0" />
    <path
       style="fill:#ffffff;fill-opacity:1;fill-rule:nonzero;stroke:none"
       id="path3699"
       d="m 20.257647,20.594904 c -0.196164,0.682214 -0.268848,1.395879 -0.337656,2.103621 -0.0674,0.761239 -0.09762,1.524887 -0.128658,2.288229 l -1.257113,0.634694 c 0.02996,-0.763385 0.05957,-1.526914 0.115545,-2.288959 0.05537,-0.688124 0.083,-1.405566 0.286506,-2.06431 z"
       inkscape:connector-curvature="0" />
    <path
       style="fill:#ffffff;fill-opacity:1;fill-rule:nonzero;stroke:none"
       id="path3701"
       d="m 9.8969255,22.310339 c 0.9067235,0.190928 1.8267775,0.348564 2.7421905,0.503737 2.149945,0.332152 4.306576,0.626935 6.468095,0.873614 0.903938,0.09251 1.807226,0.19028 2.709599,0.296728 l -1.16802,0.826398 C 19.754597,24.700327 18.859587,24.597014 17.963955,24.498588 15.801624,24.238152 13.642863,23.943889 11.488982,23.62143 10.560864,23.472229 9.6271038,23.290017 8.6971411,23.182034 Z"
       inkscape:connector-curvature="0" />
  </g>
  <g
     id="g12937"
     transform="matrix(0.98395047,0,0,0.97789499,0.15899207,0.33732591)">
    <path
       style="fill:url(#linearGradient10161);fill-opacity:1;fill-rule:evenodd;stroke:#1b1b1b;stroke-width:0.753289;stroke-linecap:butt;stroke-linejoin:miter;stroke-miterlimit:4;stroke-dasharray:none;stroke-opacity:1"
       d="m 9.530039,20.318017 5.032098,-4.247694 c 0.300079,-0.253302 0.268226,-0.674472 -0.0737,-0.915372 L 8.283363,11.390892 C 7.604382,10.979016 6.4663323,11.47183 6.5595663,12.15353 l 0.1765087,6.938464 c -0.1421506,1.219771 2.009141,1.888508 2.793964,1.226023 z"
       id="path3583"
       sodipodi:nodetypes="ccccccc"
       inkscape:connector-curvature="0" />
    <circle
       style="display:block;visibility:visible;fill:#ffffff;fill-opacity:1;fill-rule:nonzero;stroke:none;stroke-width:1;marker:none"
       id="path3587"
       transform="matrix(0.77878072,0,0,0.78360321,1.6860456,0.4480246)"
       cx="8.5535717"
       cy="17.196428"
       r="0.48214287" />
    <circle
       transform="matrix(0.77878072,0,0,0.78360321,1.6860456,4.9817289)"
       id="path3589"
       style="display:block;visibility:visible;fill:#ffffff;fill-opacity:1;fill-rule:nonzero;stroke:none;stroke-width:1;marker:none"
       cx="8.5535717"
       cy="17.196428"
       r="0.48214287" />
    <path
       style="opacity:0.4;fill:none;stroke:url(#linearGradient10941);stroke-width:0.753289;stroke-linecap:butt;stroke-linejoin:round;stroke-miterlimit:4;stroke-dasharray:none;stroke-opacity:1"
       d="m 9.3883237,19.423665 4.5995433,-3.741384 c 0,0 -6.1937613,-3.922042 -6.5255331,-3.702096 -0.3317717,0.219946 0.045962,6.971376 0.045962,6.971376 -0.096701,0.818679 1.3461333,0.916748 1.8800278,0.472104 z"
       id="path10163"
       sodipodi:nodetypes="cczcc"
       inkscape:connector-curvature="0" />
  </g>
</svg>
