<?xml version="1.0" encoding="UTF-8" standalone="no"?>
<svg
   width="64"
   height="64"
   viewBox="0 0 64 64"
   version="1.1"
   id="svg28"
   sodipodi:docname="configuration_section.svg"
   inkscape:version="1.1.2 (0a00cf5339, 2022-02-04)"
   xmlns:inkscape="http://www.inkscape.org/namespaces/inkscape"
   xmlns:sodipodi="http://sodipodi.sourceforge.net/DTD/sodipodi-0.dtd"
   xmlns:xlink="http://www.w3.org/1999/xlink"
   xmlns="http://www.w3.org/2000/svg"
   xmlns:svg="http://www.w3.org/2000/svg">
  <sodipodi:namedview
     id="namedview30"
     pagecolor="#ffffff"
     bordercolor="#666666"
     borderopacity="1.0"
     inkscape:pageshadow="2"
     inkscape:pageopacity="0.0"
     inkscape:pagecheckerboard="0"
     showgrid="false"
     inkscape:zoom="9.921875"
     inkscape:cx="30.992126"
     inkscape:cy="31.748031"
     inkscape:window-width="1920"
     inkscape:window-height="1016"
     inkscape:window-x="0"
     inkscape:window-y="32"
     inkscape:window-maximized="1"
     inkscape:current-layer="svg28" />
  <defs
     id="defs19">
    <linearGradient
       id="linear0"
       gradientUnits="userSpaceOnUse"
       x1="22.2703"
       y1="11.7297"
       x2="9.646"
       y2="24.354"
       gradientTransform="matrix(2,0,0,-2,0,68)">
      <stop
         offset="0"
         style="stop-color:rgb(100%,100%,100%);stop-opacity:1;"
         id="stop2" />
      <stop
         offset="0.242"
         style="stop-color:rgb(94.901961%,94.901961%,94.901961%);stop-opacity:1;"
         id="stop4" />
      <stop
         offset="1"
         style="stop-color:rgb(80%,80%,80%);stop-opacity:1;"
         id="stop6" />
    </linearGradient>
    <linearGradient
       id="linear1"
       gradientUnits="userSpaceOnUse"
       x1="10.3857"
       y1="23.6143"
       x2="20.2343"
       y2="13.7657"
       gradientTransform="matrix(2,0,0,-2,0,68)">
      <stop
         offset="0.2291"
         style="stop-color:rgb(2.352941%,41.176471%,73.72549%);stop-opacity:1;"
         id="stop9" />
      <stop
         offset="0.8045"
         style="stop-color:rgb(6.27451%,30.588235%,56.862745%);stop-opacity:1;"
         id="stop11" />
    </linearGradient>
    <linearGradient
       id="linear2"
       gradientUnits="userSpaceOnUse"
       x1="1.1849"
       y1="32.7367"
       x2="27.1727"
       y2="6.749"
       gradientTransform="matrix(2,0,0,-2,0,68)">
      <stop
         offset="0.1453"
         style="stop-color:rgb(54.117647%,56.862745%,59.607843%);stop-opacity:1;"
         id="stop14" />
      <stop
         offset="0.8939"
         style="stop-color:rgb(38.823529%,43.921569%,48.235294%);stop-opacity:1;"
         id="stop16" />
    </linearGradient>
    <radialGradient
       gradientTransform="matrix(2.003784,0,0,1.4,27.98813,-17.4)"
       gradientUnits="userSpaceOnUse"
       xlink:href="#linearGradient3688-166-749-4-0-3-8"
       id="radialGradient3337-2-2"
       fy="43.5"
       fx="4.9929786"
       r="2.5"
       cy="43.5"
       cx="4.9929786" />
    <linearGradient
       id="linearGradient3688-166-749-4-0-3-8">
      <stop
         offset="0"
         style="stop-color:#181818;stop-opacity:1"
         id="stop2883-4-0-1-8" />
      <stop
         offset="1"
         style="stop-color:#181818;stop-opacity:0"
         id="stop2885-9-2-9-6" />
    </linearGradient>
    <radialGradient
       gradientTransform="matrix(2.003784,0,0,1.4,-20.01187,-104.4)"
       gradientUnits="userSpaceOnUse"
       xlink:href="#linearGradient3688-166-749-4-0-3-8"
       id="radialGradient3339-1-4"
       fy="43.5"
       fx="4.9929786"
       r="2.5"
       cy="43.5"
       cx="4.9929786" />
    <linearGradient
       gradientUnits="userSpaceOnUse"
       xlink:href="#linearGradient3702-501-757-8-4-1-1"
       id="linearGradient13984"
       y2="39.999443"
       x2="25.058096"
       y1="47.027729"
       x1="25.058096" />
    <linearGradient
       id="linearGradient3702-501-757-8-4-1-1">
      <stop
         offset="0"
         style="stop-color:#181818;stop-opacity:0"
         id="stop2895-8-9-9-1" />
      <stop
         offset="0.5"
         style="stop-color:#181818;stop-opacity:1"
         id="stop2897-7-8-7-7" />
      <stop
         offset="1"
         style="stop-color:#181818;stop-opacity:0"
         id="stop2899-4-5-1-5" />
    </linearGradient>
    <radialGradient
       r="27.5"
       fy="4.3419166"
       fx="31.999998"
       cy="4.3419166"
       cx="31.999998"
       gradientTransform="matrix(1.0056172e-8,2.3103361,-2.310336,1.0056172e-8,41.992513,-69.415153)"
       gradientUnits="userSpaceOnUse"
       id="radialGradient3651"
       xlink:href="#linearGradient4632-92-3-0-8-1" />
    <linearGradient
       id="linearGradient4632-92-3-0-8-1">
      <stop
         offset="0"
         style="stop-color:#fafafa;stop-opacity:1"
         id="stop4634-68-8-0-2-9" />
      <stop
         offset="1"
         style="stop-color:#e1e1e1;stop-opacity:1"
         id="stop4636-8-21-7-1-4" />
    </linearGradient>
    <linearGradient
       y2="43"
       x2="23.99999"
       y1="4.999989"
       x1="23.99999"
       gradientTransform="matrix(1.4324324,0,0,1.4362832,-2.4171529,-2.7999684)"
       gradientUnits="userSpaceOnUse"
       id="linearGradient3647"
       xlink:href="#linearGradient3924-2-2-5-8" />
    <linearGradient
       id="linearGradient3924-2-2-5-8">
      <stop
         offset="0"
         style="stop-color:#ffffff;stop-opacity:1"
         id="stop3926-9-4-9-6" />
      <stop
         offset="0.06316455"
         style="stop-color:#ffffff;stop-opacity:0.23529412"
         id="stop3928-9-8-6-5" />
      <stop
         offset="0.95056331"
         style="stop-color:#ffffff;stop-opacity:0.15686275"
         id="stop3930-3-5-1-7" />
      <stop
         offset="1"
         style="stop-color:#ffffff;stop-opacity:0.39215687"
         id="stop3932-8-0-4-8" />
    </linearGradient>
    <linearGradient
       y2="55.052982"
       x2="30.271185"
       y1="10.028973"
       x1="30.271185"
       gradientTransform="matrix(1.111111,0,0,1.25,-3.5943284,-8.3291895)"
       gradientUnits="userSpaceOnUse"
       id="linearGradient3643"
       xlink:href="#linearGradient27416-1-2" />
    <linearGradient
       id="linearGradient27416-1-2">
      <stop
         offset="0"
         style="stop-color:#55c1ec;stop-opacity:1"
         id="stop27420-2-0" />
      <stop
         offset="1"
         style="stop-color:#3689e6;stop-opacity:1"
         id="stop27422-3-5" />
    </linearGradient>
    <linearGradient
       y2="8.0928917"
       x2="38.976662"
       y1="59.967686"
       x1="38.976662"
       gradientTransform="matrix(-0.37254354,0,0,0.37254354,53.882481,19.00447)"
       gradientUnits="userSpaceOnUse"
       id="linearGradient3662"
       xlink:href="#linearGradient4215-8-4-07-7" />
    <linearGradient
       id="linearGradient4215-8-4-07-7">
      <stop
         style="stop-color:#e9e9e9;stop-opacity:1;"
         offset="0"
         id="stop4217-1-2-1-2" />
      <stop
         style="stop-color:#ffffff;stop-opacity:1;"
         offset="1"
         id="stop4219-3-4-0-96" />
    </linearGradient>
    <linearGradient
       y2="44.340794"
       x2="71.204407"
       y1="6.2375584"
       x1="71.204407"
       gradientTransform="matrix(-0.45945942,0,0,0.45945942,74.919732,20.020326)"
       gradientUnits="userSpaceOnUse"
       id="linearGradient3659"
       xlink:href="#linearGradient4011-9-9-70-61-7" />
    <linearGradient
       id="linearGradient4011-9-9-70-61-7">
      <stop
         id="stop4013-5-4-3-8-3"
         style="stop-color:#ffffff;stop-opacity:1;"
         offset="0" />
      <stop
         offset="0.507761"
         style="stop-color:#ffffff;stop-opacity:0.23529412;"
         id="stop4015-1-5-70-9-5" />
      <stop
         id="stop4017-7-0-13-0-1"
         style="stop-color:#ffffff;stop-opacity:0.15686275;"
         offset="0.83456558" />
      <stop
         id="stop4019-1-12-7-0-7"
         style="stop-color:#ffffff;stop-opacity:0.39215687;"
         offset="1" />
    </linearGradient>
  </defs>
  <g
     transform="matrix(1.5789502,0,0,0.7142857,-5.9335229,27.599382)"
     id="g3712-8-2-4-4"
     style="opacity:0.4">
    <rect
       width="5"
       height="7"
       x="38"
       y="40"
       id="rect2801-5-5-7-9"
       style="fill:url(#radialGradient3337-2-2);fill-opacity:1;stroke:none" />
    <rect
       width="5"
       height="7"
       x="-10"
       y="-47"
       transform="scale(-1)"
       id="rect3696-3-0-3-7"
       style="fill:url(#radialGradient3339-1-4);fill-opacity:1;stroke:none" />
    <rect
       width="28"
       height="7.0000005"
       x="10"
       y="40"
       id="rect3700-5-6-8-4"
       style="fill:url(#linearGradient13984);fill-opacity:1;stroke:none" />
  </g>
  <rect
     width="54"
     height="54"
     rx="2.5"
     ry="2.5"
     x="4.9612279"
     y="4.6708097"
     id="rect5505-21-3-8-5-2"
     style="color:#000000;display:inline;overflow:visible;visibility:visible;fill:url(#radialGradient3651);fill-opacity:1;fill-rule:nonzero;stroke:none;stroke-width:1;marker:none;enable-background:accumulate" />
  <path
     d="m 21.961227,22.67081 c -5.54,0 -10,4.46 -10,10 0,5.54 4.46,10 10,10 h 20 c 5.54,0 10,-4.46 10,-10 0,-5.54 -4.46,-10 -10,-10 z"
     id="rect13708-6"
     style="color:#000000;display:inline;overflow:visible;visibility:visible;opacity:0.2;fill:#ffffff;fill-opacity:1;stroke:none;stroke-width:2;marker:none;enable-background:accumulate" />
  <rect
     width="53"
     height="53.142479"
     rx="2"
     ry="2"
     x="5.4612265"
     y="5.0995836"
     id="rect6741-5-0-2-3"
     style="fill:none;stroke:url(#linearGradient3647);stroke-width:1;stroke-linecap:round;stroke-linejoin:round;stroke-miterlimit:4;stroke-dasharray:none;stroke-dashoffset:0;stroke-opacity:1" />
  <rect
     width="55"
     height="55"
     rx="3"
     ry="3"
     x="4.4612265"
     y="4.1708117"
     id="rect5505-21-3-8-9-1-1"
     style="color:#000000;display:inline;overflow:visible;visibility:visible;opacity:0.3;fill:none;stroke:#000000;stroke-width:1;stroke-linecap:butt;stroke-linejoin:miter;stroke-miterlimit:4;stroke-dasharray:none;stroke-dashoffset:0;stroke-opacity:1;marker:none;enable-background:accumulate" />
  <path
     d="m 21.961227,21.670812 c -5.54,0 -10,4.46 -10,10 0,5.54 4.46,10 10,10 h 20 c 5.54,0 10,-4.46 10,-10 0,-5.54 -4.46,-10 -10,-10 z"
     id="rect13708"
     style="color:#000000;display:inline;overflow:visible;visibility:visible;fill:url(#linearGradient3643);fill-opacity:1;stroke:none;stroke-width:2;marker:none;enable-background:accumulate" />
  <path
     d="m 21.961227,21.670812 c -5.54,0 -10,4.46 -10,10 0,0.167898 0.02315,0.33418 0.03125,0.5 0.259131,-5.305614 4.596648,-9.5 9.96875,-9.5 h 20 c 5.372102,0 9.709619,4.194386 9.96875,9.5 0.0081,-0.16582 0.03125,-0.332102 0.03125,-0.5 0,-5.54 -4.46,-10 -10,-10 z"
     id="rect13708-7"
     style="color:#000000;display:inline;overflow:visible;visibility:visible;opacity:0.3;fill:#0e4774;fill-opacity:1;fill-rule:nonzero;stroke:none;stroke-width:2.4086;marker:none;enable-background:accumulate" />
  <path
     d="m 22.023727,22.670812 c -5.4028,0 -9.770333,4.194386 -10.03125,9.5 0.259131,5.305614 4.596648,9.5 9.96875,9.5 h 1.0625 c -5.571657,0 -10.0625,-4.014 -10.0625,-9 0,-4.986 4.490843,-9 10.0625,-9 h 17.875 c 5.571657,0 10.0625,4.014 10.0625,9 0,4.986 -4.490843,9 -10.0625,9 h 1.0625 c 5.372102,0 9.709619,-4.194386 9.96875,-9.5 -0.260917,-5.305614 -4.62845,-9.5 -10.03125,-9.5 z"
     id="rect3136"
     style="color:#000000;display:inline;overflow:visible;visibility:visible;opacity:0.15;fill:#0e4774;fill-opacity:1;fill-rule:nonzero;stroke:none;stroke-width:2.70968;marker:none;enable-background:accumulate" />
  <path
     d="m 9.9612281,9.67081 a 1,1 0 0 1 -2,0 1,1 0 1 1 2,0 z"
     id="path4356-7-9"
     style="color:#000000;display:inline;overflow:visible;visibility:visible;fill:#ffffff;fill-opacity:1;fill-rule:evenodd;stroke:none;stroke-width:0.33831;marker:none;enable-background:accumulate" />
  <path
     d="m 9.9612281,8.67081 a 1,1 0 0 1 -2,0 1,1 0 1 1 2,0 z"
     id="path4356-9"
     style="color:#000000;display:inline;overflow:visible;visibility:visible;opacity:0.3;fill:#000000;fill-opacity:1;fill-rule:evenodd;stroke:none;stroke-width:0.33831;marker:none;enable-background:accumulate" />
  <path
     d="m 55.961228,9.67081 a 1,1 0 0 1 -2,0 1,1 0 1 1 2,0 z"
     id="path4356-7-6-7"
     style="color:#000000;display:inline;overflow:visible;visibility:visible;fill:#ffffff;fill-opacity:1;fill-rule:evenodd;stroke:none;stroke-width:0.33831;marker:none;enable-background:accumulate" />
  <path
     d="m 55.961228,8.67081 a 1,1 0 0 1 -2,0 1,1 0 1 1 2,0 z"
     id="path4356-8-9"
     style="color:#000000;display:inline;overflow:visible;visibility:visible;opacity:0.3;fill:#000000;fill-opacity:1;fill-rule:evenodd;stroke:none;stroke-width:0.33831;marker:none;enable-background:accumulate" />
  <path
     d="m 9.9612281,55.67081 a 1,1 0 0 1 -2,0 1,1 0 1 1 2,0 z"
     id="path4356-7-9-3"
     style="color:#000000;display:inline;overflow:visible;visibility:visible;fill:#ffffff;fill-opacity:1;fill-rule:evenodd;stroke:none;stroke-width:0.33831;marker:none;enable-background:accumulate" />
  <path
     d="m 9.9612281,54.67081 a 1,1 0 0 1 -2,0 1,1 0 1 1 2,0 z"
     id="path4356-9-1"
     style="color:#000000;display:inline;overflow:visible;visibility:visible;opacity:0.3;fill:#000000;fill-opacity:1;fill-rule:evenodd;stroke:none;stroke-width:0.33831;marker:none;enable-background:accumulate" />
  <path
     d="m 55.961228,55.67081 a 1,1 0 0 1 -2,0 1,1 0 1 1 2,0 z"
     id="path4356-7-6-7-1"
     style="color:#000000;display:inline;overflow:visible;visibility:visible;fill:#ffffff;fill-opacity:1;fill-rule:evenodd;stroke:none;stroke-width:0.33831;marker:none;enable-background:accumulate" />
  <path
     d="m 55.961228,54.67081 a 1,1 0 0 1 -2,0 1,1 0 1 1 2,0 z"
     id="path4356-8-9-8"
     style="color:#000000;display:inline;overflow:visible;visibility:visible;opacity:0.3;fill:#000000;fill-opacity:1;fill-rule:evenodd;stroke:none;stroke-width:0.33831;marker:none;enable-background:accumulate" />
  <path
     style="color:#000000;display:inline;overflow:visible;visibility:visible;opacity:0.07;fill:#000000;fill-opacity:1;fill-rule:nonzero;stroke:none;stroke-width:2;marker:none;enable-background:accumulate"
     id="path2555-7-1-9-4-9-1"
     d="m 41.96109,22.170811 c 5.793539,0 10.499999,4.70646 10.499999,10.500001 0,5.793538 -4.70646,10.499998 -10.499999,10.499998 -5.793541,0 -10.500011,-4.70646 -10.500001,-10.499998 0,-5.793541 4.70646,-10.500001 10.500001,-10.500001 z" />
  <path
     style="color:#000000;display:inline;overflow:visible;visibility:visible;opacity:0.15;fill:#000000;fill-opacity:1;fill-rule:nonzero;stroke:none;stroke-width:2;marker:none;enable-background:accumulate"
     id="path2555-7-1-9-4-9"
     d="m 41.961089,23.17109 c 5.241697,0 9.49986,4.258163 9.49986,9.499861 0,5.241696 -4.258163,9.499859 -9.49986,9.499859 -5.241698,0 -9.49987,-4.258163 -9.499861,-9.499859 0,-5.241698 4.258163,-9.499861 9.499861,-9.499861 z" />
  <path
     style="color:#000000;display:inline;overflow:visible;visibility:visible;fill:url(#linearGradient3662);fill-opacity:1;fill-rule:nonzero;stroke:none;stroke-width:1;marker:none;enable-background:accumulate"
     id="path2555-7-1-9-4"
     d="m 41.961089,22.17109 c 5.241697,0 9.49986,4.258163 9.49986,9.499861 0,5.241696 -4.258163,9.499859 -9.49986,9.499859 -5.241698,0 -9.49987,-4.258163 -9.499861,-9.499859 0,-5.241698 4.258163,-9.499861 9.499861,-9.499861 z" />
  <path
     style="color:#000000;display:inline;overflow:visible;visibility:visible;fill:none;stroke:url(#linearGradient3659);stroke-width:1;stroke-linecap:round;stroke-linejoin:round;stroke-miterlimit:4;stroke-dasharray:none;stroke-dashoffset:0;stroke-opacity:1;marker:none;enable-background:accumulate"
     id="path8655-6-0-5-2"
     d="m 33.461088,31.670646 c 0,4.694578 3.805862,8.500304 8.499893,8.500304 4.694461,0 8.500107,-3.805772 8.500107,-8.500304 0,-4.694354 -3.805646,-8.499696 -8.500107,-8.499696 -4.694031,0 -8.499893,3.805342 -8.499893,8.499696 z" />
  <path
     style="color:#000000;display:inline;overflow:visible;visibility:visible;opacity:0.5;fill:none;stroke:#656565;stroke-width:1;stroke-linecap:round;stroke-linejoin:round;stroke-miterlimit:4;stroke-dasharray:none;stroke-dashoffset:0;stroke-opacity:1;marker:none;enable-background:accumulate"
     id="path2555-7-1-9-9-41"
     d="m 41.961089,22.17109 c 5.241697,0 9.49986,4.258163 9.49986,9.499861 0,5.241696 -4.258163,9.499859 -9.49986,9.499859 -5.241698,0 -9.49987,-4.258163 -9.499861,-9.499859 0,-5.241698 4.258163,-9.499861 9.499861,-9.499861 z" />
</svg>
