<?xml version="1.0" encoding="UTF-8" standalone="no"?>
<svg
   width="64"
   height="64"
   viewBox="0 0 64 64"
   version="1.1"
   id="svg554"
   sodipodi:docname="preferences-desktop-icons.svg"
   inkscape:version="1.1.2 (0a00cf5339, 2022-02-04)"
   xmlns:inkscape="http://www.inkscape.org/namespaces/inkscape"
   xmlns:sodipodi="http://sodipodi.sourceforge.net/DTD/sodipodi-0.dtd"
   xmlns:xlink="http://www.w3.org/1999/xlink"
   xmlns="http://www.w3.org/2000/svg"
   xmlns:svg="http://www.w3.org/2000/svg">
  <sodipodi:namedview
     id="namedview556"
     pagecolor="#ffffff"
     bordercolor="#999999"
     borderopacity="1"
     inkscape:showpageshadow="0"
     inkscape:pageopacity="0"
     inkscape:pagecheckerboard="0"
     inkscape:deskcolor="#d1d1d1"
     showgrid="false"
     inkscape:zoom="2.8284271"
     inkscape:cx="-73.362328"
     inkscape:cy="4.7729708"
     inkscape:window-width="1920"
     inkscape:window-height="1033"
     inkscape:window-x="0"
     inkscape:window-y="25"
     inkscape:window-maximized="1"
     inkscape:current-layer="g17699"
     inkscape:pageshadow="2"
     showguides="true"
     inkscape:guide-bbox="true">
    <sodipodi:guide
       position="181.88753,83.100362"
       orientation="0,-1"
       id="guide3812" />
    <sodipodi:guide
       position="167.56226,-80.33796"
       orientation="0,-1"
       id="guide3814" />
  </sodipodi:namedview>
  <defs
     id="defs539">
    <linearGradient
       inkscape:collect="always"
       id="linearGradient9092">
      <stop
         style="stop-color:#2c408e;stop-opacity:0.88627452"
         offset="0"
         id="stop9088" />
      <stop
         style="stop-color:#5e499f;stop-opacity:0.73725492"
         offset="1"
         id="stop9090" />
    </linearGradient>
    <linearGradient
       inkscape:collect="always"
       id="linearGradient6751">
      <stop
         style="stop-color:#ffffff;stop-opacity:1;"
         offset="0"
         id="stop6747" />
      <stop
         style="stop-color:#ffffff;stop-opacity:0;"
         offset="1"
         id="stop6749" />
    </linearGradient>
    <linearGradient
       id="linear0"
       gradientUnits="userSpaceOnUse"
       x1="6.5"
       y1="7"
       x2="6.5"
       y2="10"
       gradientTransform="scale(2)">
      <stop
         offset="0"
         style="stop-color:rgb(0%,0%,0%);stop-opacity:0;"
         id="stop505" />
      <stop
         offset="1"
         style="stop-color:rgb(0%,0%,0%);stop-opacity:0.2;"
         id="stop507" />
    </linearGradient>
    <linearGradient
       id="linear1"
       gradientUnits="userSpaceOnUse"
       x1="3.6224"
       y1="5.4027"
       x2="29.5973"
       y2="31.3776"
       gradientTransform="scale(2)">
      <stop
         offset="0"
         style="stop-color:rgb(100%,84.313725%,38.039216%);stop-opacity:1;"
         id="stop510" />
      <stop
         offset="1"
         style="stop-color:rgb(96.470588%,70.980392%,1.568627%);stop-opacity:1;"
         id="stop512" />
    </linearGradient>
    <linearGradient
       id="linear2"
       gradientUnits="userSpaceOnUse"
       x1="-13.9403"
       y1="28.2221"
       x2="-9.1444"
       y2="25.4532"
       gradientTransform="matrix(7.5592,0,0,-7.5592,118.4344,254.4538)">
      <stop
         offset="0"
         style="stop-color:rgb(7.843137%,57.647059%,87.45098%);stop-opacity:1;"
         id="stop515" />
      <stop
         offset="1"
         style="stop-color:rgb(0%,38.431373%,70.588235%);stop-opacity:1;"
         id="stop517" />
    </linearGradient>
    <filter
       id="alpha"
       filterUnits="objectBoundingBox"
       x="0"
       y="0"
       width="1"
       height="1">
      <feColorMatrix
         type="matrix"
         in="SourceGraphic"
         values="0 0 0 0 1 0 0 0 0 1 0 0 0 0 1 0 0 0 1 0"
         id="feColorMatrix520" />
    </filter>
    <mask
       id="mask0">
      <g
         filter="url(#alpha)"
         id="g525">
        <rect
           x="0"
           y="0"
           width="64"
           height="64"
           style="fill:rgb(0%,0%,0%);fill-opacity:0.301961;stroke:none;"
           id="rect523" />
      </g>
    </mask>
    <linearGradient
       id="linear3"
       gradientUnits="userSpaceOnUse"
       x1="8.1786"
       y1="0.8465"
       x2="23.666"
       y2="16.334"
       gradientTransform="matrix(2,0,0,2,0,0)">
      <stop
         offset="0"
         style="stop-color:rgb(100%,100%,100%);stop-opacity:1;"
         id="stop528" />
      <stop
         offset="1"
         style="stop-color:rgb(96.470588%,70.980392%,1.568627%);stop-opacity:0;"
         id="stop530" />
    </linearGradient>
    <clipPath
       id="clip1">
      <rect
         x="0"
         y="0"
         width="64"
         height="64"
         id="rect533" />
    </clipPath>
    <g
       id="surface5"
       clip-path="url(#clip1)">
      <path
         style=" stroke:none;fill-rule:nonzero;fill:url(#linear3);"
         d="M 62 12 L 27.035156 12 C 26.371094 12 25.738281 12.261719 25.269531 12.730469 L 22 16 L 3.5 16 C 1.566406 16 0 17.566406 0 19.5 L 0 21.5 C 0 19.566406 1.566406 18 3.5 18 L 22 18 L 25.261719 14.738281 C 25.734375 14.265625 26.375 14 27.042969 14 L 62 14 C 63.105469 14 64 14.894531 64 16 L 64 14 C 64 12.894531 63.105469 12 62 12 Z M 62 12 "
         id="path536" />
    </g>
    <linearGradient
       xlink:href="#linearGradient3600-9-51"
       id="linearGradient1512"
       gradientUnits="userSpaceOnUse"
       gradientTransform="matrix(1.3806477,0,0,1.327964,-70.267382,-1.7275823)"
       x1="74.838791"
       y1="4.535933"
       x2="74.838791"
       y2="49.779099" />
    <linearGradient
       id="linearGradient3600-9-51">
      <stop
         offset="0"
         style="stop-color:#f4f4f4;stop-opacity:1"
         id="stop3602-0-0" />
      <stop
         offset="1"
         style="stop-color:#dbdbdb;stop-opacity:1"
         id="stop3604-9-04" />
    </linearGradient>
    <linearGradient
       xlink:href="#linearGradient3104-6"
       id="linearGradient3170"
       gradientUnits="userSpaceOnUse"
       gradientTransform="matrix(0.80749686,0,0,0.89471714,10.740979,-0.4431076)"
       x1="12.879265"
       y1="66.950981"
       x2="12.879265"
       y2="4.7802162" />
    <linearGradient
       id="linearGradient3104-6">
      <stop
         offset="0"
         style="stop-color:#000000;stop-opacity:0.31782946"
         id="stop3106-3" />
      <stop
         offset="1"
         style="stop-color:#000000;stop-opacity:0.24031007"
         id="stop3108-9" />
    </linearGradient>
    <linearGradient
       xlink:href="#linearGradient1041"
       id="linearGradient15429"
       gradientUnits="userSpaceOnUse"
       gradientTransform="matrix(1.4324324,0,0,1.1081081,-2.4727286,11.023243)"
       x1="23.99999"
       y1="-1.2218014"
       x2="23.99999"
       y2="42.091705" />
    <linearGradient
       id="linearGradient1041">
      <stop
         id="stop1033"
         style="stop-color:#ffffff;stop-opacity:1"
         offset="0" />
      <stop
         id="stop1035"
         style="stop-color:#ffffff;stop-opacity:0.23529412"
         offset="0.0832339" />
      <stop
         id="stop1037"
         style="stop-color:#ffffff;stop-opacity:0.15686275"
         offset="0.94268352" />
      <stop
         id="stop1039"
         style="stop-color:#ffffff;stop-opacity:0.39215687"
         offset="1" />
    </linearGradient>
    <linearGradient
       xlink:href="#linearGradient1077"
       id="linearGradient15429-3"
       gradientUnits="userSpaceOnUse"
       gradientTransform="matrix(1.4324324,0,0,1.1081081,-2.4727286,11.023243)"
       x1="11.575833"
       y1="-4.7840924"
       x2="11.575833"
       y2="42.193623" />
    <linearGradient
       id="linearGradient1077">
      <stop
         id="stop1069"
         style="stop-color:#ffffff;stop-opacity:1"
         offset="0" />
      <stop
         id="stop1071"
         style="stop-color:#ffffff;stop-opacity:0.23529412"
         offset="0.09530682" />
      <stop
         id="stop1073"
         style="stop-color:#ffffff;stop-opacity:0.15686275"
         offset="0.94268352" />
      <stop
         id="stop1075"
         style="stop-color:#ffffff;stop-opacity:0.39215687"
         offset="1" />
    </linearGradient>
    <radialGradient
       cx="4.9929786"
       cy="43.5"
       r="2.5"
       fx="4.9929786"
       fy="43.5"
       id="radialGradient3337-2-2"
       xlink:href="#linearGradient3688-166-749-4-0-3-8"
       gradientUnits="userSpaceOnUse"
       gradientTransform="matrix(2.4045407,0,0,0.99999998,41.985755,15.500001)" />
    <linearGradient
       id="linearGradient3688-166-749-4-0-3-8">
      <stop
         offset="0"
         style="stop-color:#181818;stop-opacity:1"
         id="stop2883-4-0-1-8" />
      <stop
         offset="1"
         style="stop-color:#181818;stop-opacity:0"
         id="stop2885-9-2-9-6" />
    </linearGradient>
    <radialGradient
       cx="4.9929786"
       cy="43.5"
       r="2.5"
       fx="4.9929786"
       fy="43.5"
       id="radialGradient3339-1-4"
       xlink:href="#linearGradient3688-166-749-4-0-3-8"
       gradientUnits="userSpaceOnUse"
       gradientTransform="matrix(2.4045407,0,0,0.99999998,-22.014244,-102.5)" />
    <linearGradient
       x1="25.058096"
       y1="47.027729"
       x2="25.058096"
       y2="39.999443"
       id="linearGradient6394"
       xlink:href="#linearGradient3702-501-757-8-4-1-1"
       gradientUnits="userSpaceOnUse"
       gradientTransform="matrix(1.5714286,0,0,0.7142857,-5.7142853,27.928572)" />
    <linearGradient
       id="linearGradient3702-501-757-8-4-1-1">
      <stop
         offset="0"
         style="stop-color:#181818;stop-opacity:0"
         id="stop2895-8-9-9-1" />
      <stop
         offset="0.5"
         style="stop-color:#181818;stop-opacity:1"
         id="stop2897-7-8-7-7" />
      <stop
         offset="1"
         style="stop-color:#181818;stop-opacity:0"
         id="stop2899-4-5-1-5" />
    </linearGradient>
    <linearGradient
       xlink:href="#linearGradient909"
       id="linearGradient15431"
       gradientUnits="userSpaceOnUse"
       gradientTransform="matrix(1,0,0,0.81818188,-0.09435356,10.507243)"
       x1="31.781376"
       y1="-11.234498"
       x2="31.781376"
       y2="67.800774" />
    <linearGradient
       id="linearGradient909">
      <stop
         id="stop901"
         style="stop-color:#64baff;stop-opacity:1"
         offset="0" />
      <stop
         id="stop907"
         style="stop-color:#3689e6;stop-opacity:1"
         offset="1" />
    </linearGradient>
    <linearGradient
       xlink:href="#linearGradient4270-4"
       id="linearGradient15433"
       gradientUnits="userSpaceOnUse"
       gradientTransform="matrix(1.4324324,0,0,1.1621622,-2.4727286,8.7259434)"
       x1="23.99999"
       y1="5.9093657"
       x2="23.99999"
       y2="42.091705" />
    <linearGradient
       id="linearGradient4270-4">
      <stop
         id="stop4272-9"
         style="stop-color:#ffffff;stop-opacity:1"
         offset="0" />
      <stop
         id="stop4274-0"
         style="stop-color:#ffffff;stop-opacity:0.23529412"
         offset="0.09665164" />
      <stop
         id="stop4276-9"
         style="stop-color:#ffffff;stop-opacity:0.15686275"
         offset="0.94268352" />
      <stop
         id="stop4278-1"
         style="stop-color:#ffffff;stop-opacity:0.39215687"
         offset="1" />
    </linearGradient>
    <radialGradient
       cx="7.1183534"
       cy="9.9571075"
       r="12.671875"
       fx="7.1183534"
       fy="9.9571075"
       id="radialGradient3988-3"
       xlink:href="#linearGradient2867-449-88-871-390-598-476-591-434-148-57-177-8-3-3-6-4-8-8-8-5-7"
       gradientUnits="userSpaceOnUse"
       gradientTransform="matrix(0,12.890089,-15.824912,0,334.01999,-110.50411)" />
    <linearGradient
       id="linearGradient2867-449-88-871-390-598-476-591-434-148-57-177-8-3-3-6-4-8-8-8-5-7">
      <stop
         id="stop3750-1-0-7-6-6-1-3-9-3-9"
         style="stop-color:#505050;stop-opacity:1"
         offset="0" />
      <stop
         id="stop3752-3-7-4-0-32-8-923-0-7-0"
         style="stop-color:#2b2b2b;stop-opacity:1"
         offset="0.26238" />
      <stop
         id="stop3754-1-8-5-2-7-6-7-1-9-1"
         style="stop-color:#0a0a0a;stop-opacity:1"
         offset="0.704952" />
      <stop
         id="stop3756-1-6-2-6-6-1-96-6-0-1"
         style="stop-color:#000000;stop-opacity:1"
         offset="1" />
    </linearGradient>
    <radialGradient
       inkscape:collect="always"
       xlink:href="#linearGradient3688-166-749-4-0-3-8"
       id="radialGradient17668"
       gradientUnits="userSpaceOnUse"
       gradientTransform="matrix(2.4045407,0,0,0.99999998,41.985755,15.500001)"
       cx="4.9929786"
       cy="43.5"
       fx="4.9929786"
       fy="43.5"
       r="2.5" />
    <radialGradient
       inkscape:collect="always"
       xlink:href="#linearGradient3688-166-749-4-0-3-8"
       id="radialGradient17670"
       gradientUnits="userSpaceOnUse"
       gradientTransform="matrix(2.4045407,0,0,0.99999998,-22.014244,-102.5)"
       cx="4.9929786"
       cy="43.5"
       fx="4.9929786"
       fy="43.5"
       r="2.5" />
    <linearGradient
       inkscape:collect="always"
       xlink:href="#linearGradient3702-501-757-8-4-1-1"
       id="linearGradient17672"
       gradientUnits="userSpaceOnUse"
       gradientTransform="matrix(1.5714286,0,0,0.7142857,-5.7142853,27.928572)"
       x1="25.058096"
       y1="47.027729"
       x2="25.058096"
       y2="39.999443" />
    <linearGradient
       inkscape:collect="always"
       xlink:href="#linearGradient3406"
       id="linearGradient3408"
       x1="1444.3625"
       y1="481.51526"
       x2="1444.3625"
       y2="587.58142"
       gradientUnits="userSpaceOnUse"
       gradientTransform="matrix(0.48077083,0,0,0.48077083,-599.17218,-222.99697)" />
    <linearGradient
       inkscape:collect="always"
       id="linearGradient3406">
      <stop
         style="stop-color:#b688e7;stop-opacity:1"
         offset="0"
         id="stop3402" />
      <stop
         style="stop-color:#4c86e5;stop-opacity:1"
         offset="1"
         id="stop3404" />
    </linearGradient>
    <linearGradient
       inkscape:collect="always"
       xlink:href="#linearGradient8073"
       id="linearGradient8075"
       x1="1423.5142"
       y1="459.7652"
       x2="1423.5142"
       y2="558.79303"
       gradientUnits="userSpaceOnUse"
       gradientTransform="matrix(0.48077083,0,0,0.48077083,-599.17218,-222.99697)" />
    <linearGradient
       inkscape:collect="always"
       id="linearGradient8073">
      <stop
         style="stop-color:#ffffff;stop-opacity:0.29193845"
         offset="0"
         id="stop8069" />
      <stop
         style="stop-color:#ffffff;stop-opacity:0.13738285"
         offset="1"
         id="stop8071" />
    </linearGradient>
    <radialGradient
       inkscape:collect="always"
       xlink:href="#linearGradient6751"
       id="radialGradient6753"
       cx="94.858597"
       cy="8.8299665"
       fx="94.858597"
       fy="8.8299665"
       r="26.033452"
       gradientTransform="matrix(1,0,0,0.36603944,0,5.7091895)"
       gradientUnits="userSpaceOnUse" />
    <linearGradient
       inkscape:collect="always"
       xlink:href="#linearGradient9092"
       id="linearGradient9094"
       x1="95.352432"
       y1="60.654617"
       x2="95.352432"
       y2="7.3445344"
       gradientUnits="userSpaceOnUse" />
  </defs>
  <g
     id="g17699"
     transform="translate(-63.089064,-1.3659789)">
    <g
       id="g17666"
       transform="matrix(1.0947929,0,0,1.0947929,60.129515,-4.6429582)"
       style="opacity:0.648726">
      <rect
         style="opacity:0.6;fill:url(#radialGradient17668);fill-opacity:1;stroke:none;stroke-width:1.06199"
         id="rect17660"
         y="56.5"
         x="54"
         height="5"
         width="6" />
      <rect
         style="opacity:0.6;fill:url(#radialGradient17670);fill-opacity:1;stroke:none;stroke-width:1.06199"
         id="rect17662"
         transform="scale(-1)"
         y="-61.5"
         x="-10"
         height="5"
         width="6" />
      <rect
         style="opacity:0.6;fill:url(#linearGradient17672);fill-opacity:1;stroke:none;stroke-width:1.06199"
         id="rect17664"
         y="56.5"
         x="10"
         height="5.0000005"
         width="44" />
    </g>
    <path
       style="color:#000000;opacity:0.935642;fill:url(#linearGradient9094);fill-opacity:1;stroke-width:0.480771;stroke-linecap:round;-inkscape-stroke:none"
       d="m 74.832906,6.7260339 c -3.908859,0 -7.089495,3.1806503 -7.089495,7.0894901 V 53.63405 c 0,3.90884 3.180636,7.089495 7.089495,7.089495 h 40.051374 c 3.90886,0 7.0895,-3.180655 7.0895,-7.089495 V 13.815524 c 0,-3.9088398 -3.18064,-7.0894901 -7.0895,-7.0894901 z m 0,2.1634692 h 40.051374 c 2.7477,0 4.92603,2.1783189 4.92603,4.9260209 V 53.63405 c 0,2.747702 -2.17833,4.926026 -4.92603,4.926026 H 74.832906 c -2.747702,0 -4.926026,-2.178324 -4.926026,-4.926026 V 13.815524 c 0,-2.747702 2.178324,-4.9260209 4.926026,-4.9260209 z"
       id="path1793" />
    <path
       style="color:#000000;fill:url(#linearGradient3408);fill-opacity:1;stroke-width:2.16346;stroke-linecap:round;-inkscape-stroke:none"
       d="m 74.832618,7.808119 h 40.051712 c 3.32828,0 6.00772,2.679442 6.00772,6.007712 v 39.818128 c 0,3.328276 -2.67944,6.007717 -6.00772,6.007717 H 74.832618 c -3.328281,0 -6.007713,-2.679441 -6.007713,-6.007717 V 13.815831 c 0,-3.32827 2.679432,-6.007712 6.007713,-6.007712 z"
       id="path1791" />
    <path
       id="path1877"
       style="color:#000000;opacity:0.935642;fill:url(#linearGradient8075);fill-opacity:1;stroke-width:2.16346;stroke-linecap:round;-inkscape-stroke:none"
       d="m 74.832906,7.8077688 c -3.32828,0 -6.007761,2.6794842 -6.007761,6.0077552 V 53.63405 c 0,3.328276 2.679481,6.007761 6.007761,6.007761 h 40.051374 c 3.32829,0 6.00777,-2.679485 6.00777,-6.007761 V 13.815524 c 0,-3.328271 -2.67948,-6.0077552 -6.00777,-6.0077552 z m 0,1.0817343 h 40.051374 c 2.7477,0 4.92603,2.1783189 4.92603,4.9260209 V 53.63405 c 0,2.747702 -2.17833,4.926026 -4.92603,4.926026 H 74.832906 c -2.747702,0 -4.926026,-2.17832 -4.926026,-4.926026 V 13.815524 c 0,-2.747702 2.178324,-4.9260209 4.926026,-4.9260209 z" />
    <path
       id="path6593"
       style="color:#000000;opacity:0.2698567;fill:url(#radialGradient6753);fill-opacity:1;stroke-width:2.16346;stroke-linecap:round;-inkscape-stroke:none"
       d="m 74.832906,7.8077688 c -3.32828,0 -6.007761,2.6794842 -6.007761,6.0077552 V 53.63405 c 0,3.328276 2.679481,6.007761 6.007761,6.007761 h 40.051374 c 3.32829,0 6.00777,-2.679485 6.00777,-6.007761 V 13.815524 c 0,-3.328271 -2.67948,-6.0077552 -6.00777,-6.0077552 z m 0,1.0817343 h 40.051374 c 2.7477,0 4.92603,2.1783189 4.92603,4.9260209 V 53.63405 c 0,2.747702 -2.17833,4.926026 -4.92603,4.926026 H 74.832906 c -2.747702,0 -4.926026,-2.17832 -4.926026,-4.926026 V 13.815524 c 0,-2.747702 2.178324,-4.9260209 4.926026,-4.9260209 z" />
    <path
       id="path13635-0-2-3-8"
       style="color:#000000;line-height:normal;font-variant-ligatures:normal;font-variant-position:normal;font-variant-caps:normal;font-variant-numeric:normal;font-variant-alternates:normal;font-feature-settings:normal;font-variation-settings:normal;text-indent:0;text-align:start;text-decoration-line:none;text-decoration-style:solid;text-decoration-color:#000000;text-transform:none;text-orientation:mixed;shape-padding:0;opacity:0.07;isolation:auto;mix-blend-mode:normal;fill:#002e99;fill-opacity:1;stroke:none;stroke-width:1.10465;stroke-linecap:butt;stroke-linejoin:miter;stroke-miterlimit:4;stroke-dasharray:none;stroke-dashoffset:0;stroke-opacity:1;marker:none;stop-color:#000000"
       d="m 82.214494,15.030889 c -2.846006,0.101901 -5.466173,2.204498 -6.19427,4.955385 -0.777673,2.645457 0.294738,5.684365 2.541278,7.276216 1.912384,1.435159 4.598132,1.695812 6.761001,0.690694 0.350214,-0.159746 0.659049,-0.470349 0.901671,0.01332 1.207622,1.180693 2.364993,2.420283 3.603778,3.564464 0.709119,0.609678 1.884204,0.457222 2.448233,-0.279276 0.577065,-0.693112 0.480804,-1.796244 -0.185549,-2.402738 -1.231818,-1.232235 -2.463642,-2.464475 -3.695463,-3.696717 1.289301,-2.147875 1.203388,-5.025432 -0.212894,-7.096073 -1.288177,-1.962897 -3.619453,-3.156593 -5.967785,-3.025262 z m 1.034344,2.747669 c 1.775522,0.306334 3.245342,1.884592 3.344561,3.69454 0.258842,2.126529 -1.495061,4.204486 -3.617433,4.376449 -1.76452,0.19577 -3.573959,-0.880494 -4.209934,-2.544446 -0.733989,-1.745528 -0.03635,-3.942697 1.582537,-4.93207 0.846423,-0.559988 1.902652,-0.748208 2.900269,-0.594473 z" />
    <path
       d="m 82.543425,15.673219 c -3.367803,0 -6.121254,2.753453 -6.121254,6.121249 0,3.367809 2.753451,6.121255 6.121254,6.121255 a 6.0767368,6.0767368 0 0 0 3.463518,-1.085134 l 4.096785,4.097901 a 1.1129555,1.1129555 0 1 0 1.573722,-1.573716 l -4.096788,-4.0979 a 6.0767368,6.0767368 0 0 0 1.084019,-3.462406 c 0,-3.367796 -2.753452,-6.121249 -6.121256,-6.121249 z m 0,1.391194 a 4.7300607,4.7300607 0 0 1 4.730061,4.730055 4.7300607,4.7300607 0 0 1 -4.730061,4.730061 4.7300607,4.7300607 0 0 1 -4.73006,-4.730061 4.7300607,4.7300607 0 0 1 4.73006,-4.730055 z"
       fill="#666666"
       font-family="sans-serif"
       font-weight="400"
       overflow="visible"
       style="color:#000000;line-height:normal;font-variant-ligatures:normal;font-variant-position:normal;font-variant-caps:normal;font-variant-numeric:normal;font-variant-alternates:normal;font-feature-settings:normal;font-variation-settings:normal;text-indent:0;text-align:start;text-decoration-line:none;text-decoration-style:solid;text-decoration-color:#000000;text-transform:none;text-orientation:mixed;shape-padding:0;opacity:0.15;isolation:auto;mix-blend-mode:normal;fill:#002e99;fill-opacity:1;stroke:none;stroke-width:1.10465;stroke-linecap:butt;stroke-linejoin:miter;stroke-miterlimit:4;stroke-dasharray:none;stroke-dashoffset:0;stroke-opacity:1;marker:none;stop-color:#000000"
       white-space="normal"
       id="path13635-0-2-3" />
    <path
       id="path13635-4-7"
       style="color:#000000;line-height:normal;font-variant-ligatures:normal;font-variant-position:normal;font-variant-caps:normal;font-variant-numeric:normal;font-variant-alternates:normal;font-feature-settings:normal;font-variation-settings:normal;text-indent:0;text-align:start;text-decoration-line:none;text-decoration-style:solid;text-decoration-color:#000000;text-transform:none;text-orientation:mixed;shape-padding:0;isolation:auto;mix-blend-mode:normal;fill:#fafafa;fill-opacity:1;stroke:none;stroke-width:1.10465;stroke-linecap:butt;stroke-linejoin:miter;stroke-miterlimit:4;stroke-dasharray:none;stroke-dashoffset:0;stroke-opacity:1;marker:none;stop-color:#000000"
       d="m 82.543592,15.023273 c -3.367803,0 -6.121029,2.753233 -6.121029,6.121029 0,3.367809 2.753226,6.121029 6.121029,6.121029 a 6.0767368,6.0767368 0 0 0 3.463464,-1.085108 l 4.096763,4.098031 a 1.1129555,1.1129555 0 1 0 1.573722,-1.573725 l -4.09676,-4.098031 a 6.0767368,6.0767368 0 0 0 1.08384,-3.462196 c 0,-3.367796 -2.753226,-6.121029 -6.121029,-6.121029 z m 0,1.39097 a 4.7300607,4.7300607 0 0 1 4.730059,4.730059 4.7300607,4.7300607 0 0 1 -4.730059,4.73006 4.7300607,4.7300607 0 0 1 -4.730059,-4.73006 4.7300607,4.7300607 0 0 1 4.730059,-4.730059 z" />
    <path
       id="path13635-4-7-3"
       style="color:#000000;line-height:normal;font-variant-ligatures:normal;font-variant-position:normal;font-variant-caps:normal;font-variant-numeric:normal;font-variant-alternates:normal;font-feature-settings:normal;font-variation-settings:normal;text-indent:0;text-align:start;text-decoration-line:none;text-decoration-style:solid;text-decoration-color:#000000;text-transform:none;text-orientation:mixed;shape-padding:0;opacity:0.15;isolation:auto;mix-blend-mode:normal;fill:#002e99;fill-opacity:1;stroke:none;stroke-width:1.10465;stroke-linecap:butt;stroke-linejoin:miter;stroke-miterlimit:4;stroke-dasharray:none;stroke-dashoffset:0;stroke-opacity:1;marker:none;stop-color:#000000"
       d="m 82.5432,15.764444 a 4.7300607,4.7300607 0 0 0 -4.730059,4.730061 4.7300607,4.7300607 0 0 0 0.02919,0.324898 4.7300607,4.7300607 0 0 1 4.700869,-4.405163 4.7300607,4.7300607 0 0 1 4.709753,4.496544 4.7300607,4.7300607 0 0 0 0.02031,-0.416279 4.7300607,4.7300607 0 0 0 -4.730059,-4.730061 z m 6.10453,4.949621 a 6.0767368,6.0767368 0 0 1 -1.067341,3.242639 l 0.239867,0.239866 a 6.0767368,6.0767368 0 0 0 0.843973,-3.052269 c 0,-0.144917 -0.0065,-0.287762 -0.0165,-0.430236 z m -12.216675,0.105338 c -0.0057,0.107776 -0.0089,0.215765 -0.0089,0.324898 0,3.367809 2.753229,6.121028 6.121029,6.121028 a 6.0767368,6.0767368 0 0 0 3.463463,-1.085108 l 4.096765,4.098031 a 1.1129555,1.1129555 0 0 0 1.849125,-1.092723 1.1129555,1.1129555 0 0 1 -1.849125,0.442927 l -4.096765,-4.098031 a 6.0767368,6.0767368 0 0 1 -3.463464,1.085108 c -3.25868,0 -5.94167,-2.578138 -6.112145,-5.79613 z" />
    <g
       id="g15159"
       style="fill:#070707;fill-opacity:0.03234385">
      <g
         id="g14975"
         inkscape:transform-center-x="0.00082623624"
         inkscape:transform-center-y="-0.59495219"
         style="opacity:1;fill:#070707;fill-opacity:0.03234385"
         transform="matrix(1.0966815,-0.11574218,0.11574218,1.0966815,129.94688,-5.2379483)">
        <path
           id="path14973"
           style="color:#000000;fill:#070707;fill-opacity:0.03234385;stroke-width:2.2136;stroke-linecap:round;stroke-linejoin:round;-inkscape-stroke:none"
           d="m -22.915236,15.113422 a 1.1069089,1.1069089 0 0 0 -1.051409,0.508546 l -1.910332,3.024189 -3.573182,0.140236 a 1.1069089,1.1069089 0 0 0 -0.806683,1.814696 l 2.28566,2.7497 -0.969836,3.442983 a 1.1069089,1.1069089 0 0 0 1.474993,1.327304 l 3.324122,-1.322942 2.970649,1.98511 a 1.1069089,1.1069089 0 0 0 1.72195,-0.992078 l -0.234038,-3.570039 2.807159,-2.21221 a 1.1069089,1.1069089 0 0 0 -0.412467,-1.941189 l -3.465184,-0.883057 -1.237167,-3.354196 a 1.1069089,1.1069089 0 0 0 -0.924235,-0.717053 z" />
      </g>
      <g
         id="g15141"
         inkscape:transform-center-x="0.00082623624"
         inkscape:transform-center-y="-0.59495219"
         style="opacity:1;fill:#070707;fill-opacity:0.03234385"
         transform="matrix(1.0966815,-0.11574218,0.11574218,1.0966815,130.1797,-4.9034848)">
        <path
           id="path15139"
           style="color:#000000;fill:#070707;fill-opacity:0.03234385;stroke-width:2.2136;stroke-linecap:round;stroke-linejoin:round;-inkscape-stroke:none"
           d="m -22.915236,15.113422 a 1.1069089,1.1069089 0 0 0 -1.051409,0.508546 l -1.910332,3.024189 -3.573182,0.140236 a 1.1069089,1.1069089 0 0 0 -0.806683,1.814696 l 2.28566,2.7497 -0.969836,3.442983 a 1.1069089,1.1069089 0 0 0 1.474993,1.327304 l 3.324122,-1.322942 2.970649,1.98511 a 1.1069089,1.1069089 0 0 0 1.72195,-0.992078 l -0.234038,-3.570039 2.807159,-2.21221 a 1.1069089,1.1069089 0 0 0 -0.412467,-1.941189 l -3.465184,-0.883057 -1.237167,-3.354196 a 1.1069089,1.1069089 0 0 0 -0.924235,-0.717053 z" />
      </g>
      <g
         id="g15145"
         inkscape:transform-center-x="0.00082623624"
         inkscape:transform-center-y="-0.59495219"
         style="opacity:1;fill:#070707;fill-opacity:0.03234385"
         transform="matrix(1.0966815,-0.11574218,0.11574218,1.0966815,130.60749,-4.2354411)">
        <path
           id="path15143"
           style="color:#000000;fill:#070707;fill-opacity:0.03234385;stroke-width:2.2136;stroke-linecap:round;stroke-linejoin:round;-inkscape-stroke:none"
           d="m -22.915236,15.113422 a 1.1069089,1.1069089 0 0 0 -1.051409,0.508546 l -1.910332,3.024189 -3.573182,0.140236 a 1.1069089,1.1069089 0 0 0 -0.806683,1.814696 l 2.28566,2.7497 -0.969836,3.442983 a 1.1069089,1.1069089 0 0 0 1.474993,1.327304 l 3.324122,-1.322942 2.970649,1.98511 a 1.1069089,1.1069089 0 0 0 1.72195,-0.992078 l -0.234038,-3.570039 2.807159,-2.21221 a 1.1069089,1.1069089 0 0 0 -0.412467,-1.941189 l -3.465184,-0.883057 -1.237167,-3.354196 a 1.1069089,1.1069089 0 0 0 -0.924235,-0.717053 z" />
      </g>
      <g
         id="g15149"
         inkscape:transform-center-x="0.00082623624"
         inkscape:transform-center-y="-0.59495219"
         style="opacity:1;fill:#070707;fill-opacity:0.03234385"
         transform="matrix(1.0966815,-0.11574218,0.11574218,1.0966815,130.77421,-3.5947166)">
        <path
           id="path15147"
           style="color:#000000;fill:#070707;fill-opacity:0.03234385;stroke-width:2.2136;stroke-linecap:round;stroke-linejoin:round;-inkscape-stroke:none"
           d="m -22.915236,15.113422 a 1.1069089,1.1069089 0 0 0 -1.051409,0.508546 l -1.910332,3.024189 -3.573182,0.140236 a 1.1069089,1.1069089 0 0 0 -0.806683,1.814696 l 2.28566,2.7497 -0.969836,3.442983 a 1.1069089,1.1069089 0 0 0 1.474993,1.327304 l 3.324122,-1.322942 2.970649,1.98511 a 1.1069089,1.1069089 0 0 0 1.72195,-0.992078 l -0.234038,-3.570039 2.807159,-2.21221 a 1.1069089,1.1069089 0 0 0 -0.412467,-1.941189 l -3.465184,-0.883057 -1.237167,-3.354196 a 1.1069089,1.1069089 0 0 0 -0.924235,-0.717053 z" />
      </g>
    </g>
    <g
       id="path14325"
       inkscape:transform-center-x="0.00075059162"
       inkscape:transform-center-y="-0.53950675"
       style="opacity:1"
       transform="rotate(-6.024612,38.03683,-1215.0464)">
      <path
         id="path14446"
         style="color:#000000;fill:#ffffff;fill-opacity:1;stroke-width:2.2136;stroke-linecap:round;stroke-linejoin:round;-inkscape-stroke:none"
         d="m -22.915236,15.113422 a 1.1069089,1.1069089 0 0 0 -1.051409,0.508546 l -1.910332,3.024189 -3.573182,0.140236 a 1.1069089,1.1069089 0 0 0 -0.806683,1.814696 l 2.28566,2.7497 -0.969836,3.442983 a 1.1069089,1.1069089 0 0 0 1.474993,1.327304 l 3.324122,-1.322942 2.970649,1.98511 a 1.1069089,1.1069089 0 0 0 1.72195,-0.992078 l -0.234038,-3.570039 2.807159,-2.21221 a 1.1069089,1.1069089 0 0 0 -0.412467,-1.941189 l -3.465184,-0.883057 -1.237167,-3.354196 a 1.1069089,1.1069089 0 0 0 -0.924235,-0.717053 z" />
    </g>
    <g
       id="g15615"
       style="fill:#0d0d0d;fill-opacity:0.05992172">
      <path
         id="path15549"
         style="fill:#0d0d0d;fill-opacity:0.05992172;stroke:none;stroke-width:1.11978px;stroke-linecap:butt;stroke-linejoin:miter;stroke-opacity:1"
         d="m 90.742295,42.538869 c -0.85951,0.351257 -16.715821,3.868937 -16.715821,3.868937 l 2.897876,1.673114 v 5.546425 l 4.105141,-2.370791 2.980985,2.980985 c 0,0 6.202152,-11.115713 6.731819,-11.69867 z m -3.626171,2.145522 -7.112371,4.21887 -1.460967,2.047103 v -2.714163 z" />
      <path
         id="path15605"
         style="fill:#0d0d0d;fill-opacity:0.05992172;stroke:none;stroke-width:1.11978px;stroke-linecap:butt;stroke-linejoin:miter;stroke-opacity:1"
         d="m 90.692316,42.936487 c -0.85951,0.351257 -16.715821,3.868937 -16.715821,3.868937 l 2.897876,1.673114 v 5.546425 l 4.105141,-2.370791 2.980985,2.980985 c 0,0 6.202152,-11.115713 6.731819,-11.69867 z m -3.626171,2.145522 -7.112371,4.21887 -1.460967,2.047103 v -2.714163 z" />
      <path
         id="path15607"
         style="fill:#0d0d0d;fill-opacity:0.05992172;stroke:none;stroke-width:1.11978px;stroke-linecap:butt;stroke-linejoin:miter;stroke-opacity:1"
         d="m 90.618969,43.336407 c -0.85951,0.351257 -16.715821,3.868937 -16.715821,3.868937 l 2.897876,1.673114 v 5.546425 l 4.105141,-2.370791 2.980985,2.980985 c 0,0 6.202152,-11.115713 6.731819,-11.69867 z m -3.626171,2.145522 -7.112371,4.21887 -1.460967,2.047103 v -2.714163 z" />
      <path
         id="path15609"
         style="fill:#0d0d0d;fill-opacity:0.05992172;stroke:none;stroke-width:1.11978px;stroke-linecap:butt;stroke-linejoin:miter;stroke-opacity:1"
         d="m 90.551837,43.933098 c -0.85951,0.351257 -16.715821,3.868937 -16.715821,3.868937 l 2.897876,1.673114 v 5.546425 l 4.105141,-2.370791 2.980985,2.980985 c 0,0 6.202152,-11.115713 6.731819,-11.69867 z m -3.626171,2.145522 -7.112371,4.21887 -1.460967,2.047103 V 49.63043 Z" />
    </g>
    <path
       id="path15248"
       style="fill:#ffffff;fill-opacity:1;stroke:none;stroke-width:1.11978px;stroke-linecap:butt;stroke-linejoin:miter;stroke-opacity:1"
       d="m 90.837595,42.224637 c -0.85951,0.351257 -16.715821,3.868937 -16.715821,3.868937 l 2.897876,1.673114 v 5.546425 l 4.105141,-2.370791 2.980985,2.980985 c 0,0 6.202152,-11.115713 6.731819,-11.69867 z m -3.626171,2.145522 -7.112371,4.21887 -1.460967,2.047103 v -2.714163 z" />
  </g>
</svg>
