<?xml version="1.0" encoding="UTF-8" standalone="no"?>
<svg
   width="64"
   height="64"
   version="1.1"
   id="svg39"
   sodipodi:docname="web-browser-app.svg"
   inkscape:version="1.1.2 (0a00cf5339, 2022-02-04)"
   xmlns:inkscape="http://www.inkscape.org/namespaces/inkscape"
   xmlns:sodipodi="http://sodipodi.sourceforge.net/DTD/sodipodi-0.dtd"
   xmlns:xlink="http://www.w3.org/1999/xlink"
   xmlns="http://www.w3.org/2000/svg"
   xmlns:svg="http://www.w3.org/2000/svg"
   xmlns:rdf="http://www.w3.org/1999/02/22-rdf-syntax-ns#"
   xmlns:cc="http://creativecommons.org/ns#"
   xmlns:dc="http://purl.org/dc/elements/1.1/">
  <sodipodi:namedview
     id="namedview41"
     pagecolor="#ffffff"
     bordercolor="#666666"
     borderopacity="1.0"
     inkscape:pageshadow="2"
     inkscape:pageopacity="0.0"
     inkscape:pagecheckerboard="0"
     showgrid="false"
     inkscape:zoom="9.921875"
     inkscape:cx="32"
     inkscape:cy="31.748031"
     inkscape:window-width="1920"
     inkscape:window-height="1016"
     inkscape:window-x="0"
     inkscape:window-y="32"
     inkscape:window-maximized="1"
     inkscape:current-layer="svg39" />
  <metadata
     id="metadata2">
    <rdf:RDF>
      <cc:Work
         rdf:about="">
        <dc:format>image/svg+xml</dc:format>
        <dc:type
           rdf:resource="http://purl.org/dc/dcmitype/StillImage" />
      </cc:Work>
    </rdf:RDF>
  </metadata>
  <defs
     id="defs27">
    <linearGradient
       id="linearGradient1852-3"
       x1="43.412"
       x2="54.219"
       y1="26.455"
       y2="33.666"
       gradientTransform="matrix(3.0156 0 0 3.0156 -106.31 -48.907)"
       gradientUnits="userSpaceOnUse">
      <stop
         stop-color="#0b4a88"
         offset="0"
         id="stop4" />
      <stop
         stop-color="#104480"
         offset="1"
         id="stop6" />
    </linearGradient>
    <linearGradient
       id="linearGradient1836-5"
       x1="38.659"
       x2="47.451"
       y1="36.191"
       y2="24.568"
       gradientTransform="matrix(3.0156 0 0 3.0156 -106.31 -48.907)"
       gradientUnits="userSpaceOnUse">
      <stop
         stop-color="#027ad5"
         offset="0"
         id="stop9" />
      <stop
         stop-color="#037cd5"
         offset=".38129"
         id="stop11" />
      <stop
         stop-color="#0e8cdb"
         offset=".71609"
         id="stop13" />
      <stop
         stop-color="#1582bd"
         offset="1"
         id="stop15" />
    </linearGradient>
    <linearGradient
       id="linearGradient1778-9"
       x1="38.672"
       x2="51.7"
       y1="21.846"
       y2="27.782"
       gradientTransform="matrix(3.0156 0 0 3.0156 -106.31 -48.907)"
       gradientUnits="userSpaceOnUse">
      <stop
         stop-color="#2cc3d7"
         offset="0"
         id="stop18" />
      <stop
         stop-color="#34c1ee"
         offset=".31935"
         id="stop20" />
      <stop
         stop-color="#2bc3d1"
         offset=".68534"
         id="stop22" />
      <stop
         stop-color="#4bd766"
         offset="1"
         id="stop24" />
    </linearGradient>
    <radialGradient
       xlink:href="#linearGradient2867-449-88-871-390-598-476-591-434-148-57-177-3-8"
       id="radialGradient4145"
       gradientUnits="userSpaceOnUse"
       gradientTransform="matrix(0,3.5958841,-3.8040162,-9.7874431e-8,63.69306,-20.835418)"
       cx="3.9722471"
       cy="8.4497671"
       fx="3.9722471"
       fy="8.4497671"
       r="19.99999" />
    <linearGradient
       id="linearGradient2867-449-88-871-390-598-476-591-434-148-57-177-3-8">
      <stop
         offset="0"
         style="stop-color:#90dbec;stop-opacity:1"
         id="stop3750-8-9" />
      <stop
         offset="0.26238"
         style="stop-color:#42baea;stop-opacity:1"
         id="stop3752-3-2" />
      <stop
         offset="0.704952"
         style="stop-color:#3689e6;stop-opacity:1"
         id="stop3754-7-2" />
      <stop
         offset="1"
         style="stop-color:#2b63a0;stop-opacity:1"
         id="stop3756-9-3" />
    </linearGradient>
    <radialGradient
       xlink:href="#linearGradient3820-7-2"
       id="radialGradient3300"
       gradientUnits="userSpaceOnUse"
       gradientTransform="matrix(0.3823536,7.5555777e-8,-1.8372241e-8,0.1115198,-5.9254271,36.335849)"
       cx="99.189415"
       cy="185.29727"
       fx="99.189415"
       fy="185.29727"
       r="62.769119" />
    <linearGradient
       id="linearGradient3820-7-2">
      <stop
         id="stop3822-2-6"
         style="stop-color:#000000;stop-opacity:1"
         offset="0" />
      <stop
         id="stop3824-1-2"
         style="stop-color:#000000;stop-opacity:0"
         offset="1" />
    </linearGradient>
    <radialGradient
       xlink:href="#linearGradient3820-7-2"
       id="radialGradient4192"
       gradientUnits="userSpaceOnUse"
       gradientTransform="matrix(0.2549024,5.3967361e-8,-1.2248161e-8,0.07965545,6.7163816,44.240666)"
       cx="99.189415"
       cy="185.29727"
       fx="99.189415"
       fy="185.29727"
       r="62.769119" />
    <radialGradient
       gradientTransform="matrix(0,5.6341247,-4.4506538,-6.396958e-8,68.932157,-5.3937019)"
       gradientUnits="userSpaceOnUse"
       xlink:href="#linearGradient4223"
       id="radialGradient3126-7-25-24"
       fy="8.449769"
       fx="0.66680855"
       r="19.99999"
       cy="8.449769"
       cx="-1.2645766" />
    <linearGradient
       id="linearGradient4223">
      <stop
         offset="0"
         style="stop-color:#cdf87e;stop-opacity:1"
         id="stop4225" />
      <stop
         offset="0.26238"
         style="stop-color:#a2e34f;stop-opacity:1"
         id="stop4227" />
      <stop
         offset="0.66093999"
         style="stop-color:#68b723;stop-opacity:1"
         id="stop4229" />
      <stop
         offset="1"
         style="stop-color:#1d7e0d;stop-opacity:1"
         id="stop4231" />
    </linearGradient>
    <linearGradient
       gradientTransform="matrix(2.3632794,0,0,2.3632407,-139.02248,-34.627034)"
       gradientUnits="userSpaceOnUse"
       xlink:href="#linearGradient4806"
       id="linearGradient4338-5-6"
       y2="40.495617"
       x2="71.204407"
       y1="15.369057"
       x1="71.204407" />
    <linearGradient
       id="linearGradient4806">
      <stop
         id="stop4808"
         style="stop-color:#ffffff;stop-opacity:1"
         offset="0" />
      <stop
         id="stop4810"
         style="stop-color:#ffffff;stop-opacity:0.23529412"
         offset="0.42447853" />
      <stop
         id="stop4812"
         style="stop-color:#ffffff;stop-opacity:0.15686275"
         offset="0.82089913" />
      <stop
         id="stop4814"
         style="stop-color:#ffffff;stop-opacity:0.39215687"
         offset="1" />
    </linearGradient>
  </defs>
  <path
     d="m 31.549844,1.7291543 c -16.277082,0 -29.5000039,13.2229167 -29.5000039,29.5000007 0,16.277084 13.2229219,29.500007 29.5000039,29.500003 16.277076,0 29.500012,-13.222919 29.499996,-29.500003 0,-16.277084 -13.22292,-29.5000007 -29.499996,-29.5000007 z"
     id="path2555"
     style="color:#000000;display:inline;overflow:visible;visibility:visible;fill:url(#radialGradient4145);fill-opacity:1;fill-rule:nonzero;stroke:none;stroke-width:1;marker:none;enable-background:accumulate" />
  <path
     id="path3403"
     d="m 31.54984,1.7291575 c -0.455634,0 -0.90875,0.014657 -1.359375,0.035156 a 0.95124409,0.95124409 0 0 0 0.308594,1.8535157 c 7.095587,0 13.698365,6.5587558 14.208984,14.2382818 -0.01628,7.417497 -6.026369,13.421875 -13.449219,13.421875 a 0.95092137,0.95092137 0 0 0 -0.05859,0.002 l -0.75,0.04687 c -8.299856,0.421471 -14.925782,7.283967 -14.925782,15.683594 0,4.644131 2.029194,8.807998 5.246094,11.673828 3.340994,1.314928 6.974726,2.044881 10.779294,2.04488 16.277076,0 29.500016,-13.222916 29.5,-29.5 0,-10.662669 -5.676066,-20.014287 -14.166016,-25.1972661 C 42.771369,3.5703692 38.036083,2.0481226 32.973668,1.7662669 32.501936,1.7437891 32.02708,1.7291575 31.54984,1.7291575 Z"
     style="color:#000000;display:inline;overflow:visible;visibility:visible;opacity:0.15;fill:#000000;fill-opacity:1;fill-rule:nonzero;stroke:none;stroke-width:1;marker:none;enable-background:accumulate" />
  <g
     id="g4198"
     transform="translate(-0.45015994,-0.77084253)">
    <path
       d="m 55.999998,57.0017 a 24,6.9985714 0 1 1 -47.9999991,0 24,6.9985714 0 1 1 47.9999991,0 z"
       id="path3818-0"
       style="opacity:0.2;fill:url(#radialGradient3300);fill-opacity:1;stroke:none" />
    <path
       style="opacity:0.4;fill:url(#radialGradient4192);fill-opacity:1;stroke:none"
       id="path4190"
       d="m 47.999998,59.0017 a 16,4.9988822 0 1 1 -31.999999,0 16,4.9988822 0 1 1 31.999999,0 z" />
  </g>
  <path
     style="color:#000000;display:inline;overflow:visible;visibility:visible;opacity:0.5;fill:#13355a;fill-opacity:1;fill-rule:nonzero;stroke:none;stroke-width:1;marker:none;enable-background:accumulate"
     id="path6534-2"
     d="m 31.909596,1.7946135 -3.507622,0.404719 -4.002286,0.9893131 C 24.738137,3.0766625 25.083276,2.9811057 25.433986,2.8738641 L 25.164169,2.4241764 c -0.841109,0.1690898 -1.660293,0.3493016 -2.473323,0.5845941 -0.0409,0.0118 -0.09401,0.032953 -0.134908,0.044969 -0.9549,0.2806872 -1.877409,0.577012 -2.78811,0.9443443 l -0.08994,0.089938 -0.179878,0.044969 c -0.20837,0.086484 -0.423753,0.1789355 -0.629573,0.2698127 L 18.463711,5.1672726 18.238863,4.6726161 C 18.052324,4.7601071 17.83854,4.8513415 17.65426,4.9424288 l 0.08994,0.854407 -0.98933,0.764469 -0.539634,1.4390008 h 1.169208 l 0.449695,-0.9443448 0.179878,-0.314781 c 0.52184,-0.348916 1.042452,-0.743382 1.573933,-1.0792506 l 1.214177,0.3597506 c 0.806279,0.517955 1.621393,1.056731 2.428353,1.573907 l 1.169208,-1.034282 -1.304116,-0.539625 -0.629573,-1.1691886 -2.293446,-0.2248438 -0.04497,-0.2248439 0.989329,0.1798751 0.539634,-0.5396253 1.259147,-0.2248439 c 0.29306,-0.1347912 0.603551,-0.2500537 0.89939,-0.3597502 l -0.809451,0.6745316 2.788109,1.798751 v 1.079251 l -1.079268,1.0342808 1.439025,2.6981274 0.989329,-0.494657 1.259146,-1.7987514 C 30.143083,7.9410156 31.6603,7.3552068 33.30365,6.6512418 l -0.08994,0.674532 0.854421,0.4946568 1.439024,-0.8993758 -0.719512,-0.809438 -0.989329,0.539625 -0.314787,-0.08994 c 0.0712,-0.03074 0.153449,-0.05877 0.224848,-0.08994 L 35.147399,2.9637977 31.999533,1.7946095 c -0.0413,-8.878e-4 -0.04864,7.267e-4 -0.08994,0 z m -14.075457,5.2613463 1.214177,0.7644698 h 0.944359 V 6.9210538 l -1.169207,-0.494656 z m -3.597561,0 -0.494665,1.3040948 c 0,0 -0.892425,0.125725 -1.124238,0.179875 C 9.6572112,11.119386 3.6643741,16.689956 2.2746881,27.201971 c 0.05503,0.243708 0.989329,1.663845 0.989329,1.663845 l 2.248475,1.259126 2.293446,0.584594 0.944359,1.124219 1.5289639,1.079251 0.85442,-0.134906 0.629574,0.269812 v 0.224844 l -0.809452,2.158501 -0.674542,0.944345 0.179878,0.449687 -0.4946648,1.753783 1.8887198,3.327689 1.978658,1.573907 0.854421,1.214157 -0.08994,2.428314 0.629573,1.349063 -0.629573,2.653158 c -0.01036,0.03317 -0.04129,0.137021 0,0.269812 0.08333,0.265745 3.4732,2.039299 3.6875,1.888689 0.05257,-0.03776 0.04247,-0.05555 0.08994,-0.08994 -1.196832,-2.12959 -1.88872,-4.577651 -1.88872,-7.195004 0,-4.145721 1.741246,-7.844425 4.496952,-10.522693 l -0.809452,-1.528938 -1.618902,-0.35975 -0.854421,-2.158502 -2.113567,0.224844 -1.84375,-1.259126 -1.978658,1.618876 v 0.224844 C 11.175954,32.078178 10.487424,32.047835 9.9644742,31.743816 l -0.404725,-1.169188 v -1.259126 l -1.3490861,0.134906 c 0.107941,-0.808017 0.251044,-1.62044 0.359756,-2.428314 h -0.764481 l -0.809452,0.944345 -0.719512,0.314781 -1.079268,-0.584594 -0.08994,-1.259126 0.224847,-1.349063 1.573933,-1.214157 h 1.304116 l 0.269817,-0.674531 1.5739329,0.35975 1.214177,1.439001 0.179878,-2.383346 2.068598,-1.573907 0.719512,-1.708813 1.573933,-0.629563 0.809451,-1.169188 1.933689,-0.314782 1.034299,-1.394032 h -2.967988 l 1.84375,-0.809437 h 1.304116 l 1.663872,-0.539626 0.314786,1.48397 0.719513,-1.034282 -0.809452,-0.539625 0.179878,-0.629563 -0.674542,-0.584594 -0.719513,-0.179875 0.179879,-0.76447 -0.539635,-1.034281 -1.304115,0.494656 0.224847,-0.944344 -1.528963,-0.8094384 -1.169208,1.9336574 0.134909,0.719501 -1.214177,0.494656 -0.719512,1.48397 -0.359756,-1.394032 -2.023628,-0.809438 -0.359756,-1.034282 2.74314,-1.4839704 1.214177,-1.07925 0.08994,-1.2591258 -0.674543,-0.35975 z m 27.791158,0.539626 -0.224847,0.1349058 v 0.764469 l -2.113567,1.259126 0.404725,1.8886884 1.214177,-0.809438 0.809451,0.809438 0.854421,0.494657 L 43.5567,10.7434 43.241913,9.8889926 43.421791,9.5742116 c -0.415547,-0.705797 -0.88635,-1.343985 -1.394055,-1.9786258 z m -5.621189,1.7987508 v 0.8094384 l 0.449695,0.449687 v 1.214157 L 36.586425,13.396558 37.935511,13.171714 38.92484,12.227369 38.02545,11.4629 C 37.740969,10.746641 37.482099,10.081333 37.12606,9.3943366 Z m -1.169207,1.5739074 -0.809451,0.224844 0.224847,1.439 1.034299,-0.539625 z m 6.205793,0.809438 -0.764482,0.539625 0.314787,0.809438 h -1.214177 l -0.674543,1.034282 -0.809451,0.899375 -1.483994,0.314782 0.854421,0.809438 0.224847,0.809438 h -1.079268 l -1.439024,0.764469 v 2.158501 h 0.629573 l 0.629573,0.629563 1.394055,-0.629563 0.539634,-1.349063 0.989329,-0.584594 0.224848,-0.449688 1.663872,-0.449688 0.89939,0.989313 1.034299,0.494657 -0.584604,1.07925 0.854421,-0.224844 0.449695,-1.07925 -1.124238,-1.259126 h 0.494665 l 1.124238,0.899376 0.224847,1.169188 0.539634,0.584594 c 0.192068,-0.937013 0.314788,-1.929667 0.314787,-2.92297 -0.108359,-1.686348 -0.520977,-3.279345 -1.124238,-4.811659 l -1.394055,1.124219 -1.708841,-0.404719 z m -0.764482,8.589036 -2.113567,0.224844 -1.84375,0.449687 c -1.059709,1.135922 -2.189835,2.327856 -3.192835,3.507565 l -1.169208,2.698126 0.539634,0.584594 -0.989329,1.439001 0.854421,1.888689 c 5.385337,-0.564595 9.917979,-4.111368 11.871951,-8.948787 l -0.449695,0.449688 -2.068598,-1.933657 z" />
  <path
     style="color:#000000;display:inline;overflow:visible;visibility:visible;fill:url(#radialGradient3126-7-25-24);fill-opacity:1;fill-rule:nonzero;stroke:none;stroke-width:1;marker:none;enable-background:accumulate"
     id="path2555-1-1"
     d="m 30.500033,1.6675699 c 7.68041,0 14.635989,6.9659987 15.162479,15.1598071 1e-5,7.946429 -6.45653,14.401818 -14.404349,14.401818 l -0.75813,0.04737 c -7.804581,0.39632 -14.025287,6.832759 -14.025287,14.733437 0,7.900684 6.220706,14.33712 14.025287,14.73344 v 0.04736 c 0.2531,0.0063 0.5035,0 0.75813,0 16.312439,0 29.56684,-13.252053 29.566829,-29.561626 0,-16.309572 -13.25439,-29.5616252 -29.566829,-29.5616252 -0.25463,0 -0.50503,-0.00633 -0.75813,1.15e-5 z" />
  <path
     d="m 31.54984,1.7956593 c -16.277083,0 -29.4999999,13.2226977 -29.4999999,29.4995147 0,16.276816 13.2229169,29.499523 29.4999999,29.499517 16.27708,0 29.50001,-13.222701 29.5,-29.499517 0,-16.276817 -13.22292,-29.4995147 -29.5,-29.4995147 z m -2.029218,0.1414102 c 7.68041,0 15.097255,6.5522951 15.623745,14.7461025 10e-6,7.94643 -6.317354,14.059763 -14.265173,14.059763 l -0.764482,0.04497 c -7.804581,0.396319 -14.223694,7.304398 -14.223694,15.205076 0,7.900685 5.762487,14.290903 13.567068,14.687222"
     style="color:#000000;display:inline;overflow:visible;visibility:visible;opacity:0.3;fill:none;stroke:#2b2200;stroke-width:1;marker:none;enable-background:accumulate"
     id="path3871" />
  <path
     style="color:#000000;display:inline;overflow:visible;visibility:visible;opacity:0.5;fill:none;stroke:url(#linearGradient4338-5-6);stroke-width:1;stroke-linecap:round;stroke-linejoin:round;stroke-miterlimit:4;stroke-dasharray:none;stroke-dashoffset:0;stroke-opacity:1;marker:none;enable-background:accumulate"
     id="path4762-7"
     d="m 60.049841,31.229158 c 0,15.739856 -12.759898,28.499528 -28.500015,28.499528 -15.740097,0 -28.499987,-12.759672 -28.499987,-28.499528 0,-15.739855 12.75989,-28.4995317 28.499987,-28.4995317 15.740117,0 28.500015,12.7596767 28.500015,28.4995317 z M 38.756102,3.7594378 c 4.596053,3.3243895 7.10837,8.4310052 7.396001,12.9074202 0.287904,8.001341 -6.01423,14.726425 -13.697993,15.005623 -0.719452,0.05728 -1.34838,0.03199 -2.02378,0.08527 -6.948838,0.442115 -13.389592,5.938406 -13.389592,14.562605 0,7.233933 5.834884,13.152825 13.090434,13.521265" />
</svg>
