<?xml version="1.0" encoding="UTF-8" standalone="no"?>
<svg
   width="64"
   height="64"
   viewBox="0 0 64 64"
   version="1.1"
   id="svg554"
   sodipodi:docname="whatsdesk.svg"
   inkscape:version="1.1.2 (0a00cf5339, 2022-02-04)"
   xmlns:inkscape="http://www.inkscape.org/namespaces/inkscape"
   xmlns:sodipodi="http://sodipodi.sourceforge.net/DTD/sodipodi-0.dtd"
   xmlns:xlink="http://www.w3.org/1999/xlink"
   xmlns="http://www.w3.org/2000/svg"
   xmlns:svg="http://www.w3.org/2000/svg">
  <sodipodi:namedview
     id="namedview556"
     pagecolor="#ffffff"
     bordercolor="#999999"
     borderopacity="1"
     inkscape:showpageshadow="0"
     inkscape:pageopacity="0"
     inkscape:pagecheckerboard="0"
     inkscape:deskcolor="#d1d1d1"
     showgrid="false"
     inkscape:zoom="6.5156253"
     inkscape:cx="24.479615"
     inkscape:cy="44.892085"
     inkscape:window-width="1920"
     inkscape:window-height="1022"
     inkscape:window-x="0"
     inkscape:window-y="32"
     inkscape:window-maximized="1"
     inkscape:current-layer="g17699"
     inkscape:pageshadow="2"
     showguides="true"
     inkscape:guide-bbox="true">
    <sodipodi:guide
       position="181.88753,83.100362"
       orientation="0,-1"
       id="guide3812" />
    <sodipodi:guide
       position="167.56226,-80.33796"
       orientation="0,-1"
       id="guide3814" />
  </sodipodi:namedview>
  <defs
     id="defs539">
    <linearGradient
       inkscape:collect="always"
       id="linearGradient16180">
      <stop
         style="stop-color:#000000;stop-opacity:1;"
         offset="0"
         id="stop16176" />
      <stop
         style="stop-color:#000000;stop-opacity:0.92941176;"
         offset="0.49057317"
         id="stop19001" />
      <stop
         style="stop-color:#000000;stop-opacity:0.88627451;"
         offset="0.55367821"
         id="stop18935" />
      <stop
         style="stop-color:#000000;stop-opacity:0.84705882;"
         offset="0.59294873"
         id="stop18739" />
      <stop
         style="stop-color:#000000;stop-opacity:0.81568627;"
         offset="0.62115973"
         id="stop18415" />
      <stop
         style="stop-color:#000000;stop-opacity:0.78039216;"
         offset="0.64806443"
         id="stop18091" />
      <stop
         style="stop-color:#000000;stop-opacity:0.7254902;"
         offset="0.68108439"
         id="stop17765" />
      <stop
         style="stop-color:#000000;stop-opacity:0.6627451;"
         offset="0.71550268"
         id="stop17047" />
      <stop
         style="stop-color:#000000;stop-opacity:0.61960784;"
         offset="0.73507237"
         id="stop17437" />
      <stop
         style="stop-color:#000000;stop-opacity:0.36078431;"
         offset="0.82777327"
         id="stop17439" />
      <stop
         style="stop-color:#000000;stop-opacity:0.25098039;"
         offset="0.85652107"
         id="stop17569" />
      <stop
         style="stop-color:#000000;stop-opacity:0.09803922;"
         offset="0.90949643"
         id="stop17635" />
      <stop
         style="stop-color:#000000;stop-opacity:0.06666667;"
         offset="0.9320882"
         id="stop16915" />
      <stop
         style="stop-color:#000000;stop-opacity:0.02745098;"
         offset="0.96934336"
         id="stop16785" />
      <stop
         style="stop-color:#000000;stop-opacity:0;"
         offset="1"
         id="stop16178" />
    </linearGradient>
    <linearGradient
       inkscape:collect="always"
       id="linearGradient13667">
      <stop
         style="stop-color:#ffffff;stop-opacity:0.52592945"
         offset="0"
         id="stop13663" />
      <stop
         style="stop-color:#ffffff;stop-opacity:0;"
         offset="1"
         id="stop13665" />
    </linearGradient>
    <linearGradient
       inkscape:collect="always"
       id="linearGradient9766">
      <stop
         style="stop-color:#297b2e;stop-opacity:1"
         offset="0"
         id="stop9762" />
      <stop
         style="stop-color:#558541;stop-opacity:1"
         offset="1"
         id="stop9764" />
    </linearGradient>
    <linearGradient
       inkscape:collect="always"
       id="linearGradient1966">
      <stop
         style="stop-color:#95e871;stop-opacity:1"
         offset="0"
         id="stop1962" />
      <stop
         style="stop-color:#40be48;stop-opacity:1"
         offset="1"
         id="stop1964" />
    </linearGradient>
    <linearGradient
       id="linear0"
       gradientUnits="userSpaceOnUse"
       x1="6.5"
       y1="7"
       x2="6.5"
       y2="10"
       gradientTransform="scale(2)">
      <stop
         offset="0"
         style="stop-color:rgb(0%,0%,0%);stop-opacity:0;"
         id="stop505" />
      <stop
         offset="1"
         style="stop-color:rgb(0%,0%,0%);stop-opacity:0.2;"
         id="stop507" />
    </linearGradient>
    <linearGradient
       id="linear1"
       gradientUnits="userSpaceOnUse"
       x1="3.6224"
       y1="5.4027"
       x2="29.5973"
       y2="31.3776"
       gradientTransform="scale(2)">
      <stop
         offset="0"
         style="stop-color:rgb(100%,84.313725%,38.039216%);stop-opacity:1;"
         id="stop510" />
      <stop
         offset="1"
         style="stop-color:rgb(96.470588%,70.980392%,1.568627%);stop-opacity:1;"
         id="stop512" />
    </linearGradient>
    <linearGradient
       id="linear2"
       gradientUnits="userSpaceOnUse"
       x1="-13.9403"
       y1="28.2221"
       x2="-9.1444"
       y2="25.4532"
       gradientTransform="matrix(7.5592,0,0,-7.5592,118.4344,254.4538)">
      <stop
         offset="0"
         style="stop-color:rgb(7.843137%,57.647059%,87.45098%);stop-opacity:1;"
         id="stop515" />
      <stop
         offset="1"
         style="stop-color:rgb(0%,38.431373%,70.588235%);stop-opacity:1;"
         id="stop517" />
    </linearGradient>
    <filter
       id="alpha"
       filterUnits="objectBoundingBox"
       x="0"
       y="0"
       width="1"
       height="1">
      <feColorMatrix
         type="matrix"
         in="SourceGraphic"
         values="0 0 0 0 1 0 0 0 0 1 0 0 0 0 1 0 0 0 1 0"
         id="feColorMatrix520" />
    </filter>
    <mask
       id="mask0">
      <g
         filter="url(#alpha)"
         id="g525">
        <rect
           x="0"
           y="0"
           width="64"
           height="64"
           style="fill:rgb(0%,0%,0%);fill-opacity:0.301961;stroke:none;"
           id="rect523" />
      </g>
    </mask>
    <linearGradient
       id="linear3"
       gradientUnits="userSpaceOnUse"
       x1="8.1786"
       y1="0.8465"
       x2="23.666"
       y2="16.334"
       gradientTransform="matrix(2,0,0,2,0,0)">
      <stop
         offset="0"
         style="stop-color:rgb(100%,100%,100%);stop-opacity:1;"
         id="stop528" />
      <stop
         offset="1"
         style="stop-color:rgb(96.470588%,70.980392%,1.568627%);stop-opacity:0;"
         id="stop530" />
    </linearGradient>
    <clipPath
       id="clip1">
      <rect
         x="0"
         y="0"
         width="64"
         height="64"
         id="rect533" />
    </clipPath>
    <g
       id="surface5"
       clip-path="url(#clip1)">
      <path
         style=" stroke:none;fill-rule:nonzero;fill:url(#linear3);"
         d="M 62 12 L 27.035156 12 C 26.371094 12 25.738281 12.261719 25.269531 12.730469 L 22 16 L 3.5 16 C 1.566406 16 0 17.566406 0 19.5 L 0 21.5 C 0 19.566406 1.566406 18 3.5 18 L 22 18 L 25.261719 14.738281 C 25.734375 14.265625 26.375 14 27.042969 14 L 62 14 C 63.105469 14 64 14.894531 64 16 L 64 14 C 64 12.894531 63.105469 12 62 12 Z M 62 12 "
         id="path536" />
    </g>
    <linearGradient
       xlink:href="#linearGradient3600-9-51"
       id="linearGradient1512"
       gradientUnits="userSpaceOnUse"
       gradientTransform="matrix(1.3806477,0,0,1.327964,-70.267382,-1.7275823)"
       x1="74.838791"
       y1="4.535933"
       x2="74.838791"
       y2="49.779099" />
    <linearGradient
       id="linearGradient3600-9-51">
      <stop
         offset="0"
         style="stop-color:#f4f4f4;stop-opacity:1"
         id="stop3602-0-0" />
      <stop
         offset="1"
         style="stop-color:#dbdbdb;stop-opacity:1"
         id="stop3604-9-04" />
    </linearGradient>
    <linearGradient
       xlink:href="#linearGradient3104-6"
       id="linearGradient3170"
       gradientUnits="userSpaceOnUse"
       gradientTransform="matrix(0.80749686,0,0,0.89471714,10.740979,-0.4431076)"
       x1="12.879265"
       y1="66.950981"
       x2="12.879265"
       y2="4.7802162" />
    <linearGradient
       id="linearGradient3104-6">
      <stop
         offset="0"
         style="stop-color:#000000;stop-opacity:0.31782946"
         id="stop3106-3" />
      <stop
         offset="1"
         style="stop-color:#000000;stop-opacity:0.24031007"
         id="stop3108-9" />
    </linearGradient>
    <linearGradient
       xlink:href="#linearGradient1041"
       id="linearGradient15429"
       gradientUnits="userSpaceOnUse"
       gradientTransform="matrix(1.4324324,0,0,1.1081081,-2.4727286,11.023243)"
       x1="23.99999"
       y1="-1.2218014"
       x2="23.99999"
       y2="42.091705" />
    <linearGradient
       id="linearGradient1041">
      <stop
         id="stop1033"
         style="stop-color:#ffffff;stop-opacity:1"
         offset="0" />
      <stop
         id="stop1035"
         style="stop-color:#ffffff;stop-opacity:0.23529412"
         offset="0.0832339" />
      <stop
         id="stop1037"
         style="stop-color:#ffffff;stop-opacity:0.15686275"
         offset="0.94268352" />
      <stop
         id="stop1039"
         style="stop-color:#ffffff;stop-opacity:0.39215687"
         offset="1" />
    </linearGradient>
    <linearGradient
       xlink:href="#linearGradient1077"
       id="linearGradient15429-3"
       gradientUnits="userSpaceOnUse"
       gradientTransform="matrix(1.4324324,0,0,1.1081081,-2.4727286,11.023243)"
       x1="11.575833"
       y1="-4.7840924"
       x2="11.575833"
       y2="42.193623" />
    <linearGradient
       id="linearGradient1077">
      <stop
         id="stop1069"
         style="stop-color:#ffffff;stop-opacity:1"
         offset="0" />
      <stop
         id="stop1071"
         style="stop-color:#ffffff;stop-opacity:0.23529412"
         offset="0.09530682" />
      <stop
         id="stop1073"
         style="stop-color:#ffffff;stop-opacity:0.15686275"
         offset="0.94268352" />
      <stop
         id="stop1075"
         style="stop-color:#ffffff;stop-opacity:0.39215687"
         offset="1" />
    </linearGradient>
    <radialGradient
       cx="4.9929786"
       cy="43.5"
       r="2.5"
       fx="4.9929786"
       fy="43.5"
       id="radialGradient3337-2-2"
       xlink:href="#linearGradient3688-166-749-4-0-3-8"
       gradientUnits="userSpaceOnUse"
       gradientTransform="matrix(2.4045407,0,0,0.99999998,41.985755,15.500001)" />
    <linearGradient
       id="linearGradient3688-166-749-4-0-3-8">
      <stop
         offset="0"
         style="stop-color:#181818;stop-opacity:1"
         id="stop2883-4-0-1-8" />
      <stop
         offset="1"
         style="stop-color:#181818;stop-opacity:0"
         id="stop2885-9-2-9-6" />
    </linearGradient>
    <radialGradient
       cx="4.9929786"
       cy="43.5"
       r="2.5"
       fx="4.9929786"
       fy="43.5"
       id="radialGradient3339-1-4"
       xlink:href="#linearGradient3688-166-749-4-0-3-8"
       gradientUnits="userSpaceOnUse"
       gradientTransform="matrix(2.4045407,0,0,0.99999998,-22.014244,-102.5)" />
    <linearGradient
       x1="25.058096"
       y1="47.027729"
       x2="25.058096"
       y2="39.999443"
       id="linearGradient6394"
       xlink:href="#linearGradient3702-501-757-8-4-1-1"
       gradientUnits="userSpaceOnUse"
       gradientTransform="matrix(1.5714286,0,0,0.7142857,-5.7142853,27.928572)" />
    <linearGradient
       id="linearGradient3702-501-757-8-4-1-1">
      <stop
         offset="0"
         style="stop-color:#181818;stop-opacity:0"
         id="stop2895-8-9-9-1" />
      <stop
         offset="0.5"
         style="stop-color:#181818;stop-opacity:1"
         id="stop2897-7-8-7-7" />
      <stop
         offset="1"
         style="stop-color:#181818;stop-opacity:0"
         id="stop2899-4-5-1-5" />
    </linearGradient>
    <linearGradient
       xlink:href="#linearGradient909"
       id="linearGradient15431"
       gradientUnits="userSpaceOnUse"
       gradientTransform="matrix(1,0,0,0.81818188,-0.09435356,10.507243)"
       x1="31.781376"
       y1="-11.234498"
       x2="31.781376"
       y2="67.800774" />
    <linearGradient
       id="linearGradient909">
      <stop
         id="stop901"
         style="stop-color:#64baff;stop-opacity:1"
         offset="0" />
      <stop
         id="stop907"
         style="stop-color:#3689e6;stop-opacity:1"
         offset="1" />
    </linearGradient>
    <linearGradient
       xlink:href="#linearGradient4270-4"
       id="linearGradient15433"
       gradientUnits="userSpaceOnUse"
       gradientTransform="matrix(1.4324324,0,0,1.1621622,-2.4727286,8.7259434)"
       x1="23.99999"
       y1="5.9093657"
       x2="23.99999"
       y2="42.091705" />
    <linearGradient
       id="linearGradient4270-4">
      <stop
         id="stop4272-9"
         style="stop-color:#ffffff;stop-opacity:1"
         offset="0" />
      <stop
         id="stop4274-0"
         style="stop-color:#ffffff;stop-opacity:0.23529412"
         offset="0.09665164" />
      <stop
         id="stop4276-9"
         style="stop-color:#ffffff;stop-opacity:0.15686275"
         offset="0.94268352" />
      <stop
         id="stop4278-1"
         style="stop-color:#ffffff;stop-opacity:0.39215687"
         offset="1" />
    </linearGradient>
    <radialGradient
       cx="7.1183534"
       cy="9.9571075"
       r="12.671875"
       fx="7.1183534"
       fy="9.9571075"
       id="radialGradient3988-3"
       xlink:href="#linearGradient2867-449-88-871-390-598-476-591-434-148-57-177-8-3-3-6-4-8-8-8-5-7"
       gradientUnits="userSpaceOnUse"
       gradientTransform="matrix(0,12.890089,-15.824912,0,334.01999,-110.50411)" />
    <linearGradient
       id="linearGradient2867-449-88-871-390-598-476-591-434-148-57-177-8-3-3-6-4-8-8-8-5-7">
      <stop
         id="stop3750-1-0-7-6-6-1-3-9-3-9"
         style="stop-color:#505050;stop-opacity:1"
         offset="0" />
      <stop
         id="stop3752-3-7-4-0-32-8-923-0-7-0"
         style="stop-color:#2b2b2b;stop-opacity:1"
         offset="0.26238" />
      <stop
         id="stop3754-1-8-5-2-7-6-7-1-9-1"
         style="stop-color:#0a0a0a;stop-opacity:1"
         offset="0.704952" />
      <stop
         id="stop3756-1-6-2-6-6-1-96-6-0-1"
         style="stop-color:#000000;stop-opacity:1"
         offset="1" />
    </linearGradient>
    <linearGradient
       inkscape:collect="always"
       xlink:href="#linearGradient1966"
       id="linearGradient1968"
       x1="151.17679"
       y1="-17.734383"
       x2="151.17679"
       y2="15.636612"
       gradientUnits="userSpaceOnUse"
       gradientTransform="matrix(1.0222563,0,0,1.0222563,-58.537552,36.690455)" />
    <linearGradient
       inkscape:collect="always"
       xlink:href="#linearGradient9766"
       id="linearGradient9768"
       x1="167.48608"
       y1="60.456245"
       x2="167.48608"
       y2="9.0892916"
       gradientUnits="userSpaceOnUse"
       gradientTransform="translate(-62.023832,-0.75932903)" />
    <linearGradient
       inkscape:collect="always"
       xlink:href="#linearGradient1966"
       id="linearGradient13638"
       gradientUnits="userSpaceOnUse"
       gradientTransform="matrix(1.0222563,0,0,1.0222563,-58.537552,36.690455)"
       x1="151.17679"
       y1="-17.734383"
       x2="151.17679"
       y2="15.636612" />
    <linearGradient
       inkscape:collect="always"
       xlink:href="#linearGradient13667"
       id="linearGradient13669"
       x1="99.396751"
       y1="11.483562"
       x2="99.396751"
       y2="82.871048"
       gradientUnits="userSpaceOnUse"
       gradientTransform="translate(1.0652321,0.60664987)" />
    <radialGradient
       inkscape:collect="always"
       xlink:href="#linearGradient16180"
       id="radialGradient16182"
       cx="161.2715"
       cy="56.02935"
       fx="161.2715"
       fy="56.02935"
       r="40.379646"
       gradientTransform="matrix(0.77906441,0,0,0.18971838,-30.592432,47.112646)"
       gradientUnits="userSpaceOnUse" />
  </defs>
  <g
     id="g17699"
     transform="translate(-63.089064,-1.3659789)">
    <ellipse
       style="opacity:0.266229;fill:url(#radialGradient16182);fill-opacity:1;stroke:none;stroke-width:1.99767;stroke-linecap:round;stroke-miterlimit:4;stroke-dasharray:none;stroke-opacity:1"
       id="path15778"
       cx="95.048447"
       cy="57.742439"
       rx="31.458345"
       ry="7.6607614" />
    <path
       style="color:#000000;fill:url(#linearGradient9768);fill-opacity:1;stroke-linecap:round;-inkscape-stroke:none"
       d="m 95.917578,6.0648897 c -7.21826,1e-7 -14.43699,2.7511772 -19.93555,8.2500003 h -0.002 c -8.81818,8.84032 -10.7085,22.412308 -4.77344,33.34375 l -2.37305,13.673828 13.67578,-2.371094 c 10.9313,5.932702 24.500782,4.040305 33.339852,-4.777344 l 0.002,-0.002 c 10.20039,-10.199901 10.81384,-26.248663 2.0918,-37.30664 -1.00348,-1.362966 -1.56755,-2.03825 -2.08985,-2.560547 -3.6e-4,-3.65e-4 -0.002,3.64e-4 -0.002,0 C 110.35269,8.8167488 103.13531,6.0648427 95.917528,6.0648427 Z m 0,2.9824219 c 6.444182,0 12.887162,2.4631024 17.812502,7.3886714 9.85028,9.850903 9.85062,25.774847 0,35.625 -8.037,8.017524 -20.422472,9.669392 -30.281252,4.041016 l -0.46875,-0.265625 -10.46289,1.814453 1.81445,-10.464844 -0.26758,-0.466796 c -5.63043,-9.85884 -3.97694,-22.247064 4.04102,-30.285157 4.92508,-4.924244 11.36918,-7.3867184 17.8125,-7.3867184 z"
       id="path9632"
       sodipodi:nodetypes="ccccccsscccccsccccccccs" />
    <path
       style="color:#000000;fill:url(#linearGradient1968);stroke-width:3;stroke-linecap:round;-inkscape-stroke:none"
       d="m 114.79156,15.374693 c -10.42391,-10.4244024 -27.324922,-10.4244024 -37.748832,0 -8.49008,8.511398 -10.24257,21.648157 -4.2806,32.087512 l -2.08705,12.028985 12.03039,-2.08564 c 10.4393,5.959791 23.574442,4.206205 32.084682,-4.283415 10.42386,-10.423363 10.42449,-27.323299 0.001,-37.747442 z"
       id="path9630" />
    <path
       style="color:#000000;fill:url(#linearGradient13638);stroke-width:3;stroke-linecap:round;-inkscape-stroke:none"
       d="m 114.79156,15.374693 c -10.42391,-10.4244024 -27.324922,-10.4244024 -37.748832,0 -8.49008,8.511398 -10.24257,21.648157 -4.2806,32.087512 l -2.08705,12.028985 12.03039,-2.08564 c 10.4393,5.959791 23.574442,4.206205 32.084682,-4.283415 10.42386,-10.423363 10.42449,-27.323299 0.001,-37.747442 z"
       id="path13518" />
    <path
       id="path13508"
       style="color:#000000;fill:url(#linearGradient13669);fill-opacity:1;stroke-linecap:round;-inkscape-stroke:none"
       d="m 95.916794,7.5558687 c -6.83123,-1e-7 -13.663044,2.6061583 -18.875,7.8183583 -8.49008,8.511398 -10.241266,21.648536 -4.279296,32.087891 l -2.087891,12.029297 12.03125,-2.085938 c 10.4393,5.959791 23.573743,4.206417 32.083983,-4.283203 10.42386,-10.423363 10.42544,-27.323904 0.002,-37.748047 -5.212,-5.2122 -12.04382,-7.8183583 -18.875046,-7.8183583 z m 0,1.4921874 c 6.444176,0 12.887156,2.4631029 17.812496,7.3886709 9.85028,9.850903 9.85062,25.774847 0,35.625 -8.037,8.017524 -20.422466,9.669392 -30.281246,4.041016 l -0.46875,-0.265625 -10.46289,1.814453 1.814453,-10.464844 -0.267578,-0.466797 c -5.63043,-9.85884 -3.976945,-22.247063 4.041015,-30.285156 4.925081,-4.924243 11.369181,-7.3867179 17.8125,-7.3867179 z" />
    <path
       style="color:#000000;fill:#0d4d00;fill-opacity:0.23092651;-inkscape-stroke:none"
       d="m 87.276948,21.805124 c -0.88369,-0.03654 -1.54809,0.01152 -2.14648,0.3125 -0.5984,0.300979 -1.05356,0.810559 -1.60938,1.568359 -1.16156,1.583648 -1.61697,2.979388 -1.60742,4.935547 0.0127,2.499583 0.86494,4.566433 3.1582,7.794922 3.93635,5.541435 7.85948,8.618812 13.42383,10.503906 3.278372,1.110534 5.481052,1.188762 7.511722,0.302735 l 0.10937,0.01758 0.13868,-0.06641 c 2.11647,-1.010744 3.22543,-2.436119 3.56836,-4.613282 0.0633,-0.401594 0.1127,-0.755765 0.082,-1.115234 -0.0307,-0.359469 -0.16293,-0.721665 -0.41016,-1.033203 -0.49445,-0.623076 -1.34128,-1.086126 -2.89453,-1.833984 -1.9536,-0.940623 -2.84812,-1.475127 -3.75195,-1.441407 -0.45192,0.01686 -0.84904,0.241465 -1.17188,0.550782 -0.32283,0.309316 -0.62489,0.707468 -1.04297,1.226562 -0.51942,0.644919 -0.888182,1.065985 -1.138672,1.300781 -0.22566,0.211529 -0.28987,0.214029 -0.28125,0.216797 -3.76007,-1.050317 -7.56952,-4.008546 -8.83008,-7.783203 0.0359,-0.0669 0.0836,-0.150098 0.15235,-0.253906 0.15666,-0.236503 0.38197,-0.536759 0.6289,-0.826172 0.38218,-0.447883 0.68024,-0.795829 0.9043,-1.150391 0.22406,-0.354561 0.36887,-0.735913 0.38477,-1.152343 0.0318,-0.832862 -0.34322,-1.683941 -1.00977,-3.326172 -0.77454,-1.908268 -1.28644,-2.900173 -1.94141,-3.486328 -0.32748,-0.293078 -0.69868,-0.462785 -1.07031,-0.542969 -0.37163,-0.08018 -0.7408,-0.08827 -1.15625,-0.105469 z m -0.041,1 c 0.42014,0.0174 0.7427,0.03142 0.98632,0.08398 0.24363,0.05257 0.41235,0.127022 0.61524,0.308594 0.40578,0.363144 0.92022,1.248013 1.67969,3.119141 0.66591,1.640666 0.95689,2.453244 0.93945,2.910156 -0.009,0.228456 -0.0686,0.396966 -0.23242,0.65625 -0.16385,0.259285 -0.43744,0.588741 -0.81836,1.035156 -0.27211,0.318917 -0.51771,0.643917 -0.70313,0.923828 -0.0927,0.139956 -0.17108,0.268034 -0.23242,0.388672 -0.0613,0.120639 -0.12891,0.191721 -0.12891,0.4375 v 0.07617 l 0.0234,0.07422 c 1.35978,4.30924 5.546,7.499426 9.6875,8.619141 l 0.0645,0.01758 h 0.0664 c 0.37719,0 0.67348,-0.207362 0.996092,-0.509766 0.32262,-0.302403 0.7042,-0.746017 1.23438,-1.404297 0.42517,-0.527894 0.72649,-0.911838 0.95508,-1.130859 0.22859,-0.219021 0.32963,-0.268379 0.51758,-0.275391 0.37589,-0.01402 1.31985,0.399374 3.28125,1.34375 1.52579,0.734641 2.27441,1.213815 2.54492,1.554688 0.13525,0.170436 0.17988,0.294297 0.19726,0.498047 0.0174,0.203749 -0.0138,0.489592 -0.0742,0.873046 -0.30582,1.941639 -1.07762,2.94335 -3.00585,3.865235 l -0.004,0.002 h -0.002 c -1.82747,0.872773 -3.71064,0.818078 -7.007822,-0.298828 -5.38963,-1.825902 -9.07029,-4.704411 -12.92773,-10.134766 -2.24668,-3.162904 -2.96306,-4.93689 -2.97461,-7.220703 -0.009,-1.812637 0.33663,-2.870894 1.41406,-4.339844 0.52618,-0.717388 0.88205,-1.081525 1.25196,-1.267578 0.3699,-0.186053 0.82974,-0.239255 1.65625,-0.205078 z"
       id="path15644" />
    <g
       id="g3712">
      <path
         id="path3469"
         style="color:#000000;fill:#000000;fill-opacity:0.02382102;-inkscape-stroke:none"
         d="m 87.333508,22.972207 c -1.263948,0.02482 -1.795437,0.394755 -2.742187,1.685546 -1.119501,1.5263 -1.518966,2.754272 -1.509766,4.638672 0.0121,2.3917 0.794483,4.312113 3.064453,7.507813 3.8969,5.4859 7.698781,8.462859 13.175777,10.318359 3.350015,1.1348 5.423975,1.211841 7.384775,0.275391 v 0.002 c 2.0241,-0.96663 2.96456,-2.180035 3.28906,-4.240234 0.24729,-1.5701 0.13374,-1.972579 -2.94531,-3.455079 -3.915,-1.885 -3.67288,-1.892808 -5.35938,0.201172 -1.0496,1.3032 -1.50119,1.72461 -1.841795,1.72461 -3.989802,-1.0787 -8.048646,-4.193257 -9.339846,-8.285157 0,-0.17521 0.42432,-0.817451 0.94336,-1.425781 1.5262,-1.7886 1.527772,-1.832334 0.195312,-5.115234 -1.534,-3.7794 -2.053409,-3.753066 -3.724609,-3.822266 -0.213775,-0.0088 -0.40928,-0.01331 -0.589844,-0.0098 z" />
      <path
         id="path3627"
         style="color:#000000;fill:#000000;fill-opacity:0.02382102;-inkscape-stroke:none"
         d="m 87.178342,23.541258 c -1.263948,0.02482 -1.795437,0.394755 -2.742187,1.685546 -1.119501,1.5263 -1.518966,2.754272 -1.509766,4.638672 0.0121,2.3917 0.794483,4.312113 3.064453,7.507813 3.8969,5.4859 7.698781,8.462859 13.175777,10.318359 3.350011,1.1348 5.423971,1.211841 7.384771,0.275391 v 0.002 c 2.0241,-0.96663 2.96456,-2.180035 3.28906,-4.240234 0.24729,-1.5701 0.13374,-1.972579 -2.94531,-3.455079 -3.915,-1.885 -3.67288,-1.892808 -5.35938,0.201172 -1.0496,1.3032 -1.50119,1.72461 -1.841791,1.72461 -3.989802,-1.0787 -8.048646,-4.193257 -9.339846,-8.285157 0,-0.17521 0.42432,-0.817451 0.94336,-1.425781 1.5262,-1.7886 1.527772,-1.832334 0.195312,-5.115234 -1.534,-3.7794 -2.053409,-3.753066 -3.724609,-3.822266 -0.213775,-0.0088 -0.40928,-0.01331 -0.589844,-0.0098 z" />
      <path
         id="path3629"
         style="color:#000000;fill:#000000;fill-opacity:0.02382102;-inkscape-stroke:none"
         d="m 87.008002,24.277212 c -1.263948,0.02482 -1.795437,0.394755 -2.742187,1.685546 -1.119501,1.5263 -1.518966,2.754272 -1.509766,4.638672 0.0121,2.3917 0.794483,4.312113 3.064453,7.507813 3.8969,5.4859 7.698781,8.462859 13.175777,10.318359 3.350011,1.1348 5.423971,1.211841 7.384771,0.275391 v 0.002 c 2.0241,-0.96663 2.96456,-2.180035 3.28906,-4.240234 0.24729,-1.5701 0.13374,-1.972579 -2.94531,-3.455079 -3.915,-1.885 -3.67288,-1.892808 -5.35938,0.201172 -1.0496,1.3032 -1.50119,1.72461 -1.841791,1.72461 -3.989802,-1.0787 -8.048646,-4.193257 -9.339846,-8.285157 0,-0.17521 0.42432,-0.817451 0.94336,-1.425781 1.5262,-1.7886 1.527772,-1.832334 0.195312,-5.115234 -1.534,-3.7794 -2.053409,-3.753066 -3.724609,-3.822266 -0.213775,-0.0088 -0.40928,-0.01331 -0.589844,-0.0098 z" />
      <path
         id="path3631"
         style="color:#000000;fill:#000000;fill-opacity:0.02382102;-inkscape-stroke:none"
         d="m 86.819685,25.038969 c -1.263948,0.02482 -1.795437,0.394755 -2.742187,1.685546 -1.119501,1.5263 -1.518966,2.754272 -1.509766,4.638672 0.0121,2.3917 0.794483,4.312113 3.064453,7.507813 3.8969,5.4859 7.698781,8.462859 13.175777,10.318359 3.350008,1.1348 5.423968,1.211841 7.384768,0.275391 v 0.002 c 2.0241,-0.96663 2.96456,-2.180035 3.28906,-4.240234 0.24729,-1.5701 0.13374,-1.972579 -2.94531,-3.455079 -3.915,-1.885 -3.67288,-1.892808 -5.35938,0.201172 -1.0496,1.3032 -1.501187,1.72461 -1.841788,1.72461 -3.989802,-1.0787 -8.048646,-4.193257 -9.339846,-8.285157 0,-0.17521 0.42432,-0.817451 0.94336,-1.425781 1.5262,-1.7886 1.527772,-1.832334 0.195312,-5.115234 -1.534,-3.7794 -2.053409,-3.753066 -3.724609,-3.822266 -0.213775,-0.0088 -0.40928,-0.01331 -0.589844,-0.0098 z" />
      <path
         id="path3633"
         style="color:#000000;fill:#000000;fill-opacity:0.02382102;-inkscape-stroke:none"
         d="m 86.670318,25.890357 c -1.263948,0.02482 -1.795437,0.394755 -2.742187,1.685546 -1.119501,1.5263 -1.518966,2.754272 -1.509766,4.638672 0.0121,2.3917 0.794483,4.312113 3.064453,7.507813 3.8969,5.4859 7.698781,8.462859 13.175777,10.318359 3.350005,1.1348 5.423965,1.211841 7.384765,0.275391 v 0.002 c 2.0241,-0.96663 2.96456,-2.180035 3.28906,-4.240234 0.24729,-1.5701 0.13374,-1.972579 -2.94531,-3.455079 -3.915,-1.885 -3.67288,-1.892808 -5.35938,0.201172 -1.049597,1.3032 -1.501184,1.72461 -1.841785,1.72461 -3.989802,-1.0787 -8.048646,-4.193257 -9.339846,-8.285157 0,-0.17521 0.42432,-0.817451 0.94336,-1.425781 1.5262,-1.7886 1.527772,-1.832334 0.195312,-5.115234 -1.534,-3.7794 -2.053409,-3.753066 -3.724609,-3.822266 -0.213775,-0.0088 -0.40928,-0.01331 -0.589844,-0.0098 z" />
    </g>
    <path
       id="path15642"
       style="color:#000000;fill:#f9f9f9;-inkscape-stroke:none"
       d="M 23.578125 20.929688 C 22.314177 20.954509 21.782688 21.324443 20.835938 22.615234 C 19.716437 24.141534 19.316972 25.369506 19.326172 27.253906 C 19.338272 29.645606 20.120655 31.566019 22.390625 34.761719 C 26.287525 40.247619 30.089406 43.224578 35.566406 45.080078 C 38.916408 46.214878 40.990372 46.291919 42.951172 45.355469 L 42.951172 45.357422 C 44.975272 44.390792 45.915734 43.177387 46.240234 41.117188 C 46.487524 39.547088 46.373972 39.144609 43.294922 37.662109 C 39.379922 35.777109 39.622047 35.769301 37.935547 37.863281 C 36.885945 39.166481 36.43435 39.587891 36.09375 39.587891 C 32.10395 38.509191 28.045106 35.394634 26.753906 31.302734 C 26.753906 31.127524 27.178226 30.485283 27.697266 29.876953 C 29.223466 28.088353 29.225038 28.044619 27.892578 24.761719 C 26.358578 20.982319 25.839169 21.008653 24.167969 20.939453 C 23.954194 20.930613 23.758689 20.926142 23.578125 20.929688 z "
       transform="translate(63.089064,1.3659789)" />
  </g>
</svg>
