<?xml version="1.0" encoding="UTF-8" standalone="no"?>
<svg
   xmlns:dc="http://purl.org/dc/elements/1.1/"
   xmlns:cc="http://creativecommons.org/ns#"
   xmlns:rdf="http://www.w3.org/1999/02/22-rdf-syntax-ns#"
   xmlns:svg="http://www.w3.org/2000/svg"
   xmlns="http://www.w3.org/2000/svg"
   xmlns:xlink="http://www.w3.org/1999/xlink"
   xmlns:sodipodi="http://sodipodi.sourceforge.net/DTD/sodipodi-0.dtd"
   xmlns:inkscape="http://www.inkscape.org/namespaces/inkscape"
   version="1.1"
   width="64"
   height="64"
   id="svg23034"
   inkscape:version="0.91 r13725"
   sodipodi:docname="folder-html.svg">
  <sodipodi:namedview
     pagecolor="#ffffff"
     bordercolor="#666666"
     borderopacity="1"
     objecttolerance="10"
     gridtolerance="10"
     guidetolerance="10"
     inkscape:pageopacity="0"
     inkscape:pageshadow="2"
     inkscape:window-width="2560"
     inkscape:window-height="1372"
     id="namedview56"
     showgrid="false"
     inkscape:zoom="10.429825"
     inkscape:cx="58.754534"
     inkscape:cy="-5.6579689"
     inkscape:window-x="0"
     inkscape:window-y="36"
     inkscape:window-maximized="1"
     inkscape:current-layer="svg23034" />
  <defs
     id="defs23036">
    <linearGradient
       x1="97.538795"
       y1="16.962049"
       x2="97.538795"
       y2="44.260689"
       id="linearGradient5458"
       xlink:href="#linearGradient8272-8-8"
       gradientUnits="userSpaceOnUse"
       gradientTransform="matrix(1.3210282,0,0,1.2679796,-70.729881,0.1738106)" />
    <linearGradient
       id="linearGradient8272-8-8">
      <stop
         id="stop8274-4"
         style="stop-color:#ffffff;stop-opacity:1"
         offset="0" />
      <stop
         id="stop8276-5"
         style="stop-color:#ffffff;stop-opacity:0.23529412"
         offset="0.0221225" />
      <stop
         id="stop8278-0"
         style="stop-color:#ffffff;stop-opacity:0.15686275"
         offset="0.97909725" />
      <stop
         id="stop8280-5-9"
         style="stop-color:#ffffff;stop-opacity:0.39215687"
         offset="1" />
    </linearGradient>
    <linearGradient
       x1="22.934725"
       y1="49.629246"
       x2="22.809399"
       y2="36.657963"
       id="linearGradient5462"
       xlink:href="#linearGradient6129-963-697-142-998-580-273-9"
       gradientUnits="userSpaceOnUse"
       gradientTransform="matrix(1.5432898,0,0,1.3103449,-5.0382913,0.3448306)" />
    <linearGradient
       id="linearGradient6129-963-697-142-998-580-273-9">
      <stop
         id="stop2661-3"
         style="stop-color:#0a0a0a;stop-opacity:0.498"
         offset="0" />
      <stop
         id="stop2663-33"
         style="stop-color:#0a0a0a;stop-opacity:0"
         offset="1" />
    </linearGradient>
    <linearGradient
       x1="-91"
       y1="43.999817"
       x2="-91"
       y2="119.05979"
       id="linearGradient5466"
       xlink:href="#linearGradient4632-0-6-4-4-4"
       gradientUnits="userSpaceOnUse"
       gradientTransform="matrix(0.50413225,0,0,0.49333391,73.843636,-1.4532904)" />
    <linearGradient
       id="linearGradient4632-0-6-4-4-4">
      <stop
         id="stop4634-4-4-7-4"
         style="stop-color:#b4cee1;stop-opacity:1"
         offset="0" />
      <stop
         id="stop4636-3-1-5-9"
         style="stop-color:#5d9fcd;stop-opacity:1"
         offset="1" />
    </linearGradient>
    <radialGradient
       cx="605.71429"
       cy="486.64789"
       r="117.14286"
       fx="605.71429"
       fy="486.64789"
       id="radialGradient5472"
       xlink:href="#linearGradient5060-820-8"
       gradientUnits="userSpaceOnUse"
       gradientTransform="matrix(-0.04016195,0,0,0.0329426,30.204676,40.92132)" />
    <linearGradient
       id="linearGradient5060-820-8">
      <stop
         id="stop2681-37"
         style="stop-color:#000000;stop-opacity:1"
         offset="0" />
      <stop
         id="stop2683-05"
         style="stop-color:#000000;stop-opacity:0"
         offset="1" />
    </linearGradient>
    <linearGradient
       x1="302.85715"
       y1="366.64789"
       x2="302.85715"
       y2="609.50507"
       id="linearGradient5476"
       xlink:href="#linearGradient5048-585-1"
       gradientUnits="userSpaceOnUse"
       gradientTransform="matrix(0.1076923,0,0,0.03294117,-6.9224113,40.92219)" />
    <linearGradient
       id="linearGradient5048-585-1">
      <stop
         id="stop2667-0"
         style="stop-color:#000000;stop-opacity:0"
         offset="0" />
      <stop
         id="stop2669-91"
         style="stop-color:#000000;stop-opacity:1"
         offset="0.5" />
      <stop
         id="stop2671-6"
         style="stop-color:#000000;stop-opacity:0"
         offset="1" />
    </linearGradient>
    <radialGradient
       cx="605.71429"
       cy="486.64789"
       r="117.14286"
       fx="605.71429"
       fy="486.64789"
       id="radialGradient5480"
       xlink:href="#linearGradient5060-820-8"
       gradientUnits="userSpaceOnUse"
       gradientTransform="matrix(0.04016195,0,0,0.0329426,33.796646,40.92132)" />
    <linearGradient
       x1="97.538795"
       y1="8.8103228"
       x2="97.538795"
       y2="44.260689"
       id="linearGradient5484"
       xlink:href="#linearGradient9235-9"
       gradientUnits="userSpaceOnUse"
       gradientTransform="matrix(1.2749674,0,0,1.218292,-67.158521,-0.3392094)" />
    <linearGradient
       id="linearGradient9235-9">
      <stop
         id="stop9237-7"
         style="stop-color:#ffffff;stop-opacity:1"
         offset="0" />
      <stop
         id="stop9239-2-3"
         style="stop-color:#ffffff;stop-opacity:0.23529412"
         offset="0.1088333" />
      <stop
         id="stop9241-1"
         style="stop-color:#ffffff;stop-opacity:0.15686275"
         offset="0.97909725" />
      <stop
         id="stop9243-5"
         style="stop-color:#ffffff;stop-opacity:0.39215687"
         offset="1" />
    </linearGradient>
    <linearGradient
       x1="-51.786404"
       y1="53.514328"
       x2="-51.786404"
       y2="3.6336823"
       id="linearGradient5488"
       xlink:href="#linearGradient3104-8-8-97-4-6-11-5-5-1-0-5"
       gradientUnits="userSpaceOnUse"
       gradientTransform="matrix(1.0563766,0,0,1.0770552,69.975816,-2.5296504)" />
    <linearGradient
       id="linearGradient3104-8-8-97-4-6-11-5-5-1-0-5">
      <stop
         id="stop3106-5-4-3-5-0-2-1-0-1-2-7"
         style="stop-color:#000000;stop-opacity:0.32173914"
         offset="0" />
      <stop
         id="stop3108-4-3-7-8-2-0-7-9-4-9-4-5"
         style="stop-color:#000000;stop-opacity:0.27826086"
         offset="1" />
    </linearGradient>
    <linearGradient
       id="linearGradient6404-7-5-7">
      <stop
         id="stop6406-1-8-2"
         style="stop-color:#f9f9f9;stop-opacity:1"
         offset="0" />
      <stop
         id="stop6408-9-6-4"
         style="stop-color:#c9c9c9;stop-opacity:1"
         offset="1" />
    </linearGradient>
    <linearGradient
       x1="62.988873"
       y1="14.090554"
       x2="62.988873"
       y2="16.997795"
       id="linearGradient23032"
       xlink:href="#linearGradient6404-7-5-7"
       gradientUnits="userSpaceOnUse"
       gradientTransform="matrix(1.3135526,0,0,1.2900554,-55.484951,-1.2218604)" />
  </defs>
  <metadata
     id="metadata23039">
    <rdf:RDF>
      <cc:Work
         rdf:about="">
        <dc:format>image/svg+xml</dc:format>
        <dc:type
           rdf:resource="http://purl.org/dc/dcmitype/StillImage" />
        <dc:title />
      </cc:Work>
    </rdf:RDF>
  </metadata>
  <g
     id="layer1">
    <path
       d="m 7.5006657,10.000001 c -0.277,0 -0.5,0.223 -0.5,0.5 l 0,3.5 -2.5,0 c -0.277,0 -0.5,0.223 -0.5,0.5 l 0,9.499999 c 0,0.277 0.223,0.5 0.5,0.5 l 55.0000003,0 c 0.277,0 0.5,-0.223 0.5,-0.5 l 0,-9.499999 c 0,-0.277 -0.223,-0.5 -0.5,-0.5 l -31.5,0 0,-3.5 c 0,-0.277 -0.223,-0.5 -0.5,-0.5 l -20.0000003,0 z"
       id="use10406"
       style="color:#000000;fill:url(#linearGradient23032);fill-opacity:1;fill-rule:nonzero;stroke:none;stroke-width:1.00000012;marker:none;visibility:visible;display:inline;overflow:visible;enable-background:accumulate" />
    <path
       d="m 8.0006657,9.5001606 c -0.91501,0.0102 -1.5,0.45618 -1.5,1.3332904 l 0,2.66655 -1.506,0 c -0.99492,0 -1.494,0.47358 -1.494,1.34217 0.0456,13.719579 0,14.493009 0,15.657829 1.90283,0 56.9999903,-4.9328 56.9999903,-7.05611 l 0,-8.443889 c 0,-1.00007 -0.49994,-1.5 -1.49999,-1.5 l -30.5,0 0,-2.66655 c 0,-0.8771104 -0.22453,-1.3435104 -1.13954,-1.3332904 z"
       id="use10408"
       style="opacity:0.8;color:#000000;fill:none;stroke:url(#linearGradient5488);stroke-width:1;stroke-linecap:butt;stroke-linejoin:miter;stroke-miterlimit:4;stroke-opacity:1;stroke-dasharray:none;stroke-dashoffset:0;marker:none;visibility:visible;display:inline;overflow:visible;enable-background:accumulate" />
    <path
       d="m 7.5006657,10.500001 0,4 -3,0 0,9.999999 55.0000003,0 0,-9.999999 -32,0 0,-4 -20.0000003,0 z"
       id="use10410"
       style="color:#000000;fill:none;stroke:url(#linearGradient5484);stroke-width:0.99999976;stroke-linecap:round;stroke-linejoin:round;stroke-miterlimit:4;stroke-opacity:1;stroke-dasharray:none;stroke-dashoffset:0;marker:none;visibility:visible;display:inline;overflow:visible;enable-background:accumulate" />
    <path
       d="m 58.000666,52.99993 c 0,0 0,7.99991 0,7.99991 2.06824,0.0151 5,-1.79238 5,-4.00047 0,-2.2081 -2.308,-3.99944 -5,-3.99944 z"
       id="use10412"
       style="opacity:0.3;fill:url(#radialGradient5480);fill-opacity:1;fill-rule:nonzero;stroke:none;stroke-width:1;marker:none;visibility:visible;display:inline;overflow:visible" />
    <rect
       width="52"
       height="8"
       x="6.0006671"
       y="53"
       id="use10414"
       style="opacity:0.3;fill:url(#linearGradient5476);fill-opacity:1;fill-rule:nonzero;stroke:none;stroke-width:1;marker:none;visibility:visible;display:inline;overflow:visible" />
    <path
       d="m 6.0006657,52.99993 c 0,0 0,7.99991 0,7.99991 -2.06825,0.0151 -5,-1.79238 -5,-4.00047 0,-2.2081 2.308,-3.99944 5,-3.99944 z"
       id="use10416"
       style="opacity:0.3;fill:url(#radialGradient5472);fill-opacity:1;fill-rule:nonzero;stroke:none;stroke-width:1;marker:none;visibility:visible;display:inline;overflow:visible" />
    <path
       d="m 2.5042057,20.53211 c -1.44043,0.16346 -0.87122,1.85289 -0.98607,2.8029 0.5271,11.19318 1.25951,21.80885 1.78336,33.0021 0,1.18996 1.19486,1.13653 1.86516,1.13653 0,0 36.7742103,0 54.4905103,0 1.46281,-0.14093 0.85463,-1.86024 1.0604,-2.8442 0.52711,-11.19317 1.25992,-21.56889 1.78376,-32.76214 0.0178,-0.7521 -0.50074,-1.33519 -1.21534,-1.33519 0,0 -39.86255,0 -58.7817803,0 z"
       id="use10418"
       style="color:#000000;fill:url(#linearGradient5466);fill-opacity:1;fill-rule:nonzero;stroke:none;stroke-width:0.99999982;marker:none;visibility:visible;display:inline;overflow:visible;enable-background:accumulate" />
    <path
       d="m 2.4097557,20 59.1818103,5.3e-4 c 0.85499,0 1.4091,0.5839 1.4091,1.30984 l -1.6775,35.37929 c 0,0.72593 -0.68831,1.31034 -1.54329,1.31034 L 4.2214357,58 c -0.85498,0 -1.54329,-0.58441 -1.54329,-1.31034 l -1.67748,-35.37931 c 0,-0.72594 0.5541,-1.31035 1.40909,-1.31035 z"
       id="use10420"
       style="opacity:0.4;fill:url(#linearGradient5462);fill-opacity:1;stroke:none" />
    <path
       inkscape:connector-curvature="0"
       style="opacity:0.3;fill:#ffffff;fill-opacity:0.55294118;fill-rule:nonzero;stroke:none;stroke-width:0.99999994;stroke-miterlimit:4;stroke-dasharray:none"
       d="m 31.999995,29.000012 a 11.000001,11.000001 0 0 0 -2.186036,0.22022 11.000001,11.000001 0 0 0 -0.03223,0.0055 c -0.01678,0.0036 -0.03146,0.01265 -0.04835,0.01622 a 11.000001,11.000001 0 0 0 -1.955077,0.606933 c -0.0187,0.0077 -0.04042,0.0083 -0.0591,0.01622 a 11.000001,11.000001 0 0 0 -0.0055,0.0055 c -0.01485,0.0063 -0.02816,0.01513 -0.04298,0.02145 a 11.000001,11.000001 0 0 0 -1.729492,0.939942 c -0.04031,0.02668 -0.0836,0.04799 -0.12353,0.07519 a 11.000001,11.000001 0 0 0 -1.514648,1.246094 c -0.03636,0.03567 -0.07156,0.07125 -0.107415,0.107415 a 11.000001,11.000001 0 0 0 -1.224608,1.47705 c -0.04274,0.06149 -0.0874,0.12023 -0.128893,0.182627 a 11.000001,11.000001 0 0 0 -0.891602,1.643558 c -0.03844,0.0869 -0.08192,0.16973 -0.118167,0.257813 a 11.000001,11.000001 0 0 0 -0.553223,1.793943 c -0.0209,0.09386 -0.04606,0.184552 -0.06446,0.279298 a 11.000001,11.000001 0 0 0 -0.214693,2.105023 11.000001,11.000001 0 0 0 0.22022,2.186036 11.000001,11.000001 0 0 0 0.0055,0.01622 c 0.0044,0.022 0.01155,0.04246 0.01623,0.06446 a 11.000001,11.000001 0 0 0 0.606933,1.955077 c 0.0077,0.0187 0.0083,0.04042 0.01623,0.05907 a 11.000001,11.000001 0 0 0 0.0055,0.0055 c 0.0063,0.01485 0.01513,0.02816 0.02145,0.04298 a 11.000001,11.000001 0 0 0 0.939942,1.729493 c 0.02668,0.04031 0.04799,0.08357 0.07519,0.12353 a 11.000001,11.000001 0 0 0 1.246094,1.514648 c 0.03567,0.03636 0.07125,0.07155 0.107415,0.107415 a 11.000001,11.000001 0 0 0 1.47705,1.224608 c 0.06149,0.04274 0.12023,0.0874 0.182627,0.128892 a 11.000001,11.000001 0 0 0 1.643558,0.891603 c 0.0869,0.03845 0.16973,0.08192 0.257813,0.118167 a 11.000001,11.000001 0 0 0 1.793943,0.553223 c 0.09386,0.0209 0.184552,0.04606 0.279298,0.06446 A 11.000001,11.000001 0 0 0 32.000007,51 a 11.000001,11.000001 0 0 0 2.186036,-0.22022 11.000001,11.000001 0 0 0 0.03223,-0.0055 c 0.01678,-0.0036 0.03149,-0.01265 0.04835,-0.01622 a 11.000001,11.000001 0 0 0 1.955077,-0.606933 11.000001,11.000001 0 0 0 0.05907,-0.01622 c 0.0022,-9.54e-4 0.003,-0.0044 0.0055,-0.0055 a 11.000001,11.000001 0 0 0 0.04298,-0.02145 11.000001,11.000001 0 0 0 1.729493,-0.939942 c 0.04031,-0.02667 0.08357,-0.04799 0.12353,-0.07518 a 11.000001,11.000001 0 0 0 1.514648,-1.246094 c 0.03636,-0.03567 0.07156,-0.07125 0.107415,-0.107415 a 11.000001,11.000001 0 0 0 1.224608,-1.477049 c 0.04274,-0.06149 0.0874,-0.12023 0.128892,-0.182628 a 11.000001,11.000001 0 0 0 0.891603,-1.643558 c 0.03845,-0.0869 0.08192,-0.16973 0.118167,-0.257813 a 11.000001,11.000001 0 0 0 0.553223,-1.793943 c 0.0209,-0.09386 0.04606,-0.184552 0.06446,-0.279298 a 11.000001,11.000001 0 0 0 0.21472,-2.105023 11.000001,11.000001 0 0 0 -0.22022,-2.186036 11.000001,11.000001 0 0 0 -0.0055,-0.03223 c -0.0036,-0.01677 -0.01265,-0.03149 -0.01622,-0.04835 a 11.000001,11.000001 0 0 0 -0.606933,-1.955077 11.000001,11.000001 0 0 0 -0.01622,-0.05907 c -9.54e-4,-0.0022 -0.0044,-0.003 -0.0055,-0.0055 a 11.000001,11.000001 0 0 0 -0.02145,-0.04298 11.000001,11.000001 0 0 0 -0.939942,-1.729493 c -0.02667,-0.04031 -0.04799,-0.08357 -0.07518,-0.12353 A 11.000001,11.000001 0 0 0 39.84675,32.3031 C 39.81108,32.26674 39.7755,32.23154 39.739335,32.195685 A 11.000001,11.000001 0 0 0 38.262286,30.97108 c -0.06149,-0.04274 -0.12023,-0.0874 -0.182628,-0.128892 a 11.000001,11.000001 0 0 0 -1.643586,-0.891603 c -0.0869,-0.03844 -0.16973,-0.08192 -0.257813,-0.118167 a 11.000001,11.000001 0 0 0 -1.793943,-0.553223 c -0.09386,-0.0209 -0.184552,-0.04606 -0.279298,-0.06446 a 11.000001,11.000001 0 0 0 -2.105023,-0.21472 z m -0.02695,2.75 c -0.358149,0.14894 -0.711194,0.308797 -1.095702,0.429687 l -0.435058,0.68213 -0.34375,0.204105 -0.472657,-0.961428 a 8.2500011,8.2500011 0 0 1 2.34726,-0.354494 z m 0.649902,0.03223 a 8.2500011,8.2500011 0 0 1 0.435061,0.04835 l -0.182628,0.12353 -0.25245,-0.171875 z m 2.631838,0.63916 a 8.2500011,8.2500011 0 0 1 0.902343,0.461912 l 0.05907,0.161123 -0.198742,0.537111 -0.311526,-0.182628 -0.273927,-0.316893 -0.435058,0.316893 -0.145008,-0.719724 0.402834,-0.257813 z m -1.56299,0.128893 0.25245,0 c 0.125207,0.25982 0.22759,0.502535 0.327637,0.773437 l 0.311523,0.295411 -0.34375,0.349121 -0.472656,0.0913 0.0913,-0.585451 0,-0.445799 -0.166513,-0.182628 0,-0.29541 z m -6.133787,0.49951 0.02145,0.01623 -0.07518,0.349121 0.451173,-0.182628 0.204105,0.386722 -0.07518,0.273927 0.25245,0.07519 0.236335,0.22022 -0.06982,0.241698 0.290037,0.204106 -0.25245,0.402831 -0.112805,-0.569337 -0.580079,0.198744 -0.451171,0 -0.655272,0.316894 1.03662,0 -0.34912,0.515625 -0.6875,0.128892 -0.290041,0.445803 -0.542482,0.22022 -0.25245,0.644531 -0.730469,0.606933 -0.06982,0.886232 -0.418946,-0.53174 -0.381348,-0.08594 a 8.2500011,8.2500011 0 0 1 1.912111,-3.43213 l 0.03223,0.12353 0.128892,-0.290041 a 8.2500011,8.2500011 0 0 1 0.467287,-0.435059 l 0.06982,-0.03223 -0.0055,-0.02695 a 8.2500011,8.2500011 0 0 1 0.896973,-0.671387 z m 5.736326,0.0913 0.161123,0.424317 -0.381348,0.198742 -0.06982,-0.53174 0.29004,-0.0913 z m 3.405273,0.08057 a 8.2500011,8.2500011 0 0 1 3.550389,6.778333 8.2500011,8.2500011 0 0 1 -0.03223,0.596192 l -0.15576,0.161123 c 0.05024,-0.0036 0.100375,-0.01155 0.150398,-0.01622 a 8.2500011,8.2500011 0 0 1 -0.596192,2.422365 l -0.06446,0.150397 A 8.2500011,8.2500011 0 0 1 36.31835,47.01992 c -0.123365,-0.359064 -0.248435,-0.717059 -0.375975,-1.074218 0,-0.330919 0.01815,-0.646672 0.03759,-0.977539 l 0.198742,-0.461914 -0.273927,-0.537111 0.02145,-0.73584 -0.365233,-0.424316 0.182627,-0.628417 -0.306152,-0.34912 -0.531737,0 -0.177237,-0.204105 -0.52637,0.34912 -0.204105,-0.257812 -0.488768,0.424317 c -0.331702,-0.382404 -0.666834,-0.761913 -0.999023,-1.144044 l -0.39746,-0.939942 0.365233,-0.537108 -0.198743,-0.22022 0.413576,-1.036621 c 0.35272,-0.446179 0.733788,-0.87555 1.106446,-1.305177 l 0.655272,-0.18799 0.746581,-0.0913 0.504884,0.150397 0.725098,0.73584 0.257812,-0.295411 0.34375,-0.03759 0.671389,0.22022 0.504881,0 0.34375,-0.311523 0.166513,-0.241698 -0.34375,-0.22022 -0.601563,-0.03759 c -0.16269,-0.229515 -0.31173,-0.47822 -0.504882,-0.682129 l -0.182627,0.0913 -0.0913,0.590821 -0.34375,-0.402834 -0.07519,-0.4458 -0.397461,-0.333008 -0.161122,0 0.39746,0.461914 -0.166512,0.408205 -0.306152,0.0913 0.198742,-0.402834 -0.34375,-0.18799 -0.327635,-0.370606 -0.580079,0.150397 -0.06982,0.182628 -0.365236,0.225582 -0.182627,0.494142 -0.488769,0.241698 -0.22022,-0.241698 -0.236335,0 0,-0.811035 0.510255,-0.279296 0.381348,0 -0.07519,-0.311525 -0.306152,-0.316894 0.526366,-0.107415 0.29004,-0.333007 0.236335,-0.402834 0.435058,0 -0.12353,-0.316893 0.268565,-0.182628 0,0.349121 0.601563,0.150398 0.580076,-0.49951 0.03759,-0.22022 0.01073,-0.01073 z m 1.906742,4.769533 -0.12353,0.128892 0.182627,0.666017 0.322267,0.370604 c 0.189448,0.556146 0.390385,1.090466 0.639161,1.622071 0.13695,0 0.26422,-0.01265 0.39746,-0.02145 l -0.29004,-0.349116 0.161123,-0.386721 -0.322267,-0.370604 -0.531738,-1.144044 -0.435058,-0.515625 z m -14.81348,1.21924 0.118167,0 c -0.03823,0.305555 -0.09097,0.618216 -0.128892,0.923826 l 0.472656,-0.05907 0,0.478027 0.145007,0.4458 c 0.183893,0.114978 0.427254,0.12199 0.63379,0.182628 l 0,-0.0913 0.692871,-0.606934 0.655273,0.478027 0.741211,-0.0913 0.306155,0.832522 0.563964,0.128892 0.306152,0.606933 c 0.617791,0.323164 1.235969,0.647537 1.858398,0.961425 l -0.07519,0.660644 -0.456541,0.649904 0.07518,0.864747 -0.290037,0.703613 -0.58008,0.128892 -0.257812,0.402831 0.107415,0.257813 -0.161123,0.402833 a 8.2500011,8.2500011 0 0 1 -4.055166,-4.130367 l 0.118168,-0.424316 -0.07519,-0.161123 0.241697,-0.354491 0.284669,-0.827148 0,-0.07519 -0.214857,-0.112805 -0.311523,0.05371 -0.520996,-0.402833 -0.18799,-0.230945 a 8.2500011,8.2500011 0 0 1 -0.04826,-0.805682 8.2500011,8.2500011 0 0 1 0.04298,-0.789549 z"
       id="path6495-3" />
    <path
       d="M 61.069096,21.5 3.9511557,21.5313 c -1.70924,0 -1.43419,0.0338 -1.43419,1.07579 l 1.62114,32.91358 c 0.0163,0.94321 -0.0656,0.9793 1.0726,0.9793 0,0 36.7779503,0 54.4396603,0 0.53983,-11.58225 1.25805,-22.68226 1.81479,-34.32182 0.0519,-0.55489 0.0134,-0.67818 -0.39606,-0.67818 z"
       id="use10422"
       style="opacity:0.5;color:#000000;fill:none;stroke:url(#linearGradient5458);stroke-width:0.99999988;stroke-linecap:round;stroke-linejoin:round;stroke-miterlimit:4;stroke-opacity:1;stroke-dasharray:none;stroke-dashoffset:0;marker:none;visibility:visible;display:inline;overflow:visible;enable-background:accumulate" />
    <path
       d="m 2.5042057,20.53211 c -1.44043,0.16346 -0.87122,1.85289 -0.98607,2.8029 0.5271,11.19318 1.25951,21.80885 1.78336,33.0021 0,1.18996 1.19486,1.13653 1.86516,1.13653 0,0 36.7742103,0 54.4905103,0 1.46281,-0.14093 0.85463,-1.86024 1.0604,-2.8442 0.52711,-11.19317 1.25992,-21.56889 1.78376,-32.76214 0.0178,-0.7521 -0.50074,-1.33519 -1.21534,-1.33519 0,0 -39.86255,0 -58.7817803,0 z"
       id="use10418-9"
       style="opacity:0.3;color:#000000;fill:none;stroke:#000000;stroke-width:0.99999982;stroke-linecap:round;stroke-linejoin:round;stroke-miterlimit:4;stroke-opacity:1;stroke-dasharray:none;stroke-dashoffset:0;marker:none;visibility:visible;display:inline;overflow:visible;enable-background:accumulate" />
    <path
       inkscape:connector-curvature="0"
       style="fill:#175785;fill-opacity:0.55294118;fill-rule:nonzero;stroke:none;stroke-width:0.99999994;stroke-miterlimit:4;stroke-dasharray:none"
       d="m 31.999995,28.000012 a 11.000001,11.000001 0 0 0 -2.186036,0.22022 11.000001,11.000001 0 0 0 -0.03223,0.0055 c -0.01678,0.0036 -0.03146,0.01265 -0.04835,0.01622 a 11.000001,11.000001 0 0 0 -1.955077,0.606933 c -0.0187,0.0077 -0.04042,0.0083 -0.0591,0.01622 a 11.000001,11.000001 0 0 0 -0.0055,0.0055 c -0.01485,0.0063 -0.02816,0.01513 -0.04298,0.02145 a 11.000001,11.000001 0 0 0 -1.729492,0.939942 c -0.04031,0.02668 -0.0836,0.04799 -0.12353,0.07519 a 11.000001,11.000001 0 0 0 -1.514648,1.246094 c -0.03636,0.03567 -0.07156,0.07125 -0.107415,0.107415 a 11.000001,11.000001 0 0 0 -1.224608,1.47705 c -0.04274,0.06149 -0.0874,0.12023 -0.128893,0.182627 a 11.000001,11.000001 0 0 0 -0.891602,1.643558 c -0.03844,0.0869 -0.08192,0.16973 -0.118167,0.257813 a 11.000001,11.000001 0 0 0 -0.553223,1.793943 c -0.0209,0.09386 -0.04606,0.184552 -0.06446,0.279298 a 11.000001,11.000001 0 0 0 -0.214693,2.105023 11.000001,11.000001 0 0 0 0.22022,2.186036 11.000001,11.000001 0 0 0 0.0055,0.01622 c 0.0044,0.022 0.01155,0.04246 0.01623,0.06446 a 11.000001,11.000001 0 0 0 0.606933,1.955077 c 0.0077,0.0187 0.0083,0.04042 0.01623,0.05907 a 11.000001,11.000001 0 0 0 0.0055,0.0055 c 0.0063,0.01485 0.01513,0.02816 0.02145,0.04298 a 11.000001,11.000001 0 0 0 0.939942,1.729493 c 0.02668,0.04031 0.04799,0.08357 0.07519,0.12353 a 11.000001,11.000001 0 0 0 1.246094,1.514648 c 0.03567,0.03636 0.07125,0.07155 0.107415,0.107415 a 11.000001,11.000001 0 0 0 1.47705,1.224608 c 0.06149,0.04274 0.12023,0.0874 0.182627,0.128892 a 11.000001,11.000001 0 0 0 1.643558,0.891603 c 0.0869,0.03845 0.16973,0.08192 0.257813,0.118167 a 11.000001,11.000001 0 0 0 1.793943,0.553223 c 0.09386,0.0209 0.184552,0.04606 0.279298,0.06446 A 11.000001,11.000001 0 0 0 32.000007,50 a 11.000001,11.000001 0 0 0 2.186036,-0.22022 11.000001,11.000001 0 0 0 0.03223,-0.0055 c 0.01678,-0.0036 0.03149,-0.01265 0.04835,-0.01622 a 11.000001,11.000001 0 0 0 1.955077,-0.606933 11.000001,11.000001 0 0 0 0.05907,-0.01622 c 0.0022,-9.54e-4 0.003,-0.0044 0.0055,-0.0055 a 11.000001,11.000001 0 0 0 0.04298,-0.02145 11.000001,11.000001 0 0 0 1.729493,-0.939942 c 0.04031,-0.02667 0.08357,-0.04799 0.12353,-0.07518 a 11.000001,11.000001 0 0 0 1.514648,-1.246094 c 0.03636,-0.03567 0.07156,-0.07125 0.107415,-0.107415 a 11.000001,11.000001 0 0 0 1.224608,-1.477049 c 0.04274,-0.06149 0.0874,-0.12023 0.128892,-0.182628 a 11.000001,11.000001 0 0 0 0.891603,-1.643558 c 0.03845,-0.0869 0.08192,-0.16973 0.118167,-0.257813 a 11.000001,11.000001 0 0 0 0.553223,-1.793943 c 0.0209,-0.09386 0.04606,-0.184552 0.06446,-0.279298 a 11.000001,11.000001 0 0 0 0.21472,-2.105023 11.000001,11.000001 0 0 0 -0.22022,-2.186036 11.000001,11.000001 0 0 0 -0.0055,-0.03223 c -0.0036,-0.01677 -0.01265,-0.03149 -0.01622,-0.04835 a 11.000001,11.000001 0 0 0 -0.606933,-1.955077 11.000001,11.000001 0 0 0 -0.01622,-0.05907 c -9.54e-4,-0.0022 -0.0044,-0.003 -0.0055,-0.0055 a 11.000001,11.000001 0 0 0 -0.02145,-0.04298 11.000001,11.000001 0 0 0 -0.939942,-1.729493 c -0.02667,-0.04031 -0.04799,-0.08357 -0.07518,-0.12353 A 11.000001,11.000001 0 0 0 39.84675,31.3031 C 39.81108,31.26674 39.7755,31.23154 39.739335,31.195685 A 11.000001,11.000001 0 0 0 38.262286,29.97108 c -0.06149,-0.04274 -0.12023,-0.0874 -0.182628,-0.128892 a 11.000001,11.000001 0 0 0 -1.643586,-0.891603 c -0.0869,-0.03844 -0.16973,-0.08192 -0.257813,-0.118167 a 11.000001,11.000001 0 0 0 -1.793943,-0.553223 c -0.09386,-0.0209 -0.184552,-0.04606 -0.279298,-0.06446 a 11.000001,11.000001 0 0 0 -2.105023,-0.21472 z m -0.02695,2.75 c -0.358149,0.14894 -0.711194,0.308797 -1.095702,0.429687 l -0.435058,0.68213 -0.34375,0.204105 -0.472657,-0.961428 a 8.2500011,8.2500011 0 0 1 2.34726,-0.354494 z m 0.649902,0.03223 a 8.2500011,8.2500011 0 0 1 0.435061,0.04835 l -0.182628,0.12353 -0.25245,-0.171875 z m 2.631838,0.63916 a 8.2500011,8.2500011 0 0 1 0.902343,0.461912 l 0.05907,0.161123 -0.198742,0.537111 -0.311526,-0.182628 -0.273927,-0.316893 -0.435058,0.316893 -0.145008,-0.719724 0.402834,-0.257813 z m -1.56299,0.128893 0.25245,0 c 0.125207,0.25982 0.22759,0.502535 0.327637,0.773437 l 0.311523,0.295411 -0.34375,0.349121 -0.472656,0.0913 0.0913,-0.585451 0,-0.445799 -0.166513,-0.182628 0,-0.29541 z m -6.133787,0.49951 0.02145,0.01623 -0.07518,0.349121 0.451173,-0.182628 0.204105,0.386722 -0.07518,0.273927 0.25245,0.07519 0.236335,0.22022 -0.06982,0.241698 0.290037,0.204106 -0.25245,0.402831 -0.112805,-0.569337 -0.580079,0.198744 -0.451171,0 -0.655272,0.316894 1.03662,0 -0.34912,0.515625 -0.6875,0.128892 -0.290041,0.445803 -0.542482,0.22022 -0.25245,0.644531 -0.730469,0.606933 -0.06982,0.886232 -0.418946,-0.53174 -0.381348,-0.08594 a 8.2500011,8.2500011 0 0 1 1.912111,-3.43213 l 0.03223,0.12353 0.128892,-0.290041 a 8.2500011,8.2500011 0 0 1 0.467287,-0.435059 l 0.06982,-0.03223 -0.0055,-0.02695 a 8.2500011,8.2500011 0 0 1 0.896973,-0.671387 z m 5.736326,0.0913 0.161123,0.424317 -0.381348,0.198742 -0.06982,-0.53174 0.29004,-0.0913 z m 3.405273,0.08057 a 8.2500011,8.2500011 0 0 1 3.550389,6.778333 8.2500011,8.2500011 0 0 1 -0.03223,0.596192 l -0.15576,0.161123 c 0.05024,-0.0036 0.100375,-0.01155 0.150398,-0.01622 a 8.2500011,8.2500011 0 0 1 -0.596192,2.422365 l -0.06446,0.150397 A 8.2500011,8.2500011 0 0 1 36.31835,46.01992 c -0.123365,-0.359064 -0.248435,-0.717059 -0.375975,-1.074218 0,-0.330919 0.01815,-0.646672 0.03759,-0.977539 l 0.198742,-0.461914 -0.273927,-0.537111 0.02145,-0.73584 -0.365233,-0.424316 0.182627,-0.628417 -0.306152,-0.34912 -0.531737,0 -0.177237,-0.204105 -0.52637,0.34912 -0.204105,-0.257812 -0.488768,0.424317 c -0.331702,-0.382404 -0.666834,-0.761913 -0.999023,-1.144044 l -0.39746,-0.939942 0.365233,-0.537108 -0.198743,-0.22022 0.413576,-1.036621 c 0.35272,-0.446179 0.733788,-0.87555 1.106446,-1.305177 l 0.655272,-0.18799 0.746581,-0.0913 0.504884,0.150397 0.725098,0.73584 0.257812,-0.295411 0.34375,-0.03759 0.671389,0.22022 0.504881,0 0.34375,-0.311523 0.166513,-0.241698 -0.34375,-0.22022 -0.601563,-0.03759 c -0.16269,-0.229515 -0.31173,-0.47822 -0.504882,-0.682129 l -0.182627,0.0913 -0.0913,0.590821 -0.34375,-0.402834 -0.07519,-0.4458 -0.397461,-0.333008 -0.161122,0 0.39746,0.461914 -0.166512,0.408205 -0.306152,0.0913 0.198742,-0.402834 -0.34375,-0.18799 -0.327635,-0.370606 -0.580079,0.150397 -0.06982,0.182628 -0.365236,0.225582 -0.182627,0.494142 -0.488769,0.241698 -0.22022,-0.241698 -0.236335,0 0,-0.811035 0.510255,-0.279296 0.381348,0 -0.07519,-0.311525 -0.306152,-0.316894 0.526366,-0.107415 0.29004,-0.333007 0.236335,-0.402834 0.435058,0 -0.12353,-0.316893 0.268565,-0.182628 0,0.349121 0.601563,0.150398 0.580076,-0.49951 0.03759,-0.22022 0.01073,-0.01073 z m 1.906742,4.769533 -0.12353,0.128892 0.182627,0.666017 0.322267,0.370604 c 0.189448,0.556146 0.390385,1.090466 0.639161,1.622071 0.13695,0 0.26422,-0.01265 0.39746,-0.02145 l -0.29004,-0.349116 0.161123,-0.386721 -0.322267,-0.370604 -0.531738,-1.144044 -0.435058,-0.515625 z m -14.81348,1.21924 0.118167,0 c -0.03823,0.305555 -0.09097,0.618216 -0.128892,0.923826 l 0.472656,-0.05907 0,0.478027 0.145007,0.4458 c 0.183893,0.114978 0.427254,0.12199 0.63379,0.182628 l 0,-0.0913 0.692871,-0.606934 0.655273,0.478027 0.741211,-0.0913 0.306155,0.832522 0.563964,0.128892 0.306152,0.606933 c 0.617791,0.323164 1.235969,0.647537 1.858398,0.961425 l -0.07519,0.660644 -0.456541,0.649904 0.07518,0.864747 -0.290037,0.703613 -0.58008,0.128892 -0.257812,0.402831 0.107415,0.257813 -0.161123,0.402833 a 8.2500011,8.2500011 0 0 1 -4.055166,-4.130367 l 0.118168,-0.424316 -0.07519,-0.161123 0.241697,-0.354491 0.284669,-0.827148 0,-0.07519 -0.214857,-0.112805 -0.311523,0.05371 -0.520996,-0.402833 -0.18799,-0.230945 a 8.2500011,8.2500011 0 0 1 -0.04826,-0.805682 8.2500011,8.2500011 0 0 1 0.04298,-0.789549 z"
       id="path6495" />
  </g>
</svg>
