<?xml version="1.0" encoding="UTF-8" standalone="no"?>
<svg
   version="1.1"
   width="64"
   height="64"
   id="svg22774"
   sodipodi:docname="user-desktop.svg"
   inkscape:version="1.1.2 (0a00cf5339, 2022-02-04)"
   xmlns:inkscape="http://www.inkscape.org/namespaces/inkscape"
   xmlns:sodipodi="http://sodipodi.sourceforge.net/DTD/sodipodi-0.dtd"
   xmlns:xlink="http://www.w3.org/1999/xlink"
   xmlns="http://www.w3.org/2000/svg"
   xmlns:svg="http://www.w3.org/2000/svg"
   xmlns:rdf="http://www.w3.org/1999/02/22-rdf-syntax-ns#"
   xmlns:cc="http://creativecommons.org/ns#"
   xmlns:dc="http://purl.org/dc/elements/1.1/">
  <sodipodi:namedview
     id="namedview47"
     pagecolor="#ffffff"
     bordercolor="#666666"
     borderopacity="1.0"
     inkscape:pageshadow="2"
     inkscape:pageopacity="0.0"
     inkscape:pagecheckerboard="0"
     showgrid="false"
     inkscape:zoom="9.921875"
     inkscape:cx="50.847244"
     inkscape:cy="43.993701"
     inkscape:window-width="1920"
     inkscape:window-height="1022"
     inkscape:window-x="0"
     inkscape:window-y="32"
     inkscape:window-maximized="1"
     inkscape:current-layer="svg22774" />
  <defs
     id="defs22776">
    <linearGradient
       id="linearGradient1096">
      <stop
         offset="0"
         style="stop-color:#ffffff;stop-opacity:1"
         id="stop1088" />
      <stop
         offset="0"
         style="stop-color:#ffffff;stop-opacity:0.23529412"
         id="stop1090" />
      <stop
         offset="1"
         style="stop-color:#ffffff;stop-opacity:0.15686275"
         id="stop1092" />
      <stop
         offset="1"
         style="stop-color:#ffffff;stop-opacity:0.39215687"
         id="stop1094" />
    </linearGradient>
    <linearGradient
       id="linearGradient960">
      <stop
         offset="0"
         style="stop-color:#fafafa;stop-opacity:1"
         id="stop956" />
      <stop
         offset="1"
         style="stop-color:#d4d4d4;stop-opacity:1"
         id="stop958" />
    </linearGradient>
    <linearGradient
       x1="97.538795"
       y1="17.21336"
       x2="97.538795"
       y2="44.027672"
       id="linearGradient5962"
       xlink:href="#linearGradient8272-8-8"
       gradientUnits="userSpaceOnUse"
       gradientTransform="matrix(1.3210282,0,0,1.2679796,-70.729885,0.17381034)" />
    <linearGradient
       id="linearGradient8272-8-8">
      <stop
         id="stop8274-4"
         style="stop-color:#ffffff;stop-opacity:1"
         offset="0" />
      <stop
         id="stop8276-5"
         style="stop-color:#ffffff;stop-opacity:0.23529412"
         offset="0.00000002" />
      <stop
         id="stop8278-0"
         style="stop-color:#ffffff;stop-opacity:0.15686275"
         offset="1" />
      <stop
         id="stop8280-5-9"
         style="stop-color:#ffffff;stop-opacity:0.39215687"
         offset="1" />
    </linearGradient>
    <linearGradient
       x1="-91"
       y1="43.999817"
       x2="-91"
       y2="119.05979"
       id="linearGradient5954"
       xlink:href="#linearGradient4632-0-6-4-4-4"
       gradientUnits="userSpaceOnUse"
       gradientTransform="matrix(0.50413225,0,0,0.49333391,73.843637,-1.4532897)" />
    <linearGradient
       id="linearGradient4632-0-6-4-4-4">
      <stop
         id="stop4634-4-4-7-4"
         style="stop-color:#efdfc4;stop-opacity:1"
         offset="0" />
      <stop
         id="stop4636-3-1-5-9"
         style="stop-color:#e7c591;stop-opacity:1"
         offset="1" />
    </linearGradient>
    <radialGradient
       cx="605.71429"
       cy="486.64789"
       r="117.14286"
       fx="605.71429"
       fy="486.64789"
       id="radialGradient5950"
       xlink:href="#linearGradient5060-820-8"
       gradientUnits="userSpaceOnUse"
       gradientTransform="matrix(-0.04016195,0,0,0.0329426,30.204677,40.92132)" />
    <linearGradient
       id="linearGradient5060-820-8">
      <stop
         id="stop2681-37"
         style="stop-color:#000000;stop-opacity:1"
         offset="0" />
      <stop
         id="stop2683-05"
         style="stop-color:#000000;stop-opacity:0"
         offset="1" />
    </linearGradient>
    <linearGradient
       x1="302.85715"
       y1="366.64789"
       x2="302.85715"
       y2="609.50507"
       id="linearGradient5946"
       xlink:href="#linearGradient5048-585-1"
       gradientUnits="userSpaceOnUse"
       gradientTransform="matrix(0.1076923,0,0,0.03294117,-6.9224153,40.92219)" />
    <linearGradient
       id="linearGradient5048-585-1">
      <stop
         id="stop2667-0"
         style="stop-color:#000000;stop-opacity:0"
         offset="0" />
      <stop
         id="stop2669-91"
         style="stop-color:#000000;stop-opacity:1"
         offset="0.5" />
      <stop
         id="stop2671-6"
         style="stop-color:#000000;stop-opacity:0"
         offset="1" />
    </linearGradient>
    <radialGradient
       cx="605.71429"
       cy="486.64789"
       r="117.14286"
       fx="605.71429"
       fy="486.64789"
       id="radialGradient5942"
       xlink:href="#linearGradient5060-820-8"
       gradientUnits="userSpaceOnUse"
       gradientTransform="matrix(0.04016195,0,0,0.0329426,33.796647,40.92132)" />
    <linearGradient
       x1="62.988873"
       y1="14.900026"
       x2="62.988873"
       y2="16.997795"
       id="linearGradient22772"
       xlink:href="#linearGradient960"
       gradientUnits="userSpaceOnUse"
       gradientTransform="matrix(1.3135526,0,0,1.2900554,-55.484955,-1.2218597)" />
    <linearGradient
       xlink:href="#linearGradient1096"
       id="linearGradient1086"
       gradientUnits="userSpaceOnUse"
       gradientTransform="matrix(1.3210282,0,0,1.2679796,-70.729885,0.17381034)"
       x1="97.446732"
       y1="11.692767"
       x2="97.538795"
       y2="44.027672" />
  </defs>
  <metadata
     id="metadata22779">
    <rdf:RDF>
      <cc:Work
         rdf:about="">
        <dc:format>image/svg+xml</dc:format>
        <dc:type
           rdf:resource="http://purl.org/dc/dcmitype/StillImage" />
      </cc:Work>
    </rdf:RDF>
  </metadata>
  <path
     style="opacity:1;vector-effect:none;fill:url(#linearGradient22772);fill-opacity:1;stroke:none;stroke-width:1.00000012;stroke-linecap:butt;stroke-linejoin:miter;stroke-miterlimit:4;stroke-dasharray:none;stroke-dashoffset:0;stroke-opacity:1;font-variant-east_asian:normal;marker:none"
     d="M 7.75 10 C 7.3345 10 7 10.3345 7 10.75 L 7 14 L 4.75 14 C 4.3345 14 4 14.3345 4 14.75 L 4 23.25 C 4 23.6655 4.3345 24 4.75 24 L 59.25 24 C 59.6655 24 60 23.6655 60 23.25 L 60 14.75 C 60 14.3345 59.6655 14 59.25 14 L 28 14 L 28 10.75 C 28 10.3345 27.6655 10 27.25 10 L 7.75 10 z "
     id="rect878" />
  <path
     style="opacity:0.5;vector-effect:none;fill:none;fill-opacity:1;stroke:#7e8087;stroke-width:0.99200022;stroke-linecap:square;stroke-linejoin:miter;stroke-miterlimit:4;stroke-dasharray:none;stroke-dashoffset:0;stroke-opacity:1"
     d="m 7.9960938,9.5039061 c -0.8310001,0 -1.5,0.6689999 -1.5,1.4999999 v 2.492188 h -1.5 c -0.831,0 -1.5,0.669 -1.5,1.5 v 8.007812 H 60.503906 v -8.007812 c 0,-0.831 -0.669,-1.5 -1.5,-1.5 h -30.5 v -2.492188 c 0,-0.831 -0.669,-1.4999999 -1.5,-1.4999999 z"
     id="rect878-6" />
  <path
     style="opacity:1;vector-effect:none;fill:none;fill-opacity:1;stroke:url(#linearGradient1086);stroke-width:0.99999988;stroke-linecap:round;stroke-linejoin:round;stroke-miterlimit:4;stroke-dasharray:none;stroke-dashoffset:0;stroke-opacity:1;marker:none;font-variant-east_asian:normal"
     d="m 8,10.5 c -0.277,0 -0.5,0.223 -0.5,0.5 v 3.5 H 5 c -0.277,0 -0.5,0.223 -0.5,0.5 v 13 h 55 V 15 c 0,-0.277 -0.223,-0.5 -0.5,-0.5 H 27.5 V 11 c 0,-0.277 -0.223,-0.5 -0.5,-0.5 z"
     id="rect962" />
  <path
     style="display:inline;overflow:visible;visibility:visible;opacity:0.3;fill:url(#radialGradient5942);fill-opacity:1;fill-rule:nonzero;stroke:none;stroke-width:1;marker:none"
     id="path3411"
     d="m 58.000667,52.99993 c 0,0 0,7.99991 0,7.99991 2.06824,0.0151 5,-1.79238 5,-4.00047 0,-2.2081 -2.308,-3.99944 -5,-3.99944 z" />
  <rect
     style="display:inline;overflow:visible;visibility:visible;opacity:0.3;fill:url(#linearGradient5946);fill-opacity:1;fill-rule:nonzero;stroke:none;stroke-width:1;marker:none"
     id="rect4173-14"
     y="53"
     x="6.000669"
     height="8"
     width="52" />
  <path
     style="display:inline;overflow:visible;visibility:visible;opacity:0.3;fill:url(#radialGradient5950);fill-opacity:1;fill-rule:nonzero;stroke:none;stroke-width:1;marker:none"
     id="path5018-7"
     d="m 6.0006657,52.99993 c 0,0 0,7.99991 0,7.99991 -2.06825,0.0151 -5,-1.79238 -5,-4.00047 0,-2.2081 2.308,-3.99944 5,-3.99944 z" />
  <path
     style="opacity:1;vector-effect:none;fill:url(#linearGradient5954);fill-opacity:1;stroke:#987124;stroke-width:0.99999982;stroke-linecap:butt;stroke-linejoin:miter;stroke-miterlimit:4;stroke-dasharray:none;stroke-dashoffset:0;stroke-opacity:0.49803922;marker:none;font-variant-east_asian:normal"
     d="m 3,20.5 c -0.8310001,0 -1.5404694,0.564096 -1.5,1.261719 l 2,34.476562 C 3.5404694,56.935904 4.1689999,57.5 5,57.5 h 54 c 0.831,0 1.459531,-0.564096 1.5,-1.261719 l 2,-34.476562 C 62.540469,21.064096 61.831,20.5 61,20.5 Z"
     id="rect980" />
  <path
     style="opacity:0.5;vector-effect:none;fill:none;fill-opacity:1;stroke:url(#linearGradient5962);stroke-width:0.99999988;stroke-linecap:round;stroke-linejoin:round;stroke-miterlimit:4;stroke-dasharray:none;stroke-dashoffset:0;stroke-opacity:1;marker:none;font-variant-east_asian:normal"
     d="m 3,21.5 c -0.277,0 -0.5134886,0.185576 -0.5,0.416016 l 2,34.167968 C 4.5134886,56.314424 4.723,56.5 5,56.5 h 54 c 0.277,0 0.486511,-0.185576 0.5,-0.416016 l 2,-34.167968 C 61.513489,21.685576 61.277,21.5 61,21.5 Z"
     id="rect1023" />
  <g
     id="g1365"
     transform="translate(-25.743385,0.22502708)">
    <path
       inkscape:connector-curvature="0"
       d="m 47.511527,30.623686 c -0.966774,0 -1.744935,0.778174 -1.744935,1.744941 v 15.473265 c 0,0.966769 0.778161,1.744941 1.744935,1.744941 h 20.463719 c 0.966772,0 1.744949,-0.778172 1.744931,-1.744941 V 32.368627 c 0,-0.966767 -0.778159,-1.744941 -1.744931,-1.744941 z m 0.389973,1.331007 a 0.91489593,0.91489593 0 0 1 0.914694,0.914758 0.91489593,0.91489593 0 0 1 -0.914694,0.914671 0.91489593,0.91489593 0 0 1 -0.915314,-0.914671 0.91489593,0.91489593 0 0 1 0.915314,-0.914758 z m -0.02756,2.772237 h 19.739499 c 0.491507,0 0.887162,0.395652 0.887162,0.887158 v 11.921168 c 0,0.491415 -0.395655,0.887157 -0.887162,0.887157 H 66.39145 c 0.06985,-0.09292 0.112581,-0.206966 0.112581,-0.332549 v -3.216083 c 0,-0.307257 -0.246912,-0.554162 -0.554097,-0.554162 H 49.53681 c -0.30717,0 -0.554083,0.246905 -0.554083,0.554162 v 3.216083 c 0,0.125581 0.04273,0.239718 0.11258,0.332549 h -1.22141 c -0.491491,0 -0.887147,-0.395742 -0.887147,-0.887157 V 35.614088 c 0,-0.491506 0.395656,-0.887158 0.887161,-0.887158 z"
       id="path1165"
       style="opacity:0.3;fill:#ffffff;fill-opacity:1;stroke-width:0.88751" />
    <path
       inkscape:connector-curvature="0"
       d="m 47.511527,29.831418 c -0.966774,0 -1.744935,0.778174 -1.744935,1.744941 v 15.473265 c 0,0.966769 0.778161,1.744941 1.744935,1.744941 h 20.463719 c 0.966772,0 1.744949,-0.778172 1.744931,-1.744941 V 31.576359 c 0,-0.966767 -0.778159,-1.744941 -1.744931,-1.744941 z m 0.389973,1.331007 a 0.91489593,0.91489593 0 0 1 0.914694,0.914758 0.91489593,0.91489593 0 0 1 -0.914694,0.914671 0.91489593,0.91489593 0 0 1 -0.915314,-0.914671 0.91489593,0.91489593 0 0 1 0.915314,-0.914758 z m -0.02756,2.772237 h 19.739499 c 0.491507,0 0.887162,0.395652 0.887162,0.887158 v 11.921168 c 0,0.491415 -0.395655,0.887157 -0.887162,0.887157 H 66.39145 c 0.06985,-0.09292 0.112581,-0.206966 0.112581,-0.332549 v -3.216083 c 0,-0.307257 -0.246912,-0.554162 -0.554097,-0.554162 H 49.53681 c -0.30717,0 -0.554083,0.246905 -0.554083,0.554162 v 3.216083 c 0,0.125581 0.04273,0.239718 0.11258,0.332549 h -1.22141 c -0.491491,0 -0.887147,-0.395742 -0.887147,-0.887157 V 34.82182 c 0,-0.491506 0.395656,-0.887158 0.887161,-0.887158 z"
       id="path1088-3-3"
       style="opacity:0.6;fill:#7e5514;fill-opacity:0.972549;stroke-width:0.88751" />
  </g>
</svg>
